<svg xmlns="http://www.w3.org/2000/svg" width="20" height="21" viewBox="0 0 20 21" fill="none"><g id="005-wireless router" clip-path="url(#clip0_2787_2119)"><g id="Page-1"><g id="005---Modem"><path id="Shape" d="M4.66535 17.168H3.99869C3.6305 17.168 3.33203 17.4664 3.33203 17.8346V18.5013C3.33203 18.8695 3.6305 19.1679 3.99869 19.1679H4.66535C5.03353 19.1679 5.33201 18.8695 5.33201 18.5013V17.8346C5.33201 17.4664 5.03353 17.168 4.66535 17.168ZM3.99869 18.5013V17.8346H4.66535V18.5013H3.99869Z"></path><path id="Shape_2" d="M7.33332 17.168H6.66666C6.29847 17.168 6 17.4664 6 17.8346V18.5013C6 18.8695 6.29847 19.1679 6.66666 19.1679H7.33332C7.7015 19.1679 7.99998 18.8695 7.99998 18.5013V17.8346C7.99998 17.4664 7.7015 17.168 7.33332 17.168ZM6.66666 18.5013V17.8346H7.33332V18.5013H6.66666Z"></path><path id="Shape_3" d="M10.0013 17.168H9.33463C8.96644 17.168 8.66797 17.4664 8.66797 17.8346V18.5013C8.66797 18.8695 8.96644 19.1679 9.33463 19.1679H10.0013C10.3695 19.1679 10.6679 18.8695 10.6679 18.5013V17.8346C10.6679 17.4664 10.3695 17.168 10.0013 17.168ZM9.33463 18.5013V17.8346H10.0013V18.5013H9.33463Z"></path><path id="Shape_4" d="M12.6653 17.168H11.9987C11.6305 17.168 11.332 17.4664 11.332 17.8346V18.5013C11.332 18.8695 11.6305 19.1679 11.9987 19.1679H12.6653C13.0335 19.1679 13.332 18.8695 13.332 18.5013V17.8346C13.332 17.4664 13.0335 17.168 12.6653 17.168ZM11.9987 18.5013V17.8346H12.6653V18.5013H11.9987Z"></path><path id="Shape_5" d="M7.33333 10.4987H9.3333C9.5174 10.4987 9.66663 10.3495 9.66663 10.1654C9.66663 9.98127 9.5174 9.83203 9.3333 9.83203H7.33333C7.14924 9.83203 7 9.98127 7 10.1654C7 10.3495 7.14924 10.4987 7.33333 10.4987Z"></path><path id="Shape_6" d="M9.00129 11.1654C9.00129 10.9813 8.85205 10.832 8.66796 10.832H8.0013C7.81721 10.832 7.66797 10.9813 7.66797 11.1654C7.66797 11.3495 7.81721 11.4987 8.0013 11.4987H8.66796C8.85205 11.4987 9.00129 11.3495 9.00129 11.1654Z"></path><path id="Shape_7" d="M18.6844 0.500033H18.6484C18.104 0.495675 17.6566 0.928439 17.6428 1.47269L17.4055 10.1666H16.6665C16.6654 9.24657 15.9198 8.50104 14.9998 8.49993H1.66665C0.74664 8.50104 0.00110203 9.24657 0 10.1666V18.8331C0.00110203 19.7531 0.74664 20.4987 1.66665 20.4998H14.9998C15.9198 20.4987 16.6654 19.7531 16.6665 18.8331V12.8332H17.3331C17.3331 13.0103 17.4036 13.1801 17.529 13.3052C17.6544 13.4303 17.8244 13.5003 18.0014 13.4999H19.3288C19.5095 13.5011 19.683 13.4289 19.8095 13.2999C19.936 13.1708 20.0046 12.9959 19.9998 12.8152L19.6901 1.47302C19.6765 0.928642 19.229 0.495679 18.6844 0.500033ZM15.9998 18.8331C15.9998 19.3854 15.5521 19.8331 14.9998 19.8331H1.66665C1.11437 19.8331 0.666659 19.3854 0.666659 18.8331V10.1666C0.666659 9.6143 1.11437 9.16659 1.66665 9.16659H14.9998C15.5521 9.16659 15.9998 9.6143 15.9998 10.1666V18.8331ZM16.6665 10.8332H17.3871L17.3508 12.1666H16.6665V10.8332ZM17.9998 12.8332L18.3094 1.49102C18.3144 1.30823 18.4656 1.16352 18.6484 1.16669H18.6844C18.8673 1.16352 19.0185 1.30823 19.0234 1.49102L19.3301 12.8332H17.9998Z"></path><path id="Shape_8" d="M3.59472 4.55685C4.73136 3.11875 6.46362 2.27989 8.29666 2.27989C10.1297 2.27989 11.862 3.11875 12.9986 4.55685C13.1143 4.69635 13.3202 4.71788 13.4623 4.60531C13.6043 4.49274 13.6303 4.28733 13.5209 4.14285C12.2578 2.54518 10.3331 1.61328 8.2965 1.61328C6.25985 1.61328 4.33515 2.54518 3.07206 4.14285C2.95774 4.28718 2.98207 4.49686 3.12639 4.61118C3.27072 4.7255 3.4804 4.70117 3.59472 4.55685Z"></path><path id="Shape_9" d="M11.4348 5.79644C11.5087 5.8904 11.6272 5.93763 11.7454 5.92025C11.8636 5.90287 11.9635 5.82353 12.0072 5.7123C12.0508 5.60106 12.0316 5.47496 11.9568 5.38178C11.0717 4.26465 9.72451 3.61328 8.2992 3.61328C6.8739 3.61328 5.52674 4.26465 4.64158 5.38178C4.52824 5.52599 4.5527 5.73467 4.69632 5.84876C4.83994 5.96284 5.04874 5.93946 5.16357 5.79644C5.92226 4.83851 7.07722 4.27992 8.2992 4.27992C9.52119 4.27992 10.6761 4.83851 11.4348 5.79644Z"></path><path id="Shape_10" d="M8.29661 5.61331C7.48088 5.6101 6.70959 5.98461 6.20764 6.62763C6.09405 6.77278 6.11964 6.98254 6.2648 7.09612C6.40996 7.20971 6.61971 7.18411 6.7333 7.03896C7.11095 6.55971 7.68745 6.28002 8.29761 6.28002C8.90777 6.28002 9.48427 6.55971 9.86192 7.03896C9.9354 7.13268 10.0533 7.18008 10.1712 7.16331C10.2891 7.14654 10.3891 7.06814 10.4335 6.95764C10.478 6.84715 10.4601 6.72135 10.3866 6.62763C9.88442 5.98433 9.11269 5.60979 8.29661 5.61331Z"></path></g></g></g><defs><clipPath id="clip0_2787_2119"><rect width="20" height="20" fill="white" transform="translate(0 0.5)"></rect></clipPath></defs></svg>