<svg xmlns="http://www.w3.org/2000/svg" width="70" height="60" viewBox="0 0 70 60" fill="none"><rect width="70" height="60" fill="#E5E5E5"></rect><g id="01_Home" clip-path="url(#clip0_4424_16994)"><rect width="1920" height="10589" transform="translate(-355 -1758)" fill="#F9F7F7"></rect><g id="Service"><g id="Group 8834"><rect id="Rectangle 2415" x="-39.5" y="-39.5" width="409" height="416" rx="4.5" fill="white" stroke="#E3E3E3"></rect><g id="Page-1"><g id="028---Wifi-Camera"><path id="Shape" d="M5.76999 59.998H54.2379C57.423 59.9941 60.0041 57.4131 60.0079 54.228V21.916C60.0079 21.8076 59.9998 21.7049 59.994 21.601C60.9978 18.9233 59.8793 15.9151 57.37 14.5437C54.8607 13.1723 51.7248 13.8553 50.0131 16.146H41.994C41.51 16.1464 41.0763 15.8473 40.9046 15.3948L39.1298 10.6634C38.2875 8.4107 36.1364 6.91665 33.7314 6.91406H26.2765C23.8724 6.91761 21.7224 8.41149 20.8804 10.6634L19.1067 15.3856C18.9371 15.8424 18.5013 16.1457 18.0139 16.146H16.156V14.992C16.156 13.08 14.606 11.5301 12.694 11.5301H8.07799C6.16598 11.5301 4.61599 13.08 4.61599 14.992V16.2614C1.93131 16.8136 0.00346002 19.1752 0 21.916V54.228C0.00381526 57.4131 2.58489 59.9941 5.76999 59.998ZM54.5991 16.146C56.5111 16.146 58.0611 17.696 58.0611 19.608C58.0611 21.52 56.5111 23.07 54.5991 23.07C52.6871 23.07 51.1371 21.52 51.1371 19.608C51.1371 17.696 52.6871 16.146 54.5991 16.146ZM6.92399 14.992C6.92399 14.3547 7.44065 13.838 8.07799 13.838H12.694C13.3313 13.838 13.848 14.3547 13.848 14.992V16.146H6.92399V14.992ZM2.308 21.916C2.308 20.004 3.85798 18.454 5.76999 18.454H18.0139C19.4608 18.4577 20.7573 17.5611 21.2647 16.2061L23.0442 11.4689C23.5372 10.1111 24.832 9.21106 26.2765 9.22206H33.7314C35.1767 9.21311 36.471 10.1154 36.9626 11.4747L38.7432 16.2141C39.2532 17.566 40.5491 18.4589 41.994 18.454H48.9468C48.4761 20.7244 49.4145 23.0555 51.3269 24.3666C53.2393 25.6776 55.7519 25.7124 57.6999 24.4548V54.228C57.6999 56.14 56.1499 57.69 54.2379 57.69H9.23198V32.302C9.23198 31.6647 8.71532 31.148 8.07799 31.148C7.44065 31.148 6.92399 31.6647 6.92399 32.302V57.69H5.76999C3.85798 57.69 2.308 56.14 2.308 54.228V21.916Z"></path><path id="Shape_2" d="M27.6964 18.4552H32.3124C34.2244 18.4552 35.7744 16.9053 35.7744 14.9932C35.7744 13.0812 34.2244 11.5312 32.3124 11.5312H27.6964C25.7844 11.5312 24.2344 13.0812 24.2344 14.9932C24.2344 16.9053 25.7844 18.4552 27.6964 18.4552ZM27.6964 13.8392H32.3124C32.9497 13.8392 33.4664 14.3559 33.4664 14.9932C33.4664 15.6306 32.9497 16.1472 32.3124 16.1472H27.6964C27.059 16.1472 26.5424 15.6306 26.5424 14.9932C26.5424 14.3559 27.059 13.8392 27.6964 13.8392Z"></path><path id="Shape_3" d="M30.0053 55.3817C39.5653 55.3817 47.3152 47.6317 47.3152 38.0717C47.3152 28.5117 39.5653 20.7617 30.0053 20.7617C20.4452 20.7617 12.6953 28.5117 12.6953 38.0717C12.7061 47.6272 20.4497 55.3708 30.0053 55.3817ZM30.0053 23.0697C38.2906 23.0697 45.0073 29.7863 45.0073 38.0717C45.0073 46.357 38.2906 53.0737 30.0053 53.0737C21.7199 53.0737 15.0033 46.357 15.0033 38.0717C15.0128 29.7903 21.7239 23.0793 30.0053 23.0697Z"></path><path id="Shape_4" d="M30.0026 50.7708C37.0133 50.7708 42.6965 45.0875 42.6965 38.0768C42.6965 31.0661 37.0133 25.3828 30.0026 25.3828C22.9919 25.3828 17.3086 31.0661 17.3086 38.0768C17.3169 45.0841 22.9953 50.7625 30.0026 50.7708ZM30.0026 27.6908C35.7386 27.6908 40.3886 32.3408 40.3886 38.0768C40.3886 43.8128 35.7386 48.4628 30.0026 48.4628C24.2666 48.4628 19.6166 43.8128 19.6166 38.0768C19.6229 32.3434 24.2692 27.6972 30.0026 27.6908Z"></path><path id="Shape_5" d="M8.07978 28.8426C8.71711 28.8426 9.23378 28.3259 9.23378 27.6886V25.3806C9.23378 24.7432 8.71711 24.2266 8.07978 24.2266C7.44244 24.2266 6.92578 24.7432 6.92578 25.3806V27.6886C6.92578 28.3259 7.44244 28.8426 8.07978 28.8426Z"></path><path id="Shape_6" d="M54.5991 0.000187126C49.1594 -0.0230414 43.9588 2.23424 40.2607 6.2237C39.9789 6.52487 39.8792 6.9535 39.9991 7.34813C40.119 7.74276 40.4404 8.04343 40.8421 8.13689C41.2438 8.23034 41.6649 8.10239 41.9467 7.80121C45.2083 4.28051 49.7964 2.28809 54.5957 2.30818C59.3922 2.2861 63.9787 4.27461 67.2412 7.79083C67.6765 8.2564 68.4068 8.28094 68.8724 7.84564C69.3379 7.41034 69.3625 6.68004 68.9272 6.21447C65.2306 2.23014 60.0341 -0.0236463 54.5991 0.000187126Z"></path><path id="Shape_7" d="M64.3923 10.972C64.859 10.9719 65.2796 10.6907 65.4582 10.2596C65.6368 9.82844 65.5381 9.33217 65.2082 9.00214C59.3466 3.15033 49.8535 3.15033 43.9919 9.00214C43.5546 9.45494 43.5608 10.1747 44.006 10.6198C44.4511 11.065 45.1709 11.0712 45.6237 10.6339C50.5842 5.68372 58.6159 5.68372 63.5764 10.6339C63.7928 10.8503 64.0863 10.9719 64.3923 10.972Z"></path><path id="Shape_8" d="M47.2547 12.2673C46.9547 12.557 46.8344 12.986 46.94 13.3895C47.0456 13.793 47.3607 14.1081 47.7642 14.2137C48.1676 14.3193 48.5967 14.199 48.8864 13.899C52.0435 10.7497 57.1539 10.7497 60.311 13.899C60.6007 14.199 61.0298 14.3193 61.4333 14.2137C61.8367 14.1081 62.1518 13.793 62.2575 13.3895C62.3631 12.986 62.2428 12.557 61.9428 12.2673C57.8839 8.21821 51.3136 8.21821 47.2547 12.2673Z"></path><path id="Shape_9" d="M24.2338 38.0734C24.2328 37.1399 24.4602 36.2204 24.8962 35.395C25.1951 34.8319 24.9809 34.1331 24.4178 33.8342C23.8548 33.5353 23.156 33.7494 22.8571 34.3125C22.2451 35.4716 21.9254 36.7627 21.9258 38.0734C21.9258 38.7107 22.4424 39.2274 23.0798 39.2274C23.7171 39.2274 24.2338 38.7107 24.2338 38.0734Z"></path><path id="Shape_10" d="M27.7656 32.6734C27.8932 32.6735 28.0199 32.6524 28.1407 32.6111C28.7404 32.4055 29.3703 32.3017 30.0044 32.3041C30.6417 32.3041 31.1584 31.7874 31.1584 31.1501C31.1584 30.5128 30.6417 29.9961 30.0044 29.9961C29.1148 29.9942 28.2311 30.1401 27.3894 30.4277C26.8553 30.6107 26.5321 31.1533 26.6253 31.7101C26.7186 32.2669 27.201 32.6744 27.7656 32.6734Z"></path></g></g></g></g></g><defs><clipPath id="clip0_4424_16994"><rect width="1920" height="10589" fill="white" transform="translate(-355 -1758)"></rect></clipPath></defs></svg>