<svg xmlns="http://www.w3.org/2000/svg" width="64" height="60" viewBox="0 0 64 60" fill="none"><path d="M20 35.7884C20 39.2765 22.8277 42.1042 26.3158 42.1042C29.8039 42.1042 32.6315 39.2765 32.6315 35.7884C32.6315 32.3003 29.8039 29.4727 26.3158 29.4727C22.8291 29.4761 20.0035 32.3018 20 35.7884ZM30.5263 35.7884C30.5263 38.1138 28.6412 39.9989 26.3158 39.9989C23.9904 39.9989 22.1053 38.1138 22.1053 35.7884C22.1053 33.463 23.9904 31.5779 26.3158 31.5779C28.6412 31.5779 30.5263 33.463 30.5263 35.7884Z"></path><path d="M35.9912 29.2693C37.2683 29.269 38.4194 28.4996 38.9081 27.3198C39.3968 26.1399 39.1267 24.7819 38.2238 23.8788C31.6432 17.3112 20.9877 17.3112 14.4071 23.8788C13.1908 25.1147 13.1987 27.1002 14.4247 28.3264C15.6507 29.5527 17.6361 29.561 18.8723 28.3451C22.9862 24.2419 29.6447 24.2419 33.7586 28.3451C34.3496 28.9388 35.1535 29.2716 35.9912 29.2693ZM17.3839 26.8556C16.9729 27.2665 16.3065 27.2665 15.8955 26.8556C15.4853 26.4447 15.4853 25.7792 15.8955 25.3682C21.6543 19.6212 30.9787 19.6212 36.7375 25.3682C37.1485 25.7793 37.1485 26.4456 36.7375 26.8567C36.3212 27.2547 35.6654 27.2547 35.2491 26.8567C30.3131 21.9317 22.322 21.9317 17.386 26.8567L17.3839 26.8556Z"></path><path d="M40.4554 21.6459C41.2483 22.4668 42.4224 22.7961 43.5265 22.5071C44.6306 22.2181 45.4928 21.3558 45.7818 20.2517C46.0708 19.1476 45.7416 17.9735 44.9207 17.1807C34.6372 6.91895 17.9874 6.91895 7.70395 17.1807C6.48769 18.4166 6.49554 20.4021 7.72154 21.6283C8.94753 22.8546 10.933 22.8629 12.1692 21.647C19.9859 13.8499 32.6382 13.8495 40.4554 21.6459ZM10.6808 20.1575C10.2697 20.5684 9.60342 20.5684 9.19237 20.1575C8.78214 19.7466 8.78214 19.0811 9.19237 18.6701C18.6538 9.23027 33.9709 9.23027 43.4323 18.6701C43.8432 19.0812 43.8432 19.7475 43.4323 20.1586C43.016 20.5566 42.3601 20.5566 41.9439 20.1586C33.305 11.5394 19.3196 11.5394 10.6808 20.1586V20.1575Z"></path><path d="M26.315 0.000172913C16.7943 -0.0289869 7.65591 3.74391 0.928796 10.4812C0.334262 11.0727 0 11.8767 0 12.7154C0 13.554 0.334262 14.3581 0.928796 14.9496C2.16698 16.1782 4.16428 16.1782 5.40247 14.9496C16.9688 3.43708 35.6645 3.43708 47.2308 14.9496C48.029 15.7486 49.1928 16.061 50.2838 15.7692C51.3748 15.4774 52.2273 14.6257 52.5201 13.535C52.8129 12.4443 52.5016 11.2802 51.7034 10.4812C44.9757 3.74349 35.8365 -0.0294316 26.315 0.000172913ZM50.216 13.4591C49.7955 13.8587 49.1355 13.8587 48.715 13.4591C36.3267 1.12936 16.3034 1.12936 3.9151 13.4591C3.49936 13.8716 2.82874 13.8716 2.413 13.4591C2.21534 13.2625 2.1042 12.9952 2.1042 12.7165C2.1042 12.4377 2.21534 12.1704 2.413 11.9738C15.6317 -1.18252 36.9973 -1.18252 50.216 11.9738C50.6255 12.3846 50.6255 13.0483 50.216 13.4591Z"></path><path d="M48.7639 59.8734C49.2228 60.0433 49.7272 60.0433 50.186 59.8734C61.8965 55.5229 63.0723 41.8956 63.1597 37.8198C63.1802 37.1485 62.9069 36.5015 62.4113 36.0482C61.9761 35.6555 61.392 35.4708 60.8102 35.5419C57.0505 36.155 53.2837 34.4888 51.2081 31.2946C50.8349 30.7004 50.1824 30.3398 49.4808 30.3398C48.7791 30.3398 48.1267 30.7004 47.7534 31.2946C45.678 34.489 41.9111 36.1553 38.1513 35.5419C37.5694 35.4702 36.9851 35.655 36.5503 36.0482C36.0546 36.5015 35.7813 37.1485 35.8019 37.8198C35.8787 41.8956 37.0545 55.5229 48.7639 59.8734ZM37.904 37.6325C42.4331 38.3182 46.9459 36.2979 49.4513 32.463C51.9608 36.2923 56.4738 38.3055 60.9997 37.6146C61.0371 37.6603 61.0549 37.7189 61.0492 37.7777C60.9744 41.5124 59.9176 53.9935 49.4755 57.8956C39.0334 54.0008 37.9766 41.5167 37.9019 37.7819C37.8966 37.6967 37.925 37.6472 37.904 37.6325Z"></path><path d="M47.676 51.2694C47.8734 51.4668 48.1411 51.5777 48.4202 51.5778C48.4553 51.5799 48.4904 51.5799 48.5255 51.5778C48.839 51.5467 49.1222 51.3767 49.2971 51.1146L55.6128 41.641C55.9355 41.1573 55.805 40.5036 55.3213 40.181C54.8376 39.8583 54.1839 39.9889 53.8613 40.4726L48.2571 48.8725L46.0066 46.6231C45.5935 46.2242 44.937 46.2299 44.531 46.6359C44.1249 47.0419 44.1192 47.6985 44.5181 48.1115L47.676 51.2694Z"></path></svg>