<svg xmlns="http://www.w3.org/2000/svg" width="61" height="60" viewBox="0 0 61 60" fill="none"><path d="M30.0282 25.0174C33.8926 25.0174 37.0252 21.8848 37.0252 18.0204C37.0252 14.1561 33.8926 11.0234 30.0282 11.0234C26.1639 11.0234 23.0312 14.1561 23.0312 18.0204C23.0357 21.8829 26.1657 25.013 30.0282 25.0174ZM30.0282 13.0226C32.7885 13.0226 35.0261 15.2602 35.0261 18.0204C35.0261 20.7807 32.7885 23.0183 30.0282 23.0183C27.268 23.0183 25.0304 20.7807 25.0304 18.0204C25.0337 15.2616 27.2694 13.0259 30.0282 13.0226Z"></path><path d="M30.03 21.0169C31.6861 21.0169 33.0287 19.6744 33.0287 18.0182C33.0287 16.3621 31.6861 15.0195 30.03 15.0195C28.3738 15.0195 27.0312 16.3621 27.0312 18.0182C27.0312 19.6744 28.3738 21.0169 30.03 21.0169ZM30.03 17.0187C30.582 17.0187 31.0295 17.4662 31.0295 18.0182C31.0295 18.5703 30.582 19.0178 30.03 19.0178C29.4779 19.0178 29.0304 18.5703 29.0304 18.0182C29.0304 17.4662 29.4779 17.0187 30.03 17.0187Z"></path><path d="M50.0249 20.0172C50.0373 9.8815 42.4625 1.34044 32.3979 0.141697C22.3333 -1.05705 12.9643 5.46591 10.5957 15.321C8.22704 25.176 13.6084 35.2442 23.1185 38.7501L14.2283 51.0368C13.3608 52.2291 13.4924 53.8758 14.5382 54.9152L18.7454 59.1214C19.3062 59.6858 20.0697 60.0023 20.8655 60H39.2016C39.9973 60.0023 40.7608 59.6858 41.3216 59.1214L45.5268 54.9152C46.5724 53.8753 46.7039 52.2285 45.8367 51.0358L36.9485 38.7501C44.7964 35.8554 50.0132 28.3819 50.0249 20.0172ZM39.0296 4.45989V18.0181C39.0296 22.9865 35.0019 27.0142 30.0335 27.0142C25.0651 27.0142 21.0374 22.9865 21.0374 18.0181V4.45989C26.5954 1.21337 33.4716 1.21337 39.0296 4.45989ZM12.0413 20.0172C12.0456 14.4522 14.63 9.20379 19.0382 5.80731V18.0181C19.0382 24.0906 23.961 29.0133 30.0335 29.0133C36.106 29.0133 41.0288 24.0906 41.0288 18.0181V5.80731C45.5595 9.29448 48.1565 14.7325 48.0209 20.4482C47.8852 26.1639 45.0331 31.4726 40.3421 34.7409C37.2275 32.8879 33.6569 31.9427 30.0335 32.012C26.4101 31.9427 22.8395 32.8879 19.7249 34.7409C14.9135 31.3818 12.0451 25.8852 12.0413 20.0172ZM30.0335 38.0095C27.115 38.0103 24.2408 37.2961 21.6621 35.9293C24.2612 34.6358 27.1305 33.9783 30.0335 34.0112C32.9365 33.9783 35.8058 34.6358 38.4049 35.9293C35.8262 37.2961 32.952 38.0103 30.0335 38.0095ZM39.9083 57.708C39.7203 57.8946 39.4664 57.9998 39.2016 58.0009H20.8655C20.6006 57.9998 20.3467 57.8946 20.1588 57.708L16.4534 54.0026H43.6137L39.9083 57.708ZM44.0695 52.0034H15.9975L25.1356 39.3759C28.3464 40.2192 31.7206 40.2192 34.9314 39.3759L44.0695 52.0034Z"></path><path d="M27.0312 49.0074C27.0312 49.5594 27.4788 50.007 28.0308 50.007H32.0291C32.5811 50.007 33.0287 49.5594 33.0287 49.0074C33.0287 48.4553 32.5811 48.0078 32.0291 48.0078H28.0308C27.4788 48.0078 27.0312 48.4553 27.0312 49.0074Z"></path><path d="M3.50755 11.5384C-1.16918 16.2256 -1.16918 23.8139 3.50755 28.5011C3.89976 28.8799 4.5232 28.8745 4.90877 28.4889C5.29434 28.1034 5.29975 27.4799 4.92094 27.0877C1.02243 23.1821 1.02243 16.8574 4.92094 12.9518C5.29975 12.5596 5.29434 11.9361 4.90877 11.5506C4.5232 11.165 3.89976 11.1596 3.50755 11.5384Z"></path><path d="M7.74764 14.363C7.3573 13.9728 6.72458 13.9728 6.33425 14.363C3.21671 17.4881 3.21671 22.5469 6.33425 25.6721C6.58521 25.9319 6.95686 26.0362 7.30633 25.9447C7.65581 25.8532 7.92874 25.5803 8.02022 25.2308C8.11169 24.8813 8.00748 24.5097 7.74764 24.2587C5.40943 21.9147 5.40943 18.1204 7.74764 15.7764C8.13785 15.386 8.13785 14.7533 7.74764 14.363Z"></path><path d="M55.0982 27.0877C54.8383 27.3387 54.7341 27.7103 54.8256 28.0598C54.917 28.4093 55.19 28.6822 55.5395 28.7737C55.8889 28.8652 56.2606 28.7609 56.5115 28.5011C61.1883 23.8139 61.1883 16.2256 56.5115 11.5384C56.1193 11.1596 55.4959 11.165 55.1103 11.5506C54.7248 11.9361 54.7193 12.5596 55.0982 12.9518C58.9967 16.8574 58.9967 23.1821 55.0982 27.0877Z"></path><path d="M52.2692 25.6718C52.6596 26.062 53.2923 26.062 53.6826 25.6718C56.8001 22.5466 56.8001 17.4878 53.6826 14.3626C53.2904 13.9838 52.667 13.9892 52.2814 14.3748C51.8958 14.7604 51.8904 15.3838 52.2692 15.776C54.6074 18.1201 54.6074 21.9143 52.2692 24.2584C51.879 24.6487 51.879 25.2814 52.2692 25.6718Z"></path></svg>