<svg xmlns="http://www.w3.org/2000/svg" width="80" height="80" viewBox="0 0 80 80" fill="none"><path d="M2.909 17.9778C0.874704 20.0603 0.885953 23.3893 2.93427 25.458C4.9826 27.5267 8.31131 27.5709 10.4138 25.5574C26.8314 9.40862 53.1656 9.40862 69.5832 25.5574C70.9296 26.9357 72.9147 27.4807 74.7762 26.9831C76.6377 26.4856 78.0861 25.0227 78.5652 23.1564C79.0443 21.2901 78.4797 19.3105 77.0881 17.9778C56.5063 -2.26865 23.4908 -2.26865 2.909 17.9778ZM76.0026 21.7543C76.0081 22.462 75.73 23.1424 75.2305 23.6438C74.1802 24.6562 72.5197 24.6645 71.4594 23.6625C54.0002 6.49073 25.9969 6.49073 8.53764 23.6625C7.49075 24.6987 5.80208 24.69 4.76588 23.6431C3.72967 22.5963 3.73833 20.9076 4.78521 19.8714C24.3268 0.651481 55.6702 0.651481 75.2119 19.8714C75.7169 20.3678 76.0018 21.0461 76.0026 21.7543Z"></path><path d="M63.8101 37.8713C65.9725 37.8714 67.9211 36.5659 68.7435 34.566C69.5659 32.566 69.0995 30.2674 67.5625 28.7463C52.2665 13.6992 27.7296 13.6992 12.4336 28.7463C10.9 30.264 10.4319 32.5562 11.2475 34.5537C12.0631 36.5512 14.0018 37.8607 16.1594 37.8713H16.1874C17.5934 37.8744 18.9431 37.3189 19.9398 36.3271C31.0701 25.3766 48.926 25.3766 60.0563 36.3271C61.0535 37.3189 62.4037 37.8743 63.8101 37.8713ZM18.0622 34.4323C17.564 34.9282 16.8891 35.2059 16.186 35.2043H16.1727C15.0929 35.2009 14.1217 34.5467 13.7128 33.5472C13.3039 32.5478 13.538 31.4005 14.3058 30.6412C28.5608 16.6185 51.4273 16.6185 65.6823 30.6412C66.1852 31.1389 66.4697 31.816 66.4732 32.5235C66.4767 33.231 66.1989 33.9109 65.701 34.4136C64.6504 35.4253 62.9904 35.4335 61.9299 34.4323C49.7589 22.4575 30.2332 22.4575 18.0622 34.4323Z"></path><path d="M54.2886 48.6506C56.4513 48.6513 58.4003 47.346 59.2231 45.3459C60.0459 43.3459 59.5795 41.0469 58.0424 39.5256C48.0306 29.679 31.9727 29.679 21.9609 39.5256C20.4274 41.0433 19.9592 43.3355 20.7748 45.333C21.5904 47.3306 23.5291 48.64 25.6867 48.6506H25.7147C27.1209 48.6543 28.4708 48.0988 29.4671 47.1065C35.3132 41.3564 44.6901 41.3564 50.5362 47.1065C51.5328 48.0983 52.8826 48.6537 54.2886 48.6506ZM27.5909 45.2116C27.0924 45.7072 26.4177 45.9848 25.7147 45.9837H25.7C24.6202 45.9802 23.649 45.326 23.2401 44.3266C22.8313 43.3272 23.0654 42.1798 23.8332 41.4205C32.8039 32.5983 47.1914 32.5983 56.1622 41.4205C56.665 41.9182 56.9495 42.5953 56.953 43.3028C56.9565 44.0103 56.6787 44.6903 56.1808 45.1929C55.1298 46.2048 53.4694 46.213 52.4084 45.2116C45.522 38.439 34.4773 38.439 27.5909 45.2116Z"></path><path d="M32 57.4579C32 61.8767 35.5821 65.4588 40.0009 65.4588C44.4197 65.4588 48.0018 61.8767 48.0018 57.4579C48.0018 53.0392 44.4197 49.457 40.0009 49.457C35.584 49.4614 32.0044 53.041 32 57.4579ZM45.3348 57.4579C45.3348 60.4038 42.9468 62.7919 40.0009 62.7919C37.0551 62.7919 34.667 60.4038 34.667 57.4579C34.667 54.5121 37.0551 52.124 40.0009 52.124C42.9468 52.124 45.3348 54.5121 45.3348 57.4579Z"></path><path d="M77.6323 28.6206L41.0388 74.0471C40.7779 74.3487 40.3988 74.5221 40 74.5221C39.6012 74.5221 39.2221 74.3487 38.9612 74.0471L2.36774 28.6206C1.90463 28.0517 1.06892 27.9637 0.497425 28.4236C-0.0740672 28.8836 -0.166676 29.7188 0.290169 30.2928L36.885 75.7206C37.6444 76.6631 38.7897 77.2111 40 77.2111C41.2103 77.2111 42.3556 76.6631 43.115 75.7206L79.7098 30.2928C80.1667 29.7188 80.0741 28.8836 79.5026 28.4236C78.9311 27.9637 78.0954 28.0517 77.6323 28.6206Z"></path></svg>