<svg xmlns="http://www.w3.org/2000/svg" width="80" height="80" viewBox="0 0 80 80" fill="none"><path d="M10.1309 48.6983H48.5015C50.338 48.6983 51.7877 50.1579 51.7877 52.0041V59.3517C51.7877 61.189 50.338 62.653 48.5015 62.653H10.1309C8.29352 62.653 6.84374 61.1899 6.84374 59.3517V52.0041C6.84374 50.157 8.29352 48.6983 10.1309 48.6983ZM13.858 36.5454H44.7744C46.3486 36.5454 47.2882 38.3099 47.8384 39.8521L50.3851 47.2121C49.786 46.9722 49.1468 46.8483 48.5015 46.8468H10.1309C9.46863 46.8468 8.82952 46.981 8.24641 47.2121L10.7966 39.8521C11.3442 38.3099 12.2829 36.5454 13.858 36.5454ZM13.858 34.6992C11.1024 34.6992 9.83574 37.0041 9.05708 39.2459L5.28374 50.1019C5.07041 50.717 4.99219 51.4308 4.99219 52.0006V59.3517C4.99219 62.1801 7.30241 64.4992 10.1309 64.4992H48.5015C51.3353 64.4992 53.6437 62.1801 53.6437 59.3517V52.0006C53.6437 51.4308 53.5611 50.717 53.3477 50.1019L49.5744 39.2459C48.7984 37.005 47.5291 34.6992 44.7744 34.6992H13.858Z"></path><path d="M13.6369 52.9144C12.1321 52.9144 10.8867 54.1597 10.8867 55.6682C10.8867 57.1837 12.1312 58.4273 13.6369 58.4273C14.368 58.4249 15.0684 58.1335 15.5853 57.6166C16.1023 57.0996 16.3937 56.3992 16.3961 55.6682C16.3923 54.938 16.1002 54.239 15.5835 53.7232C15.0667 53.2074 14.3671 52.9167 13.6369 52.9144ZM13.6369 54.7624C14.1552 54.7624 14.5534 55.1562 14.5534 55.6691C14.5554 55.7898 14.5331 55.9097 14.4877 56.0217C14.4424 56.1336 14.3749 56.2352 14.2893 56.3204C14.2038 56.4056 14.1019 56.4727 13.9898 56.5177C13.8777 56.5626 13.7577 56.5845 13.6369 56.5819C13.5171 56.5828 13.3982 56.5597 13.2874 56.5141C13.1766 56.4684 13.076 56.4011 12.9914 56.3161C12.9069 56.2311 12.8402 56.1301 12.7952 56.019C12.7502 55.9079 12.7278 55.7889 12.7294 55.6691C12.7282 55.5496 12.7509 55.4311 12.7961 55.3205C12.8413 55.2099 12.9081 55.1094 12.9926 55.025C13.0771 54.9405 13.1777 54.8738 13.2883 54.8287C13.3989 54.7836 13.5175 54.7611 13.6369 54.7624ZM20.3676 52.9144C18.8538 52.9144 17.6085 54.1597 17.6085 55.6682C17.6085 57.1837 18.8529 58.4273 20.3676 58.4273C21.0977 58.4233 21.7968 58.1312 22.3126 57.6145C22.8285 57.0978 23.1195 56.3983 23.1223 55.6682C23.1223 54.1597 21.8778 52.9144 20.3676 52.9144ZM20.3676 54.7624C20.8814 54.7624 21.2796 55.1562 21.2796 55.6691C21.2796 56.1882 20.8814 56.5819 20.3676 56.5819C20.2474 56.5835 20.1281 56.5609 20.0167 56.5156C19.9053 56.4702 19.8042 56.403 19.7192 56.3179C19.6343 56.2328 19.5673 56.1315 19.5222 56.0201C19.477 55.9086 19.4547 55.7893 19.4565 55.6691C19.4565 55.1597 19.8547 54.7624 20.3676 54.7624ZM61.7249 15.5117C60.5948 15.5143 59.5118 15.9644 58.7127 16.7635C57.9136 17.5626 57.4635 18.6456 57.4609 19.7757L57.4654 60.2379C57.4654 62.5802 59.3863 64.4966 61.7347 64.4966H70.7436C73.0867 64.4966 75.0076 62.5802 75.0076 60.2379L75.0032 19.7757C74.9978 17.4291 73.0814 15.5117 70.7338 15.5117H61.7249ZM61.7249 17.3686H70.7338C72.0903 17.3686 73.1552 18.4193 73.1552 19.7757V51.3117H59.3143V19.7766C59.3143 18.4193 60.3685 17.3686 61.7249 17.3686ZM59.3143 53.1695H73.1552V60.2388C73.1585 60.5565 73.0984 60.8716 72.9784 61.1657C72.8584 61.4599 72.6809 61.7271 72.4563 61.9518C72.2317 62.1765 71.9645 62.354 71.6705 62.4742C71.3764 62.5943 71.0613 62.6545 70.7436 62.6513H61.7347C61.4165 62.6547 61.1009 62.5947 60.8061 62.4748C60.5114 62.3549 60.2435 62.1775 60.0181 61.9529C59.7927 61.7283 59.6143 61.4611 59.4933 61.1668C59.3723 60.8725 59.3111 60.557 59.3134 60.2388L59.3143 53.1695Z"></path><path d="M66.2325 36.802C64.8949 36.8046 63.6128 37.3372 62.6671 38.2832C61.7215 39.2292 61.1893 40.5115 61.1872 41.8491C61.1872 44.6269 63.4556 46.8909 66.2325 46.8909C69.0103 46.8909 71.2796 44.6269 71.2796 41.8491C71.277 40.5113 70.7444 39.2291 69.7985 38.2831C68.8525 37.3371 67.5703 36.8046 66.2325 36.802ZM66.2325 38.6455C68.0103 38.6455 69.4272 40.0713 69.4272 41.8491C69.4272 43.6269 68.0103 45.0526 66.2325 45.0526C64.4547 45.0526 63.0378 43.6269 63.0378 41.8491C63.0378 40.0713 64.4547 38.6455 66.2325 38.6455ZM62.6121 22.2695C62.0983 22.2695 61.6814 22.682 61.6814 23.1958C61.6814 23.7042 62.0983 24.122 62.6121 24.122H64.2369C64.7463 24.122 65.1623 23.7042 65.1623 23.1958C65.1623 22.682 64.7498 22.2695 64.2369 22.2695H62.6121ZM68.2183 22.2695C67.9726 22.2695 67.737 22.3671 67.5633 22.5408C67.3896 22.7145 67.292 22.9501 67.292 23.1958C67.292 23.4414 67.3896 23.677 67.5633 23.8507C67.737 24.0244 67.9726 24.122 68.2183 24.122H69.8529C70.0986 24.122 70.3342 24.0244 70.5079 23.8507C70.6816 23.677 70.7792 23.4414 70.7792 23.1958C70.7792 22.9501 70.6816 22.7145 70.5079 22.5408C70.3342 22.3671 70.0986 22.2695 69.8529 22.2695H68.2183ZM62.5205 26.4046C61.284 26.4686 61.3818 28.3122 62.6129 28.2464H64.2378C64.3588 28.2475 64.4788 28.2246 64.5909 28.1791C64.703 28.1336 64.805 28.0663 64.891 27.9812C64.977 27.8961 65.0454 27.7948 65.0921 27.6832C65.1388 27.5716 65.1629 27.4519 65.1632 27.3309C65.1632 26.8162 64.7507 26.4046 64.2378 26.4046H62.6129C62.5823 26.4002 62.5511 26.4002 62.5205 26.4046ZM68.1303 26.4046C66.8983 26.4686 66.9916 28.3122 68.2183 28.2464H69.8529C69.9743 28.2481 70.0948 28.2256 70.2074 28.1804C70.32 28.1351 70.4225 28.068 70.509 27.9828C70.5955 27.8976 70.6642 27.7962 70.7112 27.6843C70.7582 27.5724 70.7825 27.4522 70.7827 27.3309C70.7829 27.2089 70.759 27.088 70.7124 26.9753C70.6657 26.8626 70.5971 26.7602 70.5107 26.6741C70.4243 26.588 70.3216 26.5199 70.2088 26.4736C70.0959 26.4274 69.9749 26.4039 69.8529 26.4046H68.2183C68.1891 26.4002 68.1594 26.4002 68.1303 26.4046ZM62.5205 30.5389C61.3436 30.65 61.4316 32.386 62.6129 32.3815H64.2378C64.3644 32.39 64.4914 32.3722 64.6109 32.3294C64.7303 32.2866 64.8397 32.2197 64.9322 32.1328C65.0247 32.046 65.0982 31.941 65.1484 31.8244C65.1985 31.7078 65.2241 31.5822 65.2236 31.4553C65.2236 30.9184 64.7694 30.5024 64.2378 30.5398H62.6129C62.5824 30.5346 62.5512 30.5343 62.5205 30.5389ZM68.1303 30.5389C66.9543 30.65 67.0423 32.386 68.2183 32.3815H69.8529C69.9794 32.3901 70.1062 32.3725 70.2255 32.3297C70.3448 32.2869 70.4539 32.2199 70.5461 32.1329C70.6382 32.046 70.7114 31.9409 70.761 31.8242C70.8106 31.7076 70.8355 31.582 70.8343 31.4553C70.8343 30.9184 70.3898 30.5024 69.8529 30.5398H68.2183C68.1892 30.5346 68.1595 30.5343 68.1303 30.5389ZM37.556 52.0713C37.3152 52.0802 37.0894 52.1824 36.9214 52.3486C36.2445 53.0341 35.784 53.9034 35.5972 54.8485C35.4104 55.7936 35.5055 56.7727 35.8707 57.6642C36.236 58.5518 36.8565 59.311 37.6535 59.8458C38.4505 60.3807 39.3882 60.667 40.348 60.6686C41.3081 60.6662 42.246 60.3796 43.0434 59.8449C43.8408 59.3102 44.4621 58.5514 44.8289 57.6642C45.1937 56.7727 45.2886 55.7936 45.1018 54.8487C44.915 53.9037 44.4548 53.0344 43.7783 52.3486C43.6951 52.253 43.5932 52.1755 43.4788 52.1208C43.3645 52.0662 43.2402 52.0355 43.1135 52.0308C42.9869 52.0261 42.8606 52.0474 42.7425 52.0933C42.6244 52.1393 42.517 52.209 42.4269 52.2982C42.3368 52.3873 42.266 52.4939 42.2187 52.6115C42.1714 52.7291 42.1488 52.8551 42.1521 52.9818C42.1555 53.1085 42.1848 53.2332 42.2382 53.3481C42.2916 53.463 42.368 53.5657 42.4627 53.65C42.8856 54.076 43.1735 54.6172 43.2905 55.2059C43.4075 55.7947 43.3484 56.4049 43.1205 56.9602C42.8956 57.5111 42.5118 57.9825 42.0181 58.3146C41.5244 58.6467 40.9431 58.8244 40.348 58.8251C39.7537 58.8235 39.1732 58.6454 38.6802 58.3134C38.1873 57.9813 37.804 57.5104 37.5792 56.9602C37.3533 56.4052 37.2943 55.7964 37.4094 55.2084C37.5245 54.6204 37.8087 54.0788 38.2272 53.65C38.8289 53.066 38.3987 52.0473 37.556 52.0713Z"></path><path d="M40.3397 50.8165C40.0964 50.8221 39.8651 50.9234 39.6961 51.0985C39.527 51.2736 39.4338 51.5082 39.4366 51.7516L39.418 55.6369C39.418 56.1418 39.8357 56.5578 40.3504 56.5578C40.8535 56.5578 41.2704 56.1427 41.2669 55.6369L41.2811 51.7516C41.282 51.628 41.2583 51.5055 41.2113 51.3912C41.1642 51.2769 41.0948 51.1731 41.0071 51.086C40.9194 50.9989 40.8152 50.9302 40.7006 50.8839C40.586 50.8377 40.4633 50.8147 40.3397 50.8165Z"></path></svg>