<svg xmlns="http://www.w3.org/2000/svg" width="80" height="80" viewBox="0 0 80 80" fill="none"><path d="M66.9398 74.0791H63.2133C62.2327 74.0791 61.3731 73.487 61.0236 72.5708L59.6695 69.0217L61.1294 68.4648L62.4834 72.0139C62.6036 72.3288 62.8764 72.5167 63.2133 72.5167H66.9398C67.2767 72.5167 67.5495 72.3288 67.6697 72.0139L69.0238 68.4648L70.4836 69.0217L69.1295 72.5708C68.78 73.487 67.9205 74.0791 66.9398 74.0791ZM16.7898 74.0791H13.0633C12.0827 74.0791 11.2231 73.487 10.8736 72.5708L9.51953 69.0217L10.9794 68.4648L12.3334 72.0139C12.4536 72.3288 12.7264 72.5167 13.0633 72.5167H16.7898C17.1267 72.5167 17.3995 72.3288 17.5195 72.0139L18.8737 68.4648L20.3336 69.0217L18.9795 72.5708C18.6302 73.487 17.7706 74.0791 16.7898 74.0791Z"></path><path d="M45.5247 15.8139C45.422 15.814 45.3204 15.7938 45.2256 15.7546C45.1307 15.7153 45.0446 15.6576 44.9722 15.585C42.2309 12.8436 37.77 12.8436 35.0286 15.585C34.956 15.6575 34.8699 15.7151 34.7751 15.7544C34.6803 15.7937 34.5787 15.8139 34.4761 15.8139C34.3735 15.8139 34.2719 15.7937 34.1771 15.7544C34.0824 15.7151 33.9962 15.6575 33.9237 15.585C33.8512 15.5124 33.7936 15.4263 33.7543 15.3316C33.7151 15.2368 33.6948 15.1352 33.6948 15.0326C33.6948 14.93 33.7151 14.8284 33.7543 14.7337C33.7936 14.6389 33.8512 14.5528 33.9237 14.4803C37.2743 11.1296 42.7264 11.1295 46.0772 14.4803C46.1865 14.5895 46.2611 14.7287 46.2913 14.8803C46.3215 15.0319 46.306 15.189 46.2469 15.3318C46.1877 15.4746 46.0875 15.5967 45.9589 15.6825C45.8304 15.7683 45.6792 15.814 45.5247 15.8139ZM49.8015 11.537C49.6989 11.5371 49.5972 11.517 49.5024 11.4777C49.4076 11.4384 49.3215 11.3808 49.249 11.3081C44.1492 6.2084 35.8512 6.20855 30.7517 11.3081C30.6792 11.3807 30.593 11.4382 30.4983 11.4775C30.4035 11.5168 30.3019 11.537 30.1993 11.537C30.0967 11.537 29.9951 11.5168 29.9003 11.4775C29.8055 11.4382 29.7194 11.3807 29.6468 11.3081C29.5743 11.2356 29.5167 11.1495 29.4775 11.0547C29.4382 10.9599 29.418 10.8583 29.418 10.7557C29.418 10.6532 29.4382 10.5516 29.4775 10.4568C29.5167 10.362 29.5743 10.2759 29.6468 10.2034C35.3557 4.49465 44.6448 4.4948 50.3539 10.2032C50.4631 10.3125 50.5376 10.4517 50.5677 10.6033C50.5979 10.7548 50.5824 10.9119 50.5233 11.0547C50.4642 11.1974 50.3641 11.3195 50.2356 11.4053C50.1071 11.4912 49.956 11.537 49.8015 11.537Z"></path><path d="M40 21.8086C40.6904 21.8086 41.25 21.249 41.25 20.5586C41.25 19.8682 40.6904 19.3086 40 19.3086C39.3096 19.3086 38.75 19.8682 38.75 20.5586C38.75 21.249 39.3096 21.8086 40 21.8086Z"></path><path d="M57.1637 49.235L55.6545 48.8306L64.4341 16.065C64.6872 15.1203 64.1245 14.1459 63.1798 13.8928C62.2358 13.6396 61.2608 14.2023 61.0076 15.1468L51.8737 49.235L50.3645 48.8306L59.4983 14.7425C59.9744 12.9657 61.8069 11.9081 63.5842 12.3832C65.3612 12.8595 66.4195 14.6925 65.9433 16.4692L57.1637 49.235ZM28.1292 49.235L18.9953 15.1468C18.7422 14.2021 17.7678 13.64 16.823 13.8928C16.3681 14.0146 15.9866 14.3087 15.7487 14.7207C15.5109 15.1328 15.447 15.6101 15.5689 16.0651L24.3483 48.8307L22.8391 49.2351L14.0597 16.4695C13.8297 15.6115 13.9491 14.7131 14.3956 13.9396C14.8422 13.1662 15.5606 12.6137 16.4186 12.3835C18.1956 11.9081 20.0284 12.966 20.5045 14.7428L29.6384 48.8309L28.1292 49.235Z"></path><path d="M72.8125 69.5267H7.1875C4.17203 69.5267 1.71875 67.0736 1.71875 64.0581V53.7227C1.71875 50.7072 4.17203 48.2539 7.1875 48.2539H72.8125C75.828 48.2539 78.2812 50.7072 78.2812 53.7227V64.0581C78.2812 67.0736 75.828 69.5267 72.8125 69.5267ZM7.1875 49.8162C5.03359 49.8162 3.28125 51.5686 3.28125 53.7225V64.058C3.28125 66.2117 5.03359 67.9641 7.1875 67.9641H72.8125C74.9664 67.9641 76.7188 66.2117 76.7188 64.058V53.7225C76.7188 51.5686 74.9664 49.8162 72.8125 49.8162H7.1875Z"></path><path d="M69.6875 59.6719H50.9375C50.7303 59.6719 50.5316 59.5896 50.3851 59.4431C50.2386 59.2965 50.1562 59.0978 50.1562 58.8906C50.1562 58.6834 50.2386 58.4847 50.3851 58.3382C50.5316 58.1917 50.7303 58.1094 50.9375 58.1094H69.6875C69.8947 58.1094 70.0934 58.1917 70.2399 58.3382C70.3864 58.4847 70.4688 58.6834 70.4688 58.8906C70.4688 59.0978 70.3864 59.2965 70.2399 59.4431C70.0934 59.5896 69.8947 59.6719 69.6875 59.6719Z"></path><path fill-rule="evenodd" clip-rule="evenodd" d="M11.5625 57.7969C11.2724 57.7969 10.9942 57.9121 10.7891 58.1172C10.584 58.3223 10.4688 58.6005 10.4688 58.8906C10.4688 59.1807 10.584 59.4589 10.7891 59.664C10.9942 59.8691 11.2724 59.9844 11.5625 59.9844C11.8526 59.9844 12.1308 59.8691 12.3359 59.664C12.541 59.4589 12.6562 59.1807 12.6562 58.8906C12.6562 58.6005 12.541 58.3223 12.3359 58.1172C12.1308 57.9121 11.8526 57.7969 11.5625 57.7969ZM16.9791 57.7969C16.689 57.7969 16.4108 57.9121 16.2057 58.1172C16.0005 58.3223 15.8853 58.6005 15.8853 58.8906C15.8853 59.1807 16.0005 59.4589 16.2057 59.664C16.4108 59.8691 16.689 59.9844 16.9791 59.9844C17.2691 59.9844 17.5473 59.8691 17.7525 59.664C17.9576 59.4589 18.0728 59.1807 18.0728 58.8906C18.0728 58.6005 17.9576 58.3223 17.7525 58.1172C17.5473 57.9121 17.2691 57.7969 16.9791 57.7969ZM22.3958 57.7969C22.1057 57.7969 21.8275 57.9121 21.6224 58.1172C21.4173 58.3223 21.302 58.6005 21.302 58.8906C21.302 59.1807 21.4173 59.4589 21.6224 59.664C21.8275 59.8691 22.1057 59.9844 22.3958 59.9844C22.6859 59.9844 22.9641 59.8691 23.1692 59.664C23.3743 59.4589 23.4895 59.1807 23.4895 58.8906C23.4895 58.6005 23.3743 58.3223 23.1692 58.1172C22.9641 57.9121 22.6859 57.7969 22.3958 57.7969ZM27.8123 57.7969C27.5223 57.7969 27.2441 57.9121 27.0389 58.1172C26.8338 58.3223 26.7186 58.6005 26.7186 58.8906C26.7186 59.1807 26.8338 59.4589 27.0389 59.664C27.2441 59.8691 27.5223 59.9844 27.8123 59.9844C28.1024 59.9844 28.3806 59.8691 28.5857 59.664C28.7909 59.4589 28.9061 59.1807 28.9061 58.8906C28.9061 58.6005 28.7909 58.3223 28.5857 58.1172C28.3806 57.9121 28.1024 57.7969 27.8123 57.7969Z"></path></svg>