<svg xmlns="http://www.w3.org/2000/svg" width="40" height="40" viewBox="0 0 40 40" fill="none"><path d="M11.7926 12.7212C11.2757 12.5995 10.7316 12.6884 10.2803 12.9683C9.82892 13.2481 9.50744 13.696 9.38668 14.2132L9.00069 15.8678L8.6147 14.2145C8.40293 13.3101 7.59631 12.6705 6.66741 12.6705C5.73851 12.6705 4.93189 13.3101 4.72012 14.2145L4.33413 15.8678L3.94814 14.2138C3.76385 13.4264 3.12351 12.8275 2.32556 12.6962C1.52761 12.5649 0.729111 12.927 0.302218 13.6139C0.0206301 14.0639 -0.0689287 14.608 0.0535569 15.1245L2.38684 25.1243C2.59861 26.0287 3.40523 26.6683 4.33413 26.6683C5.26303 26.6683 6.06965 26.0287 6.28142 25.1243L6.66741 23.4676L7.0534 25.1209C7.26517 26.0254 8.07179 26.665 9.00069 26.665C9.92959 26.665 10.7362 26.0254 10.948 25.1209L13.2813 15.1212C13.5312 14.0476 12.8654 12.9743 11.7926 12.7212ZM11.9833 14.8192L9.65001 24.8189C9.57978 25.1209 9.31069 25.3346 9.00069 25.3346C8.69069 25.3346 8.4216 25.1209 8.35137 24.8189L7.31673 20.3837C7.2465 20.0818 6.97741 19.8681 6.66741 19.8681C6.35741 19.8681 6.08832 20.0818 6.01809 20.3837L4.98345 24.8196C4.91322 25.1215 4.64413 25.3352 4.33413 25.3352C4.02413 25.3352 3.75504 25.1215 3.68481 24.8196L1.35153 14.8198C1.26795 14.4612 1.49091 14.1028 1.84952 14.0192C2.20813 13.9356 2.56659 14.1586 2.65017 14.5172L3.68481 18.9524C3.75504 19.2543 4.02413 19.468 4.33413 19.468C4.64413 19.468 4.91322 19.2543 4.98345 18.9524L6.01809 14.5165C6.08832 14.2146 6.35741 14.0009 6.66741 14.0009C6.97741 14.0009 7.2465 14.2146 7.31673 14.5165L8.35137 18.9517C8.4216 19.2537 8.69069 19.4674 9.00069 19.4674C9.31069 19.4674 9.57978 19.2537 9.65001 18.9517L10.6847 14.5158C10.725 14.3421 10.8333 14.1918 10.9853 14.0985C11.2148 13.9562 11.5074 13.9663 11.7265 14.1242C11.9455 14.2821 12.0477 14.5565 11.9853 14.8192H11.9833Z"></path><path d="M14 24.6652C14 25.7697 14.8954 26.6652 16 26.6652C17.1045 26.6652 17.9999 25.7697 17.9999 24.6652V19.332C17.9999 18.2274 17.1045 17.332 16 17.332C14.8954 17.332 14 18.2274 14 19.332V24.6652ZM15.3333 19.332C15.3333 18.9638 15.6318 18.6653 16 18.6653C16.3681 18.6653 16.6666 18.9638 16.6666 19.332V24.6652C16.6666 25.0334 16.3681 25.3319 16 25.3319C15.6318 25.3319 15.3333 25.0334 15.3333 24.6652V19.332Z"></path><path d="M16 16.6679C17.1045 16.6679 17.9999 15.7725 17.9999 14.6679C17.9999 13.5634 17.1045 12.668 16 12.668C14.8954 12.668 14 13.5634 14 14.6679C14 15.7725 14.8954 16.6679 16 16.6679ZM16 14.0013C16.3681 14.0013 16.6666 14.2997 16.6666 14.6679C16.6666 15.0361 16.3681 15.3346 16 15.3346C15.6318 15.3346 15.3333 15.0361 15.3333 14.6679C15.3333 14.2997 15.6318 14.0013 16 14.0013Z"></path><path d="M38 17.332C36.8954 17.332 36 18.2274 36 19.332V24.6652C36 25.7697 36.8954 26.6652 38 26.6652C39.1045 26.6652 39.9999 25.7697 39.9999 24.6652V19.332C39.9999 18.2274 39.1045 17.332 38 17.332ZM38.6666 24.6652C38.6666 25.0334 38.3681 25.3319 38 25.3319C37.6318 25.3319 37.3333 25.0334 37.3333 24.6652V19.332C37.3333 18.9638 37.6318 18.6653 38 18.6653C38.3681 18.6653 38.6666 18.9638 38.6666 19.332V24.6652Z"></path><path d="M38 12.668C36.8954 12.668 36 13.5634 36 14.6679C36 15.7725 36.8954 16.6679 38 16.6679C39.1045 16.6679 39.9999 15.7725 39.9999 14.6679C39.9999 13.5634 39.1045 12.668 38 12.668ZM38 15.3346C37.6318 15.3346 37.3333 15.0361 37.3333 14.6679C37.3333 14.2997 37.6318 14.0013 38 14.0013C38.3681 14.0013 38.6666 14.2997 38.6666 14.6679C38.6666 15.0361 38.3681 15.3346 38 15.3346Z"></path><path d="M33.3332 12.668H28C26.8954 12.668 26 13.5634 26 14.6679V24.6677C26 25.7722 26.8954 26.6677 28 26.6677C29.1045 26.6677 29.9999 25.7722 29.9999 24.6677V22.6677C29.9999 22.2996 30.2984 22.0011 30.6666 22.0011H32.6665C33.7711 22.0011 34.6665 21.1057 34.6665 20.0011C34.6665 18.8966 33.7711 18.0012 32.6665 18.0012H30.6666C30.2984 18.0012 29.9999 17.7027 29.9999 17.3345C29.9999 16.9664 30.2984 16.6679 30.6666 16.6679H33.3332C34.4377 16.6679 35.3331 15.7725 35.3331 14.6679C35.3331 13.5634 34.4377 12.668 33.3332 12.668ZM33.3332 15.3346H30.6666C29.562 15.3346 28.6666 16.23 28.6666 17.3345C28.6666 18.4391 29.562 19.3345 30.6666 19.3345H32.6665C33.0347 19.3345 33.3332 19.633 33.3332 20.0011C33.3332 20.3693 33.0347 20.6678 32.6665 20.6678H30.6666C29.562 20.6678 28.6666 21.5632 28.6666 22.6677V24.6677C28.6666 25.0359 28.3681 25.3344 28 25.3344C27.6318 25.3344 27.3333 25.0359 27.3333 24.6677V14.6679C27.3333 14.2997 27.6318 14.0013 28 14.0013H33.3332C33.7014 14.0013 33.9998 14.2997 33.9998 14.6679C33.9998 15.0361 33.7014 15.3346 33.3332 15.3346Z"></path><path d="M21.9986 17.332C20.5259 17.332 19.332 18.5259 19.332 19.9986C19.332 21.4714 20.5259 22.6652 21.9986 22.6652C23.4714 22.6652 24.6652 21.4714 24.6652 19.9986C24.6652 18.5259 23.4714 17.332 21.9986 17.332ZM21.9986 21.3319C21.2623 21.3319 20.6653 20.735 20.6653 19.9986C20.6653 19.2623 21.2623 18.6653 21.9986 18.6653C22.735 18.6653 23.3319 19.2623 23.3319 19.9986C23.3319 20.735 22.735 21.3319 21.9986 21.3319Z"></path><path d="M30.0014 6.8424C30.2676 6.84251 30.5082 6.68434 30.6137 6.44002C30.7192 6.19571 30.6693 5.91206 30.4868 5.71843C28.3019 3.34828 25.2252 2 22.0016 2C18.778 2 15.7014 3.34828 13.5165 5.71843C13.2687 5.9871 13.2834 6.40521 13.5495 6.65578C13.8156 6.90634 14.2338 6.89592 14.4871 6.63241C16.42 4.52973 19.1455 3.33307 22.0016 3.33307C24.8577 3.33307 27.5832 4.52973 29.5161 6.63241C29.642 6.76632 29.8176 6.8423 30.0014 6.8424Z"></path><path d="M28.2234 8.72662C28.4898 8.72697 28.7308 8.5687 28.8364 8.3241C28.9419 8.07951 28.8917 7.79555 28.7087 7.60197C26.9812 5.72925 24.5494 4.66406 22.0015 4.66406C19.4537 4.66406 17.0219 5.72925 15.2944 7.60197C15.0418 7.87093 15.0551 8.29371 15.324 8.54629C15.593 8.79886 16.0158 8.78558 16.2683 8.51662C17.7438 6.91119 19.8244 5.99749 22.0049 5.99749C24.1853 5.99749 26.266 6.91119 27.7414 8.51662C27.8665 8.64969 28.0408 8.7256 28.2234 8.72662Z"></path><path d="M26.9029 10.4334C27.1706 10.1809 27.1832 9.75932 26.9309 9.49141C25.6612 8.11495 23.8737 7.33203 22.0011 7.33203C20.1284 7.33203 18.3409 8.11495 17.0712 9.49141C16.8233 9.76008 16.8381 10.1782 17.1042 10.4288C17.3703 10.6793 17.7885 10.6689 18.0418 10.4054C19.0597 9.29659 20.4959 8.66542 22.0011 8.66542C23.5062 8.66542 24.9424 9.29659 25.9603 10.4054C26.0816 10.5342 26.249 10.6095 26.4258 10.6147C26.6026 10.62 26.7743 10.5547 26.9029 10.4334Z"></path><path d="M25.1254 12.3195C25.2541 12.1982 25.3294 12.0308 25.3347 11.854C25.3399 11.6772 25.2747 11.5056 25.1534 11.3769C24.3416 10.4967 23.1988 9.99609 22.0014 9.99609C20.8041 9.99609 19.6613 10.4967 18.8495 11.3769C18.5969 11.6449 18.6095 12.0669 18.8775 12.3195C19.1455 12.5721 19.5676 12.5595 19.8201 12.2915C20.3798 11.6786 21.1715 11.3295 22.0014 11.3295C22.8314 11.3295 23.623 11.6786 24.1827 12.2915C24.304 12.4203 24.4714 12.4956 24.6482 12.5008C24.825 12.5061 24.9967 12.4408 25.1254 12.3195Z"></path><path d="M29.5161 33.3648C27.5832 35.4675 24.8577 36.6642 22.0016 36.6642C19.1455 36.6642 16.42 35.4675 14.4871 33.3648C14.2338 33.1013 13.8156 33.0909 13.5495 33.3415C13.2834 33.592 13.2687 34.0101 13.5165 34.2788C15.7014 36.649 18.778 37.9972 22.0016 37.9972C25.2252 37.9972 28.3019 36.649 30.4868 34.2788C30.7346 34.0101 30.7199 33.592 30.4538 33.3415C30.1877 33.0909 29.7694 33.1013 29.5161 33.3648Z"></path><path d="M22.002 35.3309C24.5484 35.3284 26.9787 34.2656 28.7092 32.3976C28.8726 32.2242 28.931 31.9768 28.8626 31.7487C28.7941 31.5205 28.6091 31.3461 28.3772 31.2913C28.1454 31.2365 27.9019 31.3096 27.7385 31.483C26.2631 33.0884 24.1824 34.0021 22.002 34.0021C19.8216 34.0021 17.7409 33.0884 16.2655 31.483C16.0129 31.2149 15.5908 31.2024 15.3228 31.455C15.0548 31.7075 15.0422 32.1296 15.2948 32.3976C17.0253 34.2656 19.4556 35.3284 22.002 35.3309Z"></path><path d="M25.9603 29.5953C24.9424 30.7041 23.5062 31.3353 22.0011 31.3353C20.4959 31.3353 19.0597 30.7041 18.0418 29.5953C17.7885 29.3318 17.3703 29.3214 17.1042 29.5719C16.8381 29.8225 16.8233 30.2406 17.0712 30.5093C18.3409 31.8857 20.1284 32.6687 22.0011 32.6687C23.8737 32.6687 25.6612 31.8857 26.9309 30.5093C27.1788 30.2406 27.164 29.8225 26.8979 29.5719C26.6318 29.3214 26.2136 29.3318 25.9603 29.5953Z"></path><path d="M18.8495 28.6242C19.6613 29.5043 20.8041 30.0049 22.0014 30.0049C23.1988 30.0049 24.3416 29.5043 25.1534 28.6242C25.3167 28.4508 25.3752 28.2034 25.3067 27.9752C25.2383 27.747 25.0533 27.5727 24.8214 27.5179C24.5896 27.4631 24.3461 27.5361 24.1827 27.7095C23.623 28.3224 22.8314 28.6716 22.0014 28.6716C21.1715 28.6716 20.3798 28.3224 19.8201 27.7095C19.5676 27.4415 19.1455 27.429 18.8775 27.6815C18.6095 27.9341 18.5969 28.3561 18.8495 28.6242Z"></path></svg>