<svg xmlns="http://www.w3.org/2000/svg" width="65" height="65" viewBox="0 0 65 65" fill="none"><g clip-path="url(#clip0_2618_276)"><path d="M60.6667 28.1667V27.0833C60.6631 24.0933 58.2401 21.6702 55.25 21.6667H48.75V11.9167C48.7464 8.92661 46.3234 6.50358 43.3333 6.5H21.6667C18.6766 6.50358 16.2536 8.92661 16.25 11.9167V21.6667H9.75C6.75994 21.6702 4.33692 24.0933 4.33333 27.0833V28.1667C1.9401 28.1667 0 30.1068 0 32.5V49.8333C0 52.2266 1.9401 54.1667 4.33333 54.1667V55.25C4.33692 58.2401 6.75994 60.6631 9.75 60.6667H55.25C58.2401 60.6631 60.6631 58.2401 60.6667 55.25V54.1667C63.0599 54.1667 65 52.2266 65 49.8333V32.5C65 30.1068 63.0599 28.1667 60.6667 28.1667ZM18.4167 11.9167C18.4167 10.1217 19.8717 8.66667 21.6667 8.66667H43.3333C45.1283 8.66667 46.5833 10.1217 46.5833 11.9167V21.6667H44.4167V11.9167C44.4167 11.3184 43.9316 10.8333 43.3333 10.8333H21.6667C21.0684 10.8333 20.5833 11.3184 20.5833 11.9167V21.6667H18.4167V11.9167ZM42.25 21.6667H22.75V13H42.25V21.6667ZM2.16667 49.8333V32.5C2.16667 31.3034 3.13672 30.3333 4.33333 30.3333V52C3.13672 52 2.16667 51.03 2.16667 49.8333ZM58.5 55.25C58.5 57.0449 57.0449 58.5 55.25 58.5V33.5833C55.25 32.985 54.765 32.5 54.1667 32.5C53.5684 32.5 53.0833 32.985 53.0833 33.5833V58.5H11.9167V33.5833C11.9167 32.985 11.4316 32.5 10.8333 32.5C10.235 32.5 9.75 32.985 9.75 33.5833V58.5C7.95507 58.5 6.5 57.0449 6.5 55.25V27.0833C6.5 25.2884 7.95507 23.8333 9.75 23.8333V28.1667C9.75 28.765 10.235 29.25 10.8333 29.25C11.4316 29.25 11.9167 28.765 11.9167 28.1667V23.8333H53.0833V28.1667C53.0833 28.765 53.5684 29.25 54.1667 29.25C54.765 29.25 55.25 28.765 55.25 28.1667V23.8333C57.0449 23.8333 58.5 25.2884 58.5 27.0833V55.25ZM62.8333 49.8333C62.8333 51.03 61.8633 52 60.6667 52V30.3333C61.8633 30.3333 62.8333 31.3034 62.8333 32.5V49.8333Z"></path><path d="M32.4987 26C24.1224 26 17.332 32.7903 17.332 41.1667C17.332 49.543 24.1224 56.3333 32.4987 56.3333C40.875 56.3333 47.6654 49.543 47.6654 41.1667C47.6564 32.7941 40.8713 26.009 32.4987 26ZM32.4987 54.1667C25.319 54.1667 19.4987 48.3464 19.4987 41.1667C19.4987 33.987 25.319 28.1667 32.4987 28.1667C39.6784 28.1667 45.4987 33.987 45.4987 41.1667C45.4909 48.3432 39.6752 54.1589 32.4987 54.1667Z"></path><path d="M29.2513 32.4987C29.8496 32.4987 30.3346 32.0137 30.3346 31.4154C30.3346 30.8171 29.8496 30.332 29.2513 30.332C28.653 30.332 28.168 30.8171 28.168 31.4154C28.168 32.0137 28.653 32.4987 29.2513 32.4987Z"></path><path d="M26.0013 35.7487C26.5996 35.7487 27.0846 35.2637 27.0846 34.6654C27.0846 34.0671 26.5996 33.582 26.0013 33.582C25.403 33.582 24.918 34.0671 24.918 34.6654C24.918 35.2637 25.403 35.7487 26.0013 35.7487Z"></path><path d="M32.5013 35.7487C33.0996 35.7487 33.5846 35.2637 33.5846 34.6654C33.5846 34.0671 33.0996 33.582 32.5013 33.582C31.903 33.582 31.418 34.0671 31.418 34.6654C31.418 35.2637 31.903 35.7487 32.5013 35.7487Z"></path><path d="M39.0013 35.7487C39.5996 35.7487 40.0846 35.2637 40.0846 34.6654C40.0846 34.0671 39.5996 33.582 39.0013 33.582C38.403 33.582 37.918 34.0671 37.918 34.6654C37.918 35.2637 38.403 35.7487 39.0013 35.7487Z"></path><path d="M26.0013 42.2487C26.5996 42.2487 27.0846 41.7637 27.0846 41.1654C27.0846 40.5671 26.5996 40.082 26.0013 40.082C25.403 40.082 24.918 40.5671 24.918 41.1654C24.918 41.7637 25.403 42.2487 26.0013 42.2487Z"></path><path d="M32.5013 42.2487C33.0996 42.2487 33.5846 41.7637 33.5846 41.1654C33.5846 40.5671 33.0996 40.082 32.5013 40.082C31.903 40.082 31.418 40.5671 31.418 41.1654C31.418 41.7637 31.903 42.2487 32.5013 42.2487Z"></path><path d="M39.0013 42.2487C39.5996 42.2487 40.0846 41.7637 40.0846 41.1654C40.0846 40.5671 39.5996 40.082 39.0013 40.082C38.403 40.082 37.918 40.5671 37.918 41.1654C37.918 41.7637 38.403 42.2487 39.0013 42.2487Z"></path><path d="M26.0013 48.7487C26.5996 48.7487 27.0846 48.2637 27.0846 47.6654C27.0846 47.0671 26.5996 46.582 26.0013 46.582C25.403 46.582 24.918 47.0671 24.918 47.6654C24.918 48.2637 25.403 48.7487 26.0013 48.7487Z"></path><path d="M32.5013 48.7487C33.0996 48.7487 33.5846 48.2637 33.5846 47.6654C33.5846 47.0671 33.0996 46.582 32.5013 46.582C31.903 46.582 31.418 47.0671 31.418 47.6654C31.418 48.2637 31.903 48.7487 32.5013 48.7487Z"></path><path d="M39.0013 48.7487C39.5996 48.7487 40.0846 48.2637 40.0846 47.6654C40.0846 47.0671 39.5996 46.582 39.0013 46.582C38.403 46.582 37.918 47.0671 37.918 47.6654C37.918 48.2637 38.403 48.7487 39.0013 48.7487Z"></path><path d="M35.7513 32.4987C36.3496 32.4987 36.8346 32.0137 36.8346 31.4154C36.8346 30.8171 36.3496 30.332 35.7513 30.332C35.153 30.332 34.668 30.8171 34.668 31.4154C34.668 32.0137 35.153 32.4987 35.7513 32.4987Z"></path><path d="M29.2513 51.9987C29.8496 51.9987 30.3346 51.5137 30.3346 50.9154C30.3346 50.3171 29.8496 49.832 29.2513 49.832C28.653 49.832 28.168 50.3171 28.168 50.9154C28.168 51.5137 28.653 51.9987 29.2513 51.9987Z"></path><path d="M35.7513 51.9987C36.3496 51.9987 36.8346 51.5137 36.8346 50.9154C36.8346 50.3171 36.3496 49.832 35.7513 49.832C35.153 49.832 34.668 50.3171 34.668 50.9154C34.668 51.5137 35.153 51.9987 35.7513 51.9987Z"></path><path d="M29.2513 38.9987C29.8496 38.9987 30.3346 38.5137 30.3346 37.9154C30.3346 37.3171 29.8496 36.832 29.2513 36.832C28.653 36.832 28.168 37.3171 28.168 37.9154C28.168 38.5137 28.653 38.9987 29.2513 38.9987Z"></path><path d="M22.7513 38.9987C23.3496 38.9987 23.8346 38.5137 23.8346 37.9154C23.8346 37.3171 23.3496 36.832 22.7513 36.832C22.153 36.832 21.668 37.3171 21.668 37.9154C21.668 38.5137 22.153 38.9987 22.7513 38.9987Z"></path><path d="M42.2513 38.9987C42.8496 38.9987 43.3346 38.5137 43.3346 37.9154C43.3346 37.3171 42.8496 36.832 42.2513 36.832C41.653 36.832 41.168 37.3171 41.168 37.9154C41.168 38.5137 41.653 38.9987 42.2513 38.9987Z"></path><path d="M35.7513 38.9987C36.3496 38.9987 36.8346 38.5137 36.8346 37.9154C36.8346 37.3171 36.3496 36.832 35.7513 36.832C35.153 36.832 34.668 37.3171 34.668 37.9154C34.668 38.5137 35.153 38.9987 35.7513 38.9987Z"></path><path d="M29.2513 45.4987C29.8496 45.4987 30.3346 45.0137 30.3346 44.4154C30.3346 43.8171 29.8496 43.332 29.2513 43.332C28.653 43.332 28.168 43.8171 28.168 44.4154C28.168 45.0137 28.653 45.4987 29.2513 45.4987Z"></path><path d="M22.7513 45.4987C23.3496 45.4987 23.8346 45.0137 23.8346 44.4154C23.8346 43.8171 23.3496 43.332 22.7513 43.332C22.153 43.332 21.668 43.8171 21.668 44.4154C21.668 45.0137 22.153 45.4987 22.7513 45.4987Z"></path><path d="M42.2513 45.4987C42.8496 45.4987 43.3346 45.0137 43.3346 44.4154C43.3346 43.8171 42.8496 43.332 42.2513 43.332C41.653 43.332 41.168 43.8171 41.168 44.4154C41.168 45.0137 41.653 45.4987 42.2513 45.4987Z"></path><path d="M35.7513 45.4987C36.3496 45.4987 36.8346 45.0137 36.8346 44.4154C36.8346 43.8171 36.3496 43.332 35.7513 43.332C35.153 43.332 34.668 43.8171 34.668 44.4154C34.668 45.0137 35.153 45.4987 35.7513 45.4987Z"></path><path d="M1.08333 18.4154C1.68164 18.4154 2.16667 17.9303 2.16667 17.332C2.17323 11.3517 7.01964 6.50527 13 6.4987C13.5983 6.4987 14.0833 6.01367 14.0833 5.41536C14.0833 4.81706 13.5983 4.33203 13 4.33203C5.82352 4.33979 0.00776192 10.1555 0 17.332C0 17.6193 0.114137 17.8949 0.317301 18.0981C0.520465 18.3012 0.796016 18.4154 1.08333 18.4154Z"></path><path d="M12.9987 8.66406C8.21446 8.66944 4.3374 12.5465 4.33203 17.3307C4.33203 17.929 4.81706 18.4141 5.41536 18.4141C6.01367 18.4141 6.4987 17.929 6.4987 17.3307C6.50228 13.7424 9.41033 10.8343 12.9987 10.8307C13.597 10.8307 14.082 10.3457 14.082 9.7474C14.082 9.14909 13.597 8.66406 12.9987 8.66406Z"></path><path d="M13.0013 13C10.6081 13 8.66797 14.9401 8.66797 17.3333C8.66797 17.9316 9.15299 18.4167 9.7513 18.4167C10.3496 18.4167 10.8346 17.9316 10.8346 17.3333C10.8346 16.1367 11.8047 15.1667 13.0013 15.1667C13.5996 15.1667 14.0846 14.6816 14.0846 14.0833C14.0846 13.485 13.5996 13 13.0013 13Z"></path><path d="M52.0013 4.33203C51.403 4.33203 50.918 4.81706 50.918 5.41536C50.918 6.01367 51.403 6.4987 52.0013 6.4987C57.9817 6.50527 62.8281 11.3517 62.8346 17.332C62.8346 17.9303 63.3197 18.4154 63.918 18.4154C64.5163 18.4154 65.0013 17.9303 65.0013 17.332C64.9935 10.1555 59.1778 4.33979 52.0013 4.33203Z"></path><path d="M58.5013 17.3307C58.5013 17.929 58.9863 18.4141 59.5846 18.4141C60.1829 18.4141 60.668 17.929 60.668 17.3307C60.6626 12.5465 56.7855 8.66944 52.0013 8.66406C51.403 8.66406 50.918 9.14909 50.918 9.7474C50.918 10.3457 51.403 10.8307 52.0013 10.8307C55.5897 10.8343 58.4977 13.7424 58.5013 17.3307Z"></path><path d="M50.918 14.0833C50.918 14.6816 51.403 15.1667 52.0013 15.1667C53.1979 15.1667 54.168 16.1367 54.168 17.3333C54.168 17.9316 54.653 18.4167 55.2513 18.4167C55.8496 18.4167 56.3346 17.9316 56.3346 17.3333C56.3346 14.9401 54.3945 13 52.0013 13C51.403 13 50.918 13.485 50.918 14.0833Z"></path></g><defs><clipPath id="clip0_2618_276"><rect width="65" height="65" fill="white"></rect></clipPath></defs></svg>