<svg xmlns="http://www.w3.org/2000/svg" width="65" height="65" viewBox="0 0 65 65" fill="none"><g clip-path="url(#clip0_2637_3)"><path d="M5.44505 31.4181H5.41797V33.5847H5.44505C6.03491 48.3195 18.3049 59.8743 33.0485 59.5793C47.7921 59.2843 59.59 47.248 59.59 32.5014C59.59 17.7548 47.7921 5.71848 33.0485 5.42349C18.3049 5.1285 6.03491 16.6833 5.44505 31.4181ZM13.0446 16.9621C14.5429 17.5427 16.0888 18.0562 17.6672 18.5058C16.1075 22.6363 15.268 27.0037 15.1853 31.4181H7.61172C7.83743 26.1439 9.74078 21.0794 13.0446 16.9621ZM28.181 33.5847H36.8216C36.7945 36.8575 36.6483 39.7998 36.4186 42.4074C33.8104 42.22 31.1922 42.22 28.584 42.4074C28.3543 39.7998 28.208 36.8575 28.181 33.5847ZM38.9948 33.5847H47.6517C47.5741 37.1038 47.0057 40.5947 45.9628 43.9566C43.53 43.3275 41.055 42.8745 38.5571 42.6013C38.8355 39.4001 38.9666 36.2324 38.9948 33.5847ZM38.9948 31.4181C38.9612 28.1789 38.7781 24.1597 38.3448 20.2597C40.6727 20.0096 42.9824 19.6116 45.2597 19.0681C46.7578 23.0172 47.5641 27.195 47.6431 31.4181H38.9948ZM36.8216 31.4181H28.181C28.1974 27.7525 28.4039 24.0903 28.7996 20.4461C30.0096 20.5295 31.236 20.5847 32.5013 20.5847C33.7666 20.5847 35.0005 20.5295 36.203 20.4461C36.5987 24.0903 36.8052 27.7525 36.8216 31.4181ZM26.0078 31.4181H17.3509C17.4298 27.195 18.2361 23.0172 19.7342 19.0681C22.0123 19.6117 24.3226 20.0097 26.6513 20.2597C26.2299 24.1597 26.0414 28.1789 26.0078 31.4181ZM26.0078 33.5847C26.036 36.2324 26.1671 39.4001 26.4411 42.6013C23.9429 42.8745 21.4675 43.3274 19.0344 43.9566C17.994 40.5943 17.4273 37.1034 17.3509 33.5847H26.0078ZM26.6578 44.7571C27.1789 49.5357 28.0553 54.1301 29.4387 56.9067C25.3968 55.5385 21.9399 51.5161 19.7678 46.0062C22.0304 45.4302 24.3305 45.0128 26.6513 44.7571H26.6578ZM28.8028 44.5643C31.2668 44.3894 33.7401 44.3894 36.2041 44.5643C35.2421 53.0544 33.4286 57.4181 32.5013 57.4181C31.574 57.4181 29.7605 53.0544 28.8006 44.5643H28.8028ZM35.5682 56.9067C36.9527 54.1301 37.828 49.5401 38.3491 44.7571C40.6721 45.013 42.9744 45.4307 45.2391 46.0073C43.0638 51.5171 39.608 55.5385 35.566 56.9067H35.5682ZM49.8173 33.5847H57.3909C57.198 38.1469 55.7474 42.5669 53.1995 46.3561C51.508 45.658 49.7818 45.0473 48.0276 44.5264C49.1358 40.9815 49.7383 37.298 49.8173 33.5847ZM49.8173 31.4181C49.7346 27.0037 48.8951 22.6363 47.3354 18.5058C48.9127 18.0562 50.4597 17.5438 51.958 16.9621C55.2618 21.0794 57.1652 26.1439 57.3909 31.4181H49.8173ZM38.087 18.1072C37.7494 14.6633 36.8998 11.2891 35.566 8.09607C39.114 9.29641 42.2101 12.5377 44.3844 17.0444C42.3086 17.5251 40.2056 17.88 38.087 18.1072ZM35.9311 18.2935C33.647 18.4419 31.3556 18.4419 29.0715 18.2935C30.0725 11.2172 31.6552 7.58474 32.5013 7.58474C33.3474 7.58474 34.9301 11.2172 35.9311 18.2935ZM29.4366 8.09607C28.1028 11.2891 27.2532 14.6633 26.9156 18.1072C24.797 17.88 22.694 17.5251 20.6182 17.0444C22.7925 12.5432 25.893 9.29641 29.4366 8.09607ZM15.1853 33.5847C15.2643 37.298 15.8668 40.9815 16.975 44.5264C15.2208 45.0485 13.4946 45.6603 11.8031 46.3594C9.25463 42.5692 7.80402 38.148 7.61172 33.5847H15.1853ZM13.1324 48.1512C14.6382 47.5478 16.1657 47.0202 17.6954 46.5696C18.9765 50.0528 21.0196 53.2059 23.6754 55.7985C19.5475 54.2249 15.9099 51.5864 13.1324 48.1512ZM41.3272 55.7985C43.983 53.2059 46.0261 50.0528 47.3072 46.5696C48.8369 47.0202 50.3622 47.5446 51.8702 48.1512C49.0927 51.5864 45.4551 54.2249 41.3272 55.7985ZM50.4272 15.219C49.137 15.6957 47.8218 16.1268 46.4774 16.5017C45.2402 13.7645 43.4931 11.2879 41.3294 9.20432C44.767 10.5153 47.8728 12.5691 50.425 15.219H50.4272ZM23.6754 9.20432C21.511 11.2876 19.7635 13.7642 18.5263 16.5017C17.1808 16.1268 15.8656 15.6946 14.5765 15.219C17.1296 12.5687 20.2366 10.5149 23.6754 9.20432Z"></path><path d="M52.0013 2.16667C57.9817 2.17323 62.8281 7.01964 62.8346 13C62.8346 13.5983 63.3197 14.0833 63.918 14.0833C64.5163 14.0833 65.0013 13.5983 65.0013 13C64.9935 5.82352 59.1778 0.00776192 52.0013 0C51.403 0 50.918 0.485025 50.918 1.08333C50.918 1.68164 51.403 2.16667 52.0013 2.16667Z"></path><path d="M52.0013 6.4987C55.5897 6.50228 58.4977 9.41033 58.5013 12.9987C58.5013 13.597 58.9863 14.082 59.5846 14.082C60.1829 14.082 60.668 13.597 60.668 12.9987C60.6626 8.21446 56.7855 4.3374 52.0013 4.33203C51.403 4.33203 50.918 4.81706 50.918 5.41536C50.918 6.01367 51.403 6.4987 52.0013 6.4987Z"></path><path d="M52.0013 10.8346C53.1979 10.8346 54.168 11.8047 54.168 13.0013C54.168 13.5996 54.653 14.0846 55.2513 14.0846C55.8496 14.0846 56.3346 13.5996 56.3346 13.0013C56.3346 10.6081 54.3945 8.66797 52.0013 8.66797C51.403 8.66797 50.918 9.15299 50.918 9.7513C50.918 10.3496 51.403 10.8346 52.0013 10.8346Z"></path><path d="M1.08333 14.0833C1.68164 14.0833 2.16667 13.5983 2.16667 13C2.17323 7.01964 7.01964 2.17323 13 2.16667C13.5983 2.16667 14.0833 1.68164 14.0833 1.08333C14.0833 0.485025 13.5983 0 13 0C5.82352 0.00776192 0.00776192 5.82352 0 13C0 13.5983 0.485025 14.0833 1.08333 14.0833Z"></path><path d="M12.9987 4.33203C8.21446 4.3374 4.3374 8.21446 4.33203 12.9987C4.33203 13.597 4.81706 14.082 5.41536 14.082C6.01367 14.082 6.4987 13.597 6.4987 12.9987C6.50228 9.41033 9.41033 6.50228 12.9987 6.4987C13.597 6.4987 14.082 6.01367 14.082 5.41536C14.082 4.81706 13.597 4.33203 12.9987 4.33203Z"></path><path d="M13.0013 8.66797C10.6081 8.66797 8.66797 10.6081 8.66797 13.0013C8.66797 13.5996 9.15299 14.0846 9.7513 14.0846C10.3496 14.0846 10.8346 13.5996 10.8346 13.0013C10.8346 11.8047 11.8047 10.8346 13.0013 10.8346C13.5996 10.8346 14.0846 10.3496 14.0846 9.7513C14.0846 9.15299 13.5996 8.66797 13.0013 8.66797Z"></path><path d="M63.918 50.918C63.3197 50.918 62.8346 51.403 62.8346 52.0013C62.8281 57.9817 57.9817 62.8281 52.0013 62.8346C51.403 62.8346 50.918 63.3197 50.918 63.918C50.918 64.5163 51.403 65.0013 52.0013 65.0013C59.1778 64.9935 64.9935 59.1778 65.0013 52.0013C65.0013 51.403 64.5163 50.918 63.918 50.918Z"></path><path d="M52.0013 60.668C56.7855 60.6626 60.6626 56.7855 60.668 52.0013C60.668 51.403 60.1829 50.918 59.5846 50.918C58.9863 50.918 58.5013 51.403 58.5013 52.0013C58.4977 55.5897 55.5897 58.4977 52.0013 58.5013C51.403 58.5013 50.918 58.9863 50.918 59.5846C50.918 60.1829 51.403 60.668 52.0013 60.668Z"></path><path d="M52.0013 56.3346C54.3945 56.3346 56.3346 54.3945 56.3346 52.0013C56.3346 51.403 55.8496 50.918 55.2513 50.918C54.653 50.918 54.168 51.403 54.168 52.0013C54.168 53.1979 53.1979 54.168 52.0013 54.168C51.403 54.168 50.918 54.653 50.918 55.2513C50.918 55.8496 51.403 56.3346 52.0013 56.3346Z"></path><path d="M13 65.0013C13.5983 65.0013 14.0833 64.5163 14.0833 63.918C14.0833 63.3197 13.5983 62.8346 13 62.8346C7.01964 62.8281 2.17323 57.9817 2.16667 52.0013C2.16667 51.403 1.68164 50.918 1.08333 50.918C0.485025 50.918 0 51.403 0 52.0013C0.00776192 59.1778 5.82352 64.9935 13 65.0013Z"></path><path d="M12.9987 60.668C13.597 60.668 14.082 60.1829 14.082 59.5846C14.082 58.9863 13.597 58.5013 12.9987 58.5013C9.41033 58.4977 6.50228 55.5897 6.4987 52.0013C6.4987 51.403 6.01367 50.918 5.41536 50.918C4.81706 50.918 4.33203 51.403 4.33203 52.0013C4.3374 56.7855 8.21446 60.6626 12.9987 60.668Z"></path><path d="M13.0013 54.168C11.8047 54.168 10.8346 53.1979 10.8346 52.0013C10.8346 51.403 10.3496 50.918 9.7513 50.918C9.15299 50.918 8.66797 51.403 8.66797 52.0013C8.66797 54.3945 10.6081 56.3346 13.0013 56.3346C13.5996 56.3346 14.0846 55.8496 14.0846 55.2513C14.0846 54.653 13.5996 54.168 13.0013 54.168Z"></path></g><defs><clipPath id="clip0_2637_3"><rect width="65" height="65" fill="white"></rect></clipPath></defs></svg>