<svg xmlns="http://www.w3.org/2000/svg" width="40" height="40" viewBox="0 0 40 40" fill="none"><path d="M29.9986 3.12481V18.1251C29.8346 18.1251 29.6722 18.1574 29.5207 18.2203C29.3693 18.2831 29.2317 18.3752 29.1158 18.4913C29 18.6073 28.9081 18.7451 28.8456 18.8967C28.7831 19.0483 28.751 19.2107 28.7513 19.3747L28.749 25.004H3.75162C2.35317 25.004 1.25 26.1308 1.25 27.5056V33.7514C1.25 35.1262 2.3579 36.253 3.75162 36.253H4.37526V38.1263C4.3729 38.4712 4.654 38.7546 5.00126 38.7523H9.37851C9.7234 38.7523 10.0045 38.4688 10.0021 38.1263V36.253H30.001V38.1263C30.001 38.4735 30.2821 38.7546 30.6293 38.7523H35.0018C35.0843 38.7526 35.1659 38.7366 35.2421 38.7053C35.3184 38.674 35.3876 38.6279 35.446 38.5698C35.5044 38.5116 35.5507 38.4425 35.5823 38.3664C35.6139 38.2903 35.6302 38.2087 35.6302 38.1263V36.253H36.2538C37.6523 36.253 38.7531 35.1262 38.7531 33.7514V27.5056C38.7531 26.1308 37.6523 25.0016 36.2538 25.0016H35.0018V19.3771C35.0012 19.0465 34.8696 18.7296 34.6358 18.4958C34.4021 18.2621 34.0852 18.1305 33.7546 18.1298L33.7522 3.12953C33.7522 2.63209 33.5546 2.15501 33.2029 1.80326C32.8511 1.45152 32.374 1.25391 31.8766 1.25391C31.3791 1.25391 30.9021 1.45152 30.5503 1.80326C30.1986 2.15501 30.001 2.63209 30.001 3.12953L29.9986 3.12481ZM31.8766 2.50354C32.2168 2.50354 32.5002 2.76811 32.5002 3.12481V18.1251H31.2506V3.12481C31.2506 2.77047 31.5364 2.50354 31.8766 2.50354ZM14.103 8.31704C11.9766 8.32033 9.87193 8.74592 7.91128 9.56911C5.95062 10.3923 4.17298 11.5967 2.68152 13.1124C2.07206 13.6817 3.00988 14.6101 3.57209 13.9888C4.94708 12.592 6.58583 11.4822 8.39322 10.7239C10.2006 9.96557 12.1406 9.57383 14.1006 9.57139C18.0503 9.57139 21.8394 11.1612 24.6339 13.9888C25.2009 14.6124 26.1269 13.677 25.5221 13.1124C24.0305 11.5977 22.2531 10.3941 20.293 9.57138C18.3328 8.74863 16.2288 8.32072 14.103 8.31704ZM14.103 12.2502C12.4884 12.2515 10.8902 12.5735 9.40115 13.1976C7.91208 13.8217 6.56183 14.7354 5.42882 15.8857C4.78157 16.4337 5.78788 17.3928 6.31467 16.7597C7.33209 15.7271 8.54446 14.9067 9.88143 14.3463C11.2184 13.7859 12.6533 13.4966 14.103 13.4951C17.0228 13.4951 19.822 14.6691 21.8914 16.7621C22.463 17.3668 23.3748 16.4668 22.7819 15.8857C21.648 14.7352 20.297 13.8212 18.8072 13.1967C17.3173 12.5722 15.7184 12.2521 14.103 12.2502ZM14.103 16.1762C11.8754 16.1762 9.74702 17.0668 8.17376 18.6566C7.56666 19.2165 8.4903 20.159 9.0596 19.5377C9.71886 18.8696 10.5043 18.339 11.3703 17.9769C12.2363 17.6148 13.1655 17.4283 14.1042 17.4283C15.0428 17.4283 15.9721 17.6148 16.8381 17.9769C17.7041 18.339 18.4895 18.8696 19.1488 19.5377C19.7299 20.1519 20.637 19.2354 20.0393 18.6566C19.2631 17.8711 18.3387 17.2474 17.3197 16.8216C16.3007 16.3958 15.2074 16.1765 14.103 16.1762ZM30.001 19.3771H33.7499V25.004H29.9986L30.001 19.3771ZM14.1006 20.1047C12.903 20.1047 11.7573 20.5842 10.9116 21.437C10.2974 22.0323 11.214 22.9394 11.8022 22.3181C12.1023 22.0128 12.4602 21.7702 12.855 21.6047C13.2499 21.4392 13.6737 21.3539 14.1018 21.3539C14.53 21.3539 14.9538 21.4392 15.3486 21.6047C15.7435 21.7702 16.1014 22.0128 16.4015 22.3181C16.9897 22.9323 17.8991 22.0275 17.2873 21.437C16.8703 21.0151 16.3737 20.6801 15.8263 20.4514C15.2789 20.2227 14.6939 20.1048 14.1006 20.1047ZM3.75162 26.256H36.2515C36.9554 26.256 37.5011 26.8111 37.5011 27.5056V33.7514C37.5011 34.4553 36.9365 35.0034 36.2491 35.0034H3.75399C3.58913 35.005 3.42562 34.9737 3.27301 34.9113C3.1204 34.8489 2.98175 34.7568 2.86518 34.6402C2.7486 34.5236 2.65644 34.385 2.59408 34.2324C2.53172 34.0798 2.50042 33.9162 2.50199 33.7514V27.5056C2.50199 26.8111 3.05004 26.2536 3.75399 26.2536L3.75162 26.256ZM6.87216 27.5056C6.37534 27.5056 5.89886 27.703 5.54756 28.0543C5.19625 28.4056 4.99889 28.882 4.99889 29.3789C4.99889 29.8757 5.19625 30.3522 5.54756 30.7035C5.89886 31.0548 6.37534 31.2521 6.87216 31.2521C7.12607 31.2649 7.37993 31.2259 7.61831 31.1375C7.85669 31.0491 8.07461 30.9132 8.25883 30.738C8.44306 30.5628 8.58974 30.352 8.68997 30.1183C8.79021 29.8847 8.84189 29.6331 8.84189 29.3789C8.84189 29.1246 8.79021 28.8731 8.68997 28.6394C8.58974 28.4058 8.44306 28.1949 8.25883 28.0197C8.07461 27.8445 7.85669 27.7086 7.61831 27.6202C7.37993 27.5318 7.12607 27.4928 6.87216 27.5056ZM11.8801 27.5056C10.8266 27.5056 9.99978 28.3489 9.99978 29.3765C9.99978 30.4041 10.8384 31.2521 11.8801 31.2521C12.377 31.2521 12.8534 31.0548 13.2047 30.7035C13.556 30.3522 13.7534 29.8757 13.7534 29.3789C13.7534 28.882 13.556 28.4056 13.2047 28.0543C12.8534 27.703 12.377 27.5056 11.8801 27.5056ZM16.8787 27.5056C16.6269 27.4961 16.3759 27.5373 16.1404 27.6269C15.905 27.7165 15.69 27.8526 15.5084 28.0271C15.3267 28.2015 15.182 28.4108 15.083 28.6425C14.9839 28.8741 14.9326 29.1233 14.9319 29.3752C14.9313 29.6271 14.9814 29.8765 15.0793 30.1086C15.1771 30.3407 15.3208 30.5507 15.5016 30.7261C15.6824 30.9015 15.8966 31.0387 16.1316 31.1295C16.3666 31.2203 16.6174 31.2628 16.8692 31.2545C17.3549 31.2385 17.8154 31.0347 18.1538 30.6859C18.4922 30.3371 18.6819 29.8706 18.6832 29.3846C18.6844 28.8987 18.497 28.4312 18.1604 28.0807C17.8238 27.7302 17.3643 27.524 16.8787 27.5056ZM6.87216 28.7505C7.20524 28.7505 7.50052 29.0245 7.50052 29.3765C7.50052 29.5425 7.43456 29.7018 7.31717 29.8192C7.19977 29.9365 7.04054 30.0025 6.87452 30.0025C6.7085 30.0025 6.54927 29.9365 6.43187 29.8192C6.31448 29.7018 6.24852 29.5425 6.24852 29.3765C6.24852 29.0245 6.53908 28.7505 6.87216 28.7505ZM11.8801 28.7505C12.2156 28.7505 12.5014 29.0245 12.5014 29.3765C12.5014 29.7285 12.2179 30.0001 11.8801 30.0001C11.5423 30.0001 11.2494 29.7308 11.2494 29.3765C11.2494 29.0222 11.5447 28.7505 11.8801 28.7505ZM16.8787 28.7505C17.207 28.7505 17.4999 29.0245 17.4999 29.3765C17.4999 29.7285 17.2165 30.0001 16.8787 30.0001C16.5385 30.0001 16.2503 29.7308 16.2503 29.3765C16.2503 29.0222 16.5503 28.7505 16.8787 28.7505ZM20.6228 28.7505C19.8078 28.7505 19.8078 30.0001 20.6228 30.0001H26.2544C27.0694 30.0001 27.0694 28.7481 26.2544 28.7481L20.6228 28.7505ZM29.0631 28.7505C28.2458 28.7505 28.2458 30.0001 29.0631 30.0001H30.627C31.4419 30.0001 31.4419 28.7481 30.627 28.7481L29.0631 28.7505ZM5.62253 36.253H8.74779V37.5026H5.62489L5.62253 36.253ZM31.2482 36.253H34.3735V37.5026H31.253L31.2482 36.253Z" fill="white"></path></svg>