<svg xmlns="http://www.w3.org/2000/svg" width="40" height="40" viewBox="0 0 40 40" fill="none"><g clip-path="url(#clip0_2946_604)"><path d="M37.5 33.3346H2.5C1.12167 33.3346 0 32.213 0 30.8346V9.16797C0 7.78964 1.12167 6.66797 2.5 6.66797H9.63333C9.85435 6.66797 10.0663 6.75577 10.2226 6.91205C10.3789 7.06833 10.4667 7.28029 10.4667 7.5013C10.4667 7.72232 10.3789 7.93428 10.2226 8.09056C10.0663 8.24684 9.85435 8.33464 9.63333 8.33464H2.5C2.27899 8.33464 2.06702 8.42243 1.91074 8.57871C1.75446 8.73499 1.66667 8.94695 1.66667 9.16797V30.8346C1.66667 31.0556 1.75446 31.2676 1.91074 31.4239C2.06702 31.5802 2.27899 31.668 2.5 31.668H37.5C37.721 31.668 37.933 31.5802 38.0893 31.4239C38.2455 31.2676 38.3333 31.0556 38.3333 30.8346V9.16797C38.3333 8.94695 38.2455 8.73499 38.0893 8.57871C37.933 8.42243 37.721 8.33464 37.5 8.33464H30.3667C30.1457 8.33464 29.9337 8.24684 29.7774 8.09056C29.6211 7.93428 29.5333 7.72232 29.5333 7.5013C29.5333 7.28029 29.6211 7.06833 29.7774 6.91205C29.9337 6.75577 30.1457 6.66797 30.3667 6.66797H37.5C38.8783 6.66797 40 7.78964 40 9.16797V30.8346C40 32.213 38.8783 33.3346 37.5 33.3346ZM27.5 40.0013H12.5C12.279 40.0013 12.067 39.9135 11.9107 39.7572C11.7545 39.6009 11.6667 39.389 11.6667 39.168C11.6667 38.947 11.7545 38.735 11.9107 38.5787C12.067 38.4224 12.279 38.3346 12.5 38.3346H27.5C27.721 38.3346 27.933 38.4224 28.0893 38.5787C28.2455 38.735 28.3333 38.947 28.3333 39.168C28.3333 39.389 28.2455 39.6009 28.0893 39.7572C27.933 39.9135 27.721 40.0013 27.5 40.0013Z" fill="white"></path><path d="M17.5013 40C17.2803 40 17.0683 39.9122 16.912 39.7559C16.7558 39.5996 16.668 39.3877 16.668 39.1667V32.5C16.668 32.279 16.7558 32.067 16.912 31.9107C17.0683 31.7545 17.2803 31.6667 17.5013 31.6667C17.7223 31.6667 17.9343 31.7545 18.0906 31.9107C18.2468 32.067 18.3346 32.279 18.3346 32.5V39.1667C18.3346 39.3877 18.2468 39.5996 18.0906 39.7559C17.9343 39.9122 17.7223 40 17.5013 40ZM22.5013 40C22.2803 40 22.0683 39.9122 21.912 39.7559C21.7558 39.5996 21.668 39.3877 21.668 39.1667V32.5C21.668 32.279 21.7558 32.067 21.912 31.9107C22.0683 31.7545 22.2803 31.6667 22.5013 31.6667C22.7223 31.6667 22.9343 31.7545 23.0906 31.9107C23.2468 32.067 23.3346 32.279 23.3346 32.5V39.1667C23.3346 39.3877 23.2468 39.5996 23.0906 39.7559C22.9343 39.9122 22.7223 40 22.5013 40ZM15.0013 25C14.7803 25 14.5683 24.9122 14.412 24.7559C14.2558 24.5996 14.168 24.3877 14.168 24.1667V15.8333C14.168 15.6123 14.2558 15.4004 14.412 15.2441C14.5683 15.0878 14.7803 15 15.0013 15C15.2223 15 15.4343 15.0878 15.5906 15.2441C15.7468 15.4004 15.8346 15.6123 15.8346 15.8333V24.1667C15.8346 24.3877 15.7468 24.5996 15.5906 24.7559C15.4343 24.9122 15.2223 25 15.0013 25Z" fill="white"></path><path d="M17.5013 16.6685H12.5013C12.2803 16.6685 12.0683 16.5807 11.912 16.4245C11.7558 16.2682 11.668 16.0562 11.668 15.8352C11.668 15.6142 11.7558 15.4022 11.912 15.246C12.0683 15.0897 12.2803 15.0019 12.5013 15.0019H17.5013C17.7223 15.0019 17.9343 15.0897 18.0906 15.246C18.2468 15.4022 18.3346 15.6142 18.3346 15.8352C18.3346 16.0562 18.2468 16.2682 18.0906 16.4245C17.9343 16.5807 17.7223 16.6685 17.5013 16.6685ZM25.0013 25.0019C24.8221 25.0019 24.6477 24.9443 24.5039 24.8374C24.3601 24.7305 24.2546 24.5801 24.203 24.4085L21.703 16.0752C21.6397 15.8635 21.6629 15.6353 21.7676 15.4407C21.8722 15.246 22.0498 15.1008 22.2613 15.0369C22.473 14.9736 22.7012 14.9968 22.8958 15.1015C23.0905 15.2061 23.2357 15.3837 23.2996 15.5952L25.0013 21.2685L26.703 15.5969C26.7345 15.492 26.7863 15.3944 26.8556 15.3096C26.9248 15.2248 27.0101 15.1545 27.1065 15.1027C27.2029 15.0508 27.3086 15.0185 27.4175 15.0075C27.5264 14.9965 27.6365 15.007 27.7413 15.0385C27.8461 15.0701 27.9437 15.1219 28.0285 15.1912C28.1133 15.2604 28.1837 15.3457 28.2355 15.4421C28.2874 15.5385 28.3197 15.6442 28.3307 15.7531C28.3417 15.862 28.3312 15.972 28.2996 16.0769L25.7996 24.4102C25.7477 24.5815 25.6421 24.7315 25.4983 24.8381C25.3545 24.9446 25.1803 25.0021 25.0013 25.0019ZM20.0013 10.8352C19.6698 10.8352 19.3518 10.7035 19.1174 10.4691C18.883 10.2347 18.7513 9.91673 18.7513 9.58521C18.7513 9.25369 18.883 8.93575 19.1174 8.70132C19.3518 8.4669 19.6698 8.33521 20.0013 8.33521C20.3328 8.33521 20.6508 8.4669 20.8852 8.70132C21.1196 8.93575 21.2513 9.25369 21.2513 9.58521C21.2513 9.91673 21.1196 10.2347 20.8852 10.4691C20.6508 10.7035 20.3328 10.8352 20.0013 10.8352ZM23.3346 7.50188C23.212 7.5021 23.0909 7.47517 22.98 7.42301C22.869 7.37085 22.771 7.29476 22.693 7.20021C21.2313 5.43854 18.7696 5.43854 17.3096 7.20021C17.2398 7.28454 17.1541 7.35425 17.0572 7.40536C16.9604 7.45646 16.8545 7.48795 16.7455 7.49802C16.6365 7.50808 16.5265 7.49652 16.422 7.46401C16.3175 7.4315 16.2204 7.37866 16.1363 7.30854C16.0521 7.23887 15.9824 7.15328 15.9313 7.05667C15.8802 6.96006 15.8487 6.85432 15.8384 6.74551C15.8282 6.63669 15.8396 6.52693 15.8718 6.42249C15.904 6.31806 15.9565 6.221 16.0263 6.13688C18.133 3.60021 21.8696 3.60021 23.9763 6.13688C24.0772 6.25868 24.1414 6.4067 24.1613 6.56363C24.1812 6.72055 24.1561 6.87991 24.0888 7.02306C24.0215 7.16622 23.9148 7.28726 23.7813 7.37205C23.6477 7.45684 23.4928 7.50187 23.3346 7.50188Z" fill="white"></path><path d="M26.6667 5C26.5439 5.00013 26.4226 4.97316 26.3114 4.92101C26.2002 4.86887 26.1019 4.79284 26.0234 4.69833C24.4067 2.74333 22.2667 1.66667 20.0001 1.66667C17.7334 1.66667 15.5934 2.74333 13.9751 4.69833C13.9056 4.78353 13.8199 4.85412 13.7229 4.90604C13.626 4.95797 13.5198 4.99019 13.4103 5.00087C13.3009 5.01154 13.1904 5.00045 13.0853 4.96823C12.9801 4.93602 12.8824 4.88331 12.7977 4.81315C12.7131 4.743 12.6431 4.65678 12.5919 4.55946C12.5407 4.46215 12.5093 4.35566 12.4994 4.24615C12.4896 4.13663 12.5015 4.02625 12.5345 3.92136C12.5675 3.81647 12.621 3.71914 12.6917 3.635C14.6317 1.29 17.2267 0 20.0001 0C22.7734 0 25.3684 1.29 27.3084 3.635C27.4093 3.75681 27.4735 3.90482 27.4934 4.06175C27.5133 4.21868 27.4882 4.37803 27.4209 4.52119C27.3536 4.66434 27.2469 4.78539 27.1134 4.87018C26.9798 4.95497 26.8249 4.99999 26.6667 5Z" fill="white"></path></g><defs><clipPath id="clip0_2946_604"><rect width="40" height="40" fill="white"></rect></clipPath></defs></svg>