<svg xmlns="http://www.w3.org/2000/svg" width="65" height="65" viewBox="0 0 65 65" fill="#fff"><path d="M28.1653 18.418C22.6919 18.5182 18.3313 23.028 18.4153 28.5016C18.4153 37.8681 27.0624 45.9574 27.4308 46.2965C27.8457 46.6792 28.4849 46.6792 28.8998 46.2965C29.2681 45.9574 37.9153 37.8681 37.9153 28.5016C37.9992 23.028 33.6386 18.5182 28.1653 18.418ZM28.1653 43.9695C26.1308 41.8461 20.5819 35.4187 20.5819 28.5016C20.4966 24.224 23.8879 20.6835 28.1653 20.5846C32.4426 20.6835 35.8339 24.224 35.7486 28.5016C35.7486 35.4057 30.1976 41.8429 28.1653 43.9695Z"></path><path d="M28.1654 22.75C25.7721 22.75 23.832 24.6901 23.832 27.0833C23.832 29.4766 25.7721 31.4167 28.1654 31.4167C30.5586 31.4167 32.4987 29.4766 32.4987 27.0833C32.4987 24.6901 30.5586 22.75 28.1654 22.75ZM28.1654 29.25C26.9687 29.25 25.9987 28.28 25.9987 27.0833C25.9987 25.8867 26.9687 24.9167 28.1654 24.9167C29.362 24.9167 30.332 25.8867 30.332 27.0833C30.332 28.28 29.362 29.25 28.1654 29.25Z"></path><path d="M59.5833 0H46.5833C43.5933 0.00358163 41.1702 2.42661 41.1667 5.41667V6.5H6.5C2.91163 6.50358 0.003583 9.41163 0 13V58.5C0.003583 62.0884 2.91163 64.9964 6.5 65H52C55.5884 64.9964 58.4964 62.0884 58.5 58.5V39H59.5833C62.5734 38.9964 64.9964 36.5734 65 33.5833V5.41667C64.9964 2.42661 62.5734 0.00358163 59.5833 0ZM43.3333 5.41667C43.3333 3.62174 44.7884 2.16667 46.5833 2.16667H59.5833C61.3783 2.16667 62.8333 3.62174 62.8333 5.41667V29.25C62.8333 31.0449 61.3783 32.5 59.5833 32.5H46.5833C44.7884 32.5 43.3333 31.0449 43.3333 29.25V5.41667ZM15.1667 50.9167H56.3333V55.25H15.1667C14.5684 55.25 14.0833 55.735 14.0833 56.3333V62.8333H9.75V56.3333C9.75 55.735 9.26498 55.25 8.66667 55.25H2.16667V50.9167H8.66667C9.26498 50.9167 9.75 50.4316 9.75 49.8333V8.66667H14.0833V49.8333C14.0833 50.4316 14.5684 50.9167 15.1667 50.9167ZM6.5 8.66667H7.58333V48.75H2.16667V13C2.16667 10.6068 4.10677 8.66667 6.5 8.66667ZM2.16667 58.5V57.4167H7.58333V62.8333H6.5C4.10677 62.8333 2.16667 60.8932 2.16667 58.5ZM52 62.8333H16.25V57.4167H56.3333V58.5C56.3333 60.8932 54.3932 62.8333 52 62.8333ZM56.3333 48.75H16.25V8.66667H41.1667V33.5833C41.1702 36.5734 43.5933 38.9964 46.5833 39H56.3333V48.75ZM59.5833 36.8333H46.5833C44.7884 36.8333 43.3333 35.3783 43.3333 33.5833V33.5552C44.2654 34.2721 45.4074 34.6627 46.5833 34.6667H59.5833C60.7593 34.6627 61.9012 34.2721 62.8333 33.5552V33.5833C62.8333 35.3783 61.3783 36.8333 59.5833 36.8333Z"></path><path d="M47.667 16.3584C47.9572 16.3578 48.2351 16.2407 48.4383 16.0334C49.6611 14.784 51.3355 14.0799 53.0836 14.0799C54.8318 14.0799 56.5062 14.784 57.729 16.0334C57.9941 16.3347 58.4041 16.4647 58.7944 16.3713C59.1847 16.2779 59.4914 15.9764 59.5915 15.5877C59.6915 15.199 59.5684 14.7869 59.2716 14.5167C57.6417 12.8545 55.4116 11.918 53.0836 11.918C50.7557 11.918 48.5256 12.8545 46.8956 14.5167C46.5906 14.8279 46.5017 15.2916 46.6701 15.6935C46.8384 16.0955 47.2312 16.3574 47.667 16.3584Z"></path><path d="M53.0837 16.3594C51.9195 16.3574 50.8039 16.8263 49.9907 17.6594C49.694 17.9296 49.5709 18.3417 49.6709 18.7304C49.7709 19.1191 50.0777 19.4206 50.468 19.514C50.8583 19.6074 51.2683 19.4774 51.5334 19.176C52.3954 18.3341 53.7719 18.3341 54.6339 19.176C54.899 19.4774 55.309 19.6074 55.6993 19.514C56.0897 19.4206 56.3964 19.1191 56.4964 18.7304C56.5964 18.3417 56.4733 17.9296 56.1766 17.6594C55.3634 16.8263 54.2479 16.3574 53.0837 16.3594Z"></path><path d="M53.0833 22.7487C53.6816 22.7487 54.1667 22.2637 54.1667 21.6654C54.1667 21.0671 53.6816 20.582 53.0833 20.582C52.485 20.582 52 21.0671 52 21.6654C52 22.2637 52.485 22.7487 53.0833 22.7487Z"></path></svg>