<svg xmlns="http://www.w3.org/2000/svg" width="65" height="65" viewBox="0 0 65 65" fill="#EF4824"><path d="M61.75 45.5H3.25C1.45507 45.5 0 46.9551 0 48.75V61.75C0 63.5449 1.45507 65 3.25 65H61.75C63.5449 65 65 63.5449 65 61.75V48.75C65 46.9551 63.5449 45.5 61.75 45.5ZM62.8333 61.75C62.8333 62.3483 62.3483 62.8333 61.75 62.8333H3.25C2.65169 62.8333 2.16667 62.3483 2.16667 61.75V48.75C2.16667 48.1517 2.65169 47.6667 3.25 47.6667H61.75C62.3483 47.6667 62.8333 48.1517 62.8333 48.75V61.75Z"></path><path d="M9.7487 49.832C6.75716 49.832 4.33203 52.2572 4.33203 55.2487C4.33203 58.2402 6.75716 60.6654 9.7487 60.6654C12.7402 60.6654 15.1654 58.2402 15.1654 55.2487C15.1618 52.2586 12.7388 49.8356 9.7487 49.832ZM9.7487 58.4987C7.95377 58.4987 6.4987 57.0436 6.4987 55.2487C6.4987 53.4538 7.95377 51.9987 9.7487 51.9987C11.5436 51.9987 12.9987 53.4538 12.9987 55.2487C12.9987 57.0436 11.5436 58.4987 9.7487 58.4987Z"></path><path d="M21.6654 50.918C19.2721 50.918 17.332 52.8581 17.332 55.2513C17.332 57.6445 19.2721 59.5846 21.6654 59.5846C24.0586 59.5846 25.9987 57.6445 25.9987 55.2513C25.9987 52.8581 24.0586 50.918 21.6654 50.918ZM21.6654 57.418C20.4687 57.418 19.4987 56.4479 19.4987 55.2513C19.4987 54.0547 20.4687 53.0846 21.6654 53.0846C22.862 53.0846 23.832 54.0547 23.832 55.2513C23.832 56.4479 22.862 57.418 21.6654 57.418Z"></path><path d="M55.2487 49.832C52.2572 49.832 49.832 52.2572 49.832 55.2487C49.832 58.2402 52.2572 60.6654 55.2487 60.6654C58.2402 60.6654 60.6654 58.2402 60.6654 55.2487C60.6618 52.2586 58.2388 49.8356 55.2487 49.832ZM55.2487 58.4987C53.4538 58.4987 51.9987 57.0436 51.9987 55.2487C51.9987 53.4538 53.4538 51.9987 55.2487 51.9987C57.0436 51.9987 58.4987 53.4538 58.4987 55.2487C58.4987 57.0436 57.0436 58.4987 55.2487 58.4987Z"></path><path d="M43.3333 50.918C40.9401 50.918 39 52.8581 39 55.2513C39 57.6445 40.9401 59.5846 43.3333 59.5846C45.7266 59.5846 47.6667 57.6445 47.6667 55.2513C47.6667 52.8581 45.7266 50.918 43.3333 50.918ZM43.3333 57.418C42.1367 57.418 41.1667 56.4479 41.1667 55.2513C41.1667 54.0547 42.1367 53.0846 43.3333 53.0846C44.53 53.0846 45.5 54.0547 45.5 55.2513C45.5 56.4479 44.53 57.418 43.3333 57.418Z"></path><path d="M35.7513 57.418H29.2513C28.653 57.418 28.168 57.903 28.168 58.5013C28.168 59.0996 28.653 59.5846 29.2513 59.5846H35.7513C36.3496 59.5846 36.8346 59.0996 36.8346 58.5013C36.8346 57.903 36.3496 57.418 35.7513 57.418Z"></path><path d="M30.3333 54.1667C30.9316 54.1667 31.4167 53.6816 31.4167 53.0833C31.4167 52.485 30.9316 52 30.3333 52C29.735 52 29.25 52.485 29.25 53.0833C29.25 53.6816 29.735 54.1667 30.3333 54.1667Z"></path><path d="M34.6654 54.1667C35.2637 54.1667 35.7487 53.6816 35.7487 53.0833C35.7487 52.485 35.2637 52 34.6654 52C34.0671 52 33.582 52.485 33.582 53.0833C33.582 53.6816 34.0671 54.1667 34.6654 54.1667Z"></path><path d="M61.75 0H3.25C1.45507 0 0 1.45507 0 3.25V35.75C0 37.5449 1.45507 39 3.25 39H26.3792C27.2935 41.5968 29.7469 43.334 32.5 43.334C35.2531 43.334 37.7065 41.5968 38.6208 39H61.75C63.5449 39 65 37.5449 65 35.75V3.25C65 1.45507 63.5449 0 61.75 0ZM3.25 36.8333C2.65169 36.8333 2.16667 36.3483 2.16667 35.75V33.5833H6.5C7.09831 33.5833 7.58333 33.0983 7.58333 32.5C7.58333 31.9017 7.09831 31.4167 6.5 31.4167H2.16667V3.25C2.16667 2.65169 2.65169 2.16667 3.25 2.16667H61.75C62.3483 2.16667 62.8333 2.65169 62.8333 3.25V31.4167H36.0858C33.9135 29.9722 31.0865 29.9722 28.9142 31.4167H10.8333C10.235 31.4167 9.75 31.9017 9.75 32.5C9.75 33.0983 10.235 33.5833 10.8333 33.5833H26.8797C26.3041 34.5698 26.0005 35.6913 26 36.8333H3.25ZM32.5 41.1667C30.1068 41.1667 28.1667 39.2266 28.1667 36.8333C28.1667 34.4401 30.1068 32.5 32.5 32.5C34.8932 32.5 36.8333 34.4401 36.8333 36.8333C36.8333 39.2266 34.8932 41.1667 32.5 41.1667ZM61.75 36.8333H39C38.9995 35.6913 38.6959 34.5698 38.1203 33.5833H62.8333V35.75C62.8333 36.3483 62.3483 36.8333 61.75 36.8333Z"></path><path d="M6.5011 10.8323C6.7884 10.8323 7.0639 10.7181 7.26702 10.5149L10.517 7.26493C10.7986 6.99294 10.9116 6.59015 10.8124 6.21138C10.7133 5.83262 10.4175 5.53682 10.0387 5.43768C9.65997 5.33854 9.25718 5.45148 8.98519 5.7331L5.73519 8.9831C5.42545 9.29293 5.33281 9.75881 5.50045 10.1636C5.66809 10.5683 6.06301 10.8323 6.5011 10.8323Z"></path><path d="M17.0149 5.73515C16.5919 5.31224 15.9061 5.31224 15.4831 5.73515L5.7331 15.4852C5.45148 15.7572 5.33854 16.1599 5.43768 16.5387C5.53682 16.9175 5.83262 17.2133 6.21138 17.3124C6.59015 17.4116 6.99294 17.2986 7.26493 17.017L17.0149 7.26699C17.4378 6.84395 17.4378 6.1582 17.0149 5.73515Z"></path><path d="M15.6492 21.5122C16.0723 21.9351 16.758 21.9351 17.181 21.5122C25.6483 13.0653 39.3548 13.0653 47.8221 21.5122C48.094 21.7938 48.4968 21.9067 48.8756 21.8076C49.2544 21.7084 49.5502 21.4126 49.6493 21.0339C49.7485 20.6551 49.6355 20.2523 49.3539 19.9803C40.0401 10.6889 24.9631 10.6889 15.6492 19.9803C15.2263 20.4034 15.2263 21.0891 15.6492 21.5122Z"></path><path d="M32.5009 17.3438C27.3276 17.3274 22.3626 19.3808 18.7122 23.0465C18.4384 23.3202 18.3313 23.7191 18.4314 24.093C18.5314 24.467 18.8234 24.7592 19.1973 24.8595C19.5712 24.9598 19.9702 24.8531 20.244 24.5794C27.0176 17.8207 37.9841 17.8207 44.7577 24.5794C45.0315 24.8531 45.4305 24.9598 45.8044 24.8595C46.1783 24.7592 46.4703 24.467 46.5703 24.093C46.6704 23.7191 46.5634 23.3202 46.2895 23.0465C42.6391 19.3808 37.6742 17.3274 32.5009 17.3438Z"></path><path d="M32.5011 21.672C28.4771 21.658 24.6149 23.2551 21.7761 26.1071C21.4944 26.3791 21.3815 26.7819 21.4806 27.1607C21.5798 27.5394 21.8756 27.8352 22.2544 27.9344C22.6331 28.0335 23.0359 27.9206 23.3079 27.639C28.3879 22.5703 36.6121 22.5703 41.6921 27.639C42.1151 28.0626 42.8014 28.0631 43.225 27.64C43.6486 27.217 43.6491 26.5307 43.2261 26.1071C40.3873 23.2551 36.5251 21.658 32.5011 21.672Z"></path></svg>