<svg xmlns="http://www.w3.org/2000/svg" width="65" height="65" viewBox="0 0 65 65" fill="#EF4824"><g clip-path="url(#clip0_2832_334)"><path d="M5.41536 43.332C4.81706 43.332 4.33203 43.8171 4.33203 44.4154V45.4987C4.33203 46.097 4.81706 46.582 5.41536 46.582C6.01367 46.582 6.4987 46.097 6.4987 45.4987V44.4154C6.4987 43.8171 6.01367 43.332 5.41536 43.332Z"></path><path d="M5.41536 48.75C4.81706 48.75 4.33203 49.235 4.33203 49.8333V50.9167C4.33203 51.515 4.81706 52 5.41536 52C6.01367 52 6.4987 51.515 6.4987 50.9167V49.8333C6.4987 49.235 6.01367 48.75 5.41536 48.75Z"></path><path d="M9.7513 43.332C9.15299 43.332 8.66797 43.8171 8.66797 44.4154V45.4987C8.66797 46.097 9.15299 46.582 9.7513 46.582C10.3496 46.582 10.8346 46.097 10.8346 45.4987V44.4154C10.8346 43.8171 10.3496 43.332 9.7513 43.332Z"></path><path d="M9.7513 48.75C9.15299 48.75 8.66797 49.235 8.66797 49.8333V50.9167C8.66797 51.515 9.15299 52 9.7513 52C10.3496 52 10.8346 51.515 10.8346 50.9167V49.8333C10.8346 49.235 10.3496 48.75 9.7513 48.75Z"></path><path d="M14.0833 43.332C13.485 43.332 13 43.8171 13 44.4154V45.4987C13 46.097 13.485 46.582 14.0833 46.582C14.6816 46.582 15.1667 46.097 15.1667 45.4987V44.4154C15.1667 43.8171 14.6816 43.332 14.0833 43.332Z"></path><path d="M14.0833 48.75C13.485 48.75 13 49.235 13 49.8333V50.9167C13 51.515 13.485 52 14.0833 52C14.6816 52 15.1667 51.515 15.1667 50.9167V49.8333C15.1667 49.235 14.6816 48.75 14.0833 48.75Z"></path><path d="M61.75 38.9966H48.75C46.9551 38.9966 45.5 40.4516 45.5 42.2466V44.4132H42.25V42.2466C42.2483 40.7908 41.5158 39.4332 40.3 38.6326C46.5606 36.2091 50.9167 30.9799 50.9167 24.9132C50.9167 21.2093 42.1709 20.0469 37.7498 19.697C38.3125 17.5048 37.453 15.1939 35.5945 13.9023C33.736 12.6107 31.2705 12.6107 29.412 13.9023C27.5535 15.1939 26.694 17.5048 27.2567 19.697C22.8378 20.0458 14.0833 21.2082 14.0833 24.9132C14.0833 30.9799 18.4394 36.2091 24.7 38.6326C23.4842 39.4332 22.7517 40.7908 22.75 42.2466V44.4132H19.5V42.2466C19.5 40.4516 18.0449 38.9966 16.25 38.9966H3.25C1.45507 38.9966 0 40.4516 0 42.2466V53.0799C0 54.8748 1.45507 56.3299 3.25 56.3299H16.25C18.0449 56.3299 19.5 54.8748 19.5 53.0799V50.9132H22.75V55.2466C22.7554 57.2481 24.131 58.9855 26.078 59.4499C26.5473 62.6351 29.2804 64.995 32.5 64.995C35.7196 64.995 38.4527 62.6351 38.922 59.4499C40.869 58.9855 42.2446 57.2481 42.25 55.2466V50.9132H45.5V53.0799C45.5 54.8748 46.9551 56.3299 48.75 56.3299H61.75C63.5449 56.3299 65 54.8748 65 53.0799V42.2466C65 40.4516 63.5449 38.9966 61.75 38.9966ZM32.5 15.1632C34.2949 15.1632 35.75 16.6183 35.75 18.4132C35.75 20.2081 34.2949 21.6632 32.5 21.6632C30.7051 21.6632 29.25 20.2081 29.25 18.4132C29.25 16.6183 30.7051 15.1632 32.5 15.1632ZM28.3075 21.7965C29.0887 22.78 30.188 23.4607 31.4167 23.7216V24.9132C31.4167 25.5115 31.9017 25.9966 32.5 25.9966C33.0983 25.9966 33.5833 25.5115 33.5833 24.9132V23.7216C34.8139 23.463 35.9155 22.7829 36.6979 21.7986C45.1468 22.3306 48.75 24.2264 48.75 24.9132C48.75 25.8568 43.0549 28.1632 32.5 28.1632C21.9451 28.1632 16.25 25.8568 16.25 24.9132C16.25 24.2253 19.8553 22.3295 28.3075 21.7965ZM16.6985 27.8946C20.6017 29.7579 27.9793 30.3299 32.5 30.3299C37.0208 30.3299 44.3983 29.7579 48.3015 27.8946C46.6104 33.6286 40.1765 37.9132 32.5 37.9132C24.8235 37.9132 18.3896 33.6286 16.6985 27.8946ZM17.3333 53.0799C17.3333 53.6782 16.8483 54.1632 16.25 54.1632H3.25C2.65169 54.1632 2.16667 53.6782 2.16667 53.0799V42.2466C2.16667 41.6482 2.65169 41.1632 3.25 41.1632H16.25C16.8483 41.1632 17.3333 41.6482 17.3333 42.2466V53.0799ZM19.5 48.7466V46.5799H22.75V48.7466H19.5ZM32.5 62.8299C30.5301 62.8225 28.813 61.4873 28.3205 59.5799H36.6795C36.187 61.4873 34.4699 62.8225 32.5 62.8299ZM40.0833 55.2466C40.0833 56.4432 39.1133 57.4132 37.9167 57.4132H27.0833C25.8867 57.4132 24.9167 56.4432 24.9167 55.2466V42.2466C24.9167 41.0499 25.8867 40.0799 27.0833 40.0799H37.9167C39.1133 40.0799 40.0833 41.0499 40.0833 42.2466V55.2466ZM42.25 48.7466V46.5799H45.5V48.7466H42.25ZM62.8333 53.0799C62.8333 53.6782 62.3483 54.1632 61.75 54.1632H48.75C48.1517 54.1632 47.6667 53.6782 47.6667 53.0799V42.2466C47.6667 41.6482 48.1517 41.1632 48.75 41.1632H61.75C62.3483 41.1632 62.8333 41.6482 62.8333 42.2466V53.0799Z"></path><path d="M59.5833 43.332C58.985 43.332 58.5 43.8171 58.5 44.4154V45.4987C58.5 46.097 58.985 46.582 59.5833 46.582C60.1816 46.582 60.6667 46.097 60.6667 45.4987V44.4154C60.6667 43.8171 60.1816 43.332 59.5833 43.332Z"></path><path d="M59.5833 48.75C58.985 48.75 58.5 49.235 58.5 49.8333V50.9167C58.5 51.515 58.985 52 59.5833 52C60.1816 52 60.6667 51.515 60.6667 50.9167V49.8333C60.6667 49.235 60.1816 48.75 59.5833 48.75Z"></path><path d="M55.2513 43.332C54.653 43.332 54.168 43.8171 54.168 44.4154V45.4987C54.168 46.097 54.653 46.582 55.2513 46.582C55.8496 46.582 56.3346 46.097 56.3346 45.4987V44.4154C56.3346 43.8171 55.8496 43.332 55.2513 43.332Z"></path><path d="M55.2513 48.75C54.653 48.75 54.168 49.235 54.168 49.8333V50.9167C54.168 51.515 54.653 52 55.2513 52C55.8496 52 56.3346 51.515 56.3346 50.9167V49.8333C56.3346 49.235 55.8496 48.75 55.2513 48.75Z"></path><path d="M50.9154 43.332C50.3171 43.332 49.832 43.8171 49.832 44.4154V45.4987C49.832 46.097 50.3171 46.582 50.9154 46.582C51.5137 46.582 51.9987 46.097 51.9987 45.4987V44.4154C51.9987 43.8171 51.5137 43.332 50.9154 43.332Z"></path><path d="M50.9154 48.75C50.3171 48.75 49.832 49.235 49.832 49.8333V50.9167C49.832 51.515 50.3171 52 50.9154 52C51.5137 52 51.9987 51.515 51.9987 50.9167V49.8333C51.9987 49.235 51.5137 48.75 50.9154 48.75Z"></path><path d="M45.908 7.36861C46.3446 6.95988 46.3674 6.27469 45.9589 5.83786C42.4866 2.09601 37.6053 -0.0198583 32.5006 0.00410765C27.3948 -0.0166918 22.5137 2.10225 19.0424 5.84652C18.6335 6.28359 18.6562 6.96941 19.0933 7.37836C19.5304 7.7873 20.2162 7.76451 20.6251 7.32744C23.6876 4.02249 27.995 2.15214 32.5006 2.17077C37.0048 2.14989 41.3118 4.01657 44.3762 7.31769C44.5725 7.52768 44.8442 7.65103 45.1315 7.66058C45.4188 7.67013 45.6981 7.5651 45.908 7.36861Z"></path><path d="M41.6981 10.3039C42.1372 10.306 42.5341 10.0428 42.7031 9.63758C42.8721 9.23233 42.7799 8.76513 42.4694 8.45461C36.9664 2.96305 28.0564 2.96305 22.5534 8.45461C22.2718 8.7266 22.1588 9.12939 22.258 9.50816C22.3571 9.88692 22.6529 10.1827 23.0317 10.2819C23.4105 10.381 23.8132 10.2681 24.0852 9.98644C28.7424 5.3413 36.2804 5.3413 40.9376 9.98644C41.1394 10.1883 41.4127 10.3024 41.6981 10.3039Z"></path><path d="M25.6088 11.5197C25.1982 11.9448 25.2041 12.6204 25.622 13.0383C26.0399 13.4562 26.7155 13.4621 27.1406 13.0515C30.1039 10.0939 34.9024 10.0939 37.8656 13.0515C38.2907 13.4621 38.9664 13.4562 39.3843 13.0383C39.8021 12.6204 39.808 11.9448 39.3975 11.5197C35.5876 7.7174 29.4186 7.7174 25.6088 11.5197Z"></path></g><defs><clipPath id="clip0_2832_334"><rect width="65" height="65" fill="white"></rect></clipPath></defs></svg>