<svg xmlns="http://www.w3.org/2000/svg" width="53" height="53" viewBox="0 0 53 53" fill="#fff"><g clip-path="url(#clip0_2954_1199)"><path d="M47.8281 29.395H43.9432L52.1737 10.1904C52.5052 9.41712 52.1469 8.52144 51.3736 8.19005C50.6003 7.85865 49.7046 8.21686 49.3732 8.99016L40.6283 29.395H12.1686L3.42368 8.99016C3.09228 8.21686 2.1968 7.85844 1.4233 8.19005C0.650008 8.52144 0.291797 9.41702 0.623195 10.1904L8.85372 29.395H4.96875C2.44868 29.395 0.398438 31.4452 0.398438 33.9653V43.1059C0.398438 45.626 2.44868 47.6762 4.96875 47.6762H6.59375V49.3012C6.59375 50.1426 7.27584 50.8247 8.11719 50.8247C8.95853 50.8247 9.64062 50.1426 9.64062 49.3012V47.6762H43.1562V49.3012C43.1562 50.1426 43.8383 50.8247 44.6797 50.8247C45.521 50.8247 46.2031 50.1426 46.2031 49.3012V47.6762H47.8281C50.3482 47.6762 52.3984 45.626 52.3984 43.1059V33.9653C52.3984 31.4452 50.3482 29.395 47.8281 29.395ZM49.3516 43.1059C49.3516 43.9459 48.6681 44.6293 47.8281 44.6293H4.96875C4.12873 44.6293 3.44531 43.9459 3.44531 43.1059V33.9653C3.44531 33.1253 4.12873 32.4419 4.96875 32.4419H47.8281C48.6681 32.4419 49.3516 33.1253 49.3516 33.9653V43.1059Z"></path><path d="M23.1735 21.5942C22.5786 22.1892 22.5786 23.1537 23.1735 23.7487C23.7684 24.3436 24.733 24.3436 25.328 23.7487C25.4952 23.5814 25.8569 23.3008 26.399 23.3008C26.9412 23.3008 27.3027 23.5814 27.4701 23.7487C28.065 24.3436 29.0296 24.3437 29.6246 23.7487C30.2195 23.1537 30.2195 22.1892 29.6246 21.5942C29.124 21.0937 28.0393 20.2539 26.399 20.2539C24.7588 20.2539 23.6741 21.0937 23.1735 21.5942ZM12.394 10.8274C16.1365 7.08216 21.1103 5.01953 26.399 5.01953C31.6878 5.01953 36.6615 7.08216 40.4041 10.8274C40.9984 11.4223 41.9631 11.4231 42.5585 10.8282C43.1537 10.2335 43.154 9.26891 42.5594 8.67375C38.2413 4.35247 32.5021 1.97266 26.399 1.97266C20.2959 1.97266 14.5568 4.35247 10.2388 8.67365C9.64407 9.2688 9.64437 10.2333 10.2396 10.8281C10.8347 11.4228 11.7994 11.4224 12.394 10.8274Z"></path><path d="M38.248 15.1353C38.8431 14.5407 38.8436 13.5761 38.2491 12.9808C35.0832 9.81176 30.8752 8.06641 26.4001 8.06641C21.9249 8.06641 17.7169 9.81176 14.5511 12.9808C13.9565 13.5761 13.9569 14.5406 14.5522 15.1353C15.1475 15.7299 16.1121 15.7294 16.7067 15.1341C19.2968 12.5412 22.7394 11.1133 26.4 11.1133C30.0606 11.1133 33.5031 12.5412 36.0933 15.1341C36.6878 15.7291 37.6522 15.7303 38.248 15.1353Z"></path><path d="M33.9357 19.441C34.5307 18.846 34.5307 17.8815 33.9357 17.2866C31.9196 15.2704 29.2426 14.1602 26.3979 14.1602C23.5533 14.1602 20.8763 15.2704 18.8603 17.2866C18.2653 17.8815 18.2653 18.846 18.8603 19.441C19.4551 20.036 20.4198 20.0361 21.0147 19.441C22.4553 18.0004 24.3671 17.207 26.3979 17.207C28.4288 17.207 30.3406 18.0004 31.7813 19.441C32.3761 20.036 33.3408 20.036 33.9357 19.441ZM32.4917 35.4883C31.6503 35.4883 30.9683 36.1704 30.9683 37.0117V40.0586C30.9683 40.8999 31.6503 41.582 32.4917 41.582C33.333 41.582 34.0151 40.8999 34.0151 40.0586V37.0117C34.0151 36.1704 33.333 35.4883 32.4917 35.4883ZM38.5854 35.4883C37.7441 35.4883 37.062 36.1704 37.062 37.0117V40.0586C37.062 40.8999 37.7441 41.582 38.5854 41.582C39.4268 41.582 40.1089 40.8999 40.1089 40.0586V37.0117C40.1089 36.1704 39.4268 35.4883 38.5854 35.4883ZM44.6792 35.4883C43.8379 35.4883 43.1558 36.1704 43.1558 37.0117V40.0586C43.1558 40.8999 43.8379 41.582 44.6792 41.582C45.5205 41.582 46.2026 40.8999 46.2026 40.0586V37.0117C46.2026 36.1704 45.5205 35.4883 44.6792 35.4883Z"></path></g><defs><clipPath id="clip0_2954_1199"><rect width="52" height="52" transform="translate(0.398438 0.398438)"></rect></clipPath></defs></svg>