<svg xmlns="http://www.w3.org/2000/svg" width="65" height="65" viewBox="0 0 65 65" fill="#EF4824"><path fill-rule="evenodd" clip-rule="evenodd" d="M27.115 4.62187C33.1052 3.47037 40.142 1.36155 44.9774 5.00342C49.8145 8.64659 47.4046 16.3483 49.9105 21.7907C52.9237 28.3349 61.2915 32.6149 60.9922 39.7851C60.6828 47.1957 55.5246 55.0844 48.4127 57.6743C41.355 60.2445 34.5711 53.163 27.115 52.1221C21.2654 51.3055 14.6576 55.6067 9.82266 52.2871C4.98677 48.9669 4.73943 42.0744 4.11585 36.3312C3.59826 31.5641 4.88467 27.0064 6.58972 22.5115C8.22382 18.2036 10.2114 14.0702 13.7201 11.0121C17.5211 7.69916 22.1175 5.58256 27.115 4.62187Z" fill-opacity="0.1"></path></svg>