<svg xmlns="http://www.w3.org/2000/svg" width="65" height="65" viewBox="0 0 65 65" fill="#EF4824"><path d="M59.5833 13.435H56.2315C56.6576 12.2089 56.3671 10.8385 55.484 9.90954C49.406 3.56744 41.1318 0 32.5 0C23.8682 0 15.594 3.56744 9.516 9.90954C8.63291 10.8385 8.34235 12.2089 8.7685 13.435H5.41667C2.42809 13.4424 0.00714689 15.9475 0 19.0399V59.3951C0.00358163 62.4891 2.42661 64.9963 5.41667 65H59.5833C62.5734 64.9963 64.9964 62.4891 65 59.3951V19.0399C64.9934 15.9472 62.5722 13.4418 59.5833 13.435ZM39.5688 38.6424L62.4271 17.4391C62.6914 17.9285 62.8312 18.4793 62.8333 19.0399V59.3951C62.8315 59.645 62.8028 59.8939 62.7478 60.1372L39.5688 38.6424ZM11.05 11.489C16.721 5.57105 24.4415 2.24215 32.4957 2.24215C40.5498 2.24215 48.2703 5.57105 53.9413 11.489C54.3682 11.9368 54.3682 12.6565 53.9413 13.1043C53.5167 13.5315 52.8407 13.5315 52.416 13.1043C47.1477 7.60864 39.9765 4.51745 32.4957 4.51745C25.0148 4.51745 17.8437 7.60864 12.5753 13.1043C12.1502 13.5303 11.4751 13.5303 11.05 13.1043C10.6231 12.6565 10.6231 11.9368 11.05 11.489ZM32.5 6.75847C38.7954 6.74166 44.8776 9.11754 49.5918 13.435H46.1641C37.9567 7.50287 27.0433 7.50287 18.8359 13.435H15.4082C20.1224 9.11754 26.2046 6.74166 32.5 6.75847ZM17.1795 17.7597C25.6472 9.02063 39.3527 9.02063 47.8205 17.7597C48.2434 18.1975 48.2434 18.9071 47.8205 19.3448C47.3925 19.7699 46.7167 19.7699 46.2887 19.3448C38.6676 11.4783 26.3313 11.4783 18.7103 19.3448C18.2826 19.7697 17.6071 19.7697 17.1795 19.3448C16.7566 18.9071 16.7566 18.1975 17.1795 17.7597ZM16.1807 15.677C16.0052 15.8474 15.8188 15.9976 15.6477 16.1747C15.0381 16.8054 14.6956 17.6608 14.6956 18.5528C14.6956 19.4448 15.0381 20.3003 15.6477 20.931C16.9345 22.2 18.9575 22.2 20.2443 20.931C27.0175 13.9375 37.9836 13.9375 44.7568 20.931C46.0261 22.2444 48.0841 22.2444 49.3534 20.931C50.6227 19.6176 50.6227 17.4881 49.3534 16.1747C49.1823 15.9976 48.9959 15.8474 48.8204 15.677H59.5833C60.005 15.6768 60.4225 15.7629 60.8118 15.9303L33.9408 40.8519C33.1232 41.622 31.8735 41.622 31.0559 40.8519L4.18925 15.9326C4.57838 15.7654 4.99534 15.6786 5.41667 15.677H16.1807ZM2.25225 60.1372C2.19722 59.8939 2.16851 59.645 2.16667 59.3951V19.0399C2.1689 18.4798 2.3083 17.9295 2.57183 17.4403L25.4302 38.6424L2.25225 60.1372ZM5.41667 62.758C4.70031 62.7549 4.00539 62.5048 3.44175 62.0473L27.0584 40.149L29.6108 42.5154C31.2499 44.0574 33.7533 44.0574 35.3925 42.5154L37.9481 40.1446L61.5648 62.044C60.9998 62.5041 60.3023 62.7555 59.5833 62.758H5.41667Z"></path><path d="M26.3724 26.0102C29.7594 22.6754 35.2421 22.6754 38.6292 26.0102C39.4503 26.8206 40.6471 27.1371 41.7687 26.8405C42.8904 26.5438 43.7665 25.6791 44.067 24.5721C44.3676 23.465 44.0469 22.2838 43.2258 21.4734C37.2997 15.6339 27.7018 15.6339 21.7758 21.4734C20.507 22.726 20.507 24.7565 21.7758 26.0091C23.0618 27.221 25.0857 27.2214 26.3724 26.0102ZM23.3087 22.9864C28.3889 17.9843 36.6127 17.9843 41.6929 22.9864C42.1158 23.4039 42.1158 24.0808 41.6929 24.4983C41.2649 24.9037 40.589 24.9037 40.161 24.4983C35.9275 20.3285 29.0729 20.3285 24.8394 24.4983C24.4118 24.9036 23.7363 24.9036 23.3087 24.4983C22.8858 24.0808 22.8858 23.4039 23.3087 22.9864Z"></path><path d="M32.5013 27.7852C30.1081 27.7852 28.168 29.7 28.168 32.0621C28.168 34.4242 30.1081 36.3391 32.5013 36.3391C34.8945 36.3391 36.8346 34.4242 36.8346 32.0621C36.8346 29.7 34.8945 27.7852 32.5013 27.7852ZM32.5013 34.2006C31.3047 34.2006 30.3346 33.2432 30.3346 32.0621C30.3346 30.8811 31.3047 29.9236 32.5013 29.9236C33.6979 29.9236 34.668 30.8811 34.668 32.0621C34.668 33.2432 33.6979 34.2006 32.5013 34.2006Z"></path></svg>