<svg xmlns="http://www.w3.org/2000/svg" width="65" height="65" viewBox="0 0 65 65" fill="#EF4824"><path d="M36.984 31.4167C37.6029 31.4167 38.1047 30.9317 38.1047 30.3334V27.0833C38.1047 26.485 37.6029 26 36.984 26C36.365 26 35.8633 26.485 35.8633 27.0833V30.3334C35.8633 30.9317 36.365 31.4167 36.984 31.4167Z"></path><path d="M41.4644 31.4167C42.0834 31.4167 42.5851 30.9317 42.5851 30.3334V27.0833C42.5851 26.485 42.0834 26 41.4644 26C40.8455 26 40.3438 26.485 40.3438 27.0833V30.3334C40.3438 30.9317 40.8455 31.4167 41.4644 31.4167Z"></path><path d="M45.9449 31.4167C46.5638 31.4167 47.0656 30.9317 47.0656 30.3334V27.0833C47.0656 26.485 46.5638 26 45.9449 26C45.326 26 44.8242 26.485 44.8242 27.0833V30.3334C44.8242 30.9317 45.326 31.4167 45.9449 31.4167Z"></path><path d="M62.7586 49.8347H60.5172C58.0415 49.8347 56.0345 51.7749 56.0345 54.1681H46.159C44.7098 51.7302 41.799 50.4745 38.954 51.06L36.8079 48.7514H45.9483C47.8051 48.7514 49.3103 47.2963 49.3103 45.5014V37.918H50.431C51.6689 37.918 52.6724 36.948 52.6724 35.7514V23.8346C52.6724 22.638 51.6689 21.668 50.431 21.668H12.6459C11.7553 21.6676 10.949 22.177 10.5918 22.9655C10.2346 23.7541 10.3942 24.6723 10.9984 25.3047L14.0579 28.5082C13.6674 29.043 13.4548 29.6801 13.4483 30.3347V31.418H11.2069C11.2069 30.2214 10.2034 29.2513 8.96552 29.2513H2.24138C1.0035 29.2513 0 30.2214 0 31.418V44.4181C0 45.6147 1.0035 46.5847 2.24138 46.5847H8.96552C10.2034 46.5847 11.2069 45.6147 11.2069 44.4181H13.4483V45.5014C13.4483 47.2963 14.9535 48.7514 16.8103 48.7514H27.7427L33.9513 55.415C32.8852 58.5772 34.4631 62.0069 37.6063 63.3594C40.7495 64.712 44.4417 63.5501 46.159 60.6681H56.0345C56.0345 63.0614 58.0415 65.0015 60.5172 65.0015H62.7586C63.9965 65.0015 65 64.0314 65 62.8348V52.0014C65 50.8048 63.9965 49.8347 62.7586 49.8347ZM47.069 45.5014C47.069 46.0997 46.5672 46.5847 45.9483 46.5847H40.9253L32.6502 37.918H47.069V45.5014ZM50.431 23.8346V35.7514H24.0253L12.6459 23.8346H50.431ZM2.24138 44.4181V43.3347H3.36207C3.98101 43.3347 4.48276 42.8497 4.48276 42.2514C4.48276 41.6531 3.98101 41.168 3.36207 41.168H2.24138V39.0014H3.36207C3.98101 39.0014 4.48276 38.5163 4.48276 37.918C4.48276 37.3197 3.98101 36.8347 3.36207 36.8347H2.24138V34.668H3.36207C3.98101 34.668 4.48276 34.183 4.48276 33.5847C4.48276 32.9864 3.98101 32.5013 3.36207 32.5013H2.24138V31.418H8.96552V32.5013V44.4181H2.24138ZM11.2069 42.2514V33.5847H13.4483V42.2514H11.2069ZM15.6897 45.5014V30.3347C15.6897 30.2989 15.6997 30.2664 15.7031 30.2318L22.3791 37.2214C22.8033 37.6654 23.4001 37.918 24.0253 37.918H29.5997L37.8793 46.5847H16.8103C16.1914 46.5847 15.6897 46.0997 15.6897 45.5014ZM30.7584 48.7514H33.7933L36.7519 51.9332C36.1136 52.3243 35.5477 52.8161 35.0776 53.3881L30.7584 48.7514ZM40.3448 61.7515C37.8691 61.7515 35.8621 59.8114 35.8621 57.4181C35.8621 55.0249 37.8691 53.0848 40.3448 53.0848C42.8206 53.0848 44.8276 55.0249 44.8276 57.4181C44.8276 59.8114 42.8206 61.7515 40.3448 61.7515ZM46.9681 58.5014C47.1026 57.7851 47.1026 57.0511 46.9681 56.3348H56.0345V58.5014H46.9681ZM60.5172 62.8348C59.2794 62.8348 58.2759 61.8647 58.2759 60.6681V54.1681C58.2759 52.9715 59.2794 52.0014 60.5172 52.0014H62.7586V62.8348H60.5172Z"></path><path d="M44.8297 7.86911C45.277 7.86928 45.6816 7.61225 45.859 7.21523C46.0363 6.8182 45.9524 6.35726 45.6455 6.04261C41.9725 2.191 36.8005 0 31.3814 0C25.9623 0 20.7902 2.191 17.1172 6.04261C16.7006 6.4792 16.7254 7.15865 17.1727 7.56583C17.6201 7.97302 18.3232 7.95608 18.749 7.52786C21.9983 4.11091 26.58 2.1663 31.3814 2.1663C36.1827 2.1663 40.7644 4.11091 44.0138 7.52786C44.2255 7.74547 44.5207 7.86895 44.8297 7.86911Z"></path><path d="M41.8385 10.9315C42.2887 10.9341 42.6968 10.6761 42.8748 10.2763C43.0527 9.87653 42.9659 9.41262 42.6543 9.09845C39.7502 6.0552 35.6622 4.32422 31.3791 4.32422C27.096 4.32422 23.0079 6.0552 20.1038 9.09845C19.8234 9.37905 19.7207 9.78376 19.835 10.158C19.9493 10.5322 20.2629 10.8181 20.656 10.9064C21.0492 10.9947 21.4611 10.8719 21.7344 10.5848C24.2151 7.97578 27.7132 6.49095 31.3791 6.49095C35.0449 6.49095 38.543 7.97578 41.0237 10.5848C41.2342 10.8041 41.529 10.9296 41.8385 10.9315Z"></path><path d="M38.8512 13.9956C39.2984 13.9953 39.7026 13.7382 39.8797 13.3412C40.0567 12.9443 39.9727 12.4836 39.666 12.1691C37.5318 9.9324 34.5274 8.66016 31.3796 8.66016C28.2318 8.66016 25.2274 9.9324 23.0932 12.1691C22.8049 12.4483 22.6964 12.8569 22.8099 13.2358C22.9234 13.6148 23.241 13.9041 23.6391 13.9911C24.0371 14.0782 24.4527 13.9492 24.7238 13.6544C26.435 11.8525 28.8493 10.8268 31.3796 10.8268C33.9099 10.8268 36.3243 11.8525 38.0354 13.6544C38.247 13.872 38.5423 13.9954 38.8512 13.9956Z"></path><path d="M26.0825 15.236C25.8079 15.5178 25.7096 15.9198 25.8247 16.2906C25.9398 16.6614 26.2508 16.9447 26.6405 17.0338C27.0303 17.1228 27.4396 17.0041 27.7142 16.7223C28.6551 15.7264 29.9859 15.159 31.3811 15.159C32.7764 15.159 34.1072 15.7264 35.048 16.7223C35.4726 17.1579 36.1821 17.1783 36.6327 16.7678C37.0833 16.3574 37.1044 15.6716 36.6798 15.236C35.3151 13.8057 33.394 12.9922 31.3811 12.9922C29.3683 12.9922 27.4472 13.8057 26.0825 15.236Z"></path></svg>