<svg xmlns="http://www.w3.org/2000/svg" width="65" height="65" viewBox="0 0 65 65" fill="#EF4824"><path d="M54.168 35.75H47.668V26H47.6582C47.6608 25.7141 47.5502 25.4388 47.3506 25.2341L38.6839 16.5674C38.4794 16.3674 38.204 16.2564 37.918 16.2587V16.25H19.5013C18.3047 16.25 17.3346 17.22 17.3346 18.4167V35.75H10.8346C7.84458 35.7536 5.42155 38.1766 5.41797 41.1667V56.3333C5.42155 59.3234 7.84458 61.7464 10.8346 61.75H17.3346V62.8333C17.3346 64.0299 18.3047 65 19.5013 65H45.5013C46.6979 65 47.668 64.0299 47.668 62.8333V61.75H54.168C57.158 61.7464 59.5811 59.3234 59.5846 56.3333V41.1667C59.5811 38.1766 57.158 35.7536 54.168 35.75ZM39.0013 19.9485L43.9695 24.9167H39.0013V19.9485ZM19.5013 18.4167H36.8346V24.9167C36.8346 26.1133 37.8047 27.0833 39.0013 27.0833H45.5013V35.75H19.5013V18.4167ZM45.5013 62.8333H19.5013V57.4167H45.5013V62.8333ZM47.668 57.4167C48.2663 57.4167 48.7513 56.9316 48.7513 56.3333C48.7513 55.735 48.2663 55.25 47.668 55.25H17.3346C16.7363 55.25 16.2513 55.735 16.2513 56.3333C16.2513 56.9316 16.7363 57.4167 17.3346 57.4167V59.5833H15.1777L15.2351 53.0833H49.8346V59.5833H47.668V57.4167ZM57.418 56.3333C57.418 58.1283 55.9629 59.5833 54.168 59.5833H52.0013V53.0833C51.9811 51.8684 50.9813 50.8992 49.7664 50.9167H15.2351C14.0206 50.8998 13.0215 51.8689 13.0013 53.0833V59.5833H10.8346C9.03971 59.5833 7.58464 58.1283 7.58464 56.3333V41.1667C7.58464 39.3717 9.03971 37.9167 10.8346 37.9167H54.168C55.9629 37.9167 57.418 39.3717 57.418 41.1667V56.3333Z"></path><path d="M52 40.082C50.2051 40.082 48.75 41.5371 48.75 43.332C48.75 45.127 50.2051 46.582 52 46.582C53.7949 46.582 55.25 45.127 55.25 43.332C55.25 41.5371 53.7949 40.082 52 40.082ZM52 44.4154C51.4017 44.4154 50.9167 43.9303 50.9167 43.332C50.9167 42.7337 51.4017 42.2487 52 42.2487C52.5983 42.2487 53.0833 42.7337 53.0833 43.332C53.0833 43.9303 52.5983 44.4154 52 44.4154Z"></path><path d="M45.4987 42.25H44.4154C43.8171 42.25 43.332 42.735 43.332 43.3333C43.332 43.9316 43.8171 44.4167 44.4154 44.4167H45.4987C46.097 44.4167 46.582 43.9316 46.582 43.3333C46.582 42.735 46.097 42.25 45.4987 42.25Z"></path><path d="M40.0846 42.25H39.0013C38.403 42.25 37.918 42.735 37.918 43.3333C37.918 43.9316 38.403 44.4167 39.0013 44.4167H40.0846C40.6829 44.4167 41.168 43.9316 41.168 43.3333C41.168 42.735 40.6829 42.25 40.0846 42.25Z"></path><path d="M22.7513 23.8346H24.918C25.5163 23.8346 26.0013 23.3496 26.0013 22.7513C26.0013 22.153 25.5163 21.668 24.918 21.668H22.7513C22.153 21.668 21.668 22.153 21.668 22.7513C21.668 23.3496 22.153 23.8346 22.7513 23.8346Z"></path><path d="M29.2513 23.8346H33.5846C34.1829 23.8346 34.668 23.3496 34.668 22.7513C34.668 22.153 34.1829 21.668 33.5846 21.668H29.2513C28.653 21.668 28.168 22.153 28.168 22.7513C28.168 23.3496 28.653 23.8346 29.2513 23.8346Z"></path><path d="M22.7513 28.1667H33.5846C34.1829 28.1667 34.668 27.6816 34.668 27.0833C34.668 26.485 34.1829 26 33.5846 26H22.7513C22.153 26 21.668 26.485 21.668 27.0833C21.668 27.6816 22.153 28.1667 22.7513 28.1667Z"></path><path d="M29.2513 30.332H22.7513C22.153 30.332 21.668 30.8171 21.668 31.4154C21.668 32.0137 22.153 32.4987 22.7513 32.4987H29.2513C29.8496 32.4987 30.3346 32.0137 30.3346 31.4154C30.3346 30.8171 29.8496 30.332 29.2513 30.332Z"></path><path d="M42.25 30.332H33.5833C32.985 30.332 32.5 30.8171 32.5 31.4154C32.5 32.0137 32.985 32.4987 33.5833 32.4987H42.25C42.8483 32.4987 43.3333 32.0137 43.3333 31.4154C43.3333 30.8171 42.8483 30.332 42.25 30.332Z"></path><path d="M47.6654 0C47.0671 0 46.582 0.485025 46.582 1.08333C46.582 1.68164 47.0671 2.16667 47.6654 2.16667C56.038 2.17562 62.8231 8.96073 62.832 17.3333C62.832 17.9316 63.3171 18.4167 63.9154 18.4167C64.5137 18.4167 64.9987 17.9316 64.9987 17.3333C64.9874 7.7651 57.2336 0.0113421 47.6654 0Z"></path><path d="M47.6654 4.33203C47.0671 4.33203 46.582 4.81706 46.582 5.41536C46.582 6.01367 47.0671 6.4987 47.6654 6.4987C53.6457 6.50527 58.4921 11.3517 58.4987 17.332C58.4987 17.9303 58.9837 18.4154 59.582 18.4154C60.1803 18.4154 60.6654 17.9303 60.6654 17.332C60.6576 10.1555 54.8418 4.33979 47.6654 4.33203Z"></path><path d="M54.1654 17.3346C54.1654 17.9329 54.6504 18.418 55.2487 18.418C55.847 18.418 56.332 17.9329 56.332 17.3346C56.3267 12.5504 52.4496 8.67334 47.6654 8.66797C47.0671 8.66797 46.582 9.15299 46.582 9.7513C46.582 10.3496 47.0671 10.8346 47.6654 10.8346C51.2537 10.8382 54.1618 13.7463 54.1654 17.3346Z"></path><path d="M17.3333 2.16667C17.9316 2.16667 18.4167 1.68164 18.4167 1.08333C18.4167 0.485025 17.9316 0 17.3333 0C7.7651 0.0113421 0.0113421 7.7651 0 17.3333C0 17.9316 0.485025 18.4167 1.08333 18.4167C1.68164 18.4167 2.16667 17.9316 2.16667 17.3333C2.17562 8.96073 8.96073 2.17562 17.3333 2.16667Z"></path><path d="M6.4987 17.332C6.50527 11.3517 11.3517 6.50527 17.332 6.4987C17.9303 6.4987 18.4154 6.01367 18.4154 5.41536C18.4154 4.81706 17.9303 4.33203 17.332 4.33203C10.1555 4.33979 4.33979 10.1555 4.33203 17.332C4.33203 17.9303 4.81706 18.4154 5.41536 18.4154C6.01367 18.4154 6.4987 17.9303 6.4987 17.332Z"></path><path d="M17.3346 8.66797C12.5504 8.67334 8.67334 12.5504 8.66797 17.3346C8.66797 17.9329 9.15299 18.418 9.7513 18.418C10.3496 18.418 10.8346 17.9329 10.8346 17.3346C10.8382 13.7463 13.7463 10.8382 17.3346 10.8346C17.9329 10.8346 18.418 10.3496 18.418 9.7513C18.418 9.15299 17.9329 8.66797 17.3346 8.66797Z"></path></svg>