<svg xmlns="http://www.w3.org/2000/svg" width="75" height="75" viewBox="0 0 75 75" fill="#EF4824"><path d="M37.4811 60.2705C42.3097 60.2705 46.224 56.3353 46.224 51.481C46.224 46.6266 42.3097 42.6914 37.4811 42.6914C32.6526 42.6914 28.7383 46.6266 28.7383 51.481C28.7383 56.3353 32.6526 60.2705 37.4811 60.2705Z"></path><path d="M11.2488 56.5018C14.6978 56.5018 17.4937 53.6909 17.4937 50.2236C17.4937 46.7562 14.6978 43.9453 11.2488 43.9453C7.79984 43.9453 5.00391 46.7562 5.00391 50.2236C5.00391 53.6909 7.79984 56.5018 11.2488 56.5018Z"></path><path d="M63.7058 56.5018C67.1548 56.5018 69.9507 53.6909 69.9507 50.2236C69.9507 46.7562 67.1548 43.9453 63.7058 43.9453C60.2569 43.9453 57.4609 46.7562 57.4609 50.2236C57.4609 53.6909 60.2569 56.5018 63.7058 56.5018Z"></path><path d="M52.4665 74.9749C50.1808 67.0517 44.0359 61.5269 37.4787 61.5269C30.9216 61.5269 24.7766 67.0643 22.491 75L52.4665 74.9749ZM22.491 68.7343C20.7924 62.2677 16.2461 57.7599 11.2502 57.7599C6.25427 57.7599 1.70799 62.2803 0.00938147 68.7469L22.491 68.7343ZM74.9481 68.7343C73.2495 62.2677 68.7032 57.7599 63.7073 57.7599C58.7114 57.7599 54.1651 62.2803 52.4665 68.7469L74.9481 68.7343ZM52.4665 11.3009C52.3921 11.08 52.2581 10.8844 52.0795 10.7358C51.9008 10.5872 51.6845 10.4916 51.4548 10.4596L42.612 9.20392L38.5279 0.715721C38.4266 0.502044 38.2674 0.321481 38.0685 0.194848C37.8696 0.0682152 37.6392 0.000669975 37.4038 0C37.167 0.00179412 36.9356 0.0712084 36.7366 0.200151C36.5376 0.329094 36.3791 0.512253 36.2797 0.728277L32.3704 9.22903L23.5401 10.6479C23.3135 10.6853 23.1015 10.7847 22.9274 10.9354C22.7533 11.086 22.6239 11.282 22.5534 11.5018C22.4856 11.7187 22.4777 11.9501 22.5305 12.1713C22.5833 12.3924 22.6948 12.595 22.8532 12.7574L29.3229 19.3245L27.8741 28.6791C27.8321 28.9169 27.8593 29.1619 27.9523 29.3846C28.0454 29.6073 28.2003 29.7983 28.3987 29.9347C28.6075 30.0813 28.8559 30.1601 29.1106 30.1607C29.3251 30.1601 29.5359 30.1038 29.7226 29.9975L37.5786 25.565L45.4972 29.8719C45.7033 29.9837 45.9366 30.0349 46.1704 30.0197C46.4041 30.0045 46.6289 29.9235 46.8191 29.786C47.0092 29.6485 47.1571 29.4601 47.2458 29.2421C47.3345 29.0242 47.3604 28.7856 47.3207 28.5535L45.7345 19.224L52.1168 12.5565C52.2838 12.3995 52.4048 12.1993 52.4664 11.9779C52.5281 11.7565 52.5281 11.5223 52.4665 11.3009ZM22.491 23.4932C22.4167 23.2724 22.2827 23.0767 22.104 22.9282C21.9253 22.7796 21.709 22.6839 21.4793 22.6519L15.2344 21.7479L12.3868 15.7835C12.2942 15.5607 12.1351 15.3723 11.9316 15.2441C11.7281 15.1159 11.49 15.0543 11.2502 15.0678C11.0134 15.0696 10.782 15.139 10.583 15.268C10.384 15.3969 10.2255 15.5801 10.1261 15.7961L7.30341 21.8106L1.05852 22.8152C0.829776 22.8507 0.615336 22.9493 0.439132 23.1002C0.262927 23.2511 0.131891 23.4482 0.0606448 23.6696C-0.0106013 23.891 -0.0192545 24.128 0.035651 24.354C0.0905565 24.58 0.206861 24.7863 0.371585 24.9498L5.00529 29.5831L3.98113 36.2255C3.95396 36.4055 3.96604 36.5892 4.01652 36.764C4.067 36.9388 4.15468 37.1005 4.27348 37.2379C4.39229 37.3752 4.53938 37.485 4.70456 37.5595C4.86974 37.634 5.04907 37.6716 5.23011 37.6695C5.44467 37.6689 5.65544 37.6126 5.84211 37.5063L11.3876 34.3797L16.983 37.4184C17.187 37.5134 17.4128 37.5512 17.6365 37.5279C17.8602 37.5047 18.0735 37.4211 18.2538 37.2861C18.4342 37.151 18.5749 36.9696 18.6612 36.7608C18.7475 36.552 18.7761 36.3237 18.7441 36.0999L17.62 29.4827L22.1413 24.774C22.3128 24.6147 22.4365 24.4103 22.4984 24.1839C22.5602 23.9575 22.5576 23.7182 22.491 23.4932ZM74.9481 23.4932C74.8737 23.2724 74.7397 23.0767 74.5611 22.9282C74.3824 22.7796 74.1661 22.6839 73.9364 22.6519L67.6915 21.7479L64.8438 15.7835C64.7417 15.5679 64.5805 15.3861 64.3792 15.2593C64.1779 15.1325 63.9448 15.0661 63.7073 15.0678C63.4705 15.0696 63.2391 15.139 63.0401 15.268C62.8411 15.3969 62.6826 15.5801 62.5832 15.7961L59.8229 21.8106L53.5781 22.8152C53.3493 22.8507 53.1349 22.9493 52.9587 23.1002C52.7825 23.2511 52.6514 23.4482 52.5802 23.6696C52.5089 23.891 52.5003 24.128 52.5552 24.354C52.6101 24.58 52.7264 24.7863 52.8911 24.9498L57.4624 29.5831L56.4382 36.2255C56.411 36.4055 56.4231 36.5892 56.4736 36.764C56.5241 36.9388 56.6118 37.1005 56.7306 37.2379C56.8494 37.3752 56.9965 37.485 57.1616 37.5595C57.3268 37.634 57.5062 37.6716 57.6872 37.6695C57.9018 37.6689 58.1125 37.6126 58.2992 37.5063L63.8447 34.3797L69.4401 37.4184C69.6441 37.5134 69.8699 37.5512 70.0936 37.5279C70.3173 37.5047 70.5305 37.4211 70.7109 37.2861C70.8913 37.151 71.032 36.9696 71.1183 36.7608C71.2046 36.552 71.2332 36.3237 71.2011 36.0999L70.0771 29.4827L74.5984 24.774C74.7699 24.6147 74.8936 24.4103 74.9554 24.1839C75.0173 23.9575 75.0147 23.7182 74.9481 23.4932Z"></path></svg>