<svg xmlns="http://www.w3.org/2000/svg" width="63" height="75" viewBox="0 0 63 75" fill="#EF4824"><path d="M31.5024 0C19.3431 0 9.45189 9.8125 9.45189 21.875C9.45189 33.9375 19.3431 43.75 31.5024 43.75C43.6616 43.75 53.5528 33.9375 53.5528 21.875C53.5528 9.8125 43.6616 0 31.5024 0ZM43.4317 21.1156L39.1444 25.475L40.1619 31.6562C40.2324 32.0901 40.1786 32.5349 40.0066 32.9398C39.8346 33.3448 39.5512 33.6936 39.1889 33.9465C38.8266 34.1993 38.4 34.346 37.9576 34.3699C37.5153 34.3937 37.0751 34.2937 36.6874 34.0812L31.5024 31.2406L26.3173 34.0844C25.9294 34.2993 25.4881 34.4012 25.0444 34.3783C24.6006 34.3553 24.1724 34.2086 23.8091 33.9549C23.4457 33.7012 23.1619 33.3508 22.9904 32.9442C22.8189 32.5375 22.7667 32.0911 22.8397 31.6562L23.8571 25.475L19.5731 21.1156C19.2699 20.8071 19.0582 20.4217 18.9615 20.0016C18.8647 19.5816 18.8866 19.1432 19.0246 18.7346C19.1626 18.3261 19.4115 17.9632 19.7439 17.6859C20.0763 17.4085 20.4793 17.2274 20.9087 17.1625L26.7395 16.2781L29.3666 10.725C30.1415 9.07812 32.8663 9.07812 33.6413 10.725L36.2684 16.2781L42.0992 17.1625C42.5296 17.2258 42.9339 17.4061 43.2673 17.6834C43.6007 17.9606 43.8502 18.3241 43.9882 18.7334C44.1262 19.1428 44.1472 19.582 44.049 20.0025C43.9507 20.423 43.7371 20.8082 43.4317 21.1156ZM12.476 40.5625L0.285194 62.2812C-0.124315 63.0312 -0.0928145 63.9688 0.379695 64.6875C0.852206 65.4062 1.67122 65.8438 2.55324 65.75L12.2554 65.0312L16.5395 73.6875C16.949 74.4688 17.7366 74.9688 18.5871 75H18.6501C19.5006 75 20.3196 74.5312 20.7291 73.8125L28.6673 59.8125L20.9496 46.2812C17.7824 44.9301 14.9059 42.9888 12.476 40.5625ZM62.688 62.2812L50.4028 40.6875C46.3164 44.7433 41.0076 47.3656 35.2824 48.1562C34.0539 48.3438 32.7939 48.4375 31.5024 48.4375C30.1163 48.4375 28.7618 48.3438 27.4388 48.125L31.3764 55.0312L42.0551 73.8125C42.4646 74.5312 43.2521 75 44.1026 75H44.1656C45.0476 74.9688 45.8352 74.4688 46.2447 73.6875L50.5603 65.0312L60.4515 65.7812C61.3335 65.8438 62.1525 65.4375 62.625 64.6875C63.0975 63.9688 63.129 63.0312 62.688 62.2812Z"></path></svg>