<svg xmlns="http://www.w3.org/2000/svg" width="75" height="75" viewBox="0 0 75 75" fill="#EF4824"><g clip-path="url(#clip0_2619_1094)"><path d="M57.1773 29.1466L55.2719 33.1077L64.5244 37.5623L70.5604 28.0608L66.8525 25.7048L64.7559 29.0036C63.2056 24.062 60.3087 19.5229 56.3898 16.0746L53.4887 19.3748C56.946 22.4167 59.4505 26.462 60.7127 30.8481L57.1773 29.1466ZM13.0979 22.6784C10.4052 27.1282 8.9166 32.3054 8.93403 37.5064L13.3286 37.4936C13.3138 32.9105 14.6925 28.3582 17.1561 24.4939L18.2208 28.2775L22.4523 27.0844L19.665 17.188L8.55859 18.9497L9.24531 23.2884L13.0979 22.6784ZM46.2875 8.93555C46.2875 4.08823 42.3458 0 37.4985 0C32.6512 0 28.7094 4.08823 28.7094 8.93555C28.7094 13.7829 32.6512 17.7246 37.4985 17.7246C42.3458 17.7246 46.2875 13.7829 46.2875 8.93555ZM50.6821 30.9082C50.6821 23.6383 44.7684 17.7246 37.4985 17.7246C30.2286 17.7246 24.3149 23.6383 24.3149 30.9082V35.3027H50.6821V30.9082Z"></path><path d="M13.3281 57.2734C18.1822 57.2734 22.1172 53.3384 22.1172 48.4844C22.1172 43.6303 18.1822 39.6953 13.3281 39.6953C8.47406 39.6953 4.53906 43.6303 4.53906 48.4844C4.53906 53.3384 8.47406 57.2734 13.3281 57.2734Z"></path><path d="M26.5137 70.457C26.5137 63.1872 20.6 57.2734 13.3301 57.2734C6.0602 57.2734 0 63.1872 0 70.457V74.998H26.5137V70.457Z"></path><path d="M61.6719 57.2734C66.5259 57.2734 70.4609 53.3384 70.4609 48.4844C70.4609 43.6303 66.5259 39.6953 61.6719 39.6953C56.8178 39.6953 52.8828 43.6303 52.8828 48.4844C52.8828 53.3384 56.8178 57.2734 61.6719 57.2734Z"></path><path d="M48.4859 70.4584V74.9994H74.9996V70.4584C74.9996 63.1885 68.9394 57.2748 61.6695 57.2748C54.3996 57.2748 48.4859 63.1885 48.4859 70.4584ZM34.2423 55.6055L27.1055 62.399L32.7467 71.4905L36.4803 69.1731L34.4153 65.8462C35.4416 65.9575 36.469 66.0705 37.4996 66.0705C41.0572 66.0705 44.6128 65.4095 47.943 64.0963L46.3293 60.0064C42.5593 61.494 38.4514 61.9884 34.4458 61.4801L37.2721 58.7899L34.2423 55.6055Z"></path></g><defs><clipPath id="clip0_2619_1094"><rect width="75" height="75" fill="white"></rect></clipPath></defs></svg>