<svg xmlns="http://www.w3.org/2000/svg" width="75" height="75" viewBox="0 0 75 75" fill="#EF4824"><path fill-rule="evenodd" clip-rule="evenodd" d="M60.1055 57.8923L63.3363 61.4388C63.484 61.5994 63.5638 61.8108 63.559 62.0289C63.5543 62.247 63.4652 62.4548 63.3106 62.6087L57.7 68.2178C57.3858 68.5399 56.8682 68.5511 56.5333 68.245L52.9867 65.0126C52.0893 64.1969 50.8296 64.051 49.7687 64.6392C48.0721 65.5831 46.273 66.3295 44.4064 66.8636C43.2461 67.197 42.4528 68.1922 42.3999 69.4005L42.1772 74.1907C42.1678 74.4087 42.0746 74.6147 41.9169 74.7655C41.7592 74.9164 41.5492 75.0004 41.331 75H33.3933C33.1753 74.9998 32.9657 74.9156 32.8081 74.7649C32.6505 74.6142 32.5571 74.4085 32.5472 74.1907L32.3244 69.4005C32.2715 68.1922 31.4782 67.197 30.318 66.8636C28.4557 66.3316 26.648 65.5831 24.9557 64.6392C23.8931 64.051 22.6351 64.1985 21.7376 65.0126L18.1911 68.245C18.0297 68.3926 17.8176 68.4721 17.5991 68.467C17.3805 68.4619 17.1723 68.3727 17.018 68.2178L11.4137 62.6087C11.0932 62.2882 11.0788 61.7738 11.3881 61.4388L14.6189 57.8907C15.4314 56.9964 15.5821 55.7352 14.9923 54.6775C14.05 52.9789 13.3023 51.1796 12.7631 49.3136C12.4346 48.1501 11.4393 47.3632 10.2262 47.3071L5.43441 47.0843C5.21666 47.0742 5.01124 46.9804 4.86104 46.8224C4.71083 46.6644 4.62745 46.4546 4.6283 46.2366V43.2317H18.2296C18.7344 53.3473 27.1176 61.4228 37.363 61.4228C47.594 61.4228 55.9852 53.3473 56.49 43.2317H70.0912V46.2366C70.0912 46.6901 69.7371 47.0635 69.2851 47.0843L64.4934 47.3071C63.2802 47.3632 62.285 48.1517 61.9565 49.3136C61.4186 51.1806 60.6707 52.9806 59.7272 54.6791C59.1487 55.7368 59.2929 56.998 60.1055 57.8923ZM37.3678 54.381C43.7189 54.381 48.9434 49.4626 49.4354 43.2333H25.2938C25.7858 49.461 31.0103 54.381 37.3678 54.381ZM2.83179 41.3102H71.8974C73.4647 41.3102 74.7292 40.0409 74.7292 38.48C74.7292 36.9191 73.4647 35.6498 71.8974 35.6498H2.83179C1.26605 35.6498 0 36.9191 0 38.48C0 40.0393 1.26445 41.3102 2.83179 41.3102ZM27.6993 33.7251H47.0282C48.3792 33.7251 49.5187 33.2139 50.4177 32.209C51.3216 31.2026 51.703 30.0119 51.5524 28.6705C50.8504 22.4668 45.6132 17.7888 39.3678 17.7888H35.3613C29.1144 17.7888 23.8771 22.4668 23.1768 28.6705C23.0261 30.0119 23.4059 31.2026 24.3114 32.209C25.2089 33.2155 26.3499 33.7251 27.6993 33.7251ZM21.2697 28.4557C21.5902 25.5935 22.7505 23.0149 24.4813 20.9444C23.0918 20.3033 21.5774 19.9684 20.0373 19.9684H16.5244C11.098 19.9684 6.54822 24.031 5.94564 29.4189C5.81423 30.5616 6.13635 31.576 6.9088 32.4334C7.66843 33.2908 8.64602 33.7267 9.79348 33.7267H23.0934C23.0213 33.6514 22.9492 33.5712 22.8771 33.4911C21.611 32.0776 21.0533 30.3372 21.2697 28.4557ZM50.2479 20.9444C51.9787 23.0149 53.139 25.5935 53.4595 28.4573C53.6694 30.3388 53.1181 32.0792 51.8537 33.4911C51.7816 33.5712 51.7094 33.6498 51.6373 33.7267H64.9373C66.0847 33.7267 67.0607 33.2908 67.822 32.4334C68.596 31.576 68.9165 30.5616 68.7851 29.4189C68.1825 24.031 63.6328 19.9684 58.2064 19.9684H54.6935C53.1518 19.9684 51.6373 20.3033 50.2479 20.9444ZM49.9658 10.8368C49.9658 14.4138 52.8697 17.3225 56.4483 17.3225C60.0269 17.3225 62.9372 14.4122 62.9372 10.8368C62.9372 7.25977 60.0269 4.35106 56.4483 4.35106C52.8697 4.34945 49.9658 7.25977 49.9658 10.8368ZM37.3678 15.0436C41.5105 15.0436 44.8856 11.6685 44.8856 7.52099C44.8856 3.37347 41.5105 0 37.3678 0C33.2187 0 29.8436 3.37507 29.8436 7.52099C29.8436 11.6685 33.2187 15.0436 37.3678 15.0436ZM18.2808 17.3225C21.8594 17.3225 24.7633 14.4122 24.7633 10.8368C24.7633 7.25977 21.8594 4.35106 18.2808 4.35106C14.7022 4.35106 11.7919 7.26137 11.7919 10.8368C11.7919 14.4122 14.7022 17.3225 18.2808 17.3225Z"></path></svg>