<svg xmlns="http://www.w3.org/2000/svg" width="65" height="65" viewBox="0 0 65 65" fill="#EF4824"><g clip-path="url(#clip0_2637_362)"><path d="M54.251 35.1975C54.095 35.1188 53.9386 35.0795 53.7811 35.0795C53.4418 35.0795 53.143 35.2097 52.8826 35.4707L50.3809 37.9719C50.1471 38.2067 50.0296 38.493 50.0296 38.8321V48.7591C50.0296 50.4792 49.4186 51.9508 48.1931 53.176C46.9685 54.4006 45.496 55.0129 43.7762 55.0129H11.2567C9.53671 55.0129 8.06435 54.4006 6.83979 53.176C5.61494 51.9509 5.00286 50.4794 5.00286 48.7591V16.2404C5.00286 14.5207 5.61494 13.0484 6.83979 11.8235C8.06435 10.5988 9.53671 9.98655 11.2567 9.98655H43.7764C44.3498 9.98655 44.936 10.0647 45.5352 10.2212C45.6917 10.2729 45.8088 10.2994 45.8861 10.2994C46.2253 10.2994 46.5251 10.1694 46.7855 9.90892L48.7007 7.9937C49.0131 7.68143 49.1309 7.30331 49.052 6.86072C48.9738 6.44372 48.739 6.14391 48.3482 5.9617C46.942 5.31115 45.4169 4.98438 43.7753 4.98438H11.2567C8.15594 4.98438 5.50446 6.08532 3.30257 8.28721C1.10095 10.4894 0 13.1404 0 16.2413V48.7609C0 51.8612 1.10095 54.5126 3.30271 56.7144C5.5046 58.9169 8.15608 60.0178 11.2569 60.0178H43.7762C46.8765 60.0178 49.5283 58.9169 51.7302 56.7144C53.9322 54.5126 55.0341 51.8614 55.0341 48.7609V36.3308C55.0338 35.784 54.7719 35.4064 54.251 35.1975Z"></path><path d="M64.0642 12.7612L59.7643 8.46134C59.139 7.83612 58.3959 7.52344 57.5358 7.52344C56.6767 7.52344 55.9331 7.83612 55.3083 8.46134L30.0193 33.7501L19.7403 23.4704C19.1148 22.8448 18.372 22.5325 17.5124 22.5325C16.6527 22.5325 15.9102 22.8448 15.2845 23.4704L10.9852 27.7698C10.3598 28.3951 10.0469 29.1379 10.0469 29.9981C10.0469 30.8578 10.3598 31.6004 10.9852 32.226L27.792 49.0327C28.4175 49.6585 29.1603 49.9706 30.0199 49.9706C30.8795 49.9706 31.6221 49.6586 32.2478 49.0327L64.0638 17.2169C64.6888 16.5917 65.0021 15.8487 65.0021 14.989C65.0021 14.1292 64.6896 13.3864 64.0642 12.7612Z"></path></g><defs><clipPath id="clip0_2637_362"><rect width="65" height="65" fill="white"></rect></clipPath></defs></svg>