<svg xmlns="http://www.w3.org/2000/svg" width="50" height="50" viewBox="0 0 50 50" fill="white"><path d="M46.6667 10.8333H21.6667V5.83333C21.6667 3.99238 20.1743 2.5 18.3333 2.5H3.33333C1.49238 2.5 0 3.99238 0 5.83333V44.1667C0 46.0076 1.49238 47.5 3.33333 47.5H46.6667C48.5076 47.5 50 46.0076 50 44.1667V14.1667C50 12.3257 48.5076 10.8333 46.6667 10.8333ZM1.66667 5.83333C1.66667 4.91286 2.41286 4.16667 3.33333 4.16667H18.3333C19.2538 4.16667 20 4.91286 20 5.83333V10.8333H1.66667V5.83333ZM48.3333 44.1667C48.3333 45.0871 47.5871 45.8333 46.6667 45.8333H3.33333C2.41286 45.8333 1.66667 45.0871 1.66667 44.1667V12.5H46.6667C47.5871 12.5 48.3333 13.2462 48.3333 14.1667V44.1667Z"></path><path d="M5.83203 14.168H4.16536C3.70513 14.168 3.33203 14.5411 3.33203 15.0013C3.33203 15.4615 3.70513 15.8346 4.16536 15.8346H5.83203C6.29227 15.8346 6.66536 15.4615 6.66536 15.0013C6.66536 14.5411 6.29227 14.168 5.83203 14.168Z"></path><path d="M22.4987 15.0013C22.4987 14.5411 22.1256 14.168 21.6654 14.168H9.16536C8.70513 14.168 8.33203 14.5411 8.33203 15.0013C8.33203 15.4615 8.70513 15.8346 9.16536 15.8346H21.6654C22.1256 15.8346 22.4987 15.4615 22.4987 15.0013Z"></path><path d="M25.0013 20.0001C21.0746 19.9835 17.3204 21.6125 14.6504 24.4918C14.3361 24.828 14.3538 25.3554 14.69 25.6697C15.0262 25.9841 15.5536 25.9663 15.8679 25.6301C18.2238 23.0894 21.5364 21.6519 25.0013 21.6668C28.465 21.6511 31.777 23.0867 34.1338 25.6251C34.3371 25.8426 34.641 25.9351 34.931 25.8678C35.2211 25.8004 35.4531 25.5834 35.5398 25.2986C35.6265 25.0137 35.5546 24.7043 35.3512 24.4868C32.6805 21.6097 28.9269 19.9825 25.0013 20.0001Z"></path><path d="M25.0004 23.3321C22.1266 23.3225 19.3684 24.4627 17.3404 26.4988C17.1237 26.708 17.0369 27.0178 17.1131 27.3092C17.1894 27.6005 17.4169 27.8281 17.7083 27.9043C17.9996 27.9806 18.3095 27.8937 18.5187 27.6771C22.1011 24.1039 27.8996 24.1039 31.482 27.6771C31.809 27.9929 32.3288 27.9884 32.6502 27.6669C32.9717 27.3455 32.9762 26.8257 32.6604 26.4988C30.6326 24.4623 27.8742 23.3219 25.0004 23.3321Z"></path><path d="M19.6949 28.8573C19.3791 29.1843 19.3836 29.7041 19.705 30.0255C20.0265 30.347 20.5462 30.3515 20.8732 30.0357C23.153 27.7615 26.8434 27.7615 29.1232 30.0357C29.4502 30.3515 29.9699 30.347 30.2914 30.0255C30.6128 29.7041 30.6173 29.1843 30.3015 28.8573C27.3707 25.933 22.6257 25.933 19.6949 28.8573Z"></path><path d="M24.9987 29.9922C22.6975 29.9922 20.832 31.8577 20.832 34.1589C20.832 36.46 22.6975 38.3255 24.9987 38.3255C27.2999 38.3255 29.1654 36.46 29.1654 34.1589C29.1626 31.8588 27.2987 29.9949 24.9987 29.9922ZM24.9987 36.6589C23.618 36.6589 22.4987 35.5396 22.4987 34.1589C22.4987 32.7781 23.618 31.6589 24.9987 31.6589C26.3794 31.6589 27.4987 32.7781 27.4987 34.1589C27.4987 34.8219 27.2353 35.4578 26.7665 35.9266C26.2976 36.3955 25.6617 36.6589 24.9987 36.6589Z"></path></svg>