<svg xmlns="http://www.w3.org/2000/svg" width="50" height="50" viewBox="0 0 50 50" fill="white"><path d="M5.83464 38.3333H28.3346V45.8333C28.3374 48.1334 30.2013 49.9972 32.5013 50H44.168C46.468 49.9972 48.3319 48.1334 48.3346 45.8333V22.5C48.3321 20.5207 46.94 18.8154 45.0013 18.4167V10.8333C44.9986 8.53329 43.1347 6.66942 40.8346 6.66667H31.993C31.6435 6.66689 31.3303 6.45091 31.2063 6.12417L29.9246 2.7075C29.3164 1.08076 27.763 0.00186726 26.0263 0H20.643C18.9069 0.00256137 17.3543 1.08133 16.7463 2.7075L15.4655 6.1175C15.3429 6.44742 15.0282 6.66641 14.6763 6.66667H13.3346V5.83333C13.3346 4.45262 12.2153 3.33333 10.8346 3.33333H7.5013C6.12059 3.33333 5.0013 4.45262 5.0013 5.83333V6.75C3.06262 7.14869 1.67047 8.85408 1.66797 10.8333V34.1667C1.67072 36.4667 3.53459 38.3306 5.83464 38.3333ZM28.3346 22.5V28.0783C25.8454 30.3154 22.1753 30.6324 19.3393 28.8555C16.5033 27.0786 15.1878 23.6377 16.1151 20.422C17.0423 17.2063 19.9879 14.9941 23.3346 15C26.1717 15.0193 28.7577 16.6294 30.0271 19.1667C28.9662 19.9465 28.3382 21.1833 28.3346 22.5ZM31.553 18.4525C29.5546 14.3917 24.8915 12.3971 20.5746 13.7567C16.2577 15.1163 13.5792 19.423 14.2686 23.8962C14.9579 28.3693 18.8087 31.6698 23.3346 31.6667C25.1101 31.671 26.8481 31.156 28.3346 30.185V32.0833C24.3494 34.1666 19.4912 33.5689 16.1298 30.5818C12.7684 27.5946 11.6041 22.8403 13.2048 18.6379C14.8055 14.4356 18.8377 11.6606 23.3346 11.6667C27.7004 11.6878 31.6329 14.3107 33.3296 18.3333H32.5013C32.1817 18.3363 31.8634 18.3763 31.553 18.4525ZM44.168 48.3333H32.5013C31.1206 48.3333 30.0013 47.214 30.0013 45.8333V45.8117C30.7183 46.3632 31.5967 46.6636 32.5013 46.6667H44.168C45.0725 46.6636 45.951 46.3632 46.668 45.8117V45.8333C46.668 47.214 45.5487 48.3333 44.168 48.3333ZM46.668 22.5V42.5C46.668 43.8807 45.5487 45 44.168 45H32.5013C31.1206 45 30.0013 43.8807 30.0013 42.5V22.5C30.0013 21.1193 31.1206 20 32.5013 20H44.168C45.5487 20 46.668 21.1193 46.668 22.5ZM6.66797 5.83333C6.66797 5.3731 7.04107 5 7.5013 5H10.8346C11.2949 5 11.668 5.3731 11.668 5.83333V6.66667H6.66797V5.83333ZM3.33464 10.8333C3.33464 9.45262 4.45392 8.33333 5.83464 8.33333H14.6763C15.7211 8.33594 16.6574 7.6885 17.0238 6.71L18.3088 3.29333C18.6634 2.31119 19.5988 1.65935 20.643 1.66667H26.0263C27.07 1.66021 28.0047 2.3118 28.3596 3.29333L29.6455 6.71583C30.0138 7.69204 30.9496 8.33685 31.993 8.33333H40.8346C42.2154 8.33333 43.3346 9.45262 43.3346 10.8333V18.3333H35.1113C33.4003 13.4849 28.896 10.1779 23.7576 9.99759C18.6193 9.81728 13.8943 12.8004 11.8476 17.517C9.80089 22.2335 10.8497 27.7222 14.4912 31.3518C18.1328 34.9814 23.6248 36.0122 28.3346 33.95V36.6667H8.33464V18.3333C8.33464 17.8731 7.96154 17.5 7.5013 17.5C7.04107 17.5 6.66797 17.8731 6.66797 18.3333V36.6667H5.83464C4.45392 36.6667 3.33464 35.5474 3.33464 34.1667V10.8333Z"></path><path d="M21.668 8.33203H25.0013C26.382 8.33203 27.5013 7.21274 27.5013 5.83203C27.5013 4.45132 26.382 3.33203 25.0013 3.33203H21.668C20.2873 3.33203 19.168 4.45132 19.168 5.83203C19.168 7.21274 20.2873 8.33203 21.668 8.33203ZM21.668 4.9987H25.0013C25.4615 4.9987 25.8346 5.37179 25.8346 5.83203C25.8346 6.29227 25.4615 6.66536 25.0013 6.66536H21.668C21.2077 6.66536 20.8346 6.29227 20.8346 5.83203C20.8346 5.37179 21.2077 4.9987 21.668 4.9987Z"></path><path d="M19.2992 19.4373C18.8928 19.2215 18.3884 19.376 18.1725 19.7823C17.7306 20.6193 17.4997 21.5516 17.5 22.4981C17.5 22.9584 17.8731 23.3315 18.3333 23.3315C18.7936 23.3315 19.1667 22.9584 19.1667 22.4981C19.166 21.8241 19.3302 21.16 19.645 20.564C19.7486 20.3687 19.7703 20.1403 19.7054 19.929C19.6406 19.7177 19.4944 19.5409 19.2992 19.4373Z"></path><path d="M23.3338 16.668C22.6915 16.6666 22.0533 16.7719 21.4455 16.9796C21.0101 17.1295 20.7786 17.6038 20.9284 18.0392C21.0782 18.4746 21.5526 18.7061 21.988 18.5563C22.4211 18.4079 22.876 18.3329 23.3338 18.3346C23.7941 18.3346 24.1672 17.9616 24.1672 17.5013C24.1672 17.0411 23.7941 16.668 23.3338 16.668Z"></path><path d="M7.5013 15.8333C7.96154 15.8333 8.33464 15.4602 8.33464 15V13.3333C8.33464 12.8731 7.96154 12.5 7.5013 12.5C7.04106 12.5 6.66797 12.8731 6.66797 13.3333V15C6.66797 15.4602 7.04106 15.8333 7.5013 15.8333Z"></path><path d="M31.2652 32.0922C30.9494 32.4192 30.9539 32.9389 31.2753 33.2604C31.5968 33.5818 32.1165 33.5863 32.4435 33.2705C35.7 30.0213 40.9721 30.0213 44.2285 33.2705C44.5555 33.5863 45.0752 33.5818 45.3967 33.2604C45.7181 32.9389 45.7227 32.4192 45.4068 32.0922C41.4992 28.1932 35.1728 28.1932 31.2652 32.0922Z"></path><path d="M33.6216 34.4493C33.405 34.6585 33.3181 34.9684 33.3944 35.2597C33.4706 35.5511 33.6982 35.7786 33.9895 35.8549C34.2809 35.9311 34.5907 35.8443 34.7999 35.6276C36.7542 33.6783 39.9174 33.6783 41.8716 35.6276C42.0808 35.8443 42.3907 35.9311 42.682 35.8549C42.9734 35.7786 43.2009 35.5511 43.2772 35.2597C43.3535 34.9684 43.2666 34.6585 43.05 34.4493C40.4445 31.8502 36.227 31.8502 33.6216 34.4493Z"></path><path d="M35.9761 36.8061C35.6603 37.1331 35.6648 37.6529 35.9863 37.9743C36.3077 38.2958 36.8275 38.3003 37.1544 37.9845C37.8141 37.3555 38.8515 37.3555 39.5111 37.9845C39.8381 38.3003 40.3579 38.2958 40.6793 37.9743C41.0007 37.6529 41.0053 37.1331 40.6894 36.8061C39.3698 35.549 37.2957 35.549 35.9761 36.8061Z"></path></svg>