<svg xmlns="http://www.w3.org/2000/svg" width="50" height="50" viewBox="0 0 50 50" fill="white"><g clip-path="url(#clip0_2641_385)"><path d="M4.16536 33.332C3.70513 33.332 3.33203 33.7051 3.33203 34.1654V34.9987C3.33203 35.4589 3.70513 35.832 4.16536 35.832C4.6256 35.832 4.9987 35.4589 4.9987 34.9987V34.1654C4.9987 33.7051 4.6256 33.332 4.16536 33.332Z"></path><path d="M4.16536 37.5C3.70513 37.5 3.33203 37.8731 3.33203 38.3333V39.1667C3.33203 39.6269 3.70513 40 4.16536 40C4.6256 40 4.9987 39.6269 4.9987 39.1667V38.3333C4.9987 37.8731 4.6256 37.5 4.16536 37.5Z"></path><path d="M7.5013 33.332C7.04106 33.332 6.66797 33.7051 6.66797 34.1654V34.9987C6.66797 35.4589 7.04106 35.832 7.5013 35.832C7.96154 35.832 8.33464 35.4589 8.33464 34.9987V34.1654C8.33464 33.7051 7.96154 33.332 7.5013 33.332Z"></path><path d="M7.5013 37.5C7.04106 37.5 6.66797 37.8731 6.66797 38.3333V39.1667C6.66797 39.6269 7.04106 40 7.5013 40C7.96154 40 8.33464 39.6269 8.33464 39.1667V38.3333C8.33464 37.8731 7.96154 37.5 7.5013 37.5Z"></path><path d="M10.8333 33.332C10.3731 33.332 10 33.7051 10 34.1654V34.9987C10 35.4589 10.3731 35.832 10.8333 35.832C11.2936 35.832 11.6667 35.4589 11.6667 34.9987V34.1654C11.6667 33.7051 11.2936 33.332 10.8333 33.332Z"></path><path d="M10.8333 37.5C10.3731 37.5 10 37.8731 10 38.3333V39.1667C10 39.6269 10.3731 40 10.8333 40C11.2936 40 11.6667 39.6269 11.6667 39.1667V38.3333C11.6667 37.8731 11.2936 37.5 10.8333 37.5Z"></path><path d="M47.5 29.9977H37.5C36.1193 29.9977 35 31.1169 35 32.4977V34.1643H32.5V32.4977C32.4987 31.3779 31.9352 30.3335 31 29.7177C35.8158 27.8535 39.1667 23.831 39.1667 19.1643C39.1667 16.3152 32.4392 15.421 29.0383 15.1518C29.4712 13.4655 28.81 11.6879 27.3804 10.6944C25.9508 9.70083 24.0542 9.70083 22.6246 10.6944C21.195 11.6879 20.5338 13.4655 20.9667 15.1518C17.5675 15.4202 10.8333 16.3143 10.8333 19.1643C10.8333 23.831 14.1842 27.8535 19 29.7177C18.0648 30.3335 17.5013 31.3779 17.5 32.4977V34.1643H15V32.4977C15 31.1169 13.8807 29.9977 12.5 29.9977H2.5C1.11929 29.9977 0 31.1169 0 32.4977V40.831C0 42.2117 1.11929 43.331 2.5 43.331H12.5C13.8807 43.331 15 42.2117 15 40.831V39.1643H17.5V42.4977C17.5042 44.0373 18.5623 45.3738 20.06 45.731C20.421 48.1811 22.5234 49.9965 25 49.9965C27.4766 49.9965 29.579 48.1811 29.94 45.731C31.4377 45.3738 32.4958 44.0373 32.5 42.4977V39.1643H35V40.831C35 42.2117 36.1193 43.331 37.5 43.331H47.5C48.8807 43.331 50 42.2117 50 40.831V32.4977C50 31.1169 48.8807 29.9977 47.5 29.9977ZM25 11.6643C26.3807 11.6643 27.5 12.7836 27.5 14.1643C27.5 15.545 26.3807 16.6643 25 16.6643C23.6193 16.6643 22.5 15.545 22.5 14.1643C22.5 12.7836 23.6193 11.6643 25 11.6643ZM21.775 16.7668C22.3759 17.5234 23.2216 18.047 24.1667 18.2477V19.1643C24.1667 19.6246 24.5398 19.9977 25 19.9977C25.4602 19.9977 25.8333 19.6246 25.8333 19.1643V18.2477C26.7799 18.0488 27.6273 17.5256 28.2292 16.7685C34.7283 17.1777 37.5 18.636 37.5 19.1643C37.5 19.8902 33.1192 21.6643 25 21.6643C16.8808 21.6643 12.5 19.8902 12.5 19.1643C12.5 18.6352 15.2733 17.1768 21.775 16.7668ZM12.845 21.4577C15.8475 22.891 21.5225 23.331 25 23.331C28.4775 23.331 34.1525 22.891 37.155 21.4577C35.8542 25.8685 30.905 29.1643 25 29.1643C19.095 29.1643 14.1458 25.8685 12.845 21.4577ZM13.3333 40.831C13.3333 41.2912 12.9602 41.6643 12.5 41.6643H2.5C2.03976 41.6643 1.66667 41.2912 1.66667 40.831V32.4977C1.66667 32.0374 2.03976 31.6643 2.5 31.6643H12.5C12.9602 31.6643 13.3333 32.0374 13.3333 32.4977V40.831ZM15 37.4977V35.831H17.5V37.4977H15ZM25 48.331C23.4847 48.3253 22.1638 47.2982 21.785 45.831H28.215C27.8362 47.2982 26.5153 48.3253 25 48.331ZM30.8333 42.4977C30.8333 43.4181 30.0871 44.1643 29.1667 44.1643H20.8333C19.9129 44.1643 19.1667 43.4181 19.1667 42.4977V32.4977C19.1667 31.5772 19.9129 30.831 20.8333 30.831H29.1667C30.0871 30.831 30.8333 31.5772 30.8333 32.4977V42.4977ZM32.5 37.4977V35.831H35V37.4977H32.5ZM48.3333 40.831C48.3333 41.2912 47.9602 41.6643 47.5 41.6643H37.5C37.0398 41.6643 36.6667 41.2912 36.6667 40.831V32.4977C36.6667 32.0374 37.0398 31.6643 37.5 31.6643H47.5C47.9602 31.6643 48.3333 32.0374 48.3333 32.4977V40.831Z"></path><path d="M45.8333 33.332C45.3731 33.332 45 33.7051 45 34.1654V34.9987C45 35.4589 45.3731 35.832 45.8333 35.832C46.2936 35.832 46.6667 35.4589 46.6667 34.9987V34.1654C46.6667 33.7051 46.2936 33.332 45.8333 33.332Z"></path><path d="M45.8333 37.5C45.3731 37.5 45 37.8731 45 38.3333V39.1667C45 39.6269 45.3731 40 45.8333 40C46.2936 40 46.6667 39.6269 46.6667 39.1667V38.3333C46.6667 37.8731 46.2936 37.5 45.8333 37.5Z"></path><path d="M42.5013 33.332C42.0411 33.332 41.668 33.7051 41.668 34.1654V34.9987C41.668 35.4589 42.0411 35.832 42.5013 35.832C42.9615 35.832 43.3346 35.4589 43.3346 34.9987V34.1654C43.3346 33.7051 42.9615 33.332 42.5013 33.332Z"></path><path d="M42.5013 37.5C42.0411 37.5 41.668 37.8731 41.668 38.3333V39.1667C41.668 39.6269 42.0411 40 42.5013 40C42.9615 40 43.3346 39.6269 43.3346 39.1667V38.3333C43.3346 37.8731 42.9615 37.5 42.5013 37.5Z"></path><path d="M39.1654 33.332C38.7051 33.332 38.332 33.7051 38.332 34.1654V34.9987C38.332 35.4589 38.7051 35.832 39.1654 35.832C39.6256 35.832 39.9987 35.4589 39.9987 34.9987V34.1654C39.9987 33.7051 39.6256 33.332 39.1654 33.332Z"></path><path d="M39.1654 37.5C38.7051 37.5 38.332 37.8731 38.332 38.3333V39.1667C38.332 39.6269 38.7051 40 39.1654 40C39.6256 40 39.9987 39.6269 39.9987 39.1667V38.3333C39.9987 37.8731 39.6256 37.5 39.1654 37.5Z"></path><path d="M35.3126 5.66906C35.6485 5.35466 35.666 4.82759 35.3518 4.49156C32.6808 1.61322 28.926 -0.0143742 24.9993 0.00406118C21.0717 -0.0119384 17.3171 1.61802 14.6468 4.49823C14.3322 4.83443 14.3498 5.36199 14.686 5.67656C15.0222 5.99113 15.5497 5.9736 15.8643 5.63739C18.2201 3.09513 21.5334 1.65639 24.9993 1.67073C28.464 1.65466 31.7771 3.09057 34.1343 5.62989C34.2853 5.79143 34.4943 5.88631 34.7153 5.89366C34.9364 5.901 35.1512 5.82021 35.3126 5.66906Z"></path><path d="M32.0748 7.92664C32.4126 7.92827 32.7179 7.72585 32.848 7.41412C32.978 7.10239 32.907 6.74301 32.6682 6.50414C28.4351 2.27987 21.5813 2.27987 17.3482 6.50414C17.1315 6.71337 17.0447 7.02321 17.1209 7.31457C17.1972 7.60593 17.4247 7.83346 17.7161 7.90973C18.0074 7.98599 18.3173 7.89911 18.5265 7.68248C22.1089 4.1093 27.9074 4.1093 31.4898 7.68248C31.6451 7.83775 31.8553 7.9255 32.0748 7.92664Z"></path><path d="M19.6988 8.8616C19.383 9.18858 19.3875 9.70834 19.7089 10.0298C20.0304 10.3512 20.5501 10.3557 20.8771 10.0399C23.1565 7.76481 26.8477 7.76481 29.1271 10.0399C29.4541 10.3557 29.9738 10.3512 30.2953 10.0298C30.6167 9.70834 30.6212 9.18858 30.3054 8.8616C27.3748 5.93676 22.6294 5.93676 19.6988 8.8616Z"></path></g><defs><clipPath id="clip0_2641_385"><rect width="50" height="50"></rect></clipPath></defs></svg>