<svg xmlns="http://www.w3.org/2000/svg" width="60" height="60" viewBox="0 0 60 60" fill="#EF4824"><g clip-path="url(#clip0_2946_817)"><path d="M56.25 50H3.75C1.6825 50 0 48.3175 0 46.25V13.75C0 11.6825 1.6825 10 3.75 10H14.45C14.7815 10 15.0995 10.1317 15.3339 10.3661C15.5683 10.6005 15.7 10.9185 15.7 11.25C15.7 11.5815 15.5683 11.8995 15.3339 12.1339C15.0995 12.3683 14.7815 12.5 14.45 12.5H3.75C3.41848 12.5 3.10054 12.6317 2.86612 12.8661C2.6317 13.1005 2.5 13.4185 2.5 13.75V46.25C2.5 46.5815 2.6317 46.8995 2.86612 47.1339C3.10054 47.3683 3.41848 47.5 3.75 47.5H56.25C56.5815 47.5 56.8995 47.3683 57.1339 47.1339C57.3683 46.8995 57.5 46.5815 57.5 46.25V13.75C57.5 13.4185 57.3683 13.1005 57.1339 12.8661C56.8995 12.6317 56.5815 12.5 56.25 12.5H45.55C45.2185 12.5 44.9005 12.3683 44.6661 12.1339C44.4317 11.8995 44.3 11.5815 44.3 11.25C44.3 10.9185 44.4317 10.6005 44.6661 10.3661C44.9005 10.1317 45.2185 10 45.55 10H56.25C58.3175 10 60 11.6825 60 13.75V46.25C60 48.3175 58.3175 50 56.25 50ZM41.25 60H18.75C18.4185 60 18.1005 59.8683 17.8661 59.6339C17.6317 59.3995 17.5 59.0815 17.5 58.75C17.5 58.4185 17.6317 58.1005 17.8661 57.8661C18.1005 57.6317 18.4185 57.5 18.75 57.5H41.25C41.5815 57.5 41.8995 57.6317 42.1339 57.8661C42.3683 58.1005 42.5 58.4185 42.5 58.75C42.5 59.0815 42.3683 59.3995 42.1339 59.6339C41.8995 59.8683 41.5815 60 41.25 60Z"></path><path d="M26.25 60C25.9185 60 25.6005 59.8683 25.3661 59.6339C25.1317 59.3995 25 59.0815 25 58.75V48.75C25 48.4185 25.1317 48.1005 25.3661 47.8661C25.6005 47.6317 25.9185 47.5 26.25 47.5C26.5815 47.5 26.8995 47.6317 27.1339 47.8661C27.3683 48.1005 27.5 48.4185 27.5 48.75V58.75C27.5 59.0815 27.3683 59.3995 27.1339 59.6339C26.8995 59.8683 26.5815 60 26.25 60ZM33.75 60C33.4185 60 33.1005 59.8683 32.8661 59.6339C32.6317 59.3995 32.5 59.0815 32.5 58.75V48.75C32.5 48.4185 32.6317 48.1005 32.8661 47.8661C33.1005 47.6317 33.4185 47.5 33.75 47.5C34.0815 47.5 34.3995 47.6317 34.6339 47.8661C34.8683 48.1005 35 48.4185 35 48.75V58.75C35 59.0815 34.8683 59.3995 34.6339 59.6339C34.3995 59.8683 34.0815 60 33.75 60ZM22.5 37.5C22.1685 37.5 21.8505 37.3683 21.6161 37.1339C21.3817 36.8995 21.25 36.5815 21.25 36.25V23.75C21.25 23.4185 21.3817 23.1005 21.6161 22.8661C21.8505 22.6317 22.1685 22.5 22.5 22.5C22.8315 22.5 23.1495 22.6317 23.3839 22.8661C23.6183 23.1005 23.75 23.4185 23.75 23.75V36.25C23.75 36.5815 23.6183 36.8995 23.3839 37.1339C23.1495 37.3683 22.8315 37.5 22.5 37.5Z"></path><path d="M26.25 24.9989H18.75C18.4185 24.9989 18.1005 24.8672 17.8661 24.6328C17.6317 24.3984 17.5 24.0804 17.5 23.7489C17.5 23.4174 17.6317 23.0994 17.8661 22.865C18.1005 22.6306 18.4185 22.4989 18.75 22.4989H26.25C26.5815 22.4989 26.8995 22.6306 27.1339 22.865C27.3683 23.0994 27.5 23.4174 27.5 23.7489C27.5 24.0804 27.3683 24.3984 27.1339 24.6328C26.8995 24.8672 26.5815 24.9989 26.25 24.9989ZM37.5 37.4989C37.2312 37.499 36.9696 37.4125 36.7539 37.2522C36.5382 37.0918 36.3799 36.8663 36.3025 36.6089L32.5525 24.1089C32.4576 23.7913 32.4924 23.449 32.6494 23.1571C32.8064 22.8652 33.0727 22.6474 33.39 22.5514C33.7076 22.4565 34.0499 22.4914 34.3418 22.6483C34.6337 22.8053 34.8515 23.0716 34.9475 23.3889L37.5 31.8989L40.0525 23.3914C40.0998 23.2341 40.1776 23.0877 40.2814 22.9605C40.3853 22.8334 40.5132 22.7279 40.6578 22.6501C40.8024 22.5723 40.961 22.5238 41.1243 22.5073C41.2877 22.4908 41.4527 22.5066 41.61 22.5539C41.7673 22.6012 41.9137 22.679 42.0409 22.7828C42.1681 22.8867 42.2735 23.0146 42.3513 23.1592C42.4291 23.3038 42.4776 23.4624 42.4941 23.6257C42.5106 23.7891 42.4948 23.9541 42.4475 24.1114L38.6975 36.6114C38.6196 36.8683 38.4612 37.0933 38.2455 37.2532C38.0298 37.413 37.7684 37.4992 37.5 37.4989ZM30 16.2489C29.5027 16.2489 29.0258 16.0514 28.6742 15.6997C28.3225 15.3481 28.125 14.8712 28.125 14.3739C28.125 13.8766 28.3225 13.3997 28.6742 13.0481C29.0258 12.6965 29.5027 12.4989 30 12.4989C30.4973 12.4989 30.9742 12.6965 31.3258 13.0481C31.6775 13.3997 31.875 13.8766 31.875 14.3739C31.875 14.8712 31.6775 15.3481 31.3258 15.6997C30.9742 16.0514 30.4973 16.2489 30 16.2489ZM35 11.2489C34.8161 11.2492 34.6344 11.2088 34.468 11.1306C34.3016 11.0524 34.1546 10.9382 34.0375 10.7964C31.845 8.15391 28.1525 8.15391 25.9625 10.7964C25.8578 10.9229 25.7291 11.0275 25.5839 11.1041C25.4387 11.1808 25.2798 11.228 25.1162 11.2431C24.9527 11.2582 24.7878 11.2409 24.631 11.1921C24.4742 11.1433 24.3286 11.0641 24.2025 10.9589C24.0762 10.8544 23.9717 10.726 23.8951 10.5811C23.8184 10.4362 23.771 10.2776 23.7557 10.1144C23.7404 9.95113 23.7574 9.78649 23.8057 9.62984C23.8541 9.47318 23.9328 9.3276 24.0375 9.20141C27.1975 5.39641 32.8025 5.39641 35.9625 9.20141C36.1139 9.38412 36.2101 9.60614 36.24 9.84153C36.2699 10.0769 36.2321 10.316 36.1312 10.5307C36.0303 10.7454 35.8703 10.927 35.67 11.0542C35.4696 11.1814 35.2373 11.2489 35 11.2489Z"></path><path d="M39.9982 7.5C39.8139 7.50019 39.6319 7.45973 39.4651 7.38152C39.2983 7.3033 39.1508 7.18925 39.0332 7.0475C36.6082 4.115 33.3982 2.5 29.9982 2.5C26.5982 2.5 23.3882 4.115 20.9607 7.0475C20.8564 7.17529 20.7278 7.28118 20.5824 7.35907C20.437 7.43695 20.2777 7.48529 20.1135 7.5013C19.9494 7.51731 19.7837 7.50067 19.626 7.45235C19.4682 7.40402 19.3217 7.32496 19.1947 7.21973C19.0677 7.1145 18.9627 6.98517 18.8859 6.83919C18.8091 6.69322 18.762 6.5335 18.7472 6.36922C18.7324 6.20495 18.7503 6.03937 18.7998 5.88203C18.8493 5.7247 18.9295 5.57872 19.0357 5.4525C21.9457 1.935 25.8382 0 29.9982 0C34.1582 0 38.0507 1.935 40.9607 5.4525C41.112 5.63521 41.2083 5.85724 41.2382 6.09263C41.268 6.32802 41.2303 6.56705 41.1294 6.78178C41.0284 6.99652 40.8684 7.17808 40.6681 7.30527C40.4678 7.43245 40.2354 7.49999 39.9982 7.5Z"></path></g><defs><clipPath id="clip0_2946_817"><rect width="60" height="60" fill="white"></rect></clipPath></defs></svg>