<svg xmlns="http://www.w3.org/2000/svg" width="60" height="60" viewBox="0 0 60 60" fill="#EF4824"><path d="M44.9979 4.68526V27.1857C44.7519 27.1857 44.5083 27.2342 44.2811 27.3285C44.0539 27.4227 43.8475 27.5608 43.6737 27.7349C43.4999 27.909 43.3622 28.1157 43.2684 28.3431C43.1746 28.5705 43.1265 28.8142 43.127 29.0601L43.1235 37.504H5.62744C3.52976 37.504 1.875 39.1942 1.875 41.2565V50.6251C1.875 52.6874 3.53684 54.3776 5.62744 54.3776H6.56289V57.1875C6.55934 57.7048 6.98101 58.13 7.50188 58.1265H14.0678C14.5851 58.1265 15.0068 57.7013 15.0032 57.1875V54.3776H45.0014V57.1875C45.0014 57.7084 45.4231 58.13 45.944 58.1265H52.5028C52.6264 58.1269 52.7489 58.103 52.8632 58.056C52.9775 58.009 53.0815 57.9399 53.169 57.8527C53.2566 57.7655 53.3261 57.6618 53.3735 57.5476C53.4209 57.4335 53.4453 57.3111 53.4453 57.1875V54.3776H54.3808C56.4784 54.3776 58.1297 52.6874 58.1297 50.6251V41.2565C58.1297 39.1942 56.4784 37.5005 54.3808 37.5005H52.5028V29.0637C52.5018 28.5678 52.3044 28.0925 51.9538 27.7418C51.6031 27.3911 51.1278 27.1937 50.6319 27.1928L50.6283 4.69235C50.6283 3.94618 50.3319 3.23057 49.8043 2.70294C49.2767 2.17532 48.5611 1.87891 47.8149 1.87891C47.0687 1.87891 46.3531 2.17532 45.8255 2.70294C45.2979 3.23057 45.0014 3.94618 45.0014 4.69235L44.9979 4.68526ZM47.8149 3.75335C48.3251 3.75335 48.7503 4.15021 48.7503 4.68526V27.1857H46.8759V4.68526C46.8759 4.15375 47.3046 3.75335 47.8149 3.75335ZM21.1545 12.4736C17.9648 12.4785 14.8079 13.1169 11.8669 14.3517C8.92593 15.5865 6.25947 17.3931 4.02229 19.6667C3.1081 20.5206 4.51482 21.9132 5.35814 20.9812C7.42062 18.886 9.87875 17.2214 12.5898 16.0839C15.3009 14.9464 18.2109 14.3588 21.151 14.3551C27.0755 14.3551 32.7591 16.7398 36.9509 20.9812C37.8013 21.9167 39.1903 20.5135 38.2832 19.6667C36.0458 17.3946 33.3797 15.5892 30.4394 14.3551C27.4992 13.121 24.3433 12.4791 21.1545 12.4736ZM21.1545 18.3733C18.7327 18.3753 16.3353 18.8583 14.1017 19.7945C11.8681 20.7306 9.84275 22.1012 8.14323 23.8266C7.17235 24.6486 8.68183 26.0873 9.472 25.1376C10.9981 23.5886 12.8167 22.3581 14.8221 21.5175C16.8276 20.6769 18.98 20.2429 21.1545 20.2407C25.5341 20.2407 29.733 22.0017 32.837 25.1412C33.6945 26.0483 35.0623 24.6983 34.1729 23.8266C32.472 22.1008 30.4454 20.7298 28.2107 19.7931C25.976 18.8564 23.5776 18.3762 21.1545 18.3733ZM21.1545 24.2624C17.8131 24.2624 14.6205 25.5983 12.2606 27.983C11.35 28.8227 12.7354 30.2366 13.5894 29.3046C14.5783 28.3024 15.7564 27.5066 17.0554 26.9634C18.3544 26.4203 19.7483 26.1406 21.1563 26.1406C22.5643 26.1406 23.9582 26.4203 25.2572 26.9634C26.5562 27.5066 27.7343 28.3024 28.7232 29.3046C29.5948 30.2259 30.9555 28.8511 30.059 27.983C28.8947 26.8047 27.5081 25.8691 25.9796 25.2304C24.4511 24.5918 22.8111 24.2628 21.1545 24.2624ZM45.0014 29.0637H50.6248V37.504H44.9979L45.0014 29.0637ZM21.151 30.1551C19.3545 30.1551 17.6359 30.8744 16.3674 32.1535C15.4461 33.0464 16.821 34.4071 17.7033 33.4752C18.1534 33.0172 18.6903 32.6534 19.2825 32.4051C19.8748 32.1568 20.5105 32.0289 21.1527 32.0289C21.7949 32.0289 22.4307 32.1568 23.0229 32.4051C23.6152 32.6534 24.1521 33.0172 24.6022 33.4752C25.4845 34.3965 26.8487 33.0394 25.931 32.1535C25.3054 31.5206 24.5605 31.0181 23.7394 30.6751C22.9183 30.3321 22.0408 30.1553 21.151 30.1551ZM5.62744 39.382H54.3772C55.4331 39.382 56.2517 40.2147 56.2517 41.2565V50.6251C56.2517 51.6811 55.4048 52.5031 54.3737 52.5031H5.63098C5.3837 52.5055 5.13843 52.4585 4.90951 52.365C4.6806 52.2715 4.47263 52.1332 4.29777 51.9584C4.12291 51.7835 3.98466 51.5755 3.89112 51.3466C3.79758 51.1177 3.75062 50.8724 3.75299 50.6251V41.2565C3.75299 40.2147 4.57505 39.3785 5.63098 39.3785L5.62744 39.382ZM10.3082 41.2565C9.56301 41.2565 8.8483 41.5525 8.32134 42.0795C7.79438 42.6064 7.49834 43.3211 7.49834 44.0663C7.49834 44.8116 7.79438 45.5263 8.32134 46.0532C8.8483 46.5802 9.56301 46.8762 10.3082 46.8762C10.6891 46.8954 11.0699 46.8369 11.4275 46.7043C11.785 46.5717 12.1119 46.3679 12.3882 46.105C12.6646 45.8422 12.8846 45.526 13.035 45.1755C13.1853 44.8251 13.2628 44.4477 13.2628 44.0663C13.2628 43.685 13.1853 43.3076 13.035 42.9572C12.8846 42.6067 12.6646 42.2905 12.3882 42.0277C12.1119 41.7648 11.785 41.561 11.4275 41.4284C11.0699 41.2958 10.6891 41.2373 10.3082 41.2565ZM17.8202 41.2565C16.2399 41.2565 14.9997 42.5214 14.9997 44.0628C14.9997 45.6042 16.2576 46.8762 17.8202 46.8762C18.5654 46.8762 19.2801 46.5802 19.8071 46.0532C20.3341 45.5263 20.6301 44.8116 20.6301 44.0663C20.6301 43.3211 20.3341 42.6064 19.8071 42.0795C19.2801 41.5525 18.5654 41.2565 17.8202 41.2565ZM25.318 41.2565C24.9404 41.2421 24.5638 41.304 24.2107 41.4384C23.8575 41.5728 23.5351 41.7769 23.2625 42.0387C22.99 42.3004 22.773 42.6143 22.6244 42.9617C22.4759 43.3091 22.3988 43.6829 22.3979 44.0608C22.3969 44.4386 22.4721 44.8128 22.6189 45.161C22.7657 45.5091 22.9811 45.8242 23.2523 46.0872C23.5235 46.3503 23.845 46.5561 24.1974 46.6923C24.5499 46.8284 24.9262 46.8922 25.3038 46.8798C26.0323 46.8558 26.7231 46.55 27.2307 46.0268C27.7382 45.5037 28.0229 44.8039 28.0247 44.075C28.0266 43.346 27.7454 42.6448 27.2405 42.1191C26.7356 41.5934 26.0464 41.2841 25.318 41.2565ZM10.3082 43.1238C10.8079 43.1238 11.2508 43.5348 11.2508 44.0628C11.2508 44.3118 11.1518 44.5507 10.9757 44.7268C10.7997 44.9029 10.5608 45.0018 10.3118 45.0018C10.0627 45.0018 9.82391 44.9029 9.64781 44.7268C9.47171 44.5507 9.37279 44.3118 9.37279 44.0628C9.37279 43.5348 9.80862 43.1238 10.3082 43.1238ZM17.8202 43.1238C18.3234 43.1238 18.7521 43.5348 18.7521 44.0628C18.7521 44.5908 18.3269 44.9983 17.8202 44.9983C17.3135 44.9983 16.8741 44.5943 16.8741 44.0628C16.8741 43.5313 17.317 43.1238 17.8202 43.1238ZM25.318 43.1238C25.8105 43.1238 26.2499 43.5348 26.2499 44.0628C26.2499 44.5908 25.8247 44.9983 25.318 44.9983C24.8077 44.9983 24.3754 44.5943 24.3754 44.0628C24.3754 43.5313 24.8255 43.1238 25.318 43.1238ZM30.9342 43.1238C29.7118 43.1238 29.7118 44.9983 30.9342 44.9983H39.3816C40.6041 44.9983 40.6041 43.1203 39.3816 43.1203L30.9342 43.1238ZM43.5947 43.1238C42.3687 43.1238 42.3687 44.9983 43.5947 44.9983H45.9404C47.1629 44.9983 47.1629 43.1203 45.9404 43.1203L43.5947 43.1238ZM8.43379 54.3776H13.1217V56.252H8.43733L8.43379 54.3776ZM46.8723 54.3776H51.5602V56.252H46.8794L46.8723 54.3776Z"></path></svg>