<svg xmlns="http://www.w3.org/2000/svg" width="32" height="32" viewBox="0 0 32 32"><path d="M9.92969 2.38867L12.3516 8.20117C12.7754 9.16992 12.5332 10.3203 11.6855 10.9863L8.71875 13.4688C10.7168 17.707 14.168 21.1582 18.4062 23.1562L20.8887 20.1895C21.5547 19.3418 22.7051 19.0996 23.6738 19.5234L29.4863 21.9453C30.6367 22.3691 31.1816 23.6406 30.8789 24.791L29.4258 30.1191C29.123 31.1484 28.2148 31.875 27.125 31.875C12.1094 31.875 0 19.7656 0 4.75C0 3.66016 0.726562 2.75195 1.75586 2.44922L7.08398 0.996094C8.23438 0.693359 9.50586 1.23828 9.92969 2.38867Z" fill="#204A07"></path><path d="M9.92969 2.38867L12.3516 8.20117C12.7754 9.16992 12.5332 10.3203 11.6855 10.9863L8.71875 13.4688C10.7168 17.707 14.168 21.1582 18.4062 23.1562L20.8887 20.1895C21.5547 19.3418 22.7051 19.0996 23.6738 19.5234L29.4863 21.9453C30.6367 22.3691 31.1816 23.6406 30.8789 24.791L29.4258 30.1191C29.123 31.1484 28.2148 31.875 27.125 31.875C12.1094 31.875 0 19.7656 0 4.75C0 3.66016 0.726562 2.75195 1.75586 2.44922L7.08398 0.996094C8.23438 0.693359 9.50586 1.23828 9.92969 2.38867Z" fill="url(#paint0_linear_2826_226)"></path><defs><linearGradient id="paint0_linear_2826_226" x1="0" y1="1" x2="33.2474" y2="3.63414" gradientUnits="userSpaceOnUse"><stop offset="0.0127" stop-color="#FD654E"></stop><stop offset="1" stop-color="#F28B28"></stop></linearGradient></defs></svg>