<svg xmlns="http://www.w3.org/2000/svg" width="65" height="65" viewBox="0 0 65 65" fill="#EF4824"><path d="M51.9987 28.6379V4.33333C51.9987 1.9401 50.0586 0 47.6654 0H17.332C14.9388 0 12.9987 1.9401 12.9987 4.33333V28.6379C11.6465 30.1508 10.8783 32.0964 10.832 34.125C10.8404 37.1507 11.584 40.129 12.9987 42.8036V60.6667C12.9987 63.0599 14.9388 65 17.332 65H47.6654C50.0586 65 51.9987 63.0599 51.9987 60.6667V42.8036C53.4134 40.129 54.157 37.1507 54.1654 34.125C54.1191 32.0964 53.3509 30.1508 51.9987 28.6379ZM40.8306 2.16667L39.4407 3.64867C39.0314 4.08523 38.4597 4.33305 37.8612 4.33333H27.1362C26.5375 4.33257 25.9657 4.08486 25.5556 3.64867L24.1668 2.16667H40.8306ZM17.332 2.16667H21.1963L23.975 5.12958C24.7949 6.00248 25.9387 6.49832 27.1362 6.5H37.8612C39.0589 6.49896 40.2029 6.00302 41.0224 5.12958L43.8011 2.16667H47.6654C48.862 2.16667 49.832 3.13672 49.832 4.33333V26.5861C46.1119 23.738 40.2987 21.8801 33.582 21.697V18.3972C35.0846 18.0111 36.2648 16.8491 36.6741 15.3528C37.0835 13.8564 36.6591 12.2555 35.5624 11.1583C33.8484 9.52018 31.149 9.52018 29.435 11.1583C28.332 12.253 27.9036 13.8565 28.3136 15.3554C28.7237 16.8543 29.9088 18.0165 31.4154 18.3972V21.697C24.6987 21.8801 18.8855 23.738 15.1654 26.5861V4.33333C15.1654 3.7587 15.3936 3.2076 15.8 2.80127C16.2063 2.39494 16.7574 2.16667 17.332 2.16667ZM30.9669 15.7484C30.3471 15.1288 30.1616 14.1968 30.4969 13.3871C30.8322 12.5774 31.6223 12.0495 32.4987 12.0495C33.3751 12.0495 34.1652 12.5774 34.5005 13.3871C34.8358 14.1968 34.6503 15.1288 34.0305 15.7484C33.1734 16.5672 31.824 16.5672 30.9669 15.7484ZM31.4154 23.8637V32.6018C31.4154 33.2001 31.9004 33.6852 32.4987 33.6852C33.097 33.6852 33.582 33.2001 33.582 32.6018V23.8637C43.6689 24.1735 51.9987 28.7387 51.9987 34.125C51.9987 39.7031 43.0688 44.4167 32.4987 44.4167C21.9286 44.4167 12.9987 39.7031 12.9987 34.125C12.9987 28.7387 21.3284 24.1735 31.4154 23.8637ZM50.3737 41.2436C46.9686 47.9579 40.0259 52.1357 32.4987 52C24.9715 52.1357 18.0288 47.9579 14.6237 41.2436C18.4944 44.4893 24.9901 46.5833 32.4987 46.5833C40.0073 46.5833 46.5029 44.4893 50.3737 41.2436ZM47.6654 62.8333H17.332C16.1354 62.8333 15.1654 61.8633 15.1654 60.6667V58.981C15.8212 59.3709 16.5691 59.5788 17.332 59.5833H47.6654C48.4283 59.5788 49.1762 59.3709 49.832 58.981V60.6667C49.832 61.8633 48.862 62.8333 47.6654 62.8333ZM49.832 55.25C49.832 56.4466 48.862 57.4167 47.6654 57.4167H17.332C16.1354 57.4167 15.1654 56.4466 15.1654 55.25V46.0991C19.4335 51.2613 25.8008 54.2249 32.4987 54.1667C39.1966 54.2249 45.5639 51.2613 49.832 46.0991V55.25Z"></path><path d="M6.78055 23.6703C7.27755 23.3504 7.42647 22.6912 7.11526 22.1888C6.80404 21.6864 6.14754 21.5261 5.6398 21.8286C0.0517612 25.298 -1.67473 32.6352 1.77988 38.2324C2.09973 38.7294 2.75889 38.8783 3.26133 38.5671C3.76378 38.2559 3.92405 37.5994 3.62155 37.0917C0.792939 32.5123 2.20634 26.5073 6.78055 23.6703Z"></path><path d="M7.92162 25.515C4.36514 27.723 3.26618 32.3927 5.46462 35.9551C5.78447 36.4521 6.44363 36.601 6.94607 36.2898C7.44852 35.9786 7.60879 35.3221 7.30629 34.8143C6.55021 33.5928 6.31035 32.121 6.63948 30.7226C6.96861 29.3242 7.83976 28.1138 9.06129 27.3578C9.39762 27.1574 9.59967 26.7911 9.5898 26.3998C9.57992 26.0084 9.35966 25.6528 9.01366 25.4696C8.66766 25.2865 8.24975 25.3042 7.92054 25.5161L7.92162 25.515Z"></path><path d="M59.3567 21.8286C58.849 21.5261 58.1925 21.6864 57.8812 22.1888C57.57 22.6912 57.719 23.3504 58.2159 23.6703C62.7911 26.5077 64.2042 32.5143 61.3739 37.0938C61.2226 37.3383 61.1747 37.6329 61.2408 37.9127C61.3068 38.1925 61.4813 38.4345 61.726 38.5856C62.2346 38.9 62.9018 38.7429 63.2166 38.2346C66.6727 32.6369 64.9461 25.2981 59.3567 21.8286Z"></path><path d="M57.0759 25.5122C56.7466 25.3003 56.3287 25.2826 55.9827 25.4657C55.6367 25.6489 55.4165 26.0045 55.4066 26.3959C55.3967 26.7872 55.5988 27.1535 55.9351 27.3539C57.1566 28.1099 58.0278 29.3203 58.3569 30.7187C58.686 32.1171 58.4462 33.5889 57.6901 34.8104C57.3876 35.3182 57.5479 35.9747 58.0503 36.2859C58.5528 36.5971 59.2119 36.4482 59.5318 35.9512C61.7302 32.3888 60.6312 27.7191 57.0748 25.5111L57.0759 25.5122Z"></path></svg>