<svg xmlns="http://www.w3.org/2000/svg" width="65" height="65" viewBox="0 0 65 65" fill="#EF4824"><g clip-path="url(#clip0_2739_762)"><path d="M60.6667 39H54.1667V31.4167C54.1643 30.6461 53.7515 29.9351 53.0833 29.5512V16.25C53.0833 14.4551 51.6283 13 49.8333 13C48.0384 13 46.5833 14.4551 46.5833 16.25V29.5512C45.9152 29.9351 45.5023 30.6461 45.5 31.4167V39H19.5V31.4167C19.4977 30.6461 19.0848 29.9351 18.4167 29.5512V16.25C18.4167 14.4551 16.9616 13 15.1667 13C13.3717 13 11.9167 14.4551 11.9167 16.25V29.5512C11.2485 29.9351 10.8357 30.6461 10.8333 31.4167V39H4.33333C1.9401 39 0 40.9401 0 43.3333V56.3333C0 58.7266 1.9401 60.6667 4.33333 60.6667H5.41667V61.75C5.41667 63.5449 6.87174 65 8.66667 65H15.1667C16.9616 65 18.4167 63.5449 18.4167 61.75V60.6667H46.5833V61.75C46.5833 63.5449 48.0384 65 49.8333 65H56.3333C58.1283 65 59.5833 63.5449 59.5833 61.75V60.6667H60.6667C63.0599 60.6667 65 58.7266 65 56.3333V43.3333C65 40.9401 63.0599 39 60.6667 39ZM48.75 16.25C48.75 15.6517 49.235 15.1667 49.8333 15.1667C50.4316 15.1667 50.9167 15.6517 50.9167 16.25V29.25H48.75V16.25ZM47.6667 31.4167H52V39H47.6667V31.4167ZM14.0833 16.25C14.0833 15.6517 14.5684 15.1667 15.1667 15.1667C15.765 15.1667 16.25 15.6517 16.25 16.25V29.25H14.0833V16.25ZM13 31.4167H17.3333V39H13V31.4167ZM16.25 61.75C16.25 62.3483 15.765 62.8333 15.1667 62.8333H8.66667C8.06836 62.8333 7.58333 62.3483 7.58333 61.75V60.6667H16.25V61.75ZM57.4167 61.75C57.4167 62.3483 56.9316 62.8333 56.3333 62.8333H49.8333C49.235 62.8333 48.75 62.3483 48.75 61.75V60.6667H57.4167V61.75ZM62.8333 56.3333C62.8333 57.53 61.8633 58.5 60.6667 58.5H4.33333C3.13672 58.5 2.16667 57.53 2.16667 56.3333V43.3333C2.16667 42.1367 3.13672 41.1667 4.33333 41.1667H60.6667C61.8633 41.1667 62.8333 42.1367 62.8333 43.3333V56.3333Z"></path><path d="M23.832 54.168H21.6654C21.0671 54.168 20.582 54.653 20.582 55.2513C20.582 55.8496 21.0671 56.3346 21.6654 56.3346H23.832C24.4303 56.3346 24.9154 55.8496 24.9154 55.2513C24.9154 54.653 24.4303 54.168 23.832 54.168Z"></path><path d="M30.332 54.168H28.1654C27.5671 54.168 27.082 54.653 27.082 55.2513C27.082 55.8496 27.5671 56.3346 28.1654 56.3346H30.332C30.9303 56.3346 31.4154 55.8496 31.4154 55.2513C31.4154 54.653 30.9303 54.168 30.332 54.168Z"></path><path d="M36.832 54.168H34.6654C34.0671 54.168 33.582 54.653 33.582 55.2513C33.582 55.8496 34.0671 56.3346 34.6654 56.3346H36.832C37.4303 56.3346 37.9154 55.8496 37.9154 55.2513C37.9154 54.653 37.4303 54.168 36.832 54.168Z"></path><path d="M43.332 54.168H41.1654C40.5671 54.168 40.082 54.653 40.082 55.2513C40.082 55.8496 40.5671 56.3346 41.1654 56.3346H43.332C43.9303 56.3346 44.4154 55.8496 44.4154 55.2513C44.4154 54.653 43.9303 54.168 43.332 54.168Z"></path><path d="M10.832 43.332C9.03711 43.332 7.58203 44.7871 7.58203 46.582C7.58203 48.377 9.03711 49.832 10.832 49.832C12.627 49.832 14.082 48.377 14.082 46.582C14.082 44.7871 12.627 43.332 10.832 43.332ZM10.832 47.6654C10.2337 47.6654 9.7487 47.1803 9.7487 46.582C9.7487 45.9837 10.2337 45.4987 10.832 45.4987C11.4303 45.4987 11.9154 45.9837 11.9154 46.582C11.9154 47.1803 11.4303 47.6654 10.832 47.6654Z"></path><path d="M22.75 46.582C22.75 44.7871 21.2949 43.332 19.5 43.332C17.7051 43.332 16.25 44.7871 16.25 46.582C16.25 48.377 17.7051 49.832 19.5 49.832C21.2949 49.832 22.75 48.377 22.75 46.582ZM19.5 47.6654C18.9017 47.6654 18.4167 47.1803 18.4167 46.582C18.4167 45.9837 18.9017 45.4987 19.5 45.4987C20.0983 45.4987 20.5833 45.9837 20.5833 46.582C20.5833 47.1803 20.0983 47.6654 19.5 47.6654Z"></path><path d="M28.168 43.332C26.373 43.332 24.918 44.7871 24.918 46.582C24.918 48.377 26.373 49.832 28.168 49.832C29.9629 49.832 31.418 48.377 31.418 46.582C31.418 44.7871 29.9629 43.332 28.168 43.332ZM28.168 47.6654C27.5697 47.6654 27.0846 47.1803 27.0846 46.582C27.0846 45.9837 27.5697 45.4987 28.168 45.4987C28.7663 45.4987 29.2513 45.9837 29.2513 46.582C29.2513 47.1803 28.7663 47.6654 28.168 47.6654Z"></path><path d="M36.832 43.332C35.0371 43.332 33.582 44.7871 33.582 46.582C33.582 48.377 35.0371 49.832 36.832 49.832C38.627 49.832 40.082 48.377 40.082 46.582C40.082 44.7871 38.627 43.332 36.832 43.332ZM36.832 47.6654C36.2337 47.6654 35.7487 47.1803 35.7487 46.582C35.7487 45.9837 36.2337 45.4987 36.832 45.4987C37.4303 45.4987 37.9154 45.9837 37.9154 46.582C37.9154 47.1803 37.4303 47.6654 36.832 47.6654Z"></path><path d="M45.5 43.332C43.7051 43.332 42.25 44.7871 42.25 46.582C42.25 48.377 43.7051 49.832 45.5 49.832C47.2949 49.832 48.75 48.377 48.75 46.582C48.75 44.7871 47.2949 43.332 45.5 43.332ZM45.5 47.6654C44.9017 47.6654 44.4167 47.1803 44.4167 46.582C44.4167 45.9837 44.9017 45.4987 45.5 45.4987C46.0983 45.4987 46.5833 45.9837 46.5833 46.582C46.5833 47.1803 46.0983 47.6654 45.5 47.6654Z"></path><path d="M54.168 43.332C52.373 43.332 50.918 44.7871 50.918 46.582C50.918 48.377 52.373 49.832 54.168 49.832C55.9629 49.832 57.418 48.377 57.418 46.582C57.418 44.7871 55.9629 43.332 54.168 43.332ZM54.168 47.6654C53.5697 47.6654 53.0846 47.1803 53.0846 46.582C53.0846 45.9837 53.5697 45.4987 54.168 45.4987C54.7663 45.4987 55.2513 45.9837 55.2513 46.582C55.2513 47.1803 54.7663 47.6654 54.168 47.6654Z"></path><path d="M47.668 0C40.4915 0.00776192 34.6757 5.82352 34.668 13C34.668 13.5983 35.153 14.0833 35.7513 14.0833C36.3496 14.0833 36.8346 13.5983 36.8346 13C36.8412 7.01964 41.6876 2.17323 47.668 2.16667C48.2663 2.16667 48.7513 1.68164 48.7513 1.08333C48.7513 0.485025 48.2663 0 47.668 0Z"></path><path d="M47.6667 4.33203C42.8824 4.3374 39.0054 8.21446 39 12.9987C39 13.597 39.485 14.082 40.0833 14.082C40.6816 14.082 41.1667 13.597 41.1667 12.9987C41.1702 9.41033 44.0783 6.50228 47.6667 6.4987C48.265 6.4987 48.75 6.01367 48.75 5.41536C48.75 4.81706 48.265 4.33203 47.6667 4.33203Z"></path><path d="M47.6654 8.66797C45.2721 8.66797 43.332 10.6081 43.332 13.0013C43.332 13.5996 43.8171 14.0846 44.4154 14.0846C45.0137 14.0846 45.4987 13.5996 45.4987 13.0013C45.4987 11.8047 46.4687 10.8346 47.6654 10.8346C48.2637 10.8346 48.7487 10.3496 48.7487 9.7513C48.7487 9.15299 48.2637 8.66797 47.6654 8.66797Z"></path><path d="M52.0013 0C51.403 0 50.918 0.485025 50.918 1.08333C50.918 1.68164 51.403 2.16667 52.0013 2.16667C57.9817 2.17323 62.8281 7.01964 62.8346 13C62.8346 13.5983 63.3197 14.0833 63.918 14.0833C64.5163 14.0833 65.0013 13.5983 65.0013 13C64.9935 5.82352 59.1778 0.00776192 52.0013 0Z"></path><path d="M52.0013 6.4987C55.5897 6.50228 58.4977 9.41033 58.5013 12.9987C58.5013 13.597 58.9863 14.082 59.5846 14.082C60.1829 14.082 60.668 13.597 60.668 12.9987C60.6626 8.21446 56.7855 4.3374 52.0013 4.33203C51.403 4.33203 50.918 4.81706 50.918 5.41536C50.918 6.01367 51.403 6.4987 52.0013 6.4987Z"></path><path d="M52.0013 10.8346C53.1979 10.8346 54.168 11.8047 54.168 13.0013C54.168 13.5996 54.653 14.0846 55.2513 14.0846C55.8496 14.0846 56.3346 13.5996 56.3346 13.0013C56.3346 10.6081 54.3945 8.66797 52.0013 8.66797C51.403 8.66797 50.918 9.15299 50.918 9.7513C50.918 10.3496 51.403 10.8346 52.0013 10.8346Z"></path><path d="M13 0C5.82352 0.00776192 0.00776192 5.82352 0 13C0 13.5983 0.485025 14.0833 1.08333 14.0833C1.68164 14.0833 2.16667 13.5983 2.16667 13C2.17323 7.01964 7.01964 2.17323 13 2.16667C13.5983 2.16667 14.0833 1.68164 14.0833 1.08333C14.0833 0.485025 13.5983 0 13 0Z"></path><path d="M12.9987 4.33203C8.21446 4.3374 4.3374 8.21446 4.33203 12.9987C4.33203 13.597 4.81706 14.082 5.41536 14.082C6.01367 14.082 6.4987 13.597 6.4987 12.9987C6.50228 9.41033 9.41033 6.50228 12.9987 6.4987C13.597 6.4987 14.082 6.01367 14.082 5.41536C14.082 4.81706 13.597 4.33203 12.9987 4.33203Z"></path><path d="M13.0013 8.66797C10.6081 8.66797 8.66797 10.6081 8.66797 13.0013C8.66797 13.5996 9.15299 14.0846 9.7513 14.0846C10.3496 14.0846 10.8346 13.5996 10.8346 13.0013C10.8346 11.8047 11.8047 10.8346 13.0013 10.8346C13.5996 10.8346 14.0846 10.3496 14.0846 9.7513C14.0846 9.15299 13.5996 8.66797 13.0013 8.66797Z"></path><path d="M17.3333 2.16667C23.3137 2.17323 28.1601 7.01964 28.1667 13C28.1667 13.5983 28.6517 14.0833 29.25 14.0833C29.8483 14.0833 30.3333 13.5983 30.3333 13C30.3256 5.82352 24.5098 0.00776192 17.3333 0C16.735 0 16.25 0.485025 16.25 1.08333C16.25 1.68164 16.735 2.16667 17.3333 2.16667Z"></path><path d="M17.3333 6.4987C20.9217 6.50228 23.8297 9.41033 23.8333 12.9987C23.8333 13.597 24.3184 14.082 24.9167 14.082C25.515 14.082 26 13.597 26 12.9987C25.9946 8.21446 22.1176 4.3374 17.3333 4.33203C16.735 4.33203 16.25 4.81706 16.25 5.41536C16.25 6.01367 16.735 6.4987 17.3333 6.4987Z"></path><path d="M17.3333 10.8346C18.53 10.8346 19.5 11.8047 19.5 13.0013C19.5 13.5996 19.985 14.0846 20.5833 14.0846C21.1816 14.0846 21.6667 13.5996 21.6667 13.0013C21.6667 10.6081 19.7266 8.66797 17.3333 8.66797C16.735 8.66797 16.25 9.15299 16.25 9.7513C16.25 10.3496 16.735 10.8346 17.3333 10.8346Z"></path></g><defs><clipPath id="clip0_2739_762"><rect width="65" height="65" fill="white"></rect></clipPath></defs></svg>