<svg xmlns="http://www.w3.org/2000/svg" width="65" height="65" viewBox="0 0 65 65" fill="#EF4824"><path d="M53.5516 20.5832H61.1862C61.9246 20.583 62.6124 20.2077 63.0123 19.5869C63.4121 18.9661 63.4694 18.1847 63.1642 17.5123C59.8232 10.1564 52.4946 5.42893 44.4156 5.41797H20.5844C12.4966 5.41387 5.15716 10.1505 1.82932 17.522C1.52771 18.194 1.58724 18.9731 1.98745 19.5914C2.38765 20.2098 3.07398 20.5832 3.81055 20.5832H11.4484C2.88213 24.8206 -1.63583 34.4012 0.544147 43.7063C2.72412 53.0114 11.0274 59.5882 20.5844 59.5797H44.4156C53.9726 59.5882 62.2759 53.0114 64.4559 43.7063C66.6358 34.4012 62.1179 24.8206 53.5516 20.5832ZM27.0838 20.5832H37.9162V21.6665C37.9162 22.2647 37.4312 22.7497 36.8329 22.7497H28.1671C27.5688 22.7497 27.0838 22.2647 27.0838 21.6665V20.5832ZM3.80297 18.4168C6.77978 11.82 13.3471 7.58083 20.5844 7.58444H44.4156C51.6473 7.59436 58.206 11.8296 61.1905 18.4168H3.80297ZM28.1671 57.4132V56.33C28.1671 55.7317 28.652 55.2467 29.2503 55.2467H35.7497C36.348 55.2467 36.8329 55.7317 36.8329 56.33V57.4132H28.1671ZM44.4156 57.4132H38.9994V56.33C38.9994 54.5352 37.5445 53.0803 35.7497 53.0803H29.2503C27.4555 53.0803 26.0006 54.5352 26.0006 56.33V57.4132H20.5844C10.4141 57.4132 2.16945 49.1685 2.16945 38.9982C2.16945 28.8279 10.4141 20.5832 20.5844 20.5832H24.9174V21.6665C24.9174 23.4612 26.3723 24.9162 28.1671 24.9162H36.8329C38.6277 24.9162 40.0826 23.4612 40.0826 21.6665V20.5832H44.4156C54.5859 20.5832 62.8306 28.8279 62.8306 38.9982C62.8306 49.1685 54.5859 57.4132 44.4156 57.4132Z"></path><path d="M20.1158 30.3845C20.2187 30.3227 20.3173 30.2588 20.4267 30.1993C21.7904 29.4543 22.4359 27.8482 21.9671 26.3668C21.4217 24.6688 19.63 23.7073 17.9136 24.1916C7.70412 27.1965 7.58605 38.8803 7.58605 39.0926V39.4078C7.49574 41.5681 7.92361 43.7186 8.83393 45.6798C8.72534 46.1527 8.67011 46.6363 8.66928 47.1215C8.53064 50.2584 10.9496 52.9193 14.0854 53.0793C15.9068 53.05 17.5848 52.0853 18.5267 50.5261C22.253 49.2631 24.9178 44.9648 24.9178 40.0805C24.9178 35.8949 23.0113 32.1837 20.1158 30.3845ZM19.48 47.5873C19.4908 47.4324 19.5016 47.2786 19.5016 47.1215C19.5016 46.5233 19.0166 46.0383 18.4184 46.0383C17.8201 46.0383 17.3352 46.5233 17.3352 47.1215C17.4705 49.0612 16.023 50.75 14.0854 50.9129C12.1479 50.75 10.7004 49.0612 10.8357 47.1215C10.7004 45.1819 12.1479 43.4931 14.0854 43.3302C14.6837 43.3302 15.1687 42.8452 15.1687 42.247C15.1687 41.6487 14.6837 41.1638 14.0854 41.1638C12.5619 41.18 11.1227 41.8662 10.1511 43.0399C9.84591 41.8669 9.71165 40.656 9.75251 39.4447C9.75251 39.189 9.75251 39.0016 9.75251 38.9973C9.75251 38.8955 9.85326 28.8225 18.5267 26.2693C19.1146 26.115 19.7204 26.4483 19.9046 27.0276C20.057 27.5196 19.8418 28.0508 19.39 28.2982C17.3423 29.2984 15.8187 31.125 15.2023 33.319C15.1051 33.6955 15.2172 34.0952 15.4959 34.3663C15.7747 34.6374 16.1774 34.7382 16.551 34.6306C16.9247 34.5229 17.2119 34.2233 17.3037 33.8454C17.4885 33.1191 17.8363 32.4445 18.3209 31.8729C20.9207 33.0547 22.7513 36.3813 22.7513 40.0805C22.8511 42.9485 21.6486 45.7079 19.48 47.5873Z"></path><path d="M14.0832 47.6626C14.6815 47.6626 15.1665 47.1776 15.1665 46.5793C15.1665 45.9811 14.6815 45.4961 14.0832 45.4961C13.485 45.4961 13 45.9811 13 46.5793C13 47.1776 13.485 47.6626 14.0832 47.6626Z"></path><path d="M50.9153 47.6626C51.5135 47.6626 51.9985 47.1776 51.9985 46.5793C51.9985 45.9811 51.5135 45.4961 50.9153 45.4961C50.317 45.4961 49.832 45.9811 49.832 46.5793C49.832 47.1776 50.317 47.6626 50.9153 47.6626Z"></path><path d="M28.1653 49.8305C28.7635 49.8305 29.2485 49.3455 29.2485 48.7473C29.2485 48.149 28.7635 47.6641 28.1653 47.6641C27.567 47.6641 27.082 48.149 27.082 48.7473C27.082 49.3455 27.567 49.8305 28.1653 49.8305Z"></path><path d="M32.5012 49.8305C33.0995 49.8305 33.5844 49.3455 33.5844 48.7473C33.5844 48.149 33.0995 47.6641 32.5012 47.6641C31.9029 47.6641 31.418 48.149 31.418 48.7473C31.418 49.3455 31.9029 49.8305 32.5012 49.8305Z"></path><path d="M36.8332 49.8305C37.4315 49.8305 37.9165 49.3455 37.9165 48.7473C37.9165 48.149 37.4315 47.6641 36.8332 47.6641C36.235 47.6641 35.75 48.149 35.75 48.7473C35.75 49.3455 36.235 49.8305 36.8332 49.8305Z"></path><path d="M57.4138 39.3338C57.4138 39.194 57.4138 39.0879 57.4138 38.9232C57.4138 38.8062 57.2957 27.1225 47.0862 24.1176C45.3695 23.6327 43.5772 24.595 43.0328 26.2938C42.5645 27.7749 43.2099 29.3804 44.5731 30.1252C44.7042 30.1967 44.8244 30.2736 44.9479 30.3494C42.0156 32.1324 40.082 35.8674 40.082 40.0823C40.082 44.9666 42.7468 49.2649 46.4731 50.5279C47.415 52.0871 49.093 53.0517 50.9144 53.0811C54.0502 52.921 56.4692 50.2602 56.3305 47.1233C56.3291 46.6194 56.2688 46.1173 56.1507 45.6274C57.0701 43.6611 57.5033 41.5025 57.4138 39.3338ZM50.9144 41.1655C50.3161 41.1655 49.8311 41.6505 49.8311 42.2488C49.8311 42.847 50.3161 43.332 50.9144 43.332C52.8519 43.4949 54.2994 45.1837 54.1641 47.1233C54.2994 49.063 52.8519 50.7517 50.9144 50.9146C48.9768 50.7517 47.5293 49.063 47.6647 47.1233C47.6647 46.5251 47.1797 46.0401 46.5814 46.0401C45.9832 46.0401 45.4982 46.5251 45.4982 47.1233C45.4982 47.2804 45.509 47.4342 45.5199 47.5891C43.3512 45.7096 42.1487 42.9503 42.2485 40.0823C42.2485 36.3635 44.0976 33.0207 46.7201 31.8497C47.1825 32.4091 47.5154 33.0638 47.695 33.767C47.8401 34.3476 48.4284 34.7007 49.009 34.5556C49.5896 34.4105 49.9426 33.8223 49.7976 33.2417C49.1791 31.0482 47.6545 29.2227 45.6065 28.223C45.1547 27.9757 44.9396 27.4444 45.092 26.9524C45.2776 26.3743 45.8822 26.0416 46.4699 26.1941C55.1119 28.7387 55.2473 38.5105 55.2473 38.8181C55.2376 38.9265 55.2365 39.115 55.2408 39.3706C55.2831 40.601 55.1444 41.831 54.8292 43.0211C53.8582 41.86 52.4278 41.182 50.9144 41.1655Z"></path></svg>