<svg xmlns="http://www.w3.org/2000/svg" width="50" height="50" viewBox="0 0 50 50" fill="white"><path d="M23.2852 20.3501L22.8879 22.6228L24.9688 21.5501L27.0497 22.6228L26.6525 20.3501L28.3361 18.7419L26.0097 18.4101L24.9652 16.3438L23.9243 18.4101L21.6016 18.7419L23.2852 20.3501Z"></path><path d="M33.2369 13.6074C33.2399 13.2813 33.2399 12.9607 33.2369 12.6455V11.6328H16.6341V12.6455C16.6341 12.9607 16.6341 13.2813 16.6341 13.6074H12.0269V14.6201C11.9668 17.0195 12.6988 19.3719 14.1096 21.3137C15.2527 22.7619 16.6033 24.0335 18.1178 25.0874C18.8548 25.611 19.5472 26.1948 20.1878 26.8328C21.2257 28.1987 22.4901 29.3767 23.926 30.3155V31.9874H23.4196C22.2118 31.9886 21.0537 32.4687 20.1994 33.3225C19.3451 34.1763 18.8642 35.3341 18.8623 36.5419V37.5546H31.0132V36.5419C31.012 35.3336 30.5315 34.1751 29.6771 33.3208C28.8227 32.4664 27.6642 31.9858 26.456 31.9846H25.9496V30.3155C27.3829 29.3783 28.6453 28.2029 29.6823 26.8401C30.3342 26.1936 31.0398 25.6036 31.7914 25.0764C33.3202 24.0268 34.686 22.7577 35.845 21.3101C37.2708 19.3759 38.0125 17.0223 37.9532 14.6201V13.6074H33.2369ZM14.096 15.6328H16.695C16.7681 17.7178 17.0966 19.786 17.6732 21.791C17.7232 21.9555 17.776 22.1192 17.8296 22.281C16.7741 21.4983 15.8959 20.5015 15.2525 19.3558C14.6091 18.2101 14.2149 16.9414 14.096 15.6328ZM26.4596 34.0119C26.952 34.0125 27.4337 34.1564 27.8457 34.4262C28.2577 34.6959 28.5822 35.0798 28.7796 35.531H21.0987C21.2961 35.0798 21.6206 34.6959 22.0326 34.4262C22.4446 34.1564 22.9262 34.0125 23.4187 34.0119H26.4596ZM28.1778 25.4901C27.9865 25.6971 27.81 25.9174 27.6496 26.1492C26.8614 27.0742 25.9481 27.8847 24.936 28.5574C23.9244 27.8858 23.0113 27.0765 22.2232 26.1528C22.0606 25.9179 21.8816 25.6946 21.6878 25.4846C19.1623 22.041 18.7187 17.7237 18.6632 13.6583H31.2087C31.1569 17.7319 30.7123 22.0483 28.175 25.4901H28.1778ZM32.0269 22.3274C32.0869 22.1501 32.1441 21.9719 32.1996 21.791C32.7771 19.7861 33.1066 17.7179 33.1805 15.6328H35.8805C35.7523 16.9589 35.3422 18.2422 34.6776 19.3968C34.0129 20.5514 33.1092 21.5506 32.0269 22.3274Z"></path></svg>