<svg xmlns="http://www.w3.org/2000/svg" width="65" height="65" viewBox="0 0 65 65" fill="#EF4824"><path d="M55.8905 30.3123C56.5204 30.3123 57.031 29.827 57.031 29.2284C57.031 28.6298 56.5204 28.1445 55.8905 28.1445C55.2606 28.1445 54.75 28.6298 54.75 29.2284C54.75 29.827 55.2606 30.3123 55.8905 30.3123Z"></path><path d="M5.70692 30.3123C6.3368 30.3123 6.84743 29.827 6.84743 29.2284C6.84743 28.6298 6.3368 28.1445 5.70692 28.1445C5.07703 28.1445 4.56641 28.6298 4.56641 29.2284C4.56641 29.827 5.07703 30.3123 5.70692 30.3123Z"></path><path d="M55.3269 24.1037C55.9352 23.9486 56.2961 23.3542 56.133 22.7761C55.9699 22.1979 55.3445 21.8549 54.7361 22.0099C54.1277 22.1649 53.7667 22.7592 53.9298 23.3374C54.0081 23.6151 54.1993 23.8518 54.4613 23.9956C54.7233 24.1393 55.0347 24.1782 55.3269 24.1037Z"></path><path d="M6.26718 34.3534C5.65884 34.5085 5.29794 35.1029 5.46108 35.681C5.62421 36.2592 6.24961 36.6022 6.85798 36.4472C7.46635 36.2922 7.82734 35.6979 7.6643 35.1197C7.58599 34.842 7.39479 34.6053 7.13277 34.4615C6.87075 34.3178 6.55938 34.2789 6.26718 34.3534Z"></path><path d="M53.0966 18.2457C53.4964 18.0268 53.7181 17.6005 53.6581 17.1657C53.5981 16.7309 53.2683 16.3733 52.8226 16.2597C52.3769 16.1461 51.9031 16.299 51.6223 16.6469C51.3414 16.9949 51.3089 17.4694 51.5398 17.849C51.8547 18.3668 52.5514 18.5443 53.0966 18.2457Z"></path><path d="M8.50084 40.2152C8.10102 40.4342 7.87941 40.8605 7.9394 41.2953C7.99939 41.7301 8.32916 42.0877 8.77486 42.2013C9.22055 42.3148 9.69435 42.162 9.97519 41.814C10.256 41.4661 10.2886 40.9916 10.0576 40.6119C9.74272 40.0942 9.04607 39.9167 8.50084 40.2152Z"></path><path d="M49.3492 13.1356C49.6755 12.8256 49.7731 12.3594 49.5966 11.9543C49.4201 11.5493 49.0042 11.2852 48.5429 11.2852C48.0816 11.2852 47.6657 11.5493 47.4892 11.9543C47.3127 12.3594 47.4103 12.8256 47.7365 13.1356C48.1819 13.5587 48.9039 13.5587 49.3492 13.1356Z"></path><path d="M12.2522 45.3252C11.9259 45.6351 11.8283 46.1013 12.0048 46.5064C12.1813 46.9115 12.5972 47.1756 13.0585 47.1756C13.5198 47.1756 13.9357 46.9115 14.1122 46.5064C14.2887 46.1013 14.1911 45.6351 13.8649 45.3252C13.4195 44.902 12.6975 44.902 12.2522 45.3252Z"></path><path d="M42.7696 9.51866C43.1691 9.73787 43.6682 9.70679 44.0342 9.43992C44.4002 9.17305 44.561 8.72295 44.4416 8.29949C44.3222 7.87603 43.9461 7.56262 43.4888 7.5054C43.0314 7.44818 42.5828 7.65841 42.3522 8.03808C42.0373 8.55647 42.2242 9.21934 42.7696 9.51866Z"></path><path d="M18.8202 48.9421C18.4207 48.7229 17.9216 48.754 17.5557 49.0208C17.1897 49.2877 17.0289 49.7378 17.1483 50.1613C17.2677 50.5847 17.6437 50.8981 18.1011 50.9554C18.5584 51.0126 19.007 50.8023 19.2377 50.4227C19.5526 49.9043 19.3657 49.2414 18.8202 48.9421Z"></path><path d="M36.9937 7.24437C37.6021 7.39931 38.2275 7.05624 38.3906 6.47808C38.5537 5.89992 38.1927 5.30557 37.5843 5.15054C36.976 4.9955 36.3506 5.33848 36.1874 5.91661C36.109 6.1943 36.1499 6.49021 36.3012 6.73922C36.4524 6.98824 36.7015 7.16995 36.9937 7.24437Z"></path><path d="M24.0054 53.3108C24.6138 53.4657 25.2392 53.1227 25.4023 52.5445C25.5654 51.9663 25.2044 51.372 24.5961 51.2169C23.9877 51.0619 23.3623 51.4049 23.1991 51.983C23.1207 52.2607 23.1616 52.5566 23.3129 52.8056C23.4641 53.0546 23.7132 53.2364 24.0054 53.3108Z"></path><path d="M30.7968 6.46854C31.4266 6.46854 31.9373 5.98327 31.9373 5.38466C31.9373 4.78605 31.4266 4.30078 30.7968 4.30078C30.1669 4.30078 29.6562 4.78605 29.6562 5.38466C29.6562 5.98327 30.1669 6.46854 30.7968 6.46854Z"></path><path d="M30.7968 54.1599C31.4266 54.1599 31.9373 53.6747 31.9373 53.0761C31.9373 52.4775 31.4266 51.9922 30.7968 51.9922C30.1669 51.9922 29.6562 52.4775 29.6562 53.0761C29.6562 53.6747 30.1669 54.1599 30.7968 54.1599Z"></path><path d="M24.5964 7.2443C25.2048 7.08922 25.5657 6.49485 25.4025 5.9167C25.2394 5.33855 24.614 4.99552 24.0056 5.15052C23.3973 5.30551 23.0363 5.89982 23.1993 6.478C23.2776 6.75571 23.4688 6.99247 23.7308 7.13618C23.9929 7.2799 24.3042 7.31879 24.5964 7.2443Z"></path><path d="M36.9937 51.2167C36.3854 51.3718 36.0245 51.9662 36.1876 52.5443C36.3508 53.1225 36.9762 53.4655 37.5845 53.3105C38.1929 53.1555 38.5539 52.5612 38.3909 51.983C38.3126 51.7053 38.1214 51.4685 37.8593 51.3248C37.5973 51.1811 37.2859 51.1422 36.9937 51.2167Z"></path><path d="M18.8201 9.5187C19.2196 9.29951 19.4409 8.87319 19.3806 8.43855C19.3204 8.00391 18.9906 7.64653 18.5451 7.53307C18.0995 7.41962 17.6259 7.57242 17.345 7.92022C17.0642 8.26803 17.0315 8.74235 17.2622 9.122C17.5772 9.64038 18.2747 9.81799 18.8201 9.5187Z"></path><path d="M42.7734 48.9423C42.3739 49.1615 42.1527 49.5878 42.2129 50.0224C42.2731 50.4571 42.6029 50.8144 43.0485 50.9279C43.4941 51.0413 43.9677 50.8885 44.2485 50.5407C44.5293 50.1929 44.562 49.7186 44.3314 49.339C44.0164 48.8206 43.3189 48.643 42.7734 48.9423Z"></path><path d="M13.8649 13.1356C14.1911 12.8256 14.2887 12.3594 14.1122 11.9543C13.9357 11.5493 13.5198 11.2852 13.0585 11.2852C12.5972 11.2852 12.1813 11.5493 12.0048 11.9543C11.8283 12.3594 11.9259 12.8256 12.2522 13.1356C12.6975 13.5587 13.4195 13.5587 13.8649 13.1356Z"></path><path d="M47.7365 45.3252C47.4103 45.6351 47.3127 46.1013 47.4892 46.5064C47.6657 46.9115 48.0816 47.1756 48.5429 47.1756C49.0042 47.1756 49.4201 46.9115 49.5966 46.5064C49.7731 46.1013 49.6755 45.6351 49.3492 45.3252C48.9039 44.902 48.1819 44.902 47.7365 45.3252Z"></path><path d="M8.50077 18.2458C9.04648 18.5447 9.7438 18.3666 10.0583 17.848C10.3728 17.3294 10.1855 16.6667 9.63985 16.3677C9.0942 16.0688 8.39684 16.2467 8.0822 16.7653C7.93106 17.0143 7.89025 17.3103 7.96875 17.5879C8.04725 17.8656 8.23863 18.1023 8.50077 18.2458Z"></path><path d="M53.0969 40.2153C52.5511 39.9164 51.8538 40.0945 51.5393 40.6131C51.2248 41.1317 51.4121 41.7944 51.9578 42.0934C52.5034 42.3923 53.2008 42.2144 53.5154 41.6958C53.6666 41.4468 53.7074 41.1508 53.6289 40.8731C53.5504 40.5955 53.359 40.3588 53.0969 40.2153Z"></path><path d="M6.85683 22.0096C6.24839 21.8552 5.62345 22.1987 5.46084 22.7769C5.29822 23.3551 5.65947 23.9491 6.26781 24.1038C6.87615 24.2586 7.50131 23.9154 7.66431 23.3373C7.74265 23.0595 7.70157 22.7635 7.55012 22.5144C7.39866 22.2654 7.14926 22.0838 6.85683 22.0096Z"></path><path d="M54.7409 36.4478C55.3493 36.6021 55.9743 36.2586 56.1369 35.6804C56.2995 35.1023 55.9382 34.5082 55.3299 34.3535C54.7216 34.1988 54.0964 34.5419 53.9334 35.12C53.8551 35.3978 53.8961 35.6939 54.0476 35.9429C54.199 36.192 54.4485 36.3736 54.7409 36.4478Z"></path><path d="M30.7979 58.4967C33.9039 58.4987 36.9922 58.0529 39.9573 57.1744C39.9368 57.4995 39.914 57.816 39.922 58.1152C39.9182 59.8907 40.6065 61.6048 41.854 62.9265C42.9568 63.9599 44.3736 64.6375 45.904 64.8634C46.4572 64.9553 47.0178 65.001 47.5794 65C49.1115 65.0023 50.6216 64.6535 51.9817 63.9833C54.2813 62.7389 56.093 60.8179 57.1437 58.5097C59.1851 59.1274 61.4027 58.3011 62.4585 56.5295L63.591 54.6468C63.9892 53.9757 63.9827 53.1541 63.5739 52.4888L64.8627 50.3448C65.1571 49.827 64.9629 49.1805 64.4252 48.8884C63.8874 48.5964 63.2027 48.7656 62.8827 49.2696L61.7513 51.1512L59.7669 50.076L60.9074 48.1998C61.2201 47.6799 61.0302 47.0176 60.4831 46.7203C59.936 46.4231 59.239 46.6037 58.9263 47.1235L57.6375 49.2685C56.8258 49.2705 56.0768 49.6836 55.6724 50.3524L54.5399 52.2351C53.5568 53.8899 53.8221 55.9603 55.1946 57.3424C54.3737 59.3302 52.8713 60.9968 50.9302 62.0724C49.5055 62.7643 47.8826 62.9967 46.3066 62.7347C45.2492 62.5836 44.2668 62.1255 43.4941 61.4232C42.6429 60.4895 42.1834 59.2907 42.203 58.0556C42.1996 57.4858 42.245 56.9167 42.3387 56.3539C57.0295 50.6935 64.7924 35.3537 60.2736 20.9136C55.7549 6.47353 40.4331 -2.34199 24.8751 0.54674C9.31699 3.43547 -1.38671 17.0832 0.145824 32.0778C1.67836 47.0724 14.9457 58.5074 30.7979 58.4967ZM56.5164 53.3038L57.6489 51.4211L61.6099 53.5726L60.4774 55.4543C60.0782 56.1361 59.3242 56.5614 58.5032 56.5678C57.6822 56.5743 56.9208 56.161 56.5097 55.4856C56.0986 54.8102 56.1012 53.977 56.5164 53.3038ZM30.7979 2.13494C46.5451 2.13494 59.3107 14.2667 59.3107 29.2319C59.3107 44.1972 46.5451 56.3289 30.7979 56.3289C15.0508 56.3289 2.28517 44.1972 2.28517 29.2319C2.30277 14.2736 15.0581 2.15167 30.7979 2.13494Z"></path><path d="M24.0681 30.7905C24.2597 31.1631 24.6582 31.3992 25.0946 31.3985H29.6566C30.2865 31.3985 30.7971 30.9133 30.7971 30.3146C30.7971 29.716 30.2865 29.2308 29.6566 29.2308H27.4269L33.978 21.2252C34.239 20.9205 34.3061 20.5054 34.1533 20.1403C34.0005 19.7752 33.6517 19.5173 33.2418 19.4663C32.8319 19.4152 32.425 19.5789 32.1783 19.8942L24.1947 29.6491C23.9266 29.9754 23.8775 30.4183 24.0681 30.7905Z"></path><path d="M37.5292 26.5885C37.3377 26.2159 36.9391 25.9798 36.5028 25.9805H31.9407C31.3108 25.9805 30.8002 26.4657 30.8002 27.0644C30.8002 27.663 31.3108 28.1482 31.9407 28.1482H34.1704L27.6193 36.1538C27.3583 36.4585 27.2912 36.8736 27.444 37.2387C27.5969 37.6038 27.9456 37.8617 28.3555 37.9128C28.7655 37.9638 29.1724 37.8001 29.4191 37.4848L37.4026 27.7299C37.6707 27.4036 37.7198 26.9607 37.5292 26.5885Z"></path><path d="M13.8984 42.0826C14.1545 42.3843 14.5605 42.5332 14.9634 42.4733C15.3664 42.4133 15.7051 42.1536 15.8519 41.792C15.9987 41.4304 15.9314 41.0219 15.6754 40.7202C9.98806 34.0118 9.98806 24.4438 15.6754 17.7354C16.0661 17.2689 15.9869 16.59 15.4981 16.2161C15.0093 15.8422 14.2945 15.9138 13.8984 16.3763C7.53906 23.8782 7.53906 34.5775 13.8984 42.0794V42.0826Z"></path><path d="M50.1883 29.2306C50.1817 33.4095 48.6777 37.4617 45.924 40.7197C45.6658 41.0211 45.5972 41.4308 45.7442 41.7935C45.8912 42.1562 46.2313 42.4163 46.6355 42.4752C47.0397 42.5342 47.4462 42.383 47.7009 42.0789C54.0602 34.577 54.0602 23.8777 47.7009 16.3758C47.304 15.9094 46.5846 15.8371 46.0939 16.2143C45.6032 16.5914 45.5271 17.2751 45.924 17.7414C48.6777 20.9995 50.1817 25.0516 50.1883 29.2306Z"></path><path d="M17.4426 19.0832C12.441 25.0155 12.441 33.452 17.4426 39.3843C17.836 39.8521 18.5539 39.9283 19.0462 39.5545C19.5385 39.1806 19.6186 38.4983 19.2253 38.0305C14.8883 32.8902 14.8883 25.5773 19.2253 20.437C19.6186 19.9692 19.5385 19.2869 19.0462 18.9131C18.5539 18.5392 17.836 18.6154 17.4426 19.0832Z"></path><path d="M45.6274 29.2338C45.6374 32.4339 44.4889 35.5399 42.3747 38.0305C41.9813 38.4983 42.0615 39.1806 42.5537 39.5545C43.046 39.9283 43.7639 39.8521 44.1573 39.3843C49.1589 33.452 49.1589 25.0155 44.1573 19.0832C43.7639 18.6154 43.046 18.5392 42.5537 18.9131C42.0615 19.2869 41.9813 19.9692 42.3747 20.437C44.4889 22.9277 45.6374 26.0337 45.6274 29.2338Z"></path><path d="M21.0026 36.6848C21.3992 37.1422 22.1089 37.2121 22.5957 36.8416C23.0825 36.4711 23.1659 35.7977 22.7829 35.3299C19.7856 31.7644 19.7856 26.7017 22.7829 23.1363C23.1659 22.6685 23.0825 21.9951 22.5957 21.6246C22.1089 21.2541 21.3992 21.324 21.0026 21.7814C17.3377 26.1387 17.3377 32.3274 21.0026 36.6848Z"></path><path d="M38.9901 36.8528C39.4816 37.2266 40.1987 37.1514 40.5926 36.6848C44.2575 32.3274 44.2575 26.1387 40.5926 21.7814C40.196 21.324 39.4863 21.2541 38.9995 21.6246C38.5126 21.9951 38.4292 22.6685 38.8122 23.1363C41.8095 26.7017 41.8095 31.7644 38.8122 35.3299C38.4191 35.7972 38.4988 36.4788 38.9901 36.8528Z"></path></svg>