<svg xmlns="http://www.w3.org/2000/svg" width="65" height="65" viewBox="0 0 65 65" fill="#EF4824"><path d="M5.80357 49.8333H37.1429V59.5833C37.1467 62.5734 39.7428 64.9964 42.9464 65H59.1964C62.4001 64.9964 64.9962 62.5734 65 59.5833V29.25C64.9965 26.677 63.0574 24.46 60.3571 23.9417V14.0833C60.3533 11.0933 57.7572 8.67025 54.5536 8.66667H42.2384C41.7516 8.66696 41.3154 8.38619 41.1427 7.96142L39.3575 3.51975C38.5104 1.40499 36.3467 0.00242744 33.9277 0H26.4295C24.0113 0.00332979 21.8488 1.40573 21.002 3.51975L19.2179 7.95275C19.0473 8.38164 18.6089 8.66633 18.1187 8.66667H16.25V7.58333C16.25 5.78841 14.691 4.33333 12.7679 4.33333H8.125C6.20187 4.33333 4.64286 5.78841 4.64286 7.58333V8.775C1.94255 9.2933 0.00348016 11.5103 0 14.0833V44.4167C0.00383746 47.4067 2.59994 49.8298 5.80357 49.8333ZM37.1429 29.25V36.5018C33.6757 39.41 28.5638 39.8222 24.6136 37.5122C20.6635 35.2021 18.8312 30.729 20.1227 26.5486C21.4143 22.3682 25.5171 19.4923 30.1786 19.5C34.1301 19.5251 37.7322 21.6182 39.5003 24.9167C38.0226 25.9304 37.1478 27.5383 37.1429 29.25ZM41.6255 23.9883C38.842 18.7092 32.3471 16.1163 26.3343 17.8837C20.3214 19.6512 16.5907 25.2499 17.5508 31.065C18.511 36.8801 23.8746 41.1707 30.1786 41.1667C32.6516 41.1723 35.0724 40.5028 37.1429 39.2405V41.7083C31.592 44.4166 24.8252 43.6396 20.1433 39.7563C15.4614 35.873 13.8396 29.6924 16.0692 24.2293C18.2987 18.7662 23.915 15.1588 30.1786 15.1667C36.2595 15.1941 41.7368 18.6039 44.1002 23.8333H42.9464C42.5012 23.8372 42.0579 23.8892 41.6255 23.9883ZM59.1964 62.8333H42.9464C41.0233 62.8333 39.4643 61.3783 39.4643 59.5833V59.5552C40.463 60.2721 41.6865 60.6627 42.9464 60.6667H59.1964C60.4563 60.6627 61.6799 60.2721 62.6786 59.5552V59.5833C62.6786 61.3783 61.1196 62.8333 59.1964 62.8333ZM62.6786 29.25V55.25C62.6786 57.0449 61.1196 58.5 59.1964 58.5H42.9464C41.0233 58.5 39.4643 57.0449 39.4643 55.25V29.25C39.4643 27.4551 41.0233 26 42.9464 26H59.1964C61.1196 26 62.6786 27.4551 62.6786 29.25ZM6.96429 7.58333C6.96429 6.98502 7.48395 6.5 8.125 6.5H12.7679C13.4089 6.5 13.9286 6.98502 13.9286 7.58333V8.66667H6.96429V7.58333ZM2.32143 14.0833C2.32143 12.2884 3.88044 10.8333 5.80357 10.8333H18.1187C19.5741 10.8367 20.8782 9.99505 21.3885 8.723L23.1783 4.28133C23.6723 3.00455 24.9751 2.15716 26.4295 2.16667H33.9277C35.3814 2.15827 36.6833 3.00534 37.1777 4.28133L38.9687 8.73058C39.4817 9.99965 40.7851 10.8379 42.2384 10.8333H54.5536C56.4767 10.8333 58.0357 12.2884 58.0357 14.0833V23.8333H46.5818C44.1985 17.5304 37.9247 13.2313 30.7677 12.9969C23.6108 12.7625 17.0295 16.6405 14.1788 22.7721C11.328 28.9036 12.7888 36.0388 17.861 40.7573C22.9331 45.4758 30.5828 46.8158 37.1429 44.135V47.6667H9.28571V23.8333C9.28571 23.235 8.76604 22.75 8.125 22.75C7.48395 22.75 6.96429 23.235 6.96429 23.8333V47.6667H5.80357C3.88044 47.6667 2.32143 46.2116 2.32143 44.4167V14.0833Z"></path><path d="M27.8571 10.832H32.5C34.4231 10.832 35.9821 9.37696 35.9821 7.58203C35.9821 5.78711 34.4231 4.33203 32.5 4.33203H27.8571C25.934 4.33203 24.375 5.78711 24.375 7.58203C24.375 9.37696 25.934 10.832 27.8571 10.832ZM27.8571 6.4987H32.5C33.141 6.4987 33.6607 6.98372 33.6607 7.58203C33.6607 8.18034 33.141 8.66536 32.5 8.66536H27.8571C27.2161 8.66536 26.6964 8.18034 26.6964 7.58203C26.6964 6.98372 27.2161 6.4987 27.8571 6.4987Z"></path><path d="M24.5568 25.2673C23.9907 24.9868 23.2882 25.1876 22.9875 25.7158C22.3719 26.804 22.0504 28.0159 22.0508 29.2464C22.0508 29.8447 22.5705 30.3298 23.2115 30.3298C23.8525 30.3298 24.3722 29.8447 24.3722 29.2464C24.3712 28.3701 24.6 27.5069 25.0385 26.732C25.1827 26.4782 25.213 26.1812 25.1226 25.9066C25.0323 25.6319 24.8287 25.4019 24.5568 25.2673Z"></path><path d="M30.1795 21.668C29.2848 21.6662 28.396 21.8031 27.5493 22.0732C26.9429 22.2679 26.6205 22.8846 26.8291 23.4506C27.0378 24.0166 27.6985 24.3176 28.305 24.1228C28.9082 23.9298 29.5418 23.8324 30.1795 23.8347C30.8206 23.8347 31.3402 23.3496 31.3402 22.7513C31.3402 22.153 30.8206 21.668 30.1795 21.668Z"></path><path d="M8.12165 20.5833C8.7627 20.5833 9.28237 20.0983 9.28237 19.5V17.3333C9.28237 16.735 8.7627 16.25 8.12165 16.25C7.48061 16.25 6.96094 16.735 6.96094 17.3333V19.5C6.96094 20.0983 7.48061 20.5833 8.12165 20.5833Z"></path><path d="M41.2204 41.7195C40.7805 42.1445 40.7868 42.8202 41.2345 43.2381C41.6822 43.656 42.4062 43.6618 42.8616 43.2513C47.3974 39.0273 54.7407 39.0273 59.2764 43.2513C59.7319 43.6618 60.4558 43.656 60.9035 43.2381C61.3513 42.8202 61.3576 42.1445 60.9177 41.7195C55.4749 36.6508 46.6632 36.6508 41.2204 41.7195Z"></path><path d="M44.5067 44.7841C44.205 45.0561 44.084 45.4589 44.1902 45.8376C44.2964 46.2164 44.6134 46.5122 45.0192 46.6113C45.425 46.7105 45.8566 46.5975 46.148 46.3159C48.8699 43.7818 53.2759 43.7818 55.9978 46.3159C56.2892 46.5975 56.7208 46.7105 57.1266 46.6113C57.5324 46.5122 57.8494 46.2164 57.9556 45.8376C58.0618 45.4589 57.9408 45.0561 57.6391 44.7841C54.0101 41.4053 48.1357 41.4053 44.5067 44.7841Z"></path><path d="M47.7907 47.8468C47.3508 48.2719 47.3571 48.9476 47.8048 49.3654C48.2525 49.7833 48.9765 49.7892 49.4319 49.3786C50.3507 48.5609 51.7956 48.5609 52.7144 49.3786C53.1699 49.7892 53.8938 49.7833 54.3415 49.3654C54.7893 48.9476 54.7955 48.2719 54.3557 47.8468C52.5176 46.2125 49.6287 46.2125 47.7907 47.8468Z"></path></svg>