<svg xmlns="http://www.w3.org/2000/svg" width="65" height="50" viewBox="0 0 65 50" fill="#EF4824"><path d="M24.7559 22.8516C25.8058 22.8516 26.6602 23.706 26.6602 24.7559C26.6602 25.8058 25.8058 26.6602 24.7559 26.6602C23.706 26.6602 22.8516 25.8058 22.8516 24.7559C22.8516 23.706 23.706 22.8516 24.7559 22.8516Z"></path><path d="M26.6602 15.4248V19.3705C26.0647 19.1585 25.4236 19.043 24.7559 19.043C21.6062 19.043 19.043 21.6062 19.043 24.7559C19.043 27.9056 21.6062 30.4688 24.7559 30.4688C25.4236 30.4688 26.0647 30.3532 26.6602 30.1412V34.0869C26.0368 34.2139 25.3995 34.2773 24.7559 34.2773C19.5063 34.2773 15.2344 30.0054 15.2344 24.7559C15.2344 19.5063 19.5063 15.2344 24.7559 15.2344C25.3995 15.2344 26.0368 15.2979 26.6602 15.4248Z"></path><path d="M11.4258 24.7559C11.4258 32.1064 17.4053 38.0859 24.7559 38.0859C25.397 38.0859 26.033 38.0415 26.6602 37.9501V49.5117H20.9473C19.8961 49.5117 19.043 48.6586 19.043 47.6074V44.9109C17.4853 44.4679 15.9834 43.8407 14.5526 43.0371L12.6369 44.9541C11.893 45.698 10.6882 45.698 9.94424 44.9541L4.55762 39.5675C3.81342 38.8233 3.81634 37.6161 4.55762 36.8748L6.47461 34.9578C5.66973 33.5283 5.04385 32.0265 4.60078 30.4688H1.9043C0.853125 30.4688 0 29.6156 0 28.5645V20.9473C0 19.8961 0.853125 19.043 1.9043 19.043H4.60078C5.04385 17.4853 5.66973 15.9834 6.47461 14.5526L4.55762 12.6369C3.81634 11.8956 3.81342 10.6884 4.55762 9.94424L9.94424 4.55762C10.6882 3.81367 11.893 3.81367 12.6369 4.55762L14.5539 6.47461C15.9834 5.66973 17.4853 5.04385 19.043 4.60078V1.9043C19.043 0.853125 19.8961 0 20.9473 0H26.6602V11.5616C26.033 11.4702 25.397 11.4258 24.7559 11.4258C17.4053 11.4258 11.4258 17.4053 11.4258 24.7559Z"></path><path d="M53.5742 1.11465V11.4258H63.8853L53.5742 1.11465ZM36.1816 11.4258H44.0527C45.1039 11.4258 45.957 12.2789 45.957 13.3301C45.957 14.3813 45.1039 15.2344 44.0527 15.2344H36.1816C35.1305 15.2344 34.2773 14.3813 34.2773 13.3301C34.2773 12.2789 35.1305 11.4258 36.1816 11.4258ZM55.4785 38.0859H36.1816C35.1305 38.0859 34.2773 37.2328 34.2773 36.1816C34.2773 35.1305 35.1305 34.2773 36.1816 34.2773H55.4785C56.5297 34.2773 57.3828 35.1305 57.3828 36.1816C57.3828 37.2328 56.5297 38.0859 55.4785 38.0859ZM55.4785 30.4688H36.1816C35.1305 30.4688 34.2773 29.6156 34.2773 28.5645C34.2773 27.5133 35.1305 26.6602 36.1816 26.6602H55.4785C56.5297 26.6602 57.3828 27.5133 57.3828 28.5645C57.3828 29.6156 56.5297 30.4688 55.4785 30.4688ZM55.4785 22.8516H36.1816C35.1305 22.8516 34.2773 21.9984 34.2773 20.9473C34.2773 19.8961 35.1305 19.043 36.1816 19.043H55.4785C56.5297 19.043 57.3828 19.8961 57.3828 20.9473C57.3828 21.9984 56.5297 22.8516 55.4785 22.8516ZM51.6699 15.2344C50.6187 15.2344 49.7656 14.3813 49.7656 13.3301V0H30.4688V49.5117H63.0957C64.1469 49.5117 65 48.6586 65 47.6074V15.2344H51.6699Z"></path></svg>