<svg xmlns="http://www.w3.org/2000/svg" width="64" height="65" viewBox="0 0 64 65" fill="#EF4824"><path fill-rule="evenodd" clip-rule="evenodd" d="M26.3388 0.246408L28.1833 5.10448C28.2387 5.25046 28.3679 5.34431 28.5239 5.35189L33.7142 5.60485C34.0672 5.62205 34.2117 6.06676 33.9362 6.28816L29.8859 9.54358C29.7642 9.64135 29.7149 9.79315 29.7558 9.94387L31.1192 14.9582C31.2119 15.2992 30.8337 15.5741 30.538 15.3805L26.1901 12.5344C26.0595 12.4488 25.8999 12.4488 25.7693 12.5344L21.4216 15.3805C21.1258 15.5741 20.7476 15.2992 20.8404 14.9582L22.2036 9.94374C22.2445 9.79302 22.1953 9.64122 22.0736 9.54345L18.0233 6.28803C17.7478 6.06662 17.8923 5.62191 18.2454 5.60471L23.4356 5.35176C23.5916 5.34417 23.7207 5.25033 23.7762 5.10435L25.6207 0.246272C25.7451 -0.0821133 26.2142 -0.0821134 26.3388 0.246408ZM51.4336 41.3906C57.9531 41.3906 63.2383 46.6758 63.2383 53.1953C63.2383 59.7148 57.9531 65 51.4336 65C44.9141 65 39.6289 59.7148 39.6289 53.1953C39.6289 46.6758 44.9141 41.3906 51.4336 41.3906ZM49.883 54.2365L47.2454 51.5989C46.5618 50.9153 45.4529 50.9153 44.7692 51.5989C44.0856 52.2825 44.0856 53.3914 44.7692 54.075L48.6487 57.9545C49.3323 58.6381 50.4412 58.6381 51.1248 57.9545C53.4632 55.6162 55.7752 53.2514 58.1027 50.9022C58.7814 50.2172 58.7793 49.1118 58.0951 48.4315C57.4109 47.751 56.3025 47.7529 55.623 48.4392L49.883 54.2365ZM6.55226 58.6638L38.5734 58.6637C37.8583 56.9841 37.4624 55.136 37.4624 53.1953C37.4624 50.2438 38.3784 47.5066 39.9406 45.251C36.2311 41.9437 31.3407 39.9333 25.98 39.9333C15.6608 39.9333 7.08174 47.3805 5.32213 57.1934C5.18374 57.9642 5.76914 58.6638 6.55226 58.6638ZM25.98 17.3548C31.8408 17.3548 36.592 22.1061 36.592 27.9669C36.592 33.8277 31.8408 38.579 25.98 38.579C20.1191 38.579 15.3679 33.8277 15.3679 27.9669C15.3678 22.1061 20.119 17.3548 25.98 17.3548ZM44.2178 7.12287C44.093 6.79435 43.624 6.79435 43.4992 7.12287L41.6547 11.9809C41.5993 12.1271 41.4701 12.2208 41.3141 12.2284L36.1239 12.4813C35.7709 12.4985 35.6264 12.9432 35.9018 13.1646L39.9521 16.42C40.0739 16.518 40.1232 16.6696 40.0821 16.8203L38.7189 21.8348C38.6261 22.1759 39.0043 22.4507 39.3001 22.257L43.6478 19.411C43.7785 19.3254 43.938 19.3254 44.0687 19.411L48.4165 22.257C48.7122 22.4507 49.0905 22.1758 48.9977 21.8348L47.6343 16.8205C47.5933 16.6698 47.6426 16.5181 47.7643 16.4202L51.8146 13.1648C52.0901 12.9434 51.9456 12.4986 51.5926 12.4814L46.4023 12.2285C46.2463 12.2209 46.1172 12.1271 46.0617 11.9811L44.2178 7.12287ZM8.45988 7.12287C8.33516 6.79435 7.86607 6.79435 7.74149 7.12287L5.89698 11.9809C5.84159 12.1271 5.7124 12.2208 5.5564 12.2284L0.366151 12.4813C0.0131198 12.4985 -0.13137 12.9432 0.144068 13.1646L4.19438 16.42C4.31612 16.518 4.36541 16.6696 4.32438 16.8203L2.96114 21.8348C2.86838 22.1759 3.2466 22.4507 3.54235 22.257L7.89004 19.411C8.02072 19.3254 8.18024 19.3254 8.31092 19.411L12.6587 22.257C12.9545 22.4507 13.3327 22.1758 13.24 21.8348L11.8767 16.8205C11.8357 16.6698 11.885 16.5181 12.0067 16.4202L16.057 13.1648C16.3325 12.9434 16.188 12.4986 15.8349 12.4814L10.6447 12.2285C10.4887 12.2209 10.3596 12.1271 10.3041 11.9811L8.45988 7.12287Z"></path></svg>