<svg xmlns="http://www.w3.org/2000/svg" width="118" height="119" viewBox="0 0 118 119" fill="#EF4824"><g filter="url(#filter0_d_2740_1110)"></g><path d="M81.801 51.2253V50.3412C81.7981 47.901 79.8089 45.9235 77.3542 45.9206H72.0179V37.9635C72.015 35.5233 70.0258 33.5459 67.571 33.543H49.7836C47.3289 33.5459 45.3396 35.5233 45.3367 37.9635V45.9206H40.0005C37.5457 45.9235 35.5565 47.901 35.5536 50.3412V51.2253C33.5888 51.2253 31.9961 52.8086 31.9961 54.7617V68.9076C31.9961 70.8607 33.5888 72.444 35.5536 72.444V73.3282C35.5565 75.7684 37.5457 77.7458 40.0005 77.7487H77.3542C79.8089 77.7458 81.7981 75.7684 81.801 73.3282V72.444C83.7658 72.444 85.3585 70.8607 85.3585 68.9076V54.7617C85.3585 52.8086 83.7658 51.2253 81.801 51.2253ZM47.1154 37.9635C47.1154 36.4987 48.31 35.3112 49.7836 35.3112H67.571C69.0446 35.3112 70.2392 36.4987 70.2392 37.9635V45.9206H68.4604V37.9635C68.4604 37.4753 68.0622 37.0794 67.571 37.0794H49.7836C49.2924 37.0794 48.8942 37.4753 48.8942 37.9635V45.9206H47.1154V37.9635ZM66.6817 45.9206H50.6729V38.8477H66.6817V45.9206ZM33.7748 68.9076V54.7617C33.7748 53.7852 34.5712 52.9935 35.5536 52.9935V70.6758C34.5712 70.6758 33.7748 69.8841 33.7748 68.9076ZM80.0223 73.3282C80.0223 74.793 78.8277 75.9805 77.3542 75.9805V55.6459C77.3542 55.1576 76.956 54.7617 76.4648 54.7617C75.9736 54.7617 75.5754 55.1576 75.5754 55.6459V75.9805H41.7792V55.6459C41.7792 55.1576 41.381 54.7617 40.8898 54.7617C40.3986 54.7617 40.0005 55.1576 40.0005 55.6459V75.9805C38.5269 75.9805 37.3323 74.793 37.3323 73.3282V50.3412C37.3323 48.8763 38.5269 47.6888 40.0005 47.6888V51.2253C40.0005 51.7136 40.3986 52.1094 40.8898 52.1094C41.381 52.1094 41.7792 51.7136 41.7792 51.2253V47.6888H75.5754V51.2253C75.5754 51.7136 75.9736 52.1094 76.4648 52.1094C76.956 52.1094 77.3542 51.7136 77.3542 51.2253V47.6888C78.8277 47.6888 80.0223 48.8763 80.0223 50.3412V73.3282ZM83.5798 68.9076C83.5798 69.8841 82.7834 70.6758 81.801 70.6758V52.9935C82.7834 52.9935 83.5798 53.7852 83.5798 54.7617V68.9076Z"></path><path d="M58.6778 49.457C51.8012 49.457 46.2266 54.9987 46.2266 61.8346C46.2266 68.6706 51.8012 74.2123 58.6778 74.2123C65.5544 74.2123 71.129 68.6706 71.129 61.8346C71.1217 55.0017 65.5514 49.4643 58.6778 49.457ZM58.6778 72.444C52.7835 72.444 48.0053 67.694 48.0053 61.8346C48.0053 55.9752 52.7835 51.2253 58.6778 51.2253C64.572 51.2253 69.3503 55.9752 69.3503 61.8346C69.3439 67.6914 64.5694 72.4377 58.6778 72.444Z"></path><path d="M56.0109 54.7613C56.5024 54.7613 56.9007 54.3653 56.9007 53.8768C56.9007 53.3882 56.5024 52.9922 56.0109 52.9922C55.5195 52.9922 55.1211 53.3882 55.1211 53.8768C55.1211 54.3653 55.5195 54.7613 56.0109 54.7613Z"></path><path d="M53.3429 57.4137C53.8344 57.4137 54.2328 57.0176 54.2328 56.5291C54.2328 56.0406 53.8344 55.6445 53.3429 55.6445C52.8515 55.6445 52.4531 56.0406 52.4531 56.5291C52.4531 57.0176 52.8515 57.4137 53.3429 57.4137Z"></path><path d="M58.6789 57.4137C59.1703 57.4137 59.5687 57.0176 59.5687 56.5291C59.5687 56.0406 59.1703 55.6445 58.6789 55.6445C58.1875 55.6445 57.7891 56.0406 57.7891 56.5291C57.7891 57.0176 58.1875 57.4137 58.6789 57.4137Z"></path><path d="M64.0148 57.4137C64.5063 57.4137 64.9046 57.0176 64.9046 56.5291C64.9046 56.0406 64.5063 55.6445 64.0148 55.6445C63.5234 55.6445 63.125 56.0406 63.125 56.5291C63.125 57.0176 63.5234 57.4137 64.0148 57.4137Z"></path><path d="M53.3429 62.7184C53.8344 62.7184 54.2328 62.3223 54.2328 61.8338C54.2328 61.3453 53.8344 60.9492 53.3429 60.9492C52.8515 60.9492 52.4531 61.3453 52.4531 61.8338C52.4531 62.3223 52.8515 62.7184 53.3429 62.7184Z"></path><path d="M58.6789 62.7184C59.1703 62.7184 59.5687 62.3223 59.5687 61.8338C59.5687 61.3453 59.1703 60.9492 58.6789 60.9492C58.1875 60.9492 57.7891 61.3453 57.7891 61.8338C57.7891 62.3223 58.1875 62.7184 58.6789 62.7184Z"></path><path d="M64.0148 62.7184C64.5063 62.7184 64.9046 62.3223 64.9046 61.8338C64.9046 61.3453 64.5063 60.9492 64.0148 60.9492C63.5234 60.9492 63.125 61.3453 63.125 61.8338C63.125 62.3223 63.5234 62.7184 64.0148 62.7184Z"></path><path d="M53.3429 68.0231C53.8344 68.0231 54.2328 67.627 54.2328 67.1385C54.2328 66.6499 53.8344 66.2539 53.3429 66.2539C52.8515 66.2539 52.4531 66.6499 52.4531 67.1385C52.4531 67.627 52.8515 68.0231 53.3429 68.0231Z"></path><path d="M58.6789 68.0231C59.1703 68.0231 59.5687 67.627 59.5687 67.1385C59.5687 66.6499 59.1703 66.2539 58.6789 66.2539C58.1875 66.2539 57.7891 66.6499 57.7891 67.1385C57.7891 67.627 58.1875 68.0231 58.6789 68.0231Z"></path><path d="M64.0148 68.0231C64.5063 68.0231 64.9046 67.627 64.9046 67.1385C64.9046 66.6499 64.5063 66.2539 64.0148 66.2539C63.5234 66.2539 63.125 66.6499 63.125 67.1385C63.125 67.627 63.5234 68.0231 64.0148 68.0231Z"></path><path d="M61.3429 54.7613C61.8344 54.7613 62.2328 54.3653 62.2328 53.8768C62.2328 53.3882 61.8344 52.9922 61.3429 52.9922C60.8515 52.9922 60.4531 53.3882 60.4531 53.8768C60.4531 54.3653 60.8515 54.7613 61.3429 54.7613Z"></path><path d="M56.0109 70.6754C56.5024 70.6754 56.9007 70.2794 56.9007 69.7908C56.9007 69.3023 56.5024 68.9062 56.0109 68.9062C55.5195 68.9062 55.1211 69.3023 55.1211 69.7908C55.1211 70.2794 55.5195 70.6754 56.0109 70.6754Z"></path><path d="M61.3429 70.6754C61.8344 70.6754 62.2328 70.2794 62.2328 69.7908C62.2328 69.3023 61.8344 68.9062 61.3429 68.9062C60.8515 68.9062 60.4531 69.3023 60.4531 69.7908C60.4531 70.2794 60.8515 70.6754 61.3429 70.6754Z"></path><path d="M56.0109 60.066C56.5024 60.066 56.9007 59.67 56.9007 59.1815C56.9007 58.6929 56.5024 58.2969 56.0109 58.2969C55.5195 58.2969 55.1211 58.6929 55.1211 59.1815C55.1211 59.67 55.5195 60.066 56.0109 60.066Z"></path><path d="M50.675 60.066C51.1664 60.066 51.5648 59.67 51.5648 59.1815C51.5648 58.6929 51.1664 58.2969 50.675 58.2969C50.1835 58.2969 49.7852 58.6929 49.7852 59.1815C49.7852 59.67 50.1835 60.066 50.675 60.066Z"></path><path d="M66.6867 60.066C67.1781 60.066 67.5765 59.67 67.5765 59.1815C67.5765 58.6929 67.1781 58.2969 66.6867 58.2969C66.1953 58.2969 65.7969 58.6929 65.7969 59.1815C65.7969 59.67 66.1953 60.066 66.6867 60.066Z"></path><path d="M61.3429 60.066C61.8344 60.066 62.2328 59.67 62.2328 59.1815C62.2328 58.6929 61.8344 58.2969 61.3429 58.2969C60.8515 58.2969 60.4531 58.6929 60.4531 59.1815C60.4531 59.67 60.8515 60.066 61.3429 60.066Z"></path><path d="M56.0109 65.3707C56.5024 65.3707 56.9007 64.9747 56.9007 64.4861C56.9007 63.9976 56.5024 63.6016 56.0109 63.6016C55.5195 63.6016 55.1211 63.9976 55.1211 64.4861C55.1211 64.9747 55.5195 65.3707 56.0109 65.3707Z"></path><path d="M50.675 65.3707C51.1664 65.3707 51.5648 64.9747 51.5648 64.4861C51.5648 63.9976 51.1664 63.6016 50.675 63.6016C50.1835 63.6016 49.7852 63.9976 49.7852 64.4861C49.7852 64.9747 50.1835 65.3707 50.675 65.3707Z"></path><path d="M66.6867 65.3707C67.1781 65.3707 67.5765 64.9747 67.5765 64.4861C67.5765 63.9976 67.1781 63.6016 66.6867 63.6016C66.1953 63.6016 65.7969 63.9976 65.7969 64.4861C65.7969 64.9747 66.1953 65.3707 66.6867 65.3707Z"></path><path d="M61.3429 65.3707C61.8344 65.3707 62.2328 64.9747 62.2328 64.4861C62.2328 63.9976 61.8344 63.6016 61.3429 63.6016C60.8515 63.6016 60.4531 63.9976 60.4531 64.4861C60.4531 64.9747 60.8515 65.3707 61.3429 65.3707Z"></path><path d="M32.8855 43.2669C33.3767 43.2669 33.7748 42.8711 33.7748 42.3828C33.7802 37.5022 37.7589 33.547 42.6686 33.5417C43.1598 33.5417 43.558 33.1458 43.558 32.6576C43.558 32.1693 43.1598 31.7734 42.6686 31.7734C36.777 31.7798 32.0025 36.526 31.9961 42.3828C31.9961 42.6173 32.0898 42.8422 32.2566 43.008C32.4234 43.1738 32.6496 43.2669 32.8855 43.2669Z"></path><path d="M42.6697 35.3086C38.742 35.313 35.5591 38.4771 35.5547 42.3815C35.5547 42.8698 35.9529 43.2656 36.4441 43.2656C36.9352 43.2656 37.3334 42.8698 37.3334 42.3815C37.3364 39.453 39.7238 37.0797 42.6697 37.0768C43.1609 37.0768 43.5591 36.681 43.5591 36.1927C43.5591 35.7044 43.1609 35.3086 42.6697 35.3086Z"></path><path d="M42.6708 38.8477C40.706 38.8477 39.1133 40.431 39.1133 42.3841C39.1133 42.8724 39.5115 43.2682 40.0027 43.2682C40.4938 43.2682 40.892 42.8724 40.892 42.3841C40.892 41.4076 41.6884 40.6159 42.6708 40.6159C43.162 40.6159 43.5602 40.2201 43.5602 39.7318C43.5602 39.2435 43.162 38.8477 42.6708 38.8477Z"></path><path d="M74.6902 31.7734C74.199 31.7734 73.8008 32.1693 73.8008 32.6576C73.8008 33.1458 74.199 33.5417 74.6902 33.5417C79.5998 33.547 83.5785 37.5022 83.5839 42.3828C83.5839 42.8711 83.9821 43.2669 84.4733 43.2669C84.9645 43.2669 85.3626 42.8711 85.3626 42.3828C85.3563 36.526 80.5818 31.7798 74.6902 31.7734Z"></path><path d="M80.0264 42.3815C80.0264 42.8698 80.4246 43.2656 80.9158 43.2656C81.407 43.2656 81.8051 42.8698 81.8051 42.3815C81.8007 38.4771 78.6178 35.313 74.6902 35.3086C74.199 35.3086 73.8008 35.7044 73.8008 36.1927C73.8008 36.681 74.199 37.0768 74.6902 37.0768C77.6361 37.0797 80.0235 39.453 80.0264 42.3815Z"></path><path d="M73.8008 39.7318C73.8008 40.2201 74.199 40.6159 74.6902 40.6159C75.6725 40.6159 76.4689 41.4076 76.4689 42.3841C76.4689 42.8724 76.8671 43.2682 77.3583 43.2682C77.8495 43.2682 78.2477 42.8724 78.2477 42.3841C78.2477 40.431 76.6549 38.8477 74.6902 38.8477C74.199 38.8477 73.8008 39.2435 73.8008 39.7318Z"></path><defs><filter id="filter0_d_2740_1110" x="0" y="0.18125" width="117.961" height="117.957" filterUnits="userSpaceOnUse" color-interpolation-filters="sRGB"><feGaussianBlur stdDeviation="10"></feGaussianBlur></filter></defs></svg>