<svg xmlns="http://www.w3.org/2000/svg" width="118" height="119" viewBox="0 0 118 119" fill="#EF4824"><g filter="url(#filter0_d_2740_1100)"></g><path d="M81.965 54.6963C81.965 50.6729 71.716 48.545 61.8502 48.212V44.0785C63.2086 42.5783 63.1109 40.3018 61.6286 38.9173C60.1464 37.5328 57.8069 37.5328 56.3246 38.9173C54.8423 40.3018 54.7446 42.5783 56.1031 44.0785V48.212C46.2372 48.545 35.9883 50.6729 35.9883 54.6963C35.9883 61.2945 43.5313 66.8357 53.6414 68.3049C53.6098 68.3814 53.5734 68.4551 53.5456 68.5344L50.6232 77.085H48.4403C46.8533 77.085 45.5668 78.338 45.5668 79.8836C45.5668 81.4292 46.8533 82.6822 48.4403 82.6822H69.5129C71.1 82.6822 72.3865 81.4292 72.3865 79.8836C72.3865 78.338 71.1 77.085 69.5129 77.085H67.33L64.4067 68.5335C64.3798 68.4551 64.3434 68.3814 64.3109 68.3049C74.4219 66.8357 81.965 61.2935 81.965 54.6963ZM58.9766 39.7705C60.0346 39.7705 60.8923 40.6058 60.8923 41.6362C60.8923 42.6667 60.0346 43.502 58.9766 43.502C57.9186 43.502 57.0609 42.6667 57.0609 41.6362C57.0609 40.6058 57.9186 39.7705 58.9766 39.7705ZM56.1031 50.0852V53.7635C56.1031 54.2787 56.5319 54.6963 57.0609 54.6963C57.5899 54.6963 58.0188 54.2787 58.0188 53.7635V45.2352C58.6445 45.4119 59.3088 45.4119 59.9345 45.2352V53.7635C59.9345 54.2787 60.3633 54.6963 60.8923 54.6963C61.4213 54.6963 61.8502 54.2787 61.8502 53.7635V50.0852C73.1451 50.4695 80.0493 52.9845 80.0493 54.6963C80.0493 56.5984 71.8405 59.3606 58.9766 59.3606C46.1127 59.3606 37.904 56.5984 37.904 54.6963C37.904 52.9845 44.8081 50.4695 56.1031 50.0852ZM70.4708 79.8836C70.4708 80.3988 70.042 80.8165 69.5129 80.8165H48.4403C47.9113 80.8165 47.4825 80.3988 47.4825 79.8836C47.4825 79.3684 47.9113 78.9507 48.4403 78.9507H69.5129C70.042 78.9507 70.4708 79.3684 70.4708 79.8836ZM62.5887 69.124L65.3109 77.085H52.6424L55.3646 69.124C55.4391 68.9155 55.5468 68.7197 55.6835 68.5437C56.7592 68.637 57.8579 68.6893 58.9766 68.6893C60.0954 68.6893 61.194 68.6379 62.2697 68.5437C62.4067 68.7196 62.5143 68.9154 62.5887 69.124ZM58.9766 66.8235C49.3024 66.8235 41.1338 63.0501 38.6703 57.9278C42.7469 60.1069 50.8943 61.2264 58.9766 61.2264C67.0589 61.2264 75.2064 60.1069 79.283 57.9278C76.8194 63.0501 68.6509 66.8235 58.9766 66.8235Z"></path><path d="M56.9378 26.7195C49.3127 27.7747 43.6489 34.1361 43.6563 41.6369C43.6563 42.1521 44.0851 42.5697 44.6141 42.5697C45.1431 42.5697 45.572 42.1521 45.572 41.6369C45.5617 35.0689 50.5181 29.4958 57.1945 28.5684C57.7187 28.4994 58.0862 28.0295 58.0153 27.5189C57.9445 27.0084 57.462 26.6504 56.9378 26.7195Z"></path><path d="M58.0045 31.2817C57.9076 30.7753 57.4076 30.4412 56.8876 30.5354C51.4176 31.548 47.4654 36.2138 47.4844 41.6365C47.4844 42.1517 47.9133 42.5694 48.4423 42.5694C48.9713 42.5694 49.4001 42.1517 49.4001 41.6365C49.3784 37.1107 52.6734 33.2134 57.2382 32.3657C57.7564 32.2713 58.0989 31.7869 58.0045 31.2817Z"></path><path d="M52.2664 42.5676C52.7954 42.5676 53.2243 42.15 53.2243 41.6348C53.2258 39.1454 54.8903 36.9467 57.3315 36.2092C57.6642 36.1174 57.9202 35.8579 58.0013 35.5305C58.0824 35.2031 57.976 34.8586 57.7229 34.6291C57.4698 34.3996 57.1094 34.3207 56.7798 34.4228C53.5314 35.4008 51.3142 38.3234 51.3086 41.6348C51.3086 41.8822 51.4095 42.1195 51.5891 42.2944C51.7688 42.4694 52.0124 42.5676 52.2664 42.5676Z"></path><path d="M73.3396 42.5696C73.8686 42.5696 74.2974 42.152 74.2974 41.6368C74.3048 34.136 68.641 27.7746 61.0159 26.7194C60.6768 26.6747 60.339 26.8096 60.1297 27.0733C59.9204 27.337 59.8715 27.6894 60.0013 27.9978C60.1312 28.3062 60.4201 28.5236 60.7592 28.5683C67.4356 29.4957 72.392 35.0688 72.3817 41.6368C72.3817 41.8842 72.4826 42.1215 72.6623 42.2964C72.8419 42.4713 73.0855 42.5696 73.3396 42.5696Z"></path><path d="M61.0634 30.5354C60.5431 30.4412 60.0428 30.7755 59.946 31.2822C59.8492 31.7889 60.1925 32.2761 60.7128 32.3704C65.2758 33.2177 68.5703 37.1125 68.5508 41.6365C68.5508 42.1517 68.9797 42.5694 69.5087 42.5694C70.0377 42.5694 70.4665 42.1517 70.4665 41.6365C70.4856 36.2138 66.5334 31.548 61.0634 30.5354Z"></path><path d="M60.6106 36.2092C63.0518 36.9467 64.7163 39.1454 64.7178 41.6348C64.7178 42.15 65.1467 42.5676 65.6757 42.5676C66.2047 42.5676 66.6335 42.15 66.6335 41.6348C66.6279 38.3234 64.4107 35.4008 61.1623 34.4228C60.8327 34.3207 60.4723 34.3996 60.2192 34.6291C59.9661 34.8586 59.8597 35.2031 59.9408 35.5305C60.0219 35.8579 60.2779 36.1174 60.6106 36.2092Z"></path><defs><filter id="filter0_d_2740_1100" x="0" y="0.114844" width="117.961" height="117.957" filterUnits="userSpaceOnUse" color-interpolation-filters="sRGB"><feGaussianBlur stdDeviation="10"></feGaussianBlur></filter></defs></svg>