<svg xmlns="http://www.w3.org/2000/svg" width="143" height="143" viewBox="0 0 143 143" fill="#1D1D1D"><g opacity="0.05" clip-path="url(#clip0_2668_257)"><path d="M80.6101 143H62.3899C58.8875 143 56.0378 140.15 56.0378 136.648V126.354C51.7192 125.139 47.5601 123.415 43.648 121.219L36.367 128.5C35.7785 129.092 35.0786 129.561 34.3076 129.88C33.5367 130.199 32.7101 130.363 31.8756 130.36C31.0411 130.363 30.2144 130.199 29.4434 129.88C28.6725 129.561 27.9725 129.092 27.3839 128.5L14.5 115.616C13.9083 115.028 13.4393 114.328 13.1199 113.557C12.8006 112.786 12.6373 111.959 12.6396 111.124C12.6373 110.29 12.8005 109.463 13.1198 108.692C13.4392 107.921 13.9083 107.221 14.5 106.633L21.781 99.352C19.5848 95.4399 17.8609 91.2808 16.6455 86.9622H6.35205C2.84967 86.9624 0 84.1128 0 80.6101V62.3896C0 58.8872 2.84967 56.0376 6.35205 56.0376H16.6455C17.0907 54.4563 17.6041 52.895 18.1845 51.3582C18.3803 50.8403 18.7738 50.4213 19.2785 50.1934C19.7832 49.9656 20.3577 49.9474 20.8758 50.143C21.1323 50.2399 21.3672 50.3863 21.5671 50.574C21.7671 50.7616 21.928 50.9869 22.0409 51.2367C22.1538 51.4866 22.2163 51.7563 22.225 52.0304C22.2336 52.3044 22.1882 52.5775 22.0913 52.834C21.4485 54.5366 20.8944 56.2713 20.4311 58.0312C20.0932 59.316 18.9313 60.2136 17.6055 60.2136H6.35205C5.15219 60.2136 4.17605 61.1898 4.17605 62.3893V80.6098C4.17605 81.8097 5.15219 82.7858 6.35205 82.7858H17.6052C18.931 82.7858 20.0929 83.6835 20.4308 84.9688C21.6406 89.5665 23.4694 93.9785 25.8671 98.0838C26.5368 99.2317 26.35 100.688 25.4135 101.625L17.453 109.585C17.2503 109.787 17.0896 110.027 16.9802 110.291C16.8708 110.555 16.8149 110.838 16.8156 111.124C16.8156 111.705 17.0419 112.252 17.453 112.663L30.3369 125.547C30.7481 125.958 31.2944 126.184 31.8756 126.184C32.4568 126.184 33.0031 125.958 33.414 125.547L41.3739 117.587C41.8314 117.131 42.427 116.839 43.0678 116.757C43.7085 116.675 44.3585 116.807 44.9162 117.133C49.0216 119.531 53.4336 121.359 58.0312 122.569C59.3162 122.907 60.2136 124.069 60.2136 125.395V136.648C60.2136 137.848 61.1898 138.824 62.3896 138.824H80.6098C81.8097 138.824 82.7858 137.848 82.7858 136.648V125.395C82.7858 124.069 83.6832 122.907 84.968 122.569C89.566 121.359 93.9784 119.531 98.084 117.133C98.6416 116.807 99.2915 116.674 99.9322 116.757C100.573 116.839 101.168 117.131 101.626 117.587L109.586 125.547C109.997 125.958 110.543 126.184 111.124 126.184C111.706 126.184 112.252 125.958 112.663 125.547L125.547 112.663C125.749 112.462 125.91 112.222 126.02 111.958C126.129 111.693 126.185 111.41 126.184 111.124C126.185 110.839 126.129 110.555 126.02 110.291C125.91 110.027 125.749 109.787 125.547 109.586L117.587 101.626C117.131 101.169 116.839 100.573 116.757 99.9326C116.675 99.2919 116.807 98.6421 117.132 98.0843C119.53 93.9787 121.359 89.5663 122.569 84.9682C122.733 84.3436 123.099 83.7908 123.61 83.396C124.121 83.0012 124.749 82.7867 125.395 82.7858H136.648C137.848 82.7858 138.824 81.8094 138.824 80.6098V62.3893C138.824 61.1895 137.848 60.2136 136.648 60.2136H125.395C124.749 60.2128 124.121 59.9982 123.61 59.6033C123.099 59.2085 122.733 58.6556 122.569 58.0309C121.359 53.4331 119.53 49.0211 117.133 44.9157C116.807 44.358 116.674 43.708 116.757 43.0673C116.839 42.4265 117.131 41.831 117.587 41.3736L125.547 33.4137C125.749 33.2121 125.91 32.9723 126.02 32.7082C126.129 32.4441 126.185 32.1609 126.184 31.875C126.185 31.5892 126.129 31.306 126.02 31.0419C125.91 30.7778 125.749 30.538 125.547 30.3364L112.663 17.4524C112.252 17.0413 111.705 16.8148 111.124 16.8148C110.543 16.8148 109.997 17.0413 109.585 17.4521L101.626 25.4121C101.168 25.868 100.573 26.1597 99.9321 26.242C99.2916 26.3242 98.6418 26.1923 98.084 25.8668C93.9784 23.469 89.566 21.64 84.968 20.43C84.3433 20.2662 83.7904 19.9001 83.3956 19.389C83.0008 18.8779 82.7863 18.2505 82.7856 17.6046V6.35233C82.7856 5.15247 81.8094 4.17633 80.6095 4.17633H62.3893C61.1895 4.17633 60.2133 5.15275 60.2133 6.35233V17.6055C60.2133 18.9316 59.3154 20.0937 58.0298 20.4311C53.4322 21.641 49.0203 23.4698 44.9151 25.8674C44.3575 26.1932 43.7077 26.3254 43.0671 26.2432C42.4264 26.1611 41.831 25.8693 41.3736 25.4132L33.4134 17.4533C33.0023 17.0421 32.456 16.8156 31.8748 16.8156C31.2935 16.8156 30.7472 17.0421 30.3361 17.4533L17.4521 30.3372C16.6039 31.1855 16.6039 32.566 17.4521 33.4145L25.4118 41.3742C25.7967 41.7672 26.011 42.2962 26.0082 42.8462C26.0054 43.3963 25.7856 43.923 25.3966 44.312C25.0077 44.701 24.481 44.9208 23.9309 44.9237C23.3808 44.9266 22.8518 44.7124 22.4588 44.3275L14.5 36.3672C12.0235 33.8904 12.0235 29.8607 14.5 27.3839L27.3839 14.4997C28.5838 13.3001 30.1789 12.6393 31.8756 12.6393C33.5723 12.6393 35.1674 13.3001 36.3672 14.5L43.6482 21.781C47.5604 19.5848 51.7195 17.8609 56.0381 16.6455V6.35233C56.0378 2.84967 58.8872 0 62.3899 0H80.6101C84.1125 0 86.9622 2.84967 86.9622 6.35233V16.6458C91.2808 17.8612 95.4399 19.585 99.352 21.7812L106.633 14.5C107.833 13.3004 109.428 12.6396 111.125 12.6396C112.821 12.6396 114.416 13.3004 115.616 14.5003L128.5 27.3839C130.977 29.8607 130.977 33.8904 128.5 36.3675L121.219 43.6485C123.415 47.5606 125.139 51.7196 126.354 56.0381H136.648C140.15 56.0381 143 58.8878 143 62.3902V80.6107C143 84.1133 140.15 86.963 136.648 86.963H126.354C125.139 91.2817 123.415 95.4407 121.219 99.3529L128.5 106.634C129.092 107.222 129.561 107.922 129.88 108.693C130.2 109.464 130.363 110.291 130.361 111.125C130.363 111.96 130.2 112.786 129.88 113.557C129.561 114.328 129.092 115.028 128.5 115.617L115.616 128.501C115.028 129.092 114.328 129.562 113.557 129.881C112.786 130.2 111.959 130.363 111.125 130.361C110.29 130.364 109.464 130.2 108.693 129.881C107.922 129.561 107.222 129.092 106.633 128.501L99.3523 121.22C95.4402 123.416 91.2811 125.14 86.9624 126.355V136.649C86.9622 140.15 84.1128 143 80.6101 143ZM71.5 116.49C66.8905 116.49 62.3438 115.795 57.9868 114.424C57.4585 114.258 57.0179 113.889 56.7619 113.398C56.5059 112.907 56.4554 112.334 56.6216 111.806C56.7878 111.278 57.157 110.837 57.648 110.581C58.1391 110.325 58.7117 110.275 59.24 110.441C63.1912 111.684 67.3161 112.314 71.5 112.314C94.0049 112.314 112.314 94.0046 112.314 71.5C112.314 58.9152 106.637 47.2241 96.7401 39.4244C96.3051 39.0816 96.0241 38.5801 95.9589 38.0301C95.8937 37.4802 96.0496 36.9268 96.3923 36.4918C96.562 36.2764 96.7725 36.0966 97.0117 35.9626C97.251 35.8285 97.5142 35.743 97.7865 35.7107C98.0588 35.6784 98.3348 35.7001 98.5987 35.7745C98.8627 35.8489 99.1093 35.9746 99.3247 36.1444C110.233 44.7408 116.49 57.6276 116.49 71.5C116.49 96.3074 96.3074 116.49 71.5 116.49ZM50.229 110.855C49.866 110.855 49.5092 110.76 49.1942 110.579C35.2023 102.577 26.5103 87.602 26.5103 71.5C26.5103 46.6926 46.6926 26.5103 71.5 26.5103C78.4182 26.5103 85.0554 28.0395 91.2273 31.0553C91.7248 31.2985 92.1053 31.7293 92.2853 32.253C92.4652 32.7767 92.4297 33.3504 92.1867 33.848C91.9434 34.3455 91.5125 34.726 90.9888 34.9058C90.465 35.0857 89.8913 35.0502 89.3937 34.8071C83.7977 32.0728 77.7775 30.6863 71.5 30.6863C48.9951 30.6863 30.6863 48.9954 30.6863 71.5C30.6863 86.1078 38.5726 99.6931 51.2677 106.954C51.6675 107.183 51.9804 107.537 52.1579 107.962C52.3353 108.387 52.3672 108.859 52.2487 109.304C52.1302 109.749 51.8679 110.143 51.5026 110.423C51.1374 110.704 50.6896 110.856 50.229 110.855Z"></path><path d="M54.2488 89.904C53.941 89.9045 53.6369 89.8368 53.3584 89.7058C53.0799 89.5748 52.8339 89.3837 52.6381 89.1463L40.0722 73.9419C39.7629 73.5676 39.5938 73.0972 39.5938 72.6116C39.5937 72.1261 39.7629 71.6557 40.0722 71.2813L52.6381 56.0773C52.9938 55.66 53.4994 55.3993 54.0457 55.3517C54.5919 55.304 55.135 55.4731 55.5577 55.8224C55.9804 56.1718 56.2486 56.6733 56.3046 57.2188C56.3606 57.7643 56.1998 58.3099 55.857 58.7378L44.3904 72.6116L55.857 86.4857C56.109 86.791 56.2691 87.1618 56.3186 87.5546C56.368 87.9475 56.3048 88.3463 56.1362 88.7046C55.9677 89.0628 55.7008 89.3658 55.3666 89.5782C55.0324 89.7906 54.6447 89.9036 54.2488 89.904ZM88.7475 89.904C88.3515 89.9037 87.9638 89.7908 87.6295 89.5784C87.2952 89.3661 87.0283 89.0631 86.8597 88.7047C86.6911 88.3464 86.6279 87.9475 86.6774 87.5546C86.7269 87.1617 86.8871 86.791 87.1393 86.4857L98.6056 72.6116L87.1393 58.7378C86.7964 58.3099 86.6356 57.7643 86.6916 57.2188C86.7476 56.6733 87.0159 56.1718 87.4386 55.8224C87.8612 55.4731 88.4043 55.304 88.9506 55.3517C89.4969 55.3993 90.0025 55.66 90.3582 56.0773L102.924 71.2813C103.233 71.6557 103.403 72.1261 103.403 72.6116C103.403 73.0972 103.233 73.5676 102.924 73.9419L90.3582 89.1463C90.1624 89.3837 89.9164 89.5748 89.6379 89.7058C89.3594 89.8368 89.0553 89.9045 88.7475 89.904ZM64.299 89.9046C63.9473 89.9043 63.6013 89.8153 63.2933 89.6457C62.9852 89.476 62.7249 89.2314 62.5366 88.9343C62.3483 88.6373 62.2381 88.2975 62.2162 87.9465C62.1943 87.5955 62.2614 87.2446 62.4112 86.9264L76.7263 56.518C76.9674 56.0254 77.3925 55.6475 77.9099 55.4657C78.4273 55.284 78.9954 55.313 79.4915 55.5466C79.9877 55.7802 80.372 56.1996 80.5616 56.7141C80.7511 57.2287 80.7307 57.7972 80.5046 58.2968L66.1895 88.7053C66.0208 89.0641 65.7534 89.3674 65.4186 89.5797C65.0838 89.7921 64.6955 89.9048 64.299 89.9046Z"></path></g><defs><clipPath id="clip0_2668_257"><rect width="143" height="143" fill="white"></rect></clipPath></defs></svg>