<svg xmlns="http://www.w3.org/2000/svg" width="132" height="143" viewBox="0 0 132 143" fill="#1D1D1D"><g opacity="0.05"><path d="M68.5208 0H62.5625V11.9167H68.5208V0Z"></path><path d="M35.3474 7.29036L30.1875 10.2695L36.1458 20.5894L41.3057 17.6102L35.3474 7.29036Z"></path><path d="M10.2676 30.1911L7.28906 35.3516L17.6101 41.3087L20.5887 36.1482L10.2676 30.1911Z"></path><path d="M11.9167 62.5625H0V68.5208H11.9167V62.5625Z"></path><path d="M17.6101 89.7811L7.28906 95.7383L10.2676 100.899L20.5887 94.9416L17.6101 89.7811Z"></path><path d="M113.471 89.7848L110.492 94.9453L120.813 100.902L123.792 95.7419L113.471 89.7848Z"></path><path d="M131.081 62.5625H119.164V68.5208H131.081V62.5625Z"></path><path d="M120.813 30.1952L110.492 36.1523L113.471 41.3129L123.792 35.3557L120.813 30.1952Z"></path><path d="M95.7279 7.28955L89.7695 17.6094L94.9294 20.5885L100.888 10.2687L95.7279 7.28955Z"></path><path d="M110.227 62.5636C110.227 49.8672 104.798 37.7295 95.331 29.2575C85.7331 20.6662 73.3335 16.7357 60.4305 18.1612C40.0593 20.4247 23.5459 36.8421 21.166 57.1988C19.9441 67.6462 22.2541 77.7882 27.8401 86.5308C32.9396 94.5117 36.6339 103.533 38.9381 113.209H29.7893V119.168H40.1614C40.5007 121.132 40.7893 123.116 41.0136 125.126H32.7685V131.084H41.5198C41.6228 133.003 41.706 134.928 41.706 136.877V143.001H89.3727V135.614C89.3727 134.104 89.4591 132.594 89.5373 131.084H98.3102V125.126H90.054C90.2923 123.138 90.6018 121.152 90.9754 119.168H101.289V113.209H92.3027C94.7235 103.783 98.6113 94.4177 104.056 85.2012C108.091 78.3642 110.227 70.5381 110.227 62.5636ZM83.4143 135.614V137.043H47.6643V136.877C47.6643 134.928 47.575 133.005 47.477 131.084H83.5781C83.5051 132.594 83.4143 134.104 83.4143 135.614ZM84.0628 125.126H46.9961C46.7845 123.119 46.5178 121.134 46.198 119.168H84.9217C84.5719 121.152 84.2862 123.138 84.0628 125.126ZM86.1567 113.209H45.0608C42.6376 102.361 38.5651 92.2491 32.8616 83.3247C28.0234 75.7516 26.0247 66.9567 27.0837 57.8912C29.1464 40.2606 43.4458 26.0426 61.088 24.0847C72.3094 22.8395 83.0419 26.2521 91.3568 33.6971C99.5641 41.0403 104.268 51.5605 104.268 62.5636C104.268 69.4733 102.421 76.2521 98.924 82.1697C92.9069 92.3579 88.6764 102.74 86.1567 113.209Z"></path><path d="M81.9471 49.4336L77.7344 53.6463L88.1411 64.053L77.7344 74.4597L81.9471 78.6725L96.5665 64.053L81.9471 49.4336Z"></path><path d="M53.3517 53.6463L49.139 49.4336L34.5195 64.053L49.139 78.6725L53.3517 74.4597L42.945 64.053L53.3517 53.6463Z"></path><path d="M69.9002 43.1337L55.418 82.9375L61.0143 84.9737L75.4965 45.1699L69.9002 43.1337Z"></path></g></svg>