<svg xmlns="http://www.w3.org/2000/svg" width="141" height="143" viewBox="0 0 141 143" fill="#1D1D1D"><g opacity="0.05"><path d="M138.105 119.461C139.389 119.461 140.422 120.504 140.422 121.778C140.422 127.446 138.211 132.775 134.204 136.782C130.197 140.789 124.868 143 119.2 143H21.2217C15.5542 143 10.2246 140.789 6.21781 136.782C2.21099 132.775 0 127.446 0 121.778C0 121.16 0.241375 120.571 0.675849 120.137C1.11032 119.703 1.69928 119.461 2.3172 119.461H7.02883V46.7591C7.02883 44.0171 9.25913 41.7868 12.0011 41.7868H44.7895V36.1965L34.9704 26.3774C34.5359 25.9429 34.2945 25.354 34.2945 24.7361V15.8631C30.9539 14.8687 28.5112 11.7694 28.5112 8.10053C28.5112 3.63028 32.1415 0 36.6117 0C41.082 0 44.7122 3.63028 44.7122 8.10053C44.7122 11.7598 42.2695 14.859 38.9289 15.8631V23.7802L48.748 33.5897C49.1825 34.0242 49.4335 34.6228 49.4335 35.2407V41.7868H67.8939V15.95C64.5532 14.9459 62.1105 11.8467 62.1105 8.18743C62.1105 3.71717 65.7408 0.0868947 70.2111 0.0868947C74.6813 0.0868947 78.3116 3.71717 78.3116 8.18743C78.3116 11.8467 75.8689 14.9459 72.5283 15.95V41.7964H90.9983V35.2504C90.9983 34.6324 91.2493 34.0338 91.6838 33.5993L101.493 23.7802V15.8631C98.1526 14.8687 95.7099 11.7694 95.7099 8.10053C95.7099 3.63028 99.3402 0 103.81 0C108.281 0 111.911 3.63028 111.911 8.10053C111.911 11.7598 109.468 14.859 106.128 15.8631V24.7361C106.128 25.354 105.886 25.9429 105.452 26.3774L95.6327 36.1965V41.7868H128.421C131.163 41.7868 133.393 44.0171 133.393 46.7591V119.461H138.105ZM135.624 124.096H87.5997L86.0742 129.57C85.7942 130.574 84.8867 131.26 83.8439 131.26H56.5782C55.5355 131.26 54.6279 130.564 54.3479 129.57L52.8224 124.096H4.79853C5.92816 132.148 12.8604 138.366 21.2217 138.366H119.191C123.622 138.366 127.784 136.637 130.922 133.509C133.509 130.931 135.131 127.649 135.624 124.096ZM128.759 119.461V46.7591C128.759 46.5757 128.604 46.4212 128.421 46.4212H12.0011C11.8177 46.4212 11.6632 46.5757 11.6632 46.7591V119.461H54.5796C55.6224 119.461 56.5299 120.156 56.8099 121.16L58.3354 126.635H82.0867L83.6122 121.16C83.8922 120.156 84.7998 119.461 85.8425 119.461H128.759ZM107.277 8.11019C107.277 6.1985 105.722 4.64405 103.81 4.64405C101.899 4.64405 100.344 6.1985 100.344 8.11019C100.344 10.0219 101.899 11.5763 103.81 11.5763C105.722 11.5763 107.277 10.0219 107.277 8.11019ZM73.6772 8.18743C73.6772 6.27574 72.1227 4.72129 70.2111 4.72129C68.2994 4.72129 66.7449 6.27574 66.7449 8.18743C66.7449 10.0991 68.2994 11.6536 70.2111 11.6536C72.1227 11.6536 73.6772 10.0991 73.6772 8.18743ZM40.0779 8.11019C40.0779 6.1985 38.5234 4.64405 36.6117 4.64405C34.7 4.64405 33.1456 6.1985 33.1456 8.11019C33.1456 10.0219 34.7 11.5763 36.6117 11.5763C38.5234 11.5763 40.0779 10.0219 40.0779 8.11019Z"></path><path d="M116.785 56.2969C118.069 56.2969 119.102 57.3396 119.102 58.6141C119.102 59.8982 118.059 60.9313 116.785 60.9313H66.9748C65.6907 60.9313 64.6576 59.8982 64.6576 58.6141C64.6576 57.33 65.6907 56.2969 66.9748 56.2969H116.785ZM116.785 68.4718C118.069 68.4718 119.102 69.5049 119.102 70.789C119.102 72.0731 118.059 73.1062 116.785 73.1062H66.9748C65.6907 73.1062 64.6576 72.0635 64.6576 70.789C64.6576 69.5049 65.6907 68.4718 66.9748 68.4718H116.785ZM116.785 80.6371C118.069 80.6371 119.102 81.6798 119.102 82.9543C119.102 84.2384 118.059 85.2715 116.785 85.2715H66.9748C65.6907 85.2715 64.6576 84.2384 64.6576 82.9543C64.6576 81.6702 65.6907 80.6371 66.9748 80.6371H116.785ZM116.785 92.812C118.069 92.812 119.102 93.8451 119.102 95.1292C119.102 96.4133 118.059 97.4464 116.785 97.4464H23.6336C22.3591 97.4464 21.3164 96.4037 21.3164 95.1292C21.3164 93.8451 22.3591 92.812 23.6336 92.812H116.785ZM116.785 104.987C118.069 104.987 119.102 106.03 119.102 107.304C119.102 108.579 118.059 109.621 116.785 109.621H23.6336C22.3591 109.621 21.3164 108.579 21.3164 107.304C21.3164 106.03 22.3591 104.987 23.6336 104.987H116.785ZM49.4028 58.6141V82.9639C49.4028 84.2481 48.36 85.2811 47.0856 85.2811H23.6336C22.3591 85.2811 21.3164 84.2481 21.3164 82.9639V58.6141C21.3164 57.33 22.3591 56.2969 23.6336 56.2969H47.0856C48.36 56.2969 49.4028 57.33 49.4028 58.6141ZM44.7684 80.6371V60.9313H25.9508V80.6468L44.7684 80.6371Z"></path></g></svg>