<svg xmlns="http://www.w3.org/2000/svg" width="49" height="65" viewBox="0 0 49 65" fill="#fff"><path d="M33.0254 22.022L27.8571 21.2714L25.5455 16.5869C25.4395 16.372 25.2754 16.1911 25.0719 16.0646C24.8684 15.9381 24.6336 15.8711 24.394 15.8711C24.1544 15.8711 23.9195 15.9381 23.716 16.0646C23.5125 16.1911 23.3485 16.372 23.2425 16.5869L20.9308 21.2714L15.7611 22.022C15.5239 22.0562 15.3009 22.1561 15.1175 22.3104C14.9341 22.4647 14.7975 22.6673 14.7233 22.8953C14.6491 23.1232 14.6401 23.3673 14.6974 23.6001C14.7548 23.8329 14.8761 24.0449 15.0477 24.2123L18.7876 27.858L17.9044 33.0063C17.8728 33.1906 17.8818 33.3796 17.9309 33.56C17.98 33.7404 18.0678 33.908 18.1884 34.051C18.3089 34.1939 18.4592 34.3088 18.6288 34.3876C18.7983 34.4665 18.9831 34.5073 19.1701 34.5073C19.3788 34.5058 19.5841 34.4534 19.768 34.3546L24.3912 31.9289L29.0144 34.3546C29.2262 34.4669 29.4652 34.5176 29.7044 34.5011C29.9435 34.4846 30.1732 34.4015 30.3676 34.2612C30.562 34.1209 30.7132 33.929 30.8041 33.7072C30.8951 33.4854 30.9222 33.2426 30.8823 33.0063L29.999 27.858L33.739 24.2123C33.9413 24.0148 34.0729 23.7562 34.1133 23.4764C34.2143 22.7742 33.7274 22.1231 33.0254 22.022ZM27.7202 26.4795C27.5703 26.6254 27.4583 26.8056 27.3939 27.0045C27.3295 27.2034 27.3146 27.4151 27.3506 27.6211L27.9071 30.8702L24.9892 29.3362C24.804 29.2407 24.5983 29.1918 24.39 29.1935C24.1817 29.1953 23.9769 29.2477 23.7933 29.3462L20.8753 30.8802L21.4333 27.6311C21.4693 27.4251 21.4544 27.2134 21.39 27.0145C21.3256 26.8156 21.2136 26.6354 21.0637 26.4895L18.7036 24.1879L21.9654 23.7142C22.1715 23.6844 22.3673 23.6049 22.5358 23.4826C22.7043 23.3603 22.8406 23.1989 22.9329 23.0122L24.3912 20.0557L25.8496 23.0122C25.9418 23.1989 26.0781 23.3604 26.2466 23.4826C26.4152 23.6049 26.6109 23.6844 26.817 23.7142L30.0803 24.1794L27.7202 26.4795Z"></path><path d="M24.3915 8.76172C15.1619 8.76172 7.67969 16.2439 7.67969 25.4735C7.67969 34.7031 15.1619 42.1853 24.3915 42.1853C33.6169 42.175 41.0931 34.6989 41.1033 25.4735C41.1033 16.2439 33.6211 8.76172 24.3915 8.76172ZM24.3915 39.6169C16.5803 39.6169 10.2481 33.2847 10.2481 25.4735C10.2481 17.6624 16.5803 11.3301 24.3915 11.3301C32.1992 11.3388 38.5262 17.666 38.5349 25.4735C38.5349 33.2848 32.2026 39.6169 24.3915 39.6169Z"></path><path d="M47.9112 28.9375L45.5083 29.8464C45.8821 30.8352 46.3473 32.0653 46.1875 32.5576C46.0077 33.1112 44.919 33.8204 43.9572 34.4467C42.8157 35.1916 41.5172 36.0364 40.6253 37.2634C39.7335 38.4906 39.3127 40.0102 38.9515 41.3372C38.6662 42.3803 38.3152 43.6788 37.86 44.0098C37.4048 44.3408 36.0863 44.2681 35.0062 44.2168C33.6265 44.1511 32.0625 44.074 30.5914 44.5563C29.1646 45.0186 27.9788 45.9832 26.9286 46.8294C26.0282 47.5571 25.0065 48.3819 24.3916 48.3819C23.7767 48.3819 22.7549 47.5571 21.8532 46.8266C20.803 45.9775 19.6131 45.0158 18.1918 44.555C17.3786 44.291 16.4667 44.1684 15.321 44.1684C14.7916 44.1684 14.2737 44.1926 13.7743 44.2169C12.7027 44.2682 11.3699 44.3311 10.9291 44.01C10.4882 43.689 10.1214 42.3776 9.83609 41.3345C9.4751 40.006 9.067 38.502 8.16372 37.2606C7.26044 36.0193 5.97486 35.1902 4.83043 34.444C3.8702 33.8176 2.78142 33.1084 2.60158 32.5548C2.44173 32.0654 2.90837 30.834 3.28226 29.8437C3.77745 28.5352 4.33669 27.0527 4.33669 25.4745C4.33669 23.8963 3.77586 22.4138 3.28081 21.1053C2.90692 20.1165 2.44173 18.885 2.60013 18.3942C2.77997 17.8406 3.8686 17.1313 4.83043 16.5036C5.97196 15.7587 7.26899 14.9139 8.16227 13.6884C9.05555 12.4626 9.47495 10.9416 9.83609 9.61452C10.1214 8.5714 10.4724 7.27292 10.9276 6.94192C11.3828 6.61093 12.7013 6.68368 13.7743 6.73498C15.154 6.80063 16.7195 6.87772 18.1976 6.39543C19.6245 5.93314 20.8088 4.96856 21.8605 4.12237C22.7538 3.39184 23.7754 2.5684 24.3903 2.5684C25.0052 2.5684 26.0271 3.39169 26.9273 4.12223C27.9775 4.97117 29.1675 5.933 30.5901 6.39529C32.0626 6.87323 33.6279 6.79903 35.0135 6.73483C36.085 6.68484 37.4179 6.62209 37.8587 6.94178C38.2995 7.26147 38.6592 8.5698 38.9446 9.61438C39.3056 10.9429 39.7137 12.4468 40.6169 13.6882C41.5202 14.9296 42.8058 15.7601 43.9502 16.5049C44.9106 17.1312 45.9992 17.8404 46.1805 18.394C46.3404 18.8849 45.8737 20.1162 45.4999 21.1052C45.0047 22.4137 44.444 23.8976 44.444 25.4743C44.444 27.0511 45.0048 28.535 45.4999 29.8435L46.7012 29.3898L47.9026 28.936C47.4445 27.7261 47.0122 26.5831 47.0122 25.4743C47.0122 24.3656 47.4403 23.2227 47.9012 22.0127C48.4962 20.443 49.0598 18.9491 48.6217 17.6007C48.1609 16.1839 46.7325 15.2535 45.3513 14.3531C44.3525 13.6982 43.3079 13.0219 42.6931 12.1771C42.078 11.3324 41.7399 10.1096 41.4217 8.94094C40.9721 7.28857 40.5484 5.7275 39.3627 4.86566C38.1769 4.00383 36.5859 4.08948 34.8851 4.16933C33.6679 4.22643 32.408 4.28628 31.3821 3.95238C30.4119 3.63704 29.46 2.86795 28.5411 2.12452C27.2439 1.08023 25.914 0 24.3902 0C22.8664 0 21.5364 1.08023 20.238 2.12611C19.319 2.86955 18.3673 3.63718 17.397 3.95253C16.3711 4.28497 15.1667 4.22932 13.894 4.16947C12.1931 4.08962 10.5865 4.01397 9.41496 4.86581C8.24343 5.71765 7.80548 7.29147 7.35594 8.94239C7.0377 10.111 6.7096 11.3196 6.08456 12.1786C5.45953 13.0375 4.43219 13.6997 3.42631 14.3545C2.04508 15.2549 0.61676 16.1853 0.155917 17.6022C-0.282174 18.9507 0.281417 20.4388 0.876456 22.0156C1.3331 23.2256 1.76539 24.3685 1.76539 25.4758C1.76539 26.5831 1.3373 27.726 0.876456 28.9375C0.281417 30.5071 -0.282174 32.0025 0.155917 33.3494C0.61676 34.7677 2.04508 35.6981 3.42631 36.5985C4.42509 37.2534 5.46967 37.9297 6.08312 38.7745C6.6967 39.6192 7.03625 40.842 7.35449 42.0107C7.62839 43.0209 7.89533 43.9969 8.33197 44.8002L3.12952 58.1047C3.04884 58.3113 3.02308 58.5354 3.05476 58.755C3.08644 58.9746 3.17447 59.1823 3.31028 59.3577C3.44608 59.5332 3.62503 59.6705 3.82967 59.7562C4.03431 59.8419 4.25768 59.8732 4.47799 59.8469L11.7551 58.9765L16.5082 64.5499C16.6526 64.7191 16.8386 64.8478 17.0477 64.9234C17.2569 64.9991 17.4821 65.0191 17.7013 64.9816C17.9205 64.944 18.1263 64.8502 18.2983 64.7092C18.4704 64.5683 18.6029 64.3851 18.6828 64.1775L23.8696 50.9074C24.215 50.9649 24.5674 50.9649 24.9128 50.9074L30.0981 64.1775C30.179 64.3842 30.312 64.5665 30.4843 64.7065C30.6566 64.8465 30.8623 64.9394 31.0812 64.9762C31.3001 65.013 31.5248 64.9924 31.7334 64.9165C31.942 64.8405 32.1273 64.7118 32.2713 64.5428L37.0244 58.9694L44.3015 59.8398C44.5211 59.8657 44.7436 59.8346 44.9476 59.7493C45.1516 59.664 45.3301 59.5275 45.4659 59.353C45.6017 59.1785 45.6901 58.9719 45.7226 58.7532C45.7551 58.5345 45.7306 58.3111 45.6514 58.1047L40.447 44.7974C40.8836 43.9942 41.1489 43.0181 41.4244 42.0079C41.7412 40.8393 42.0693 39.6306 42.6958 38.7717C43.3222 37.9128 44.3482 37.2506 45.3541 36.5957C46.7353 35.6954 48.1651 34.765 48.6245 33.3481C49.0625 31.9996 48.5004 30.5128 47.9112 28.9375ZM17.0658 61.251L13.2602 56.7862C13.1228 56.6253 12.9477 56.5008 12.7505 56.4239C12.5534 56.347 12.3403 56.32 12.1302 56.3453L6.30267 57.0431L10.3965 46.5726C11.4167 46.8979 12.6281 46.8408 13.8924 46.781C14.3632 46.7581 14.8499 46.7353 15.3193 46.7353C16.1867 46.7353 16.8474 46.8181 17.3968 46.9965C18.3671 47.3118 19.3174 48.0794 20.2378 48.8243C20.6659 49.1682 21.094 49.515 21.5334 49.8231L17.0658 61.251ZM42.4774 57.0431L36.6514 56.3453C36.4411 56.3202 36.228 56.3474 36.0308 56.4246C35.8336 56.5018 35.6586 56.6265 35.5213 56.7876L31.7143 61.2524L27.2438 49.8259C27.6833 49.5149 28.1142 49.1681 28.5394 48.8271C29.4583 48.0836 30.41 47.316 31.3804 47.0007C32.4049 46.6682 33.6078 46.7239 34.8848 46.7837C36.1618 46.8437 37.3605 46.8992 38.3807 46.5753L42.4774 57.0431Z"></path></svg>