<svg xmlns="http://www.w3.org/2000/svg" width="64" height="65" viewBox="0 0 64 65" fill="#fff"><path d="M13.7644 43.6042H49.8361C50.8271 43.6032 51.7773 43.2092 52.4781 42.5086C53.179 41.808 53.5733 40.8579 53.5745 39.867V35.2021C53.5762 33.0651 52.9045 30.9819 51.6549 29.2484C50.4052 27.5148 48.6412 26.219 46.6132 25.5451L37.2929 22.4383C48.1713 16.6717 44.2878 0.155572 31.8003 0C19.3406 0.112615 15.4304 16.7216 26.3077 22.4383L16.9873 25.5451C14.9593 26.219 13.1953 27.5148 11.9457 29.2484C10.696 30.9819 10.0244 33.0651 10.0261 35.2021V39.867C10.027 40.8581 10.4211 41.8085 11.122 42.5094C11.8229 43.2102 12.7732 43.6032 13.7644 43.6042ZM22.2257 11.8966C22.2287 9.35818 23.2385 6.92462 25.0334 5.1297C26.8283 3.33477 29.2619 2.32504 31.8003 2.32196C44.4852 2.80261 44.4805 20.9917 31.8003 21.4712C29.2619 21.4681 26.8283 20.4584 25.0334 18.6635C23.2385 16.8685 22.2287 14.435 22.2257 11.8966ZM12.348 35.201C12.3469 33.5514 12.8655 31.9435 13.8302 30.6055C14.795 29.2675 16.1568 28.2675 17.7222 27.7475C20.7802 26.8907 28.6494 23.5749 31.8003 23.7966C34.9082 23.5644 42.8726 26.9081 45.8783 27.7463C47.4438 28.2663 48.8056 29.2663 49.7703 30.6043C50.735 31.9423 51.2537 33.5503 51.2525 35.1998V39.8658C51.2525 40.2414 51.1033 40.6017 50.8377 40.8673C50.572 41.133 50.2118 41.2822 49.8361 41.2822H13.7644C13.3888 41.2822 13.0285 41.133 12.7629 40.8673C12.4972 40.6017 12.348 40.2414 12.348 39.8658V35.201ZM38.6733 51.637H35.5735C35.5061 51.6369 35.4406 51.6155 35.3862 51.5758C35.3318 51.5362 35.2912 51.4804 35.2704 51.4164L34.3126 48.4698C34.134 47.9453 33.7957 47.4898 33.3452 47.1672C32.8946 46.8447 32.3544 46.6713 31.8003 46.6713C31.2462 46.6713 30.7059 46.8447 30.2554 47.1672C29.8048 47.4898 29.4665 47.9453 29.2879 48.4698L28.3301 51.4164C28.3092 51.4806 28.2685 51.5365 28.2139 51.5762C28.1592 51.6158 28.0934 51.6371 28.0259 51.637H24.9261C24.368 51.6368 23.8242 51.8134 23.3726 52.1414C22.9211 52.4695 22.5851 52.9321 22.4129 53.463C22.2406 53.9938 22.2409 54.5656 22.4138 55.0963C22.5866 55.6269 22.9231 56.0892 23.375 56.4168L25.8816 58.2372C25.9365 58.2769 25.9774 58.3331 25.9982 58.3976C26.0191 58.4621 26.0189 58.5315 25.9977 58.5959L25.0399 61.5425C24.8678 62.0731 24.8681 62.6445 25.0406 63.1749C25.2131 63.7054 25.5491 64.1676 26.0004 64.4954C26.4517 64.8233 26.9951 64.9999 27.5529 65C28.1107 65.0001 28.6542 64.8237 29.1056 64.496L31.6122 62.6744C31.6669 62.6348 31.7327 62.6134 31.8003 62.6134C31.8678 62.6134 31.9337 62.6348 31.9883 62.6744L34.4949 64.496C34.9477 64.8152 35.4891 64.9847 36.0431 64.9807C36.5971 64.9768 37.136 64.7995 37.5842 64.4738C38.0324 64.1482 38.3674 63.6904 38.5423 63.1647C38.7172 62.639 38.7232 62.0718 38.5595 61.5425L37.6029 58.5936C37.582 58.5295 37.582 58.4605 37.6028 58.3965C37.6237 58.3324 37.6644 58.2766 37.719 58.2372L40.2255 56.4168C40.6696 56.0849 40.9986 55.6224 41.1663 55.0941C41.3341 54.5658 41.3323 53.9982 41.1611 53.471C40.9899 52.9438 40.6579 52.4834 40.2117 52.1545C39.7655 51.8256 39.2275 51.6446 38.6733 51.637ZM38.8602 54.5383L36.3536 56.3587C35.9017 56.6861 35.5653 57.1484 35.3929 57.6792C35.2206 58.21 35.2212 58.7818 35.3947 59.3122L36.3513 62.26C36.3723 62.3241 36.3724 62.3932 36.3517 62.4574C36.3309 62.5217 36.2904 62.5776 36.2358 62.6174C36.1813 62.6571 36.1155 62.6785 36.048 62.6785C35.9806 62.6786 35.9148 62.6572 35.8602 62.6176C31.8038 59.5084 31.777 59.5317 27.7403 62.6176C27.6856 62.6574 27.6197 62.6789 27.5521 62.6789C27.4844 62.6789 27.4185 62.6573 27.3638 62.6174C27.3092 62.5775 27.2686 62.5213 27.248 62.4568C27.2274 62.3924 27.2279 62.323 27.2492 62.2588L28.2059 59.3122C28.3793 58.7818 28.3799 58.21 28.2076 57.6792C28.0352 57.1484 27.6989 56.6861 27.2469 56.3587L24.7392 54.5383C24.6838 54.4989 24.6425 54.4429 24.6212 54.3783C24.5999 54.3138 24.5997 54.2442 24.6207 54.1796C24.6417 54.115 24.6827 54.0588 24.7378 54.0191C24.793 53.9794 24.8593 53.9583 24.9273 53.959H28.0271C28.5849 53.9597 29.1286 53.7834 29.5799 53.4554C30.0312 53.1274 30.3667 52.6647 30.5383 52.1339L31.4961 49.1873C31.5167 49.1228 31.5572 49.0665 31.6119 49.0265C31.6666 48.9866 31.7325 48.965 31.8003 48.965C31.868 48.965 31.934 48.9866 31.9886 49.0265C32.0433 49.0665 32.0839 49.1228 32.1044 49.1873L33.0623 52.1339C33.2339 52.6649 33.5696 53.1278 34.0211 53.4557C34.4726 53.7837 35.0166 53.9599 35.5746 53.959H38.6744C38.7422 53.9588 38.8082 53.9803 38.8629 54.0201C38.9177 54.06 38.9583 54.1162 38.979 54.1807C38.9997 54.2452 38.9993 54.3146 38.978 54.3789C38.9566 54.4432 38.9154 54.499 38.8602 54.5383ZM16.3894 51.637H13.2896C13.2223 51.6369 13.1567 51.6155 13.1023 51.5758C13.0479 51.5362 13.0074 51.4804 12.9866 51.4164L12.0287 48.4698C11.8501 47.9453 11.5118 47.4898 11.0613 47.1672C10.6107 46.8447 10.0705 46.6713 9.51638 46.6713C8.96226 46.6713 8.42204 46.8447 7.97148 47.1672C7.52092 47.4898 7.18262 47.9453 7.00402 48.4698L6.04621 51.4164C6.0254 51.4804 5.98489 51.5362 5.93047 51.5758C5.87605 51.6155 5.8105 51.6369 5.74319 51.637H2.64337C2.08516 51.6365 1.54116 51.813 1.08946 52.1409C0.637749 52.4689 0.301561 52.9315 0.129147 53.4624C-0.0432679 53.9933 -0.0430432 54.5652 0.129788 55.096C0.30262 55.6268 0.639171 56.0891 1.09113 56.4168L3.59886 58.2372C3.65358 58.277 3.69421 58.3333 3.71487 58.3978C3.73553 58.4623 3.73515 58.5317 3.71379 58.5959L2.75714 61.5425C2.58539 62.0729 2.58581 62.6441 2.75835 63.1742C2.93088 63.7044 3.26669 64.1664 3.71772 64.4941C4.16875 64.8219 4.71189 64.9986 5.26942 64.9989C5.82696 64.9992 6.37031 64.8232 6.82174 64.496L9.3283 62.6744C9.383 62.6348 9.44882 62.6134 9.51638 62.6134C9.58394 62.6134 9.64977 62.6348 9.70446 62.6744L12.2122 64.496C12.665 64.8148 13.2062 64.9839 13.76 64.9797C14.3137 64.9755 14.8523 64.7982 15.3003 64.4726C15.7482 64.147 16.0831 63.6894 16.258 63.164C16.4329 62.6386 16.4391 62.0716 16.2756 61.5425L15.3201 58.5936C15.2992 58.5295 15.2992 58.4605 15.3201 58.3965C15.341 58.3324 15.3816 58.2766 15.4362 58.2372L17.9416 56.4168C18.3857 56.0849 18.7147 55.6224 18.8825 55.0941C19.0503 54.5658 19.0484 53.9982 18.8772 53.471C18.706 52.9438 18.374 52.4834 17.9278 52.1545C17.4816 51.8256 16.9437 51.6446 16.3894 51.637ZM16.5763 54.5383L14.0698 56.3587C13.6178 56.6861 13.2814 57.1484 13.1091 57.6792C12.9367 58.21 12.9373 58.7818 13.1108 59.3122L14.0686 62.26C14.0899 62.3243 14.0902 62.3937 14.0694 62.4582C14.0487 62.5227 14.008 62.5789 13.9532 62.6187C13.8984 62.6585 13.8323 62.6798 13.7646 62.6796C13.6968 62.6794 13.6309 62.6577 13.5763 62.6176C9.51986 59.5084 9.49316 59.5317 5.45643 62.6176C5.40176 62.6574 5.33583 62.6789 5.26816 62.6789C5.20049 62.6789 5.13458 62.6573 5.07994 62.6174C5.0253 62.5775 4.98475 62.5213 4.96415 62.4568C4.94355 62.3924 4.94396 62.323 4.96533 62.2588L5.92198 59.3122C6.09544 58.7818 6.09604 58.21 5.9237 57.6792C5.75136 57.1484 5.41498 56.6861 4.96301 56.3587L2.45529 54.5383C2.39995 54.4989 2.35863 54.4429 2.33732 54.3783C2.31601 54.3138 2.31583 54.2442 2.33681 54.1796C2.35779 54.115 2.39882 54.0588 2.45396 54.0191C2.50909 53.9794 2.57544 53.9583 2.64337 53.959H5.74319C6.30105 53.9597 6.84476 53.7834 7.29603 53.4554C7.7473 53.1274 8.08286 52.6647 8.25439 52.1339L9.2122 49.1873C9.23278 49.1228 9.27334 49.0665 9.32801 49.0265C9.38269 48.9866 9.44866 48.965 9.51638 48.965C9.5841 48.965 9.65007 48.9866 9.70475 49.0265C9.75942 49.0665 9.79998 49.1228 9.82056 49.1873L10.7784 52.1339C10.95 52.6649 11.2857 53.1278 11.7372 53.4557C12.1887 53.7837 12.7327 53.9599 13.2907 53.959H16.3906C16.4583 53.9588 16.5243 53.9803 16.579 54.0201C16.6338 54.06 16.6744 54.1162 16.6951 54.1807C16.7158 54.2452 16.7154 54.3146 16.6941 54.3789C16.6727 54.4432 16.6315 54.499 16.5763 54.5383ZM63.4695 53.4632C63.3026 52.9292 62.9681 52.4632 62.5156 52.1343C62.0631 51.8054 61.5166 51.631 60.9572 51.637H57.8573C57.79 51.6369 57.7245 51.6155 57.6701 51.5758C57.6156 51.5362 57.5751 51.4804 57.5543 51.4164L56.5965 48.4698C56.4179 47.9453 56.0796 47.4898 55.6291 47.1672C55.1785 46.8447 54.6383 46.6713 54.0842 46.6713C53.53 46.6713 52.9898 46.8447 52.5393 47.1672C52.0887 47.4898 51.7504 47.9453 51.5718 48.4698L50.614 51.4164C50.5931 51.4806 50.5524 51.5365 50.4978 51.5762C50.4431 51.6158 50.3773 51.6371 50.3098 51.637H47.21C46.6519 51.6368 46.108 51.8134 45.6565 52.1414C45.205 52.4695 44.869 52.9321 44.6967 53.463C44.5245 53.9938 44.5248 54.5656 44.6977 55.0963C44.8705 55.6269 45.207 56.0892 45.6589 56.4168L48.1655 58.2372C48.2204 58.2769 48.2613 58.3331 48.2821 58.3976C48.303 58.4621 48.3028 58.5315 48.2816 58.5959L47.3238 61.5425C47.1517 62.0731 47.1519 62.6445 47.3245 63.1749C47.497 63.7054 47.833 64.1676 48.2843 64.4954C48.7356 64.8233 49.279 64.9999 49.8368 65C50.3946 65.0001 50.9381 64.8237 51.3895 64.496L53.8961 62.6744C53.9508 62.6348 54.0166 62.6134 54.0842 62.6134C54.1517 62.6134 54.2175 62.6348 54.2722 62.6744L56.7788 64.496C57.2316 64.8152 57.773 64.9847 58.327 64.9807C58.881 64.9768 59.4199 64.7995 59.8681 64.4738C60.3163 64.1482 60.6513 63.6904 60.8262 63.1647C61.0011 62.639 61.0071 62.0718 60.8434 61.5425L59.8867 58.5936C59.8659 58.5295 59.8659 58.4605 59.8867 58.3965C59.9076 58.3324 59.9482 58.2766 60.0028 58.2372L62.5094 56.4168C62.9658 56.0929 63.3057 55.6306 63.4786 55.0984C63.6516 54.5661 63.6484 53.9935 63.4695 53.4632ZM61.1441 54.5383L58.6375 56.3587C58.1856 56.6861 57.8492 57.1484 57.6768 57.6792C57.5045 58.21 57.5051 58.7818 57.6786 59.3122L58.6352 62.26C58.6562 62.3241 58.6563 62.3932 58.6356 62.4574C58.6148 62.5217 58.5742 62.5776 58.5197 62.6174C58.4651 62.6571 58.3994 62.6785 58.3319 62.6785C58.2645 62.6786 58.1987 62.6572 58.1441 62.6176C54.0876 59.5084 54.0609 59.5317 50.0242 62.6176C49.9696 62.6579 49.9035 62.6798 49.8355 62.68C49.7676 62.6802 49.7014 62.6588 49.6465 62.6188C49.5916 62.5788 49.5509 62.5223 49.5303 62.4575C49.5097 62.3928 49.5103 62.3232 49.5319 62.2588L50.4898 59.3122C50.6632 58.7818 50.6638 58.21 50.4915 57.6792C50.3191 57.1484 49.9827 56.6861 49.5308 56.3587L47.0231 54.5383C46.9677 54.4989 46.9264 54.4429 46.9051 54.3783C46.8838 54.3138 46.8836 54.2442 46.9046 54.1796C46.9256 54.115 46.9666 54.0588 47.0217 54.0191C47.0769 53.9794 47.1432 53.9583 47.2111 53.959H50.311C50.8688 53.9597 51.4125 53.7834 51.8638 53.4554C52.3151 53.1274 52.6506 52.6647 52.8222 52.1339L53.78 49.1873C53.8006 49.1228 53.8411 49.0665 53.8958 49.0265C53.9505 48.9866 54.0164 48.965 54.0842 48.965C54.1519 48.965 54.2178 48.9866 54.2725 49.0265C54.3272 49.0665 54.3678 49.1228 54.3883 49.1873L55.3461 52.1339C55.5177 52.6647 55.8532 53.1274 56.3045 53.4554C56.7558 53.7834 57.2995 53.9597 57.8573 53.959H60.9572C61.025 53.9586 61.0912 53.9798 61.1461 54.0196C61.2011 54.0594 61.2419 54.1156 61.2627 54.1802C61.2836 54.2447 61.2833 54.3142 61.262 54.3786C61.2406 54.443 61.1993 54.4989 61.1441 54.5383Z"></path></svg>