<svg xmlns="http://www.w3.org/2000/svg" width="66" height="65" viewBox="0 0 66 65" fill="#fff"><path d="M32.7849 4.40678C32.4927 4.40678 32.2125 4.29071 32.0059 4.0841C31.7993 3.87749 31.6832 3.59727 31.6832 3.30508V1.10169C31.6832 0.809507 31.7993 0.529287 32.0059 0.322679C32.2125 0.116071 32.4927 0 32.7849 0C33.0771 0 33.3573 0.116071 33.564 0.322679C33.7706 0.529287 33.8866 0.809507 33.8866 1.10169V3.30508C33.8866 3.59727 33.7706 3.87749 33.564 4.0841C33.3573 4.29071 33.0771 4.40678 32.7849 4.40678ZM23.4205 6.91534C23.227 6.91553 23.0368 6.86471 22.8691 6.76801C22.7014 6.67131 22.5621 6.53213 22.4654 6.36449L21.3637 4.45636C21.2199 4.20345 21.182 3.90394 21.2582 3.62318C21.3344 3.34242 21.5186 3.10321 21.7705 2.95775C22.0225 2.81228 22.3217 2.77238 22.603 2.84674C22.8842 2.9211 23.1247 3.10369 23.2718 3.35466L24.3735 5.2628C24.4701 5.43019 24.521 5.62007 24.5211 5.81336C24.5211 6.00665 24.4703 6.19656 24.3738 6.364C24.2772 6.53145 24.1383 6.67054 23.971 6.76732C23.8037 6.86409 23.6138 6.91514 23.4205 6.91534ZM42.1493 6.91534C41.9561 6.91514 41.7662 6.86409 41.5989 6.76732C41.4316 6.67054 41.2927 6.53145 41.1961 6.364C41.0995 6.19656 41.0487 6.00665 41.0488 5.81336C41.0488 5.62007 41.0997 5.43019 41.1964 5.2628L42.2981 3.35466C42.4452 3.10369 42.6856 2.9211 42.9669 2.84674C43.2481 2.77238 43.5474 2.81228 43.7993 2.95775C44.0513 3.10321 44.2355 3.34242 44.3117 3.62318C44.3879 3.90394 44.35 4.20345 44.2062 4.45636L43.1045 6.36449C43.0077 6.53213 42.8685 6.67131 42.7008 6.76801C42.5331 6.86471 42.3429 6.91553 42.1493 6.91534ZM63.3294 23.5399C63.3551 23.3438 63.368 23.1461 63.368 22.9483C63.364 21.9387 63.0145 20.9609 62.3778 20.1775C61.741 19.394 60.8553 18.8521 59.8679 18.6418C58.7389 18.4318 57.5722 18.6597 56.6053 19.2792C55.6383 19.8986 54.9436 20.8632 54.6624 21.9766L50.8329 35.501C50.4109 35.5925 50.0048 35.7458 49.6276 35.956L39.8887 41.665C38.3993 42.5424 37.1642 43.7925 36.305 45.2924C35.4457 46.7922 34.9919 48.49 34.9883 50.2186V63.8983C34.9883 64.1905 35.1044 64.4707 35.311 64.6773C35.5176 64.8839 35.7978 65 36.09 65C36.3822 65 36.6624 64.8839 36.869 64.6773C37.0756 64.4707 37.1917 64.1905 37.1917 63.8983V50.2186C37.1945 48.8742 37.5475 47.5537 38.2159 46.3873C38.8843 45.2208 39.8451 44.2487 41.0036 43.5665L50.736 37.8609C50.9866 37.7139 51.2639 37.618 51.5518 37.5786C51.8397 37.5392 52.1326 37.5572 52.4135 37.6315C52.6944 37.7058 52.9579 37.8349 53.1887 38.0114C53.4196 38.1879 53.6132 38.4083 53.7585 38.66C53.9038 38.9116 53.9979 39.1895 54.0353 39.4777C54.0728 39.7658 54.0529 40.0586 53.9767 40.339C53.9006 40.6194 53.7697 40.882 53.5917 41.1117C53.4137 41.3413 53.1919 41.5335 52.9393 41.6771L46.6255 45.3226C46.4992 45.3944 46.3884 45.4905 46.2994 45.6054C46.2103 45.7202 46.1449 45.8515 46.1068 45.9917C46.0688 46.1319 46.0588 46.2783 46.0775 46.4224C46.0963 46.5664 46.1433 46.7054 46.216 46.8312C46.2886 46.957 46.3854 47.0672 46.5008 47.1555C46.6163 47.2438 46.748 47.3083 46.8885 47.3454C47.0289 47.3826 47.1753 47.3916 47.3193 47.3719C47.4632 47.3522 47.6019 47.3042 47.7272 47.2308L54.041 43.5853C54.9431 43.067 55.6315 42.245 55.9832 41.266C56.335 40.2869 56.3272 39.2147 55.9613 38.2409L58.9854 26.9728C59.1226 26.4026 59.4691 25.9048 59.9563 25.5782C60.4435 25.2517 61.0356 25.1203 61.6152 25.2101C62.108 25.3145 62.5504 25.584 62.8691 25.9741C63.1879 26.3642 63.3639 26.8514 63.368 27.3551C63.3694 27.5488 63.345 27.7418 63.2953 27.9291L58.504 45.8118C58.3363 46.4359 57.9897 46.9973 57.507 47.4269L50.0584 54.048C49.4763 54.5653 49.0104 55.2 48.6916 55.9104C48.3728 56.6209 48.2082 57.3908 48.2087 58.1695V63.8983C48.2087 64.1905 48.3247 64.4707 48.5313 64.6773C48.7379 64.8839 49.0182 65 49.3104 65C49.6025 65 49.8828 64.8839 50.0894 64.6773C50.296 64.4707 50.4121 64.1905 50.4121 63.8983V58.1695C50.4121 57.7028 50.511 57.2414 50.7022 56.8157C50.8934 56.3899 51.1726 56.0095 51.5215 55.6995L58.9722 49.0772C59.7771 48.3603 60.354 47.4229 60.6314 46.3814L65.4226 28.5008C65.523 28.1269 65.573 27.7412 65.5714 27.354C65.5664 26.5772 65.3565 25.8154 64.9628 25.1457C64.5692 24.476 64.0057 23.9221 63.3294 23.5399ZM56.8581 26.4043L54.2526 36.1081C53.8981 35.8727 53.5114 35.6897 53.1046 35.5649L56.7865 22.5649C56.9259 21.9956 57.2733 21.499 57.7604 21.1728C58.2474 20.8466 58.8388 20.7144 59.4184 20.8022C59.9108 20.9067 60.3526 21.1766 60.6703 21.567C60.988 21.9575 61.1625 22.4449 61.1646 22.9483V22.9637C60.1701 22.9891 59.2111 23.3387 58.4337 23.9594C57.6563 24.5801 57.103 25.4379 56.8581 26.4021V26.4043ZM25.6812 41.665L15.9356 35.9527C15.5607 35.7433 15.1567 35.5907 14.737 35.4999L10.9119 21.9898C10.6335 20.8726 9.93895 19.9038 8.97019 19.2815C8.00143 18.6593 6.8316 18.4304 5.69976 18.6418C4.71283 18.8527 3.82774 19.3949 3.19146 20.1783C2.55518 20.9616 2.20599 21.9391 2.20188 22.9483C2.20185 23.1461 2.21474 23.3438 2.24044 23.5399C1.39131 24.0173 0.724904 24.7633 0.345996 25.6608C-0.0329113 26.5582 -0.102834 27.5561 0.147222 28.4975L4.93849 46.3814C5.21716 47.4211 5.79435 48.3564 6.59875 49.0717L14.0484 55.6929C14.3981 56.0037 14.6778 56.3851 14.869 56.8121C15.0603 57.239 15.1587 57.7017 15.1578 58.1695V63.8983C15.1578 64.1905 15.2739 64.4707 15.4805 64.6773C15.6871 64.8839 15.9673 65 16.2595 65C16.5517 65 16.8319 64.8839 17.0385 64.6773C17.2451 64.4707 17.3612 64.1905 17.3612 63.8983V58.1695C17.3611 57.3915 17.1962 56.6224 16.8774 55.9128C16.5585 55.2032 16.093 54.5692 15.5115 54.0525L8.064 47.4313C7.58049 47.0021 7.23346 46.4406 7.06587 45.8162L2.27349 27.9269C2.19802 27.6376 2.18202 27.3359 2.22644 27.0403C2.27086 26.7446 2.37479 26.461 2.53194 26.2066C2.68909 25.9522 2.8962 25.7324 3.14074 25.5604C3.38528 25.3883 3.66218 25.2677 3.95468 25.2057C4.53428 25.1156 5.12655 25.2469 5.61378 25.5735C6.10101 25.9001 6.44751 26.398 6.58443 26.9684L9.60858 38.2365C9.24265 39.2103 9.23487 40.2825 9.58664 41.2615C9.93841 42.2406 10.6268 43.0626 11.5288 43.5808L17.8426 47.2264C17.968 47.2998 18.1066 47.3478 18.2506 47.3675C18.3945 47.3872 18.541 47.3782 18.6814 47.341C18.8219 47.3039 18.9536 47.2394 19.069 47.1511C19.1844 47.0628 19.2813 46.9526 19.3539 46.8268C19.4266 46.701 19.4736 46.562 19.4923 46.4179C19.5111 46.2739 19.5011 46.1275 19.463 45.9873C19.425 45.8471 19.3595 45.7158 19.2705 45.6009C19.1815 45.4861 19.0706 45.39 18.9443 45.3182L12.6305 41.6771C12.2 41.4304 11.8656 41.0452 11.6819 40.5841C11.4983 40.1231 11.4761 39.6135 11.6191 39.1383C11.762 38.6631 12.0616 38.2503 12.4692 37.9671C12.8767 37.6839 13.3681 37.5471 13.8633 37.5788H13.8721C14.2079 37.596 14.535 37.6914 14.8273 37.8575L24.5663 43.5665C25.7248 44.2487 26.6855 45.2208 27.3539 46.3873C28.0224 47.5537 28.3754 48.8742 28.3782 50.2186V63.8983C28.3782 64.1905 28.4942 64.4707 28.7008 64.6773C28.9074 64.8839 29.1877 65 29.4799 65C29.772 65 30.0523 64.8839 30.2589 64.6773C30.4655 64.4707 30.5815 64.1905 30.5815 63.8983V50.2186C30.5779 48.49 30.1242 46.7922 29.2649 45.2924C28.4056 43.7925 27.1705 42.5424 25.6812 41.665ZM11.3173 36.1069L8.7118 26.4021C8.46787 25.4377 7.91518 24.5795 7.13803 23.9585C6.36089 23.3375 5.40194 22.9878 4.40748 22.9626V22.9483C4.40875 22.4447 4.58251 21.9567 4.89984 21.5656C5.21716 21.1745 5.65889 20.9039 6.15146 20.7989C6.73425 20.7094 7.32938 20.8426 7.81834 21.1722C8.30731 21.5017 8.65423 22.0033 8.79002 22.577L12.4653 35.5627C12.0582 35.6875 11.6715 35.8708 11.3173 36.1069Z"></path><path d="M41.1669 36.8843C41.5142 36.8813 41.856 36.7967 42.1646 36.6373C42.4733 36.478 42.7402 36.2484 42.9439 35.967C43.1475 35.6856 43.2823 35.3603 43.3372 35.0173C43.3921 34.6744 43.3657 34.3233 43.2601 33.9924L40.5532 25.6613L47.6393 20.512C48.0155 20.2387 48.2955 19.8534 48.4394 19.4113C48.5833 18.9691 48.5836 18.4928 48.4403 18.0505C48.297 17.6081 48.0175 17.2224 47.6417 16.9486C47.2659 16.6748 46.8131 16.5269 46.3481 16.5261H37.5874L34.8784 8.19507C34.7335 7.75424 34.4531 7.37041 34.0772 7.0983C33.7014 6.82619 33.2492 6.67969 32.7852 6.67969C32.3211 6.67969 31.8689 6.82619 31.4931 7.0983C31.1172 7.37041 30.8368 7.75424 30.6919 8.19507L27.9829 16.5261H19.2222C18.7569 16.5262 18.3037 16.6736 17.9274 16.9472C17.551 17.2207 17.2709 17.6064 17.1272 18.0489C16.9835 18.4914 16.9836 18.968 17.1274 19.4105C17.2712 19.8529 17.5513 20.2385 17.9277 20.512L25.0138 25.6613L22.3069 33.9924C22.1631 34.4349 22.163 34.9117 22.3068 35.3543C22.4506 35.7969 22.7309 36.1826 23.1074 36.4561C23.4839 36.7297 23.9374 36.8769 24.4027 36.8769C24.8681 36.8768 25.3215 36.7294 25.698 36.4557L32.7852 31.3075L39.8724 36.4557C40.2473 36.7326 40.7008 36.8828 41.1669 36.8843ZM32.7852 29.1019C32.3196 29.1022 31.866 29.2499 31.4896 29.5239L24.4035 34.6732L27.1103 26.3422C27.254 25.8996 27.254 25.4229 27.1101 24.9804C26.9662 24.5378 26.6859 24.1522 26.3094 23.8788L19.2222 18.7295H27.9829C28.4478 18.729 28.9006 18.5814 29.2766 18.308C29.6526 18.0345 29.9324 17.6491 30.0761 17.2069L32.7852 8.86159V8.87592L35.492 17.2069C35.6358 17.6495 35.916 18.0351 36.2924 18.3086C36.6688 18.5821 37.1222 18.7294 37.5874 18.7295H46.3481L39.262 23.8777C38.8851 24.1511 38.6044 24.5368 38.4603 24.9796C38.3163 25.4223 38.3161 25.8993 38.46 26.3422L41.1669 34.6732L34.0808 29.5261C33.7046 29.2513 33.251 29.1028 32.7852 29.1019ZM14.107 12.5225L16.0141 13.6242C16.1394 13.6977 16.278 13.7457 16.422 13.7653C16.5659 13.785 16.7124 13.776 16.8528 13.7389C16.9933 13.7018 17.125 13.6372 17.2404 13.549C17.3559 13.4607 17.4527 13.3505 17.5253 13.2247C17.598 13.0988 17.645 12.9599 17.6637 12.8158C17.6825 12.6717 17.6725 12.5254 17.6344 12.3852C17.5964 12.2449 17.5309 12.1136 17.4419 11.9988C17.3529 11.884 17.2421 11.7879 17.1158 11.7161L15.2087 10.6144C14.9558 10.4706 14.6563 10.4327 14.3755 10.5089C14.0948 10.5851 13.8556 10.7693 13.7101 11.0213C13.5646 11.2732 13.5247 11.5725 13.5991 11.8537C13.6735 12.135 13.856 12.3754 14.107 12.5225ZM49.0065 13.7718C49.1999 13.7718 49.3899 13.7209 49.5574 13.6242L51.4644 12.5225C51.7154 12.3754 51.898 12.135 51.9723 11.8537C52.0467 11.5725 52.0068 11.2732 51.8613 11.0213C51.7158 10.7693 51.4766 10.5851 51.1959 10.5089C50.9151 10.4327 50.6156 10.4706 50.3627 10.6144L48.4557 11.7161C48.2457 11.8374 48.0815 12.0245 47.9887 12.2486C47.8959 12.4726 47.8796 12.721 47.9424 12.9553C48.0052 13.1895 48.1435 13.3965 48.3359 13.5442C48.5283 13.6918 48.764 13.7718 49.0065 13.7718Z"></path></svg>