<svg xmlns="http://www.w3.org/2000/svg" width="60" height="65" viewBox="0 0 60 65" fill="#fff"><path d="M51.822 41.2643H51.8186C53.3781 39.5248 54.193 36.9423 54.193 34.4484C54.193 32.6004 53.4588 30.8281 52.1521 29.5213C50.8453 28.2146 49.073 27.4805 47.225 27.4805C45.377 27.4805 43.6046 28.2146 42.2979 29.5213C40.9911 30.8281 40.257 32.6004 40.257 34.4484C40.257 36.4423 40.8381 38.5765 41.8114 40.1562C42.0517 40.5483 42.3252 40.919 42.6289 41.2643H42.6241C41.0024 41.2608 39.4211 41.7706 38.1066 42.7206C37.5149 42.6224 36.9162 42.5727 36.3164 42.572H35.1465C35.8708 41.9198 36.5007 41.17 37.0183 40.3442C38.4638 38.0734 39.2928 35.0865 39.2928 32.1494C39.2975 30.8748 39.0504 29.6118 38.5659 28.4328C38.0814 27.2538 37.3688 26.1821 36.4692 25.2791C35.5695 24.3761 34.5004 23.6597 33.3232 23.1708C32.146 22.6819 30.8839 22.4303 29.6093 22.4303C28.3346 22.4303 27.0725 22.6819 25.8953 23.1708C24.7181 23.6597 23.649 24.3761 22.7494 25.2791C21.8497 26.1821 21.1372 27.2538 20.6526 28.4328C20.1681 29.6118 19.9211 30.8748 19.9258 32.1494C19.9258 34.972 20.7467 37.9899 22.1218 40.222C22.6505 41.0956 23.3039 41.8874 24.0613 42.5722H22.899C22.2992 42.5729 21.7005 42.6226 21.1088 42.7209C19.7943 41.7709 18.213 41.2611 16.5913 41.2645H16.5865C16.8902 40.9193 17.1637 40.5485 17.404 40.1565C18.3773 38.5764 18.9584 36.4426 18.9584 34.4487C18.9584 32.6012 18.2244 30.8293 16.918 29.5229C15.6116 28.2165 13.8398 27.4825 11.9922 27.4825C10.1447 27.4825 8.37284 28.2165 7.06643 29.5229C5.76003 30.8293 5.0261 32.6012 5.0261 34.4487C5.0261 36.9425 5.84122 39.5251 7.39926 41.2645H7.39336C3.31657 41.2645 0 44.378 0 48.2047V56.2511C0 56.5291 0.110455 56.7958 0.307065 56.9924C0.503676 57.189 0.770338 57.2995 1.04839 57.2995H12.5938V63.9516C12.5938 64.2297 12.7042 64.4963 12.9008 64.6929C13.0974 64.8895 13.3641 65 13.6421 65H45.5747C45.8527 65 46.1194 64.8895 46.316 64.6929C46.5126 64.4963 46.6231 64.2297 46.6231 63.9516V57.2992H58.1707C58.4487 57.2992 58.7154 57.1887 58.912 56.9921C59.1086 56.7955 59.2191 56.5289 59.2191 56.2508V48.2044C59.2191 44.3777 55.9008 41.2643 51.822 41.2643ZM42.3538 34.4484C42.3538 33.1565 42.867 31.9175 43.7805 31.004C44.6941 30.0904 45.9331 29.5772 47.225 29.5772C48.5169 29.5772 49.7559 30.0904 50.6695 31.004C51.583 31.9175 52.0962 33.1565 52.0962 34.4484C52.0962 37.0837 50.7726 41.2643 47.223 41.2643C43.6758 41.2643 42.3538 37.0837 42.3538 34.4484ZM29.6074 24.5603C31.6193 24.5626 33.5482 25.3628 34.9708 26.7855C36.3935 28.2081 37.1937 30.137 37.196 32.1489C37.196 32.2036 37.1938 32.2583 37.193 32.313C34.2715 31.9799 31.75 31.3301 28.3447 28.6603C28.1771 28.5289 27.9735 28.4517 27.761 28.4389C27.5485 28.4261 27.3371 28.4783 27.1549 28.5886L22.0379 31.6875C22.1569 29.7598 23.0059 27.9498 24.412 26.6258C25.8182 25.3018 27.676 24.5632 29.6074 24.5603ZM23.9068 39.1221C23.0315 37.701 22.4186 35.8995 22.16 34.0637L27.6297 30.7521C31.1847 33.3899 33.9672 34.0597 37.0073 34.402C36.7179 36.1678 36.1054 37.8723 35.2493 39.2175C34.2752 40.7478 32.5056 42.5724 29.6071 42.5724C27.2354 42.572 25.3171 41.4113 23.9068 39.1221ZM7.12222 34.4484C7.12222 33.809 7.24817 33.1758 7.49288 32.585C7.73759 31.9942 8.09626 31.4574 8.54842 31.0053C9.00058 30.5531 9.53738 30.1944 10.1282 29.9497C10.7189 29.705 11.3521 29.5791 11.9916 29.5791C12.631 29.5791 13.2642 29.705 13.855 29.9497C14.4458 30.1944 14.9826 30.5531 15.4347 31.0053C15.8869 31.4574 16.2456 31.9942 16.4903 32.585C16.735 33.1758 16.8609 33.809 16.8609 34.4484C16.8609 37.0837 15.5389 41.2643 11.9916 41.2643C8.44423 41.2643 7.12222 37.0837 7.12222 34.4484ZM2.09612 55.2024V48.2044C2.09612 45.5338 4.47216 43.361 7.3927 43.361H16.5906C17.1553 43.361 17.7169 43.4449 18.2569 43.61C14.9002 45.202 12.5927 48.4609 12.5927 52.2169V55.2028L2.09612 55.2024ZM44.5253 62.9032H39.211V56.4402C39.211 56.1621 39.1005 55.8955 38.9039 55.6989C38.7073 55.5022 38.4407 55.3918 38.1626 55.3918C37.8846 55.3918 37.6179 55.5022 37.4213 55.6989C37.2247 55.8955 37.1142 56.1621 37.1142 56.4402V62.9032H22.1042V56.4402C22.1042 56.1621 21.9937 55.8955 21.7971 55.6989C21.6005 55.5022 21.3339 55.3918 21.0558 55.3918C20.7778 55.3918 20.5111 55.5022 20.3145 55.6989C20.1179 55.8955 20.0074 56.1621 20.0074 56.4402V62.9032H14.6895V52.2165C14.6895 48.0547 18.3719 44.6688 22.8983 44.6688H36.3171C40.8435 44.6688 44.5259 48.0547 44.5259 52.2165L44.5253 62.9032ZM57.1223 55.2024H46.622V52.2165C46.622 48.4605 44.3145 45.2016 40.9579 43.6096C41.4979 43.4445 42.0594 43.3606 42.6241 43.3606H51.822C54.7444 43.3606 57.1223 45.5334 57.1223 48.2041V55.2024ZM23.7819 12.4834L22.964 18.1578C22.9368 18.3467 22.9617 18.5395 23.036 18.7153C23.1102 18.8912 23.2311 19.0434 23.3856 19.1555C23.54 19.2677 23.7221 19.3356 23.9123 19.3519C24.1025 19.3681 24.2935 19.3322 24.4648 19.2479L29.6074 16.7159L34.7536 19.2481C34.9249 19.3324 35.1159 19.3684 35.3061 19.3521C35.4963 19.3358 35.6784 19.2679 35.8328 19.1557C35.9872 19.0435 36.1081 18.8913 36.1824 18.7155C36.2566 18.5396 36.2815 18.3469 36.2543 18.1579L35.4363 12.4835L39.4342 8.37334C39.5672 8.23654 39.6604 8.06601 39.7037 7.88015C39.747 7.69428 39.7388 7.50012 39.6798 7.3186C39.6209 7.13708 39.5136 6.9751 39.3693 6.8501C39.2251 6.7251 39.0495 6.64184 38.8615 6.60929L33.2102 5.63102L30.5345 0.559446C30.4455 0.390644 30.3122 0.249334 30.1488 0.150749C29.9854 0.0521629 29.7982 4.04786e-05 29.6074 0C29.4165 4.17796e-05 29.2293 0.0521923 29.0658 0.150827C28.9024 0.249462 28.769 0.390838 28.6801 0.559708L26.0081 5.63128L20.3572 6.60943C20.1691 6.64197 19.9935 6.72523 19.8493 6.85023C19.7051 6.97523 19.5978 7.13722 19.5388 7.31873C19.4799 7.50025 19.4716 7.69441 19.5149 7.88028C19.5582 8.06615 19.6514 8.23667 19.7845 8.37347L23.7819 12.4834ZM26.8738 7.60906C27.032 7.58168 27.1817 7.51836 27.3115 7.42398C27.4413 7.3296 27.5477 7.20668 27.6225 7.06469L29.6074 3.29639L31.5958 7.06521C31.6706 7.20707 31.777 7.32987 31.9067 7.42416C32.0365 7.51844 32.1861 7.5817 32.3442 7.60906L36.5447 8.33612L33.5737 11.3912C33.4618 11.5063 33.3778 11.6456 33.3281 11.7983C33.2785 11.951 33.2647 12.113 33.2876 12.2719L33.8954 16.4889L30.0702 14.6067C29.9262 14.5358 29.7678 14.4989 29.6072 14.4989C29.4467 14.4989 29.2883 14.5358 29.1442 14.6067L25.3231 16.4881L25.9308 12.2718C25.9537 12.1129 25.9398 11.9509 25.8902 11.7982C25.8406 11.6456 25.7566 11.5063 25.6447 11.3912L22.6732 8.33612L26.8738 7.60906ZM4.32381 14.2516L3.76201 18.1583C3.73484 18.3473 3.75977 18.54 3.8341 18.7158C3.90844 18.8916 4.02936 19.0438 4.18382 19.1559C4.33829 19.2681 4.52044 19.3359 4.71062 19.3521C4.90081 19.3684 5.09181 19.3323 5.26303 19.248L8.80409 17.5036L12.3416 19.2477C12.5128 19.3321 12.7038 19.3682 12.894 19.352C13.0842 19.3358 13.2664 19.268 13.4209 19.1559C13.5754 19.0438 13.6963 18.8916 13.7707 18.7158C13.8451 18.54 13.87 18.3473 13.8429 18.1583L13.2811 14.252L16.0343 11.4232C16.1674 11.2864 16.2606 11.1159 16.304 10.9301C16.3473 10.7442 16.3391 10.55 16.2802 10.3685C16.2213 10.187 16.1139 10.025 15.9697 9.89993C15.8255 9.77491 15.6499 9.69162 15.4619 9.65905L11.5716 8.98546L9.73165 5.4963C9.64266 5.32756 9.50931 5.18631 9.34598 5.08775C9.18265 4.98919 8.99552 4.93706 8.80475 4.93699C8.61403 4.93697 8.42691 4.98899 8.26356 5.08743C8.10021 5.18587 7.9668 5.32701 7.87771 5.49565L6.03386 8.98546L2.1467 9.65918C1.95872 9.69176 1.7832 9.77502 1.63903 9.89998C1.49487 10.0249 1.38754 10.1869 1.32861 10.3683C1.26968 10.5498 1.26137 10.7439 1.3046 10.9297C1.34782 11.1155 1.44093 11.286 1.57389 11.4228L4.32381 14.2516ZM6.89931 10.9635C7.05721 10.9362 7.20675 10.873 7.33642 10.7788C7.4661 10.6846 7.57246 10.562 7.64733 10.4203L8.80344 8.2318L9.95667 10.4203C10.0315 10.5622 10.1379 10.6851 10.2677 10.7794C10.3974 10.8738 10.5471 10.9371 10.7052 10.9644L13.1442 11.3867L11.4181 13.1601C11.3062 13.2752 11.2221 13.4144 11.1725 13.567C11.1229 13.7197 11.1089 13.8816 11.1318 14.0405L11.4838 16.4881L9.26735 15.3954C9.1232 15.3244 8.96466 15.2875 8.80396 15.2875C8.64327 15.2875 8.48472 15.3244 8.34058 15.3954L6.11996 16.4893L6.47209 14.0408C6.49493 13.882 6.48102 13.7201 6.43145 13.5675C6.38187 13.415 6.29795 13.2758 6.18614 13.1608L4.4622 11.3859L6.89931 10.9635ZM45.9338 14.2516L45.3725 18.1583C45.3453 18.3473 45.3703 18.54 45.4446 18.7158C45.5189 18.8916 45.6398 19.0438 45.7943 19.1559C45.9488 19.2681 46.1309 19.3359 46.3211 19.3521C46.5113 19.3684 46.7023 19.3323 46.8735 19.248L50.4147 17.5036L53.956 19.248C54.1273 19.3324 54.3184 19.3684 54.5087 19.3521C54.6989 19.3358 54.8811 19.2679 55.0356 19.1557C55.1901 19.0434 55.311 18.8911 55.3852 18.7152C55.4595 18.5393 55.4843 18.3464 55.4569 18.1574L54.892 14.2522L57.6448 11.4237C57.7779 11.287 57.8711 11.1165 57.9145 10.9306C57.9578 10.7447 57.9496 10.5506 57.8906 10.369C57.8317 10.1875 57.7244 10.0255 57.5802 9.90045C57.436 9.77543 57.2604 9.69215 57.0724 9.65958L53.1819 8.98599L51.3415 5.4963C51.2525 5.32754 51.1191 5.18627 50.9558 5.08771C50.7924 4.98915 50.6052 4.93704 50.4144 4.93699C50.2237 4.937 50.0367 4.98903 49.8733 5.08747C49.71 5.18591 49.5766 5.32703 49.4875 5.49565L47.6441 8.98546L43.7569 9.65918C43.5689 9.69174 43.3934 9.77498 43.2492 9.89994C43.105 10.0249 42.9977 10.1868 42.9387 10.3683C42.8798 10.5497 42.8715 10.7438 42.9147 10.9297C42.9579 11.1155 43.051 11.286 43.184 11.4228L45.9338 14.2516ZM48.5091 10.9635C48.6671 10.9361 48.8166 10.8729 48.9463 10.7788C49.076 10.6846 49.1823 10.5619 49.2572 10.4202L50.4133 8.23167L51.5665 10.4202C51.6413 10.5621 51.7477 10.685 51.8775 10.7793C52.0073 10.8736 52.157 10.9369 52.315 10.9643L54.7541 11.3865L53.028 13.16C52.9159 13.2752 52.8318 13.4145 52.7822 13.5673C52.7326 13.7201 52.7187 13.8823 52.7417 14.0413L53.0956 16.488L50.8769 15.395C50.7328 15.3241 50.5743 15.2872 50.4136 15.2872C50.2529 15.2872 50.0944 15.3241 49.9503 15.395L47.7298 16.4888L48.0819 14.0405C48.1048 13.8817 48.0909 13.7198 48.0413 13.5672C47.9917 13.4146 47.9078 13.2754 47.796 13.1604L46.072 11.3859L48.5091 10.9635Z"></path></svg>