<svg xmlns="http://www.w3.org/2000/svg" width="53" height="54" viewBox="0 0 53 54" fill="#fff"><path opacity="0.2" d="M26.5 53.3839C41.1355 53.3839 53 41.5166 53 26.8775C53 12.2384 41.1355 0.371094 26.5 0.371094C11.8645 0.371094 0 12.2384 0 26.8775C0 41.5166 11.8645 53.3839 26.5 53.3839Z" fill="white"></path><path d="M33.0449 32.4075C32.2569 32.1265 30.9709 32.1075 30.4009 31.8944C29.962 31.7802 29.5476 31.587 29.1779 31.3243C29.0225 30.6693 28.9553 29.9966 28.9779 29.3238C29.2709 29.0425 29.5084 28.7086 29.6779 28.3396C29.848 27.7061 29.9608 27.0587 30.0149 26.4051C30.0149 26.4051 30.4789 26.6051 30.6619 25.6739C30.8169 24.8737 31.1119 24.4506 31.0349 23.8595C30.9579 23.2683 30.6269 23.4094 30.6269 23.4094C30.9859 22.5819 31.1264 21.6761 31.0349 20.7787C31.0295 20.2012 30.9053 19.631 30.67 19.1035C30.4347 18.5761 30.0935 18.1027 29.6674 17.7129C29.2414 17.323 28.7397 17.0251 28.1935 16.8375C27.6474 16.65 27.0685 16.5769 26.4929 16.6227C25.9172 16.5768 25.3383 16.6496 24.7918 16.8364C24.2453 17.0233 23.743 17.3203 23.3159 17.7091C22.8887 18.0979 22.5459 18.5702 22.3085 19.0968C22.0712 19.6234 21.9444 20.1931 21.9359 20.7707C21.8454 21.6673 21.983 22.5722 22.3359 23.4014C22.3359 23.4014 22.0059 23.2603 21.9279 23.8515C21.8499 24.4426 22.1399 24.8717 22.2989 25.6719C22.4819 26.6071 22.9459 26.4031 22.9459 26.4031C23.0006 27.0566 23.1134 27.704 23.2829 28.3376C23.4525 28.7067 23.6899 29.0405 23.9829 29.3218C24.0056 29.9946 23.9383 30.6673 23.7829 31.3223C23.4143 31.5852 22.9994 31.7763 22.5599 31.8854C21.9979 32.1035 20.7109 32.1315 19.9159 32.4125C18.9574 32.7719 18.1334 33.4189 17.5569 34.2651C16.9805 35.1112 16.6797 36.1149 16.6959 37.1387H36.2579C36.2772 36.1146 35.9785 35.1097 35.4031 34.2624C34.8277 33.4151 34.0038 32.7671 33.0449 32.4075Z"></path><path d="M18.3448 28.98C19.1709 28.9688 19.98 28.7434 20.6928 28.3258C19.6028 26.6734 20.1928 24.7459 19.9688 22.9455C19.9578 22.5359 19.8621 22.1329 19.6876 21.7621C19.5132 21.3913 19.2638 21.0607 18.9553 20.7911C18.6468 20.5215 18.2857 20.3187 17.895 20.1956C17.5042 20.0725 17.0922 20.0317 16.6848 20.0758H16.6568C16.2519 20.0373 15.8434 20.0823 15.4566 20.2079C15.0697 20.3335 14.7127 20.5371 14.4075 20.8061C14.1024 21.0751 13.8557 21.4039 13.6825 21.772C13.5094 22.1401 13.4135 22.5399 13.4008 22.9465C13.1758 24.7399 13.8008 26.8855 12.6838 28.3268C13.3989 28.7376 14.2147 28.9399 15.0388 28.9109C15.0815 29.3059 15.0579 29.7051 14.9688 30.0922C14.7268 30.2939 14.4355 30.4275 14.1248 30.4793C13.5086 30.6127 12.9006 30.7817 12.3038 30.9854C11.8257 31.2354 11.425 31.6112 11.145 32.0724C10.8649 32.5336 10.7162 33.0625 10.7148 33.6021H16.3618C16.8751 32.6848 17.6616 31.9506 18.6118 31.5016C19.1625 31.2708 19.7519 31.1466 20.3488 31.1355C20.3488 31.1355 20.6158 30.7134 19.7368 30.5513C19.2697 30.4487 18.8164 30.2906 18.3868 30.0802C18.2528 29.9302 18.3448 28.98 18.3448 28.98Z"></path><path d="M34.6566 28.98C33.8305 28.9688 33.0215 28.7434 32.3086 28.3258C33.3986 26.6734 32.8086 24.7459 33.0326 22.9455C33.0436 22.5359 33.1394 22.1329 33.3138 21.7621C33.4882 21.3913 33.7376 21.0607 34.0461 20.7911C34.3547 20.5215 34.7157 20.3187 35.1065 20.1956C35.4972 20.0725 35.9093 20.0317 36.3166 20.0758H36.3446C36.7495 20.0373 37.158 20.0823 37.5449 20.2079C37.9317 20.3335 38.2888 20.5371 38.5939 20.8061C38.899 21.0751 39.1458 21.4039 39.3189 21.772C39.4921 22.1401 39.5879 22.5399 39.6006 22.9465C39.8256 24.7399 39.2006 26.8855 40.3176 28.3268C39.6025 28.7376 38.7867 28.9399 37.9626 28.9109C37.9199 29.3059 37.9436 29.7051 38.0326 30.0922C38.2746 30.2939 38.5659 30.4275 38.8766 30.4793C39.4929 30.6127 40.1009 30.7817 40.6976 30.9854C41.1757 31.2354 41.5764 31.6112 41.8565 32.0724C42.1365 32.5336 42.2853 33.0625 42.2866 33.6021H36.6396C36.1263 32.6848 35.3398 31.9506 34.3896 31.5016C33.8389 31.2708 33.2495 31.1466 32.6526 31.1355C32.6526 31.1355 32.3856 30.7134 33.2646 30.5513C33.7318 30.4487 34.185 30.2906 34.6146 30.0802C34.7486 29.9302 34.6566 28.98 34.6566 28.98Z"></path></svg>