<svg xmlns="http://www.w3.org/2000/svg" width="40" height="40" viewBox="0 0 40 40" fill="none"><g clip-path="url(#clip0_2639_98)"><path d="M37.9953 12.6281C37.9774 12.3194 37.7497 12.0636 37.4452 12.0101C37.1407 11.9566 36.8394 12.1194 36.7173 12.4034L35.354 15.5781C35.1889 15.4218 34.9981 15.295 34.79 15.2034C33.7751 14.7674 32.599 15.2366 32.163 16.2514C31.7269 17.2662 32.1961 18.4424 33.2109 18.8785C34.2257 19.3146 35.4018 18.8455 35.838 17.8307L37.2973 14.4307C37.5731 14.8102 37.9465 15.1079 38.378 15.2921C38.5981 15.3937 38.8561 15.3679 39.0516 15.2245C39.2472 15.0812 39.3495 14.843 39.3188 14.6024C39.2881 14.3619 39.1293 14.157 38.904 14.0674C38.3812 13.768 38.0408 13.2288 37.9953 12.6281ZM33.7367 17.6541C33.3985 17.5087 33.242 17.1168 33.3872 16.7786C33.5324 16.4403 33.9243 16.2838 34.2626 16.4288C34.6009 16.5739 34.7576 16.9657 34.6127 17.3041C34.543 17.4667 34.4115 17.595 34.2472 17.6606C34.0829 17.7263 33.8992 17.7239 33.7367 17.6541Z"></path><path d="M2.86246 22.7758C3.23428 23.1356 3.73173 23.3362 4.24912 23.3351H4.28779C5.0967 23.3199 5.81678 22.8189 6.11217 22.0657C6.40756 21.3125 6.22006 20.4555 5.63712 19.8945L2.97379 17.3291C3.42613 17.2048 3.83641 16.9604 4.16112 16.6218C4.32642 16.4502 4.38761 16.2034 4.32164 15.9745C4.25567 15.7455 4.07257 15.5692 3.8413 15.5118C3.61004 15.4545 3.36575 15.5248 3.20046 15.6965C2.73597 16.0797 2.11169 16.2079 1.53379 16.0385C1.23861 15.9461 0.91865 16.0688 0.761037 16.335C0.603424 16.6011 0.649558 16.9407 0.872458 17.1551L3.36112 19.5551C2.77441 19.8383 2.36456 20.3921 2.26509 21.0359C2.16561 21.6798 2.38924 22.3314 2.86312 22.7785L2.86246 22.7758ZM4.72912 21.7978C4.607 21.9253 4.43899 21.9987 4.26246 22.0018C4.08598 22.0026 3.9159 21.9358 3.78712 21.8151C3.60839 21.6516 3.53243 21.404 3.58872 21.1684C3.64501 20.9327 3.82469 20.7462 4.05804 20.6811C4.29139 20.616 4.54168 20.6826 4.71179 20.8551C4.8391 20.9778 4.91244 21.1461 4.91569 21.3229C4.91895 21.4997 4.85183 21.6705 4.72912 21.7978Z"></path><path d="M2 40.0013H38C39.8553 40.0013 40 34.8986 40 33.3346C40 31.7706 39.8553 26.668 38 26.668H2C0.144667 26.668 0 31.7706 0 33.3346C0 34.8986 0.144667 40.0013 2 40.0013ZM2.13333 28.0013H37.8667C38.164 28.4073 38.6667 30.2726 38.6667 33.3346C38.6667 36.3966 38.162 38.262 37.8667 38.668H2.13333C1.838 38.262 1.33333 36.3966 1.33333 33.3346C1.33333 30.2726 1.838 28.4073 2.13333 28.0013Z"></path><path d="M6.66797 37.332C8.87711 37.332 10.668 35.5412 10.668 33.332C10.668 31.1229 8.87711 29.332 6.66797 29.332C4.45883 29.332 2.66797 31.1229 2.66797 33.332C2.67017 35.5403 4.45974 37.3298 6.66797 37.332ZM6.66797 30.6654C8.14073 30.6654 9.33464 31.8593 9.33464 33.332C9.33464 34.8048 8.14073 35.9987 6.66797 35.9987C5.19521 35.9987 4.0013 34.8048 4.0013 33.332C4.0013 31.8593 5.19521 30.6654 6.66797 30.6654Z"></path><path d="M5.9987 33.3333C6.36689 33.3333 6.66536 33.0349 6.66536 32.6667C6.66536 32.2985 6.36689 32 5.9987 32C5.63051 32 5.33203 32.2985 5.33203 32.6667C5.33203 33.0349 5.63051 33.3333 5.9987 33.3333Z"></path><path d="M33.332 37.332C35.5412 37.332 37.332 35.5412 37.332 33.332C37.332 31.1229 35.5412 29.332 33.332 29.332C31.1229 29.332 29.332 31.1229 29.332 33.332C29.3342 35.5403 31.1238 37.3298 33.332 37.332ZM33.332 30.6654C34.8048 30.6654 35.9987 31.8593 35.9987 33.332C35.9987 34.8048 34.8048 35.9987 33.332 35.9987C31.8593 35.9987 30.6654 34.8048 30.6654 33.332C30.6654 31.8593 31.8593 30.6654 33.332 30.6654Z"></path><path d="M32.6667 33.3333C33.0349 33.3333 33.3333 33.0349 33.3333 32.6667C33.3333 32.2985 33.0349 32 32.6667 32C32.2985 32 32 32.2985 32 32.6667C32 33.0349 32.2985 33.3333 32.6667 33.3333Z"></path><path d="M12.6667 32.0013H14C14.3682 32.0013 14.6667 31.7028 14.6667 31.3346C14.6667 30.9664 14.3682 30.668 14 30.668H12.6667C12.2985 30.668 12 30.9664 12 31.3346C12 31.7028 12.2985 32.0013 12.6667 32.0013Z"></path><path d="M16.6667 32.0013H27.3333C27.7015 32.0013 28 31.7028 28 31.3346C28 30.9664 27.7015 30.668 27.3333 30.668H16.6667C16.2985 30.668 16 30.9664 16 31.3346C16 31.7028 16.2985 32.0013 16.6667 32.0013Z"></path><path d="M17.3333 37.332H22.6667C23.403 37.332 24 36.7351 24 35.9987V34.6654C24 33.929 23.403 33.332 22.6667 33.332H17.3333C16.597 33.332 16 33.929 16 34.6654V35.9987C16 36.7351 16.597 37.332 17.3333 37.332ZM17.3333 34.6654H22.6667V35.9987H17.3333V34.6654Z"></path><path d="M15.3333 0C13.4933 0.00220408 12.0022 1.4933 12 3.33333V22C12.0022 23.84 13.4933 25.3311 15.3333 25.3333H24.6667C26.5067 25.3311 27.9978 23.84 28 22V3.33333C27.9978 1.4933 26.5067 0.00220408 24.6667 0H15.3333ZM23.3333 1.33333L22.5333 2.4C22.4074 2.56787 22.2098 2.66667 22 2.66667H18C17.7902 2.66667 17.5926 2.56787 17.4667 2.4L16.6667 1.33333H23.3333ZM24.6667 24H15.3333C14.2288 24 13.3333 23.1046 13.3333 22V21.9827C13.9069 22.4239 14.6097 22.6642 15.3333 22.6667H24.6667C25.3903 22.6642 26.0931 22.4239 26.6667 21.9827V22C26.6667 23.1046 25.7712 24 24.6667 24ZM26.6667 3.33333V19.3333C26.6667 20.4379 25.7712 21.3333 24.6667 21.3333H15.3333C14.2288 21.3333 13.3333 20.4379 13.3333 19.3333V3.33333C13.3369 2.35116 14.053 1.5169 15.0233 1.36467L16.4 3.2C16.7787 3.70246 17.3708 3.99854 18 4H22C22.6293 3.99896 23.2216 3.70279 23.6 3.2L24.9773 1.36467C25.9474 1.51719 26.6632 2.35138 26.6667 3.33333Z"></path><path d="M14.3434 11.0073C14.0907 11.2689 14.0944 11.6847 14.3515 11.9419C14.6087 12.199 15.0245 12.2027 15.2861 11.95C17.8912 9.35062 22.1089 9.35062 24.7141 11.95C24.9756 12.2027 25.3914 12.199 25.6486 11.9419C25.9058 11.6847 25.9094 11.2689 25.6567 11.0073C22.5306 7.88818 17.4695 7.88818 14.3434 11.0073Z"></path><path d="M16.227 12.8915C16.0537 13.0589 15.9842 13.3067 16.0452 13.5398C16.1062 13.7729 16.2882 13.9549 16.5213 14.0159C16.7544 14.0769 17.0023 14.0074 17.1696 13.8341C18.733 12.2747 21.2636 12.2747 22.827 13.8341C22.9944 14.0074 23.2422 14.0769 23.4753 14.0159C23.7084 13.9549 23.8904 13.7729 23.9514 13.5398C24.0125 13.3067 23.943 13.0589 23.7696 12.8915C21.6853 10.8122 18.3113 10.8122 16.227 12.8915Z"></path><path d="M18.1137 14.7777C17.9404 14.9451 17.8709 15.193 17.9319 15.4261C17.9929 15.6591 18.1749 15.8412 18.408 15.9022C18.6411 15.9632 18.889 15.8937 19.0564 15.7204C19.5841 15.2172 20.414 15.2172 20.9417 15.7204C21.1091 15.8937 21.357 15.9632 21.59 15.9022C21.8231 15.8412 22.0052 15.6591 22.0662 15.4261C22.1272 15.193 22.0577 14.9451 21.8844 14.7777C20.8287 13.772 19.1694 13.772 18.1137 14.7777Z"></path></g><defs><clipPath id="clip0_2639_98"><rect width="40" height="40"></rect></clipPath></defs></svg>