<svg xmlns="http://www.w3.org/2000/svg" width="40" height="40" viewBox="0 0 40 40" fill="none"><path d="M36.6667 4H8C6.15996 4.0022 4.66887 5.4933 4.66667 7.33333V20H3.33333C1.4933 20.0022 0.00220408 21.4933 0 23.3333V32.6667C0.00220408 34.5067 1.4933 35.9978 3.33333 36H22C23.84 35.9978 25.3311 34.5067 25.3333 32.6667V29.3333H36.6667C38.5067 29.3311 39.9978 27.84 40 26V7.33333C39.9978 5.4933 38.5067 4.0022 36.6667 4ZM1.33333 24.6667L2.4 25.4667C2.5673 25.5931 2.66594 25.7903 2.66667 26V30C2.66604 30.2097 2.56738 30.407 2.4 30.5333L1.33333 31.3333V24.6667ZM1.36467 32.976L3.2 31.6C3.70238 31.2213 3.99844 30.6291 4 30V26C3.99823 25.3709 3.70221 24.7789 3.2 24.4L1.36467 23.024C1.5166 22.0534 2.35095 21.3369 3.33333 21.3333H19.3333C20.4379 21.3333 21.3333 22.2288 21.3333 23.3333V32.6667C21.3333 33.7712 20.4379 34.6667 19.3333 34.6667H3.33333C2.35095 34.6631 1.5166 33.9466 1.36467 32.976ZM24 32.6667C24 33.7712 23.1046 34.6667 22 34.6667H21.9827C22.4239 34.0931 22.6642 33.3903 22.6667 32.6667V23.3333C22.6642 22.6097 22.4239 21.9069 21.9827 21.3333H22C23.1046 21.3333 24 22.2288 24 23.3333V32.6667ZM36.6667 28H25.3333V26H32.6667C33.0349 26 33.3333 25.7015 33.3333 25.3333C33.3333 24.9651 33.0349 24.6667 32.6667 24.6667H25.3333V23.3333C25.3311 21.4933 23.84 20.0022 22 20H6V7.33333C6 6.22876 6.89543 5.33333 8 5.33333H36.6667C37.7712 5.33333 38.6667 6.22876 38.6667 7.33333V24.6667H35.3333C34.9651 24.6667 34.6667 24.9651 34.6667 25.3333C34.6667 25.7015 34.9651 26 35.3333 26H38.6667C38.6667 27.1046 37.7712 28 36.6667 28Z"></path><path d="M22.6667 12C22.2985 12 22 12.2985 22 12.6667C22 13.0349 22.2985 13.3333 22.6667 13.3333C27.819 13.3388 31.9945 17.5143 32 22.6667C32 23.0349 32.2985 23.3333 32.6667 23.3333C33.0349 23.3333 33.3333 23.0349 33.3333 22.6667C33.3264 16.7785 28.5548 12.007 22.6667 12Z"></path><path d="M22.6667 14.668C22.2985 14.668 22 14.9664 22 15.3346C22 15.7028 22.2985 16.0013 22.6667 16.0013C26.3469 16.0053 29.3293 18.9877 29.3333 22.668C29.3333 23.0362 29.6318 23.3346 30 23.3346C30.3682 23.3346 30.6667 23.0362 30.6667 22.668C30.6619 18.2517 27.083 14.6727 22.6667 14.668Z"></path><path d="M22.6667 17.332C22.2985 17.332 22 17.6305 22 17.9987C22 18.3669 22.2985 18.6654 22.6667 18.6654C24.8749 18.6676 26.6645 20.4571 26.6667 22.6654C26.6667 23.0336 26.9651 23.332 27.3333 23.332C27.7015 23.332 28 23.0336 28 22.6654C27.9967 19.7212 25.6108 17.3353 22.6667 17.332Z"></path><path d="M12.6654 22.668C9.71985 22.668 7.33203 25.0558 7.33203 28.0013C7.33203 30.9468 9.71985 33.3346 12.6654 33.3346C15.6109 33.3346 17.9987 30.9468 17.9987 28.0013C17.9954 25.0572 15.6095 22.6713 12.6654 22.668ZM12.6654 32.0013C10.4562 32.0013 8.66536 30.2104 8.66536 28.0013C8.66536 25.7922 10.4562 24.0013 12.6654 24.0013C14.8745 24.0013 16.6654 25.7922 16.6654 28.0013C16.6632 30.2095 14.8736 31.9991 12.6654 32.0013Z"></path><path d="M14.842 27.1049L12.242 25.4869C11.9262 25.2902 11.5285 25.2802 11.2033 25.4609C10.8714 25.648 10.6667 25.9999 10.668 26.3809V29.6155C10.6671 29.9969 10.8727 30.3489 11.2053 30.5355C11.5306 30.7159 11.9281 30.706 12.244 30.5095L14.844 28.8915C15.1505 28.6979 15.3363 28.3607 15.3363 27.9982C15.3363 27.6357 15.1505 27.2985 14.844 27.1049H14.842ZM12.0013 29.0895V26.9069L13.7546 27.9982L12.0013 29.0895Z"></path></svg>