<svg xmlns="http://www.w3.org/2000/svg" width="40" height="40" viewBox="0 0 40 40" fill="none"><g clip-path="url(#clip0_2639_152)"><path d="M36.6667 0H12.6667C10.8266 0.00220408 9.33554 1.4933 9.33333 3.33333V14.6667H3.33333C1.4933 14.6689 0.00220408 16.16 0 18V36.6667C0.00220408 38.5067 1.4933 39.9978 3.33333 40H12.6667C14.5067 39.9978 15.9978 38.5067 16 36.6667V24H20.6667V25.428C19.4929 25.7311 18.6712 26.7877 18.6667 28V28.6667C18.6667 29.0349 18.9651 29.3333 19.3333 29.3333H30C30.3682 29.3333 30.6667 29.0349 30.6667 28.6667V28C30.6621 26.7877 29.8405 25.7311 28.6667 25.428V24H36.6667C38.5067 23.9978 39.9978 22.5067 40 20.6667V3.33333C39.9978 1.4933 38.5067 0.00220408 36.6667 0ZM11.3333 16L10.5333 17.0667C10.4074 17.2345 10.2098 17.3333 10 17.3333H6C5.79016 17.3333 5.59257 17.2345 5.46667 17.0667L4.66667 16H11.3333ZM1.33333 18C1.33685 17.0178 2.05303 16.1836 3.02333 16.0313L4.4 17.8667C4.77867 18.3691 5.37083 18.6652 6 18.6667H10C10.6293 18.6656 11.2216 18.3695 11.6 17.8667L12.9773 16.0313C13.9474 16.1839 14.6632 17.018 14.6667 18V34C14.6667 35.1046 13.7712 36 12.6667 36H3.33333C2.22876 36 1.33333 35.1046 1.33333 34V18ZM12.6667 38.6667H3.33333C2.22876 38.6667 1.33333 37.7712 1.33333 36.6667V36.6493C1.90693 37.0905 2.60969 37.3309 3.33333 37.3333H12.6667C13.3903 37.3309 14.0931 37.0905 14.6667 36.6493V36.6667C14.6667 37.1971 14.456 37.7058 14.0809 38.0809C13.7058 38.456 13.1971 38.6667 12.6667 38.6667ZM29.3333 28H20C20 27.2636 20.597 26.6667 21.3333 26.6667H28C28.7364 26.6667 29.3333 27.2636 29.3333 28ZM27.3333 25.3333H22V24H27.3333V25.3333ZM38.6667 20.6667C38.6667 21.7712 37.7712 22.6667 36.6667 22.6667H16V18C15.9978 16.16 14.5067 14.6689 12.6667 14.6667H10.6667V3.33333C10.6667 2.22876 11.5621 1.33333 12.6667 1.33333H36.6667C37.7712 1.33333 38.6667 2.22876 38.6667 3.33333V20.6667Z"></path><path d="M13.3346 6.66797C12.9664 6.66797 12.668 6.96645 12.668 7.33464C12.668 7.70283 12.9664 8.0013 13.3346 8.0013C18.487 8.00681 22.6625 12.1823 22.668 17.3346C22.668 17.7028 22.9664 18.0013 23.3346 18.0013C23.7028 18.0013 24.0013 17.7028 24.0013 17.3346C23.9943 11.4465 19.2228 6.67495 13.3346 6.66797Z"></path><path d="M13.3346 9.33203C12.9664 9.33203 12.668 9.63051 12.668 9.9987C12.668 10.3669 12.9664 10.6654 13.3346 10.6654C17.0149 10.6694 19.9973 13.6518 20.0013 17.332C20.0013 17.7002 20.2998 17.9987 20.668 17.9987C21.0362 17.9987 21.3346 17.7002 21.3346 17.332C21.3299 12.9157 17.7509 9.33681 13.3346 9.33203Z"></path><path d="M13.3346 12C12.9664 12 12.668 12.2985 12.668 12.6667C12.668 13.0349 12.9664 13.3333 13.3346 13.3333C15.5429 13.3355 17.3324 15.1251 17.3346 17.3333C17.3346 17.7015 17.6331 18 18.0013 18C18.3695 18 18.668 17.7015 18.668 17.3333C18.6647 14.3892 16.2788 12.0033 13.3346 12Z"></path><path d="M4.66536 32.668H11.332C12.0684 32.668 12.6654 32.071 12.6654 31.3346V25.3346H12.6594C12.6616 25.1586 12.5934 24.9889 12.47 24.8633L8.47003 20.8633C8.34436 20.7401 8.17468 20.6722 7.9987 20.6746V20.668H4.66536C3.92898 20.668 3.33203 21.2649 3.33203 22.0013V31.3346C3.33203 32.071 3.92898 32.668 4.66536 32.668ZM8.66536 22.944L10.3894 24.668H8.66536V22.944ZM4.66536 22.0013H7.33203V24.668C7.33203 25.4043 7.92899 26.0013 8.66536 26.0013H11.332V31.3346H4.66536V22.0013Z"></path></g><defs><clipPath id="clip0_2639_152"><rect width="40" height="40" fill="white"></rect></clipPath></defs></svg>