<svg xmlns="http://www.w3.org/2000/svg" width="40" height="40" viewBox="0 0 40 40" fill="none"><g clip-path="url(#clip0_2639_160)"><path d="M29.8494 8.0878C30.0402 7.89708 30.0973 7.61021 29.9941 7.36097C29.8908 7.11173 29.6476 6.94922 29.3779 6.94922C29.1081 6.94922 28.8649 7.11173 28.7617 7.36097C28.6585 7.61021 28.7156 7.89708 28.9064 8.0878C29.1668 8.34816 29.589 8.34816 29.8494 8.0878Z"></path><path d="M9.0994 28.8339C9.29018 28.6432 9.34728 28.3563 9.24406 28.1071C9.14084 27.8578 8.89765 27.6953 8.62788 27.6953C8.35812 27.6953 8.11492 27.8578 8.0117 28.1071C7.90849 28.3563 7.96559 28.6432 8.15637 28.8339C8.4168 29.0943 8.83896 29.0943 9.0994 28.8339Z"></path><path d="M32.3595 10.8263C32.4549 10.4705 32.2438 10.1048 31.888 10.0094C31.5323 9.91398 31.1665 10.1251 31.0712 10.4808C30.9758 10.8366 31.1868 11.2023 31.5426 11.2977C31.8984 11.3931 32.2641 11.182 32.3595 10.8263Z"></path><path d="M6.94544 25.502C7.04082 25.1463 6.82974 24.7805 6.47397 24.6851C6.11821 24.5898 5.75247 24.8008 5.65709 25.1566C5.5617 25.5124 5.77278 25.8781 6.12855 25.9735C6.48432 26.0689 6.85005 25.8578 6.94544 25.502Z"></path><path d="M33.3477 14.8347C33.7034 14.7393 33.9145 14.3735 33.8191 14.0178C33.7237 13.662 33.358 13.451 33.0022 13.5463C32.6465 13.6417 32.4354 14.0074 32.5307 14.3632C32.5765 14.534 32.6883 14.6797 32.8415 14.7682C32.9947 14.8566 33.1768 14.8805 33.3477 14.8347Z"></path><path d="M4.65836 21.1439C4.30263 21.2393 4.09159 21.605 4.18699 21.9608C4.28238 22.3165 4.64809 22.5276 5.00384 22.4322C5.35959 22.3368 5.57069 21.9711 5.47535 21.6154C5.42955 21.4445 5.31775 21.2988 5.16453 21.2104C5.01131 21.122 4.82923 21.098 4.65836 21.1439Z"></path><path d="M33.6747 18.6581C34.0431 18.6581 34.3417 18.3595 34.3417 17.9911C34.3417 17.6228 34.0431 17.3242 33.6747 17.3242C33.3064 17.3242 33.0078 17.6228 33.0078 17.9911C33.0078 18.3595 33.3064 18.6581 33.6747 18.6581Z"></path><path d="M4.33099 18.6581C4.69932 18.6581 4.99791 18.3595 4.99791 17.9911C4.99791 17.6228 4.69932 17.3242 4.33099 17.3242C3.96266 17.3242 3.66406 17.6228 3.66406 17.9911C3.66406 18.3595 3.96266 18.6581 4.33099 18.6581Z"></path><path d="M33.0027 22.4325C33.3585 22.5275 33.724 22.3162 33.819 21.9604C33.9141 21.6046 33.7029 21.2391 33.3472 21.1439C32.9914 21.0487 32.6259 21.2599 32.5305 21.6156C32.4847 21.7865 32.5088 21.9687 32.5973 22.1219C32.6859 22.2751 32.8317 22.3869 33.0027 22.4325Z"></path><path d="M5.00317 13.5462C4.64738 13.4512 4.28194 13.6625 4.18685 14.0183C4.09175 14.3741 4.303 14.7396 4.65873 14.8348C5.01446 14.93 5.38003 14.7189 5.47535 14.3632C5.52116 14.1922 5.49714 14.01 5.40857 13.8568C5.32001 13.7036 5.17417 13.5918 5.00317 13.5462Z"></path><path d="M31.8919 25.9672C32.2477 25.8718 32.4588 25.5061 32.3634 25.1503C32.268 24.7945 31.9023 24.5835 31.5465 24.6788C31.1908 24.7742 30.9797 25.14 31.0751 25.4957C31.1704 25.8515 31.5362 26.0626 31.8919 25.9672Z"></path><path d="M6.47007 11.2953C6.82584 11.1999 7.03692 10.8342 6.94153 10.4784C6.84614 10.1227 6.48041 9.91159 6.12464 10.007C5.76887 10.1024 5.5578 10.4681 5.65318 10.8239C5.74857 11.1796 6.1143 11.3907 6.47007 11.2953Z"></path><path d="M28.9064 27.8945C28.7156 28.0852 28.6585 28.3721 28.7617 28.6213C28.8649 28.8706 29.1081 29.0331 29.3779 29.0331C29.6476 29.0331 29.8908 28.8706 29.9941 28.6213C30.0973 28.3721 30.0402 28.0852 29.8494 27.8945C29.589 27.6341 29.1668 27.6341 28.9064 27.8945Z"></path><path d="M9.0994 8.0878C9.29018 7.89708 9.34728 7.61021 9.24406 7.36097C9.14084 7.11173 8.89765 6.94922 8.62788 6.94922C8.35812 6.94922 8.11492 7.11173 8.0117 7.36097C7.90849 7.61021 7.96559 7.89708 8.15637 8.0878C8.4168 8.34816 8.83896 8.34816 9.0994 8.0878Z"></path><path d="M19.0038 35.9964C20.8198 35.998 22.6255 35.7239 24.3592 35.1835C24.3472 35.3835 24.3345 35.5783 24.3392 35.7624C24.337 36.8549 24.7395 37.9095 25.469 38.7228C26.1142 39.3585 26.9429 39.7754 27.8379 39.9146C29.0495 40.1281 30.2977 39.9386 31.3913 39.3751C32.7364 38.6093 33.7959 37.4267 34.4098 36.0058C35.6039 36.3858 36.9009 35.8771 37.5183 34.7866L38.1799 33.6289C38.4208 33.2177 38.4174 32.7077 38.1712 32.2997L38.9242 30.9812C39.0964 30.6625 38.9828 30.2647 38.6684 30.085C38.3539 29.9053 37.9535 30.0095 37.7664 30.3196L37.1048 31.478L35.9437 30.8158L36.6106 29.6607C36.7828 29.342 36.6693 28.9442 36.3548 28.7645C36.0403 28.5848 35.6399 28.6889 35.4529 28.9991L34.6992 30.3176C34.2226 30.3112 33.781 30.5675 33.5501 30.9845L32.8885 32.1423C32.3117 33.16 32.4667 34.435 33.2707 35.2848C32.7909 36.5081 31.9123 37.5336 30.777 38.1953C29.9437 38.6204 28.995 38.7636 28.0733 38.6035C27.4547 38.5105 26.8799 38.2289 26.4274 37.7971C25.9303 37.2226 25.6619 36.4853 25.6731 35.7257C25.6707 35.3753 25.6973 35.0253 25.7524 34.6793C34.3444 31.1979 38.8862 21.7593 36.2454 12.8728C33.6046 3.9864 24.6453 -1.44011 15.5465 0.335782C6.44766 2.11167 0.186473 10.5089 1.08106 19.7361C1.97564 28.9634 9.73328 36.0015 19.0038 35.9964ZM34.043 32.8012L34.7046 31.6434L37.0215 32.9673L36.3592 34.1251C36.1227 34.5388 35.6835 34.795 35.2069 34.797C34.7303 34.7991 34.2889 34.5468 34.0488 34.1351C33.8087 33.7234 33.8065 33.215 34.043 32.8012ZM19.0038 1.31632C28.2121 1.31632 35.6769 8.78114 35.6769 17.9895C35.6769 27.1978 28.2121 34.6626 19.0038 34.6626C9.79548 34.6626 2.33067 27.1978 2.33067 17.9895C2.34096 8.78541 9.79975 1.32662 19.0038 1.31632Z"></path><path d="M9.36348 16.7385C9.73871 17.1138 10.2477 17.3247 10.7784 17.3247C11.3091 17.3247 11.818 17.1138 12.1932 16.7385L16.1341 12.7997C16.6361 13.5407 17.2126 14.2283 17.8548 14.8518C18.1916 15.1718 18.6445 15.3405 19.1086 15.3186C19.6335 15.3019 20.1496 15.1791 20.6258 14.9578C21.7949 14.4128 22.8537 13.6575 23.7497 12.7296C24.6777 11.8335 25.433 10.7744 25.9779 9.60509C26.6735 7.98179 26.21 7.17281 25.8719 6.83468C24.6861 5.61872 23.1125 4.85553 21.4235 4.67718C19.8525 4.49081 18.2814 5.02359 17.1478 6.12707L9.36348 13.9088C8.98819 14.284 8.77734 14.7929 8.77734 15.3236C8.77734 15.8543 8.98819 16.3633 9.36348 16.7385ZM24.7494 9.08022C24.2691 10.0926 23.6098 11.0099 22.8034 11.7879C22.0255 12.5937 21.1087 13.2524 20.097 13.7327C19.3367 14.0588 18.9032 14.0161 18.7945 13.9094C18.6858 13.8027 18.6464 13.3672 18.9719 12.6076C19.4523 11.5958 20.1113 10.679 20.9173 9.9012C21.695 9.09533 22.6118 8.43651 23.6237 7.95645C23.9372 7.80673 24.2771 7.71994 24.6241 7.70102C24.7317 7.68964 24.8399 7.71734 24.9288 7.77905C25.0329 7.88575 25.0709 8.31992 24.7494 9.08022ZM21.3001 6.00569C22.0236 6.07694 22.726 6.28948 23.3676 6.63127C23.2782 6.66461 23.1948 6.68862 23.1008 6.72931C21.9315 7.27417 20.8723 8.02947 19.9763 8.9575C19.0486 9.85349 18.2935 10.9124 17.7487 12.0814C17.678 12.2468 17.6267 12.3982 17.578 12.5482C16.1975 10.7522 16.0321 9.1309 18.0902 7.0721C18.9445 6.25059 20.124 5.85871 21.3001 6.00569ZM10.3065 14.8518L15.2044 9.95456C15.1966 10.5013 15.2931 11.0445 15.4885 11.5552L11.2502 15.7942C11.0816 15.9627 10.8359 16.0286 10.6057 15.9669C10.3754 15.9052 10.1955 15.7253 10.1338 15.495C10.0721 15.2647 10.1379 15.019 10.3065 14.8505V14.8518Z"></path><path d="M22.404 17.739C19.6823 18.4673 17.1647 20.0892 17.6168 21.7812C17.8352 22.6491 18.1416 23.4925 18.5312 24.2982L13.1531 25.7374C12.4621 25.9221 11.9221 26.4613 11.7366 27.1521C11.551 27.8428 11.748 28.5801 12.2534 29.0862C12.7588 29.5922 13.4959 29.7902 14.1868 29.6056L24.817 26.7611C26.3397 26.3317 27.5872 25.238 28.2123 23.7846C28.9029 22.2329 29.0292 20.4884 28.5691 18.8534C28.1142 17.1594 25.1224 17.01 22.404 17.739ZM13.8394 28.3144C13.4836 28.4094 13.1181 28.198 13.0231 27.8422C12.9766 27.672 13.0006 27.4903 13.0897 27.338C13.1776 27.1846 13.3227 27.0724 13.4932 27.0259L19.2828 25.4766C19.6278 25.9028 20.0508 26.2593 20.5293 26.527L13.8394 28.3144ZM26.9991 23.2218C26.5382 24.3136 25.6096 25.1395 24.4715 25.47C21.6591 26.2216 20.3366 25.2699 19.4742 23.1744C19.6269 23.2071 19.7837 23.2378 19.9617 23.2591C20.2533 23.2933 20.5466 23.31 20.8401 23.3091C21.8343 23.2972 22.8228 23.1574 23.7812 22.893C25.1251 22.5616 26.3875 21.96 27.4913 21.125C27.4655 21.8493 27.2983 22.5616 26.9991 23.2218ZM27.2786 19.1955C27.3813 19.581 26.1982 20.8628 23.4351 21.6045C22.3586 21.9144 21.2351 22.0273 20.1185 21.9379C19.2982 21.8392 18.942 21.5858 18.9027 21.4391C18.8 21.0536 19.9831 19.7718 22.7455 19.0301C25.5079 18.2885 27.1752 18.8101 27.2786 19.1955Z"></path></g><defs><clipPath id="clip0_2639_160"><rect width="40" height="40" fill="white"></rect></clipPath></defs></svg>