<svg xmlns="http://www.w3.org/2000/svg" width="26" height="20" viewBox="0 0 26 20" fill="none"><g clip-path="url(#clip0_2628_120)"><path d="M23.8162 6.3874C22.6702 5.29907 21.1119 5.09943 20.3045 5.07153C19.8118 3.70843 18.0755 0.00122631 13.7803 0.00122631C12.3831 -0.0227554 11.0027 0.305351 9.76904 0.954657C8.5354 1.60396 7.48914 2.55311 6.72875 3.71272C3.48619 3.43151 1.83018 4.63576 1.00544 5.72195C-0.129674 7.22458 -0.320666 9.43345 0.519273 11.3611C1.25286 13.0419 2.62672 14.1517 4.19374 14.3299C4.94254 14.4276 5.69593 14.4871 6.45093 14.508C6.63206 14.5264 6.81501 14.5021 6.98485 14.4372C7.14751 14.3841 7.28246 14.2697 7.36046 14.1189C7.43845 13.9681 7.45321 13.7929 7.40153 13.6314C7.34986 13.4699 7.2359 13.335 7.08437 13.256C6.93285 13.177 6.75595 13.1602 6.59201 13.2093C6.50954 13.2093 6.03856 13.2308 4.35 13.0398C3.25178 12.9174 2.27077 12.0953 1.72384 10.8438C1.07272 9.34115 1.19642 7.62385 2.0559 6.48614C2.9935 5.24969 4.70594 4.74524 7.00655 5.02645C7.13794 5.0407 7.2706 5.01506 7.38691 4.95295C7.50321 4.89083 7.59765 4.79518 7.65766 4.6787C7.72929 4.54131 9.47211 1.28061 13.7803 1.28061C17.9887 1.28061 19.152 5.68117 19.2063 5.86578C19.243 6.01515 19.3326 6.14659 19.4588 6.23635C19.585 6.32611 19.7394 6.36827 19.8943 6.3552C19.9117 6.3552 21.763 6.20924 22.9328 7.3083C23.61 7.95229 23.9269 8.92041 23.8705 10.1934C23.8314 11.082 23.5232 11.7539 22.9263 12.2455C21.3767 13.5335 18.4488 13.1428 18.4076 13.1385C18.2382 13.1178 18.0673 13.1637 17.9317 13.2663C17.7962 13.369 17.7068 13.5202 17.6829 13.6874C17.659 13.8546 17.7024 14.0244 17.8039 14.1603C17.9053 14.2961 18.0567 14.3871 18.2253 14.4136C18.3685 14.4329 21.7565 14.8837 23.7576 13.2372C24.641 12.5117 25.1163 11.5049 25.1727 10.2492C25.2269 8.59841 24.7777 7.29542 23.8162 6.3874Z"></path><path d="M15.2313 15.5403L13.3387 17.4121V8.52085C13.3387 8.32159 13.2587 8.13048 13.1162 7.98958C12.9738 7.84869 12.7806 7.76953 12.5791 7.76953C12.3776 7.76953 12.1844 7.84869 12.0419 7.98958C11.8995 8.13048 11.8195 8.32159 11.8195 8.52085V17.4336L10.0332 15.6669C9.96196 15.5973 9.87754 15.5422 9.78477 15.5049C9.692 15.4675 9.59269 15.4486 9.49253 15.4492C9.39236 15.4498 9.2933 15.4699 9.20099 15.5084C9.10868 15.5468 9.02494 15.6029 8.95454 15.6734C8.88414 15.7438 8.82846 15.8273 8.79069 15.9191C8.75292 16.0108 8.73378 16.1091 8.73439 16.2081C8.73499 16.3072 8.75532 16.4052 8.79421 16.4965C8.8331 16.5878 8.88979 16.6706 8.96104 16.7402L12.043 19.7884C12.1225 19.868 12.219 19.9289 12.3255 19.9666C12.432 20.0043 12.5457 20.0179 12.6582 20.0064C12.7707 19.9949 12.8791 19.9585 12.9755 19.8999C13.0719 19.8414 13.1537 19.7622 13.215 19.6682L16.2969 16.62C16.4394 16.4777 16.5189 16.2852 16.5179 16.0849C16.5169 15.8847 16.4354 15.693 16.2915 15.5521C16.1476 15.4112 15.953 15.3326 15.7505 15.3336C15.548 15.3346 15.3542 15.4151 15.2118 15.5574L15.2313 15.5403Z"></path></g><defs><clipPath id="clip0_2628_120"><rect width="25.1613" height="20" fill="white"></rect></clipPath></defs></svg>