<svg xmlns="http://www.w3.org/2000/svg" width="45" height="45" viewBox="0 0 45 45" fill="none"><g id="Page-1"><g id="015---Wifi"><path id="Shape" d="M42 27H37.5V21.75C37.4984 21.2165 37.2126 20.7243 36.75 20.4585V11.25C36.75 10.0074 35.7426 9 34.5 9C33.2574 9 32.25 10.0074 32.25 11.25V20.4585C31.7874 20.7243 31.5016 21.2165 31.5 21.75V27H13.5V21.75C13.4984 21.2165 13.2126 20.7243 12.75 20.4585V11.25C12.75 10.0074 11.7426 9 10.5 9C9.25736 9 8.25 10.0074 8.25 11.25V20.4585C7.78744 20.7243 7.50161 21.2165 7.5 21.75V27H3C1.34315 27 0 28.3431 0 30V39C0 40.6569 1.34315 42 3 42H3.75V42.75C3.75 43.9926 4.75736 45 6 45H10.5C11.7426 45 12.75 43.9926 12.75 42.75V42H32.25V42.75C32.25 43.9926 33.2574 45 34.5 45H39C40.2426 45 41.25 43.9926 41.25 42.75V42H42C43.6568 42 45 40.6569 45 39V30C45 28.3431 43.6568 27 42 27ZM33.75 11.25C33.75 10.8358 34.0858 10.5 34.5 10.5C34.9142 10.5 35.25 10.8358 35.25 11.25V20.25H33.75V11.25ZM33 21.75H36V27H33V21.75ZM9.75 11.25C9.75 10.8358 10.0858 10.5 10.5 10.5C10.9142 10.5 11.25 10.8358 11.25 11.25V20.25H9.75V11.25ZM9 21.75H12V27H9V21.75ZM11.25 42.75C11.25 43.1642 10.9142 43.5 10.5 43.5H6C5.58579 43.5 5.25 43.1642 5.25 42.75V42H11.25V42.75ZM39.75 42.75C39.75 43.1642 39.4142 43.5 39 43.5H34.5C34.0858 43.5 33.75 43.1642 33.75 42.75V42H39.75V42.75ZM43.5 39C43.5 39.8284 42.8284 40.5 42 40.5H3C2.17157 40.5 1.5 39.8284 1.5 39V30C1.5 29.1716 2.17157 28.5 3 28.5H42C42.8284 28.5 43.5 29.1716 43.5 30V39Z"></path><path id="Shape_2" d="M16.5 37.5H15C14.5858 37.5 14.25 37.8358 14.25 38.25C14.25 38.6642 14.5858 39 15 39H16.5C16.9142 39 17.25 38.6642 17.25 38.25C17.25 37.8358 16.9142 37.5 16.5 37.5Z"></path><path id="Shape_3" d="M21 37.5H19.5C19.0858 37.5 18.75 37.8358 18.75 38.25C18.75 38.6642 19.0858 39 19.5 39H21C21.4142 39 21.75 38.6642 21.75 38.25C21.75 37.8358 21.4142 37.5 21 37.5Z"></path><path id="Shape_4" d="M25.5 37.5H24C23.5858 37.5 23.25 37.8358 23.25 38.25C23.25 38.6642 23.5858 39 24 39H25.5C25.9142 39 26.25 38.6642 26.25 38.25C26.25 37.8358 25.9142 37.5 25.5 37.5Z"></path><path id="Shape_5" d="M30 37.5H28.5C28.0858 37.5 27.75 37.8358 27.75 38.25C27.75 38.6642 28.0858 39 28.5 39H30C30.4142 39 30.75 38.6642 30.75 38.25C30.75 37.8358 30.4142 37.5 30 37.5Z"></path><path id="Shape_6" d="M7.5 30C6.25736 30 5.25 31.0074 5.25 32.25C5.25 33.4926 6.25736 34.5 7.5 34.5C8.74264 34.5 9.75 33.4926 9.75 32.25C9.75 31.0074 8.74264 30 7.5 30ZM7.5 33C7.08579 33 6.75 32.6642 6.75 32.25C6.75 31.8358 7.08579 31.5 7.5 31.5C7.91421 31.5 8.25 31.8358 8.25 32.25C8.25 32.6642 7.91421 33 7.5 33Z"></path><path id="Shape_7" d="M15.75 32.25C15.75 31.0074 14.7426 30 13.5 30C12.2574 30 11.25 31.0074 11.25 32.25C11.25 33.4926 12.2574 34.5 13.5 34.5C14.7426 34.5 15.75 33.4926 15.75 32.25ZM13.5 33C13.0858 33 12.75 32.6642 12.75 32.25C12.75 31.8358 13.0858 31.5 13.5 31.5C13.9142 31.5 14.25 31.8358 14.25 32.25C14.25 32.6642 13.9142 33 13.5 33Z"></path><path id="Shape_8" d="M19.5 30C18.2574 30 17.25 31.0074 17.25 32.25C17.25 33.4926 18.2574 34.5 19.5 34.5C20.7426 34.5 21.75 33.4926 21.75 32.25C21.75 31.0074 20.7426 30 19.5 30ZM19.5 33C19.0858 33 18.75 32.6642 18.75 32.25C18.75 31.8358 19.0858 31.5 19.5 31.5C19.9142 31.5 20.25 31.8358 20.25 32.25C20.25 32.6642 19.9142 33 19.5 33Z"></path><path id="Shape_9" d="M25.5 30C24.2574 30 23.25 31.0074 23.25 32.25C23.25 33.4926 24.2574 34.5 25.5 34.5C26.7426 34.5 27.75 33.4926 27.75 32.25C27.75 31.0074 26.7426 30 25.5 30ZM25.5 33C25.0858 33 24.75 32.6642 24.75 32.25C24.75 31.8358 25.0858 31.5 25.5 31.5C25.9142 31.5 26.25 31.8358 26.25 32.25C26.25 32.6642 25.9142 33 25.5 33Z"></path><path id="Shape_10" d="M31.5 30C30.2574 30 29.25 31.0074 29.25 32.25C29.25 33.4926 30.2574 34.5 31.5 34.5C32.7426 34.5 33.75 33.4926 33.75 32.25C33.75 31.0074 32.7426 30 31.5 30ZM31.5 33C31.0858 33 30.75 32.6642 30.75 32.25C30.75 31.8358 31.0858 31.5 31.5 31.5C31.9142 31.5 32.25 31.8358 32.25 32.25C32.25 32.6642 31.9142 33 31.5 33Z"></path><path id="Shape_11" d="M37.5 30C36.2574 30 35.25 31.0074 35.25 32.25C35.25 33.4926 36.2574 34.5 37.5 34.5C38.7426 34.5 39.75 33.4926 39.75 32.25C39.75 31.0074 38.7426 30 37.5 30ZM37.5 33C37.0858 33 36.75 32.6642 36.75 32.25C36.75 31.8358 37.0858 31.5 37.5 31.5C37.9142 31.5 38.25 31.8358 38.25 32.25C38.25 32.6642 37.9142 33 37.5 33Z"></path><path id="Shape_12" d="M33 0C28.0317 0.00537364 24.0054 4.03166 24 9C24 9.41421 24.3358 9.75 24.75 9.75C25.1642 9.75 25.5 9.41421 25.5 9C25.5045 4.85975 28.8597 1.50455 33 1.5C33.4142 1.5 33.75 1.16421 33.75 0.75C33.75 0.335786 33.4142 0 33 0Z"></path><path id="Shape_13" d="M33 3C29.6878 3.00372 27.0037 5.68783 27 9C27 9.41421 27.3358 9.75 27.75 9.75C28.1642 9.75 28.5 9.41421 28.5 9C28.5025 6.51575 30.5157 4.50248 33 4.5C33.4142 4.5 33.75 4.16421 33.75 3.75C33.75 3.33579 33.4142 3 33 3Z"></path><path id="Shape_14" d="M33 6C31.3431 6 30 7.34315 30 9C30 9.41421 30.3358 9.75 30.75 9.75C31.1642 9.75 31.5 9.41421 31.5 9C31.5 8.17157 32.1716 7.5 33 7.5C33.4142 7.5 33.75 7.16421 33.75 6.75C33.75 6.33579 33.4142 6 33 6Z"></path><path id="Shape_15" d="M36 0C35.5858 0 35.25 0.335786 35.25 0.75C35.25 1.16421 35.5858 1.5 36 1.5C40.1403 1.50455 43.4955 4.85975 43.5 9C43.5 9.41421 43.8358 9.75 44.25 9.75C44.6642 9.75 45 9.41421 45 9C44.9946 4.03166 40.9683 0.00537364 36 0Z"></path><path id="Shape_16" d="M36 4.5C38.4843 4.50248 40.4975 6.51575 40.5 9C40.5 9.41421 40.8358 9.75 41.25 9.75C41.6642 9.75 42 9.41421 42 9C41.9963 5.68783 39.3122 3.00372 36 3C35.5858 3 35.25 3.33579 35.25 3.75C35.25 4.16421 35.5858 4.5 36 4.5Z"></path><path id="Shape_17" d="M36 7.5C36.8284 7.5 37.5 8.17157 37.5 9C37.5 9.41421 37.8358 9.75 38.25 9.75C38.6642 9.75 39 9.41421 39 9C39 7.34315 37.6569 6 36 6C35.5858 6 35.25 6.33579 35.25 6.75C35.25 7.16421 35.5858 7.5 36 7.5Z"></path><path id="Shape_18" d="M9 0C4.03166 0.00537364 0.00537364 4.03166 0 9C0 9.41421 0.335786 9.75 0.75 9.75C1.16421 9.75 1.5 9.41421 1.5 9C1.50455 4.85975 4.85975 1.50455 9 1.5C9.41421 1.5 9.75 1.16421 9.75 0.75C9.75 0.335786 9.41421 0 9 0Z"></path><path id="Shape_19" d="M9 3C5.68783 3.00372 3.00372 5.68783 3 9C3 9.41421 3.33579 9.75 3.75 9.75C4.16421 9.75 4.5 9.41421 4.5 9C4.50248 6.51575 6.51575 4.50248 9 4.5C9.41421 4.5 9.75 4.16421 9.75 3.75C9.75 3.33579 9.41421 3 9 3Z"></path><path id="Shape_20" d="M9 6C7.34315 6 6 7.34315 6 9C6 9.41421 6.33579 9.75 6.75 9.75C7.16421 9.75 7.5 9.41421 7.5 9C7.5 8.17157 8.17157 7.5 9 7.5C9.41421 7.5 9.75 7.16421 9.75 6.75C9.75 6.33579 9.41421 6 9 6Z"></path><path id="Shape_21" d="M12 1.5C16.1403 1.50455 19.4955 4.85975 19.5 9C19.5 9.41421 19.8358 9.75 20.25 9.75C20.6642 9.75 21 9.41421 21 9C20.9946 4.03166 16.9683 0.00537364 12 0C11.5858 0 11.25 0.335786 11.25 0.75C11.25 1.16421 11.5858 1.5 12 1.5Z"></path><path id="Shape_22" d="M12 4.5C14.4843 4.50248 16.4975 6.51575 16.5 9C16.5 9.41421 16.8358 9.75 17.25 9.75C17.6642 9.75 18 9.41421 18 9C17.9963 5.68783 15.3122 3.00372 12 3C11.5858 3 11.25 3.33579 11.25 3.75C11.25 4.16421 11.5858 4.5 12 4.5Z"></path><path id="Shape_23" d="M12 7.5C12.8284 7.5 13.5 8.17157 13.5 9C13.5 9.41421 13.8358 9.75 14.25 9.75C14.6642 9.75 15 9.41421 15 9C15 7.34315 13.6569 6 12 6C11.5858 6 11.25 6.33579 11.25 6.75C11.25 7.16421 11.5858 7.5 12 7.5Z"></path></g></g></svg>