<svg xmlns="http://www.w3.org/2000/svg" width="45" height="45" viewBox="0 0 45 45" fill="none"><g id="005-wireless router" clip-path="url(#clip0_2787_1899)"><g id="Page-1"><g id="005---Modem"><path id="Shape" d="M10.5 37.5H8.99998C8.17156 37.5 7.5 38.1716 7.5 39V40.5C7.5 41.3284 8.17156 41.9999 8.99998 41.9999H10.5C11.3284 41.9999 11.9999 41.3284 11.9999 40.5V39C11.9999 38.1716 11.3284 37.5 10.5 37.5ZM8.99998 40.5V39H10.5V40.5H8.99998Z"></path><path id="Shape_2" d="M16.5 37.5H15C14.1716 37.5 13.5 38.1716 13.5 39V40.5C13.5 41.3284 14.1716 41.9999 15 41.9999H16.5C17.3284 41.9999 17.9999 41.3284 17.9999 40.5V39C17.9999 38.1716 17.3284 37.5 16.5 37.5ZM15 40.5V39H16.5V40.5H15Z"></path><path id="Shape_3" d="M22.5 37.5H21C20.1716 37.5 19.5 38.1716 19.5 39V40.5C19.5 41.3284 20.1716 41.9999 21 41.9999H22.5C23.3284 41.9999 23.9999 41.3284 23.9999 40.5V39C23.9999 38.1716 23.3284 37.5 22.5 37.5ZM21 40.5V39H22.5V40.5H21Z"></path><path id="Shape_4" d="M28.5 37.5H27C26.1716 37.5 25.5 38.1716 25.5 39V40.5C25.5 41.3284 26.1716 41.9999 27 41.9999H28.5C29.3284 41.9999 29.9999 41.3284 29.9999 40.5V39C29.9999 38.1716 29.3284 37.5 28.5 37.5ZM27 40.5V39H28.5V40.5H27Z"></path><path id="Shape_5" d="M16.5 22.5H20.9999C21.4141 22.5 21.7499 22.1642 21.7499 21.75C21.7499 21.3358 21.4141 21 20.9999 21H16.5C16.0858 21 15.75 21.3358 15.75 21.75C15.75 22.1642 16.0858 22.5 16.5 22.5Z"></path><path id="Shape_6" d="M20.25 24C20.25 23.5858 19.9142 23.25 19.5 23.25H18C17.5858 23.25 17.25 23.5858 17.25 24C17.25 24.4142 17.5858 24.75 18 24.75H19.5C19.9142 24.75 20.25 24.4142 20.25 24Z"></path><path id="Shape_7" d="M42.04 7.3385e-05H41.959C40.7341 -0.00973045 39.7273 0.963988 39.6963 2.18855L39.1623 21.7498H37.4995C37.4971 19.6798 35.8196 18.0023 33.7496 17.9999H3.74995C1.67994 18.0023 0.00247956 19.6798 0 21.7498V41.2496C0.00247956 43.3196 1.67994 44.997 3.74995 44.9995H33.7496C35.8196 44.997 37.4971 43.3196 37.4995 41.2496V27.7497H38.9995C38.9995 28.1482 39.1581 28.5303 39.4402 28.8117C39.7223 29.0931 40.1048 29.2507 40.5033 29.2497H43.4897C43.8963 29.2525 44.2867 29.0901 44.5713 28.7997C44.8559 28.5093 45.0104 28.1157 44.9995 27.7092L44.3027 2.1893C44.2721 0.964444 43.2652 -0.00972242 42.04 7.3385e-05ZM35.9996 41.2496C35.9996 42.4922 34.9922 43.4995 33.7496 43.4995H3.74995C2.50733 43.4995 1.49998 42.4922 1.49998 41.2496V21.7498C1.49998 20.5072 2.50733 19.4998 3.74995 19.4998H33.7496C34.9922 19.4998 35.9996 20.5072 35.9996 21.7498V41.2496ZM37.4995 23.2498H39.121L39.0393 26.2498H37.4995V23.2498ZM40.4995 27.7497L41.1962 2.2298C41.2073 1.81851 41.5476 1.49291 41.959 1.50005H42.04C42.4514 1.49291 42.7917 1.81851 42.8027 2.2298L43.4927 27.7497H40.4995Z"></path><path id="Shape_8" d="M8.08813 9.12693C10.6456 5.89121 14.5431 4.00377 18.6675 4.00377C22.7919 4.00377 26.6894 5.89121 29.2469 9.12693C29.5071 9.44082 29.9705 9.48926 30.2901 9.23598C30.6096 8.98269 30.6683 8.52051 30.4221 8.19544C27.5801 4.60068 23.2496 2.50391 18.6671 2.50391C14.0847 2.50391 9.75409 4.60068 6.91214 8.19544C6.65492 8.52018 6.70965 8.99195 7.03439 9.24917C7.35913 9.5064 7.8309 9.45167 8.08813 9.12693Z"></path><path id="Shape_9" d="M25.7264 11.9199C25.8926 12.1313 26.1592 12.2376 26.4252 12.1985C26.6912 12.1594 26.9159 11.9809 27.0142 11.7306C27.1125 11.4803 27.0692 11.1966 26.9009 10.9869C24.9093 8.47338 21.8782 7.00781 18.6713 7.00781C15.4643 7.00781 12.4332 8.47338 10.4416 10.9869C10.1866 11.3114 10.2416 11.7809 10.5648 12.0376C10.8879 12.2943 11.3577 12.2417 11.6161 11.9199C13.3231 9.76457 15.9218 8.50776 18.6713 8.50776C21.4207 8.50776 24.0194 9.76457 25.7264 11.9199Z"></path><path id="Shape_10" d="M18.6683 11.504C16.833 11.4968 15.0976 12.3394 13.9682 13.7862C13.7126 14.1128 13.7702 14.5847 14.0968 14.8403C14.4234 15.0959 14.8953 15.0383 15.1509 14.7117C16.0006 13.6334 17.2977 13.0041 18.6706 13.0041C20.0435 13.0041 21.3406 13.6334 22.1903 14.7117C22.3556 14.9225 22.6209 15.0292 22.8862 14.9915C23.1515 14.9537 23.3765 14.7773 23.4764 14.5287C23.5764 14.2801 23.5361 13.9971 23.3708 13.7862C22.2409 12.3388 20.5045 11.4961 18.6683 11.504Z"></path></g></g></g><defs><clipPath id="clip0_2787_1899"><rect width="45" height="45"></rect></clipPath></defs></svg>