<svg xmlns="http://www.w3.org/2000/svg" width="65" height="65" viewBox="0 0 65 65" fill="none"><g id="013-wireless charging" clip-path="url(#clip0_2787_1949)"><g id="Page-1"><g id="013---Wireless-Power"><path id="Shape" d="M43.2045 26.5707C43.0158 26.2184 42.6486 25.9985 42.249 25.9987H35.1456L37.8474 18.7956C37.9721 18.4628 37.9257 18.09 37.7232 17.798C37.5206 17.5059 37.1877 17.3318 36.8323 17.332H29.249C28.7825 17.3319 28.3683 17.6304 28.2209 18.073L23.8876 31.073C23.7775 31.4034 23.833 31.7666 24.0367 32.049C24.2404 32.3315 24.5674 32.4988 24.9156 32.4987H32.1458L28.2079 46.2841C28.0616 46.7971 28.3105 47.3402 28.7946 47.5643C29.2787 47.7884 29.8538 47.6267 30.1503 47.1833L43.1503 27.6833C43.3722 27.3508 43.3931 26.9232 43.2045 26.5707ZM32.1967 40.2066L34.6234 31.7133C34.7169 31.3865 34.6515 31.0347 34.4469 30.7633C34.2423 30.4919 33.9222 30.3322 33.5823 30.332H26.4182L30.0301 19.4987H35.269L32.5672 26.7018C32.4425 27.0346 32.4889 27.4074 32.6914 27.6994C32.894 27.9915 33.2269 28.1656 33.5823 28.1654H40.2242L32.1967 40.2066Z"></path><path id="Shape_2" d="M32.5013 8.66797C19.3385 8.66797 8.66797 19.3385 8.66797 32.5013C8.66797 45.6641 19.3385 56.3346 32.5013 56.3346C45.6641 56.3346 56.3346 45.6641 56.3346 32.5013C56.3197 19.3447 45.6579 8.68289 32.5013 8.66797ZM32.5013 54.168C20.5351 54.168 10.8346 44.4675 10.8346 32.5013C10.8346 20.5351 20.5351 10.8346 32.5013 10.8346C44.4675 10.8346 54.168 20.5351 54.168 32.5013C54.1542 44.4618 44.4618 54.1542 32.5013 54.168Z"></path><path id="Shape_3" d="M19.7167 19.2216C19.2775 18.8154 18.5922 18.8421 18.1859 19.2812C14.8493 22.8736 12.9964 27.596 13 32.4989C13 33.0973 13.485 33.5823 14.0833 33.5823C14.6816 33.5823 15.1667 33.0973 15.1667 32.4989C15.1624 28.1424 16.8073 23.9457 19.7708 20.7524C20.1784 20.3146 20.1542 19.6294 19.7167 19.2216Z"></path><path id="Shape_4" d="M50.9175 31.418C50.3191 31.418 49.8341 31.903 49.8341 32.5013C49.8201 38.0201 47.1862 43.2043 42.7372 46.4698C42.2661 46.8272 42.1687 47.4963 42.5182 47.9732C42.8677 48.4501 43.535 48.5587 44.0177 48.2172C49.0229 44.5431 51.9858 38.7103 52.0008 32.5013C52.0008 31.903 51.5158 31.418 50.9175 31.418Z"></path><path id="Shape_5" d="M20.6611 23.0271C18.51 25.7157 17.3362 29.0554 17.332 32.4987C17.332 33.097 17.8171 33.582 18.4154 33.582C19.0137 33.582 19.4987 33.097 19.4987 32.4987C19.5021 29.5479 20.5083 26.686 22.3522 24.3823C22.7264 23.9153 22.6513 23.2334 22.1843 22.8592C21.7173 22.4849 21.0354 22.5601 20.6611 23.0271Z"></path><path id="Shape_6" d="M47.6647 32.5013C47.6647 31.903 47.1797 31.418 46.5814 31.418C45.9831 31.418 45.4981 31.903 45.4981 32.5013C45.4881 36.6407 43.5137 40.5296 40.1778 42.9804C39.695 43.334 39.5902 44.012 39.9438 44.4949C40.2974 44.9777 40.9755 45.0825 41.4583 44.7289C45.3501 41.8687 47.6532 37.331 47.6647 32.5013Z"></path><path id="Oval" d="M32.5013 6.4987C33.0996 6.4987 33.5846 6.01367 33.5846 5.41536C33.5846 4.81706 33.0996 4.33203 32.5013 4.33203C31.903 4.33203 31.418 4.81706 31.418 5.41536C31.418 6.01367 31.903 6.4987 32.5013 6.4987Z"></path><path id="Oval_2" d="M32.5013 2.16667C33.0996 2.16667 33.5846 1.68164 33.5846 1.08333C33.5846 0.485025 33.0996 0 32.5013 0C31.903 0 31.418 0.485025 31.418 1.08333C31.418 1.68164 31.903 2.16667 32.5013 2.16667Z"></path><path id="Oval_3" d="M32.5013 64.9987C33.0996 64.9987 33.5846 64.5137 33.5846 63.9154C33.5846 63.3171 33.0996 62.832 32.5013 62.832C31.903 62.832 31.418 63.3171 31.418 63.9154C31.418 64.5137 31.903 64.9987 32.5013 64.9987Z"></path><path id="Oval_4" d="M32.5013 60.6667C33.0996 60.6667 33.5846 60.1816 33.5846 59.5833C33.5846 58.985 33.0996 58.5 32.5013 58.5C31.903 58.5 31.418 58.985 31.418 59.5833C31.418 60.1816 31.903 60.6667 32.5013 60.6667Z"></path><path id="Shape_7" d="M36.1377 5.64125C36.0338 6.23039 36.4271 6.79225 37.0162 6.89626C37.6054 7.00028 38.1673 6.60708 38.2714 6.01797C38.3755 5.42887 37.9824 4.86688 37.3933 4.76266C37.1103 4.71259 36.819 4.77704 36.5835 4.94182C36.348 5.1066 36.1877 5.3582 36.1377 5.64125Z"></path><path id="Shape_8" d="M39.0215 1.74826C39.1254 1.15912 38.7321 0.597263 38.143 0.493245C37.5538 0.389227 36.9919 0.782427 36.8878 1.37154C36.7837 1.96064 37.1768 2.52263 37.7659 2.62685C38.0489 2.67691 38.3402 2.61247 38.5757 2.44769C38.8112 2.28291 38.9715 2.03131 39.0215 1.74826Z"></path><path id="Shape_9" d="M25.9776 63.2506C25.8737 63.8398 26.267 64.4016 26.8561 64.5056C27.4452 64.6097 28.0071 64.2165 28.1113 63.6273C28.2154 63.0382 27.8223 62.4763 27.2332 62.372C26.9502 62.322 26.6588 62.3864 26.4234 62.5512C26.1879 62.716 26.0275 62.9676 25.9776 63.2506Z"></path><path id="Shape_10" d="M28.8652 59.3615C28.9691 58.7724 28.5758 58.2105 27.9867 58.1065C27.3976 58.0025 26.8357 58.3957 26.7316 58.9848C26.6274 59.5739 27.0205 60.1359 27.6096 60.2401C27.8927 60.2902 28.184 60.2257 28.4195 60.061C28.6549 59.8962 28.8153 59.6446 28.8652 59.3615Z"></path><path id="Shape_11" d="M40.7445 6.67998C40.5412 7.24244 40.8322 7.86321 41.3945 8.06681C41.9569 8.2704 42.5778 7.97979 42.7817 7.41757C42.9856 6.85535 42.6954 6.23424 42.1333 6.02998C41.863 5.93174 41.5646 5.94506 41.3041 6.06699C41.0436 6.18892 40.8422 6.40946 40.7445 6.67998Z"></path><path id="Oval_5" d="M43.2474 4.0612C43.8457 4.0612 44.3307 3.57617 44.3307 2.97786C44.3307 2.37956 43.8457 1.89453 43.2474 1.89453C42.6491 1.89453 42.1641 2.37956 42.1641 2.97786C42.1641 3.57617 42.6491 4.0612 43.2474 4.0612Z"></path><path id="Shape_12" d="M22.1237 61.0023C21.5612 60.799 20.9405 61.09 20.7369 61.6523C20.5333 62.2147 20.8239 62.8356 21.3861 63.0395C21.9483 63.2435 22.5694 62.9532 22.7737 62.3911C22.8719 62.1208 22.8586 61.8224 22.7367 61.5619C22.6148 61.3014 22.3942 61.1 22.1237 61.0023Z"></path><path id="Shape_13" d="M24.2548 58.319C24.4581 57.7566 24.1671 57.1358 23.6048 56.9322C23.0424 56.7286 22.4215 57.0192 22.2176 57.5814C22.0136 58.1436 22.3039 58.7648 22.866 58.969C23.1363 59.0672 23.4347 59.0539 23.6952 58.932C23.9557 58.8101 24.1571 58.5895 24.2548 58.319Z"></path><path id="Oval_6" d="M46.3262 10.0817C46.9041 9.92679 47.247 9.3327 47.0921 8.75481C46.9371 8.17691 46.343 7.83404 45.7651 7.98898C45.1872 8.14392 44.8444 8.73801 44.9993 9.31591C45.1542 9.8938 45.7483 10.2367 46.3262 10.0817Z"></path><path id="Shape_14" d="M48.7501 4.35219C48.3706 4.13309 47.8965 4.16415 47.5489 4.43089C47.2013 4.69762 47.0486 5.1475 47.162 5.57074C47.2754 5.99399 47.6326 6.30724 48.067 6.36443C48.5014 6.42163 48.9275 6.2115 49.1466 5.83203C49.4457 5.31389 49.2682 4.65136 48.7501 4.35219Z"></path><path id="Oval_7" d="M17.084 60.7575C17.6619 60.6026 18.0048 60.0085 17.8499 59.4306C17.6949 58.8527 17.1008 58.5098 16.5229 58.6648C15.945 58.8197 15.6022 59.4138 15.7571 59.9917C15.9121 60.5696 16.5061 60.9125 17.084 60.7575Z"></path><path id="Oval_8" d="M19.2481 57.0036C19.826 56.8487 20.1689 56.2546 20.0139 55.6767C19.859 55.0988 19.2649 54.7559 18.687 54.9109C18.1091 55.0658 17.7662 55.6599 17.9212 56.2378C18.0761 56.8157 18.6702 57.1586 19.2481 57.0036Z"></path><path id="Shape_15" d="M49.2111 12.5811C49.6694 12.9658 50.3527 12.9061 50.7373 12.4478C51.122 11.9896 51.0623 11.3063 50.6041 10.9216C50.1459 10.5369 49.4626 10.5965 49.0779 11.0547C48.8931 11.2748 48.8033 11.5593 48.8283 11.8455C48.8533 12.1318 48.991 12.3964 49.2111 12.5811Z"></path><path id="Shape_16" d="M51.8629 7.73847C51.4783 8.19675 51.538 8.88003 51.9963 9.26467C52.4545 9.64931 53.1378 9.58966 53.5225 9.13144C53.9071 8.67322 53.8475 7.98992 53.3893 7.60522C53.1693 7.42045 52.8848 7.33068 52.5985 7.35567C52.3123 7.38066 52.0476 7.51836 51.8629 7.73847Z"></path><path id="Shape_17" d="M13.1358 57.2642C13.5204 56.8059 13.4607 56.1226 13.0025 55.738C12.5443 55.3533 11.861 55.413 11.4763 55.8712C11.0916 56.3294 11.1512 57.0127 11.6094 57.3974C11.8295 57.5822 12.114 57.672 12.4002 57.647C12.6865 57.622 12.9511 57.4843 13.1358 57.2642Z"></path><path id="Shape_18" d="M15.7876 52.4176C15.3293 52.033 14.646 52.0927 14.2614 52.5509C13.8768 53.0092 13.9364 53.6925 14.3946 54.0771C14.8529 54.4618 15.5361 54.4022 15.9208 53.944C16.1056 53.7239 16.1954 53.4395 16.1704 53.1532C16.1454 52.8669 16.0077 52.6023 15.7876 52.4176Z"></path><path id="Shape_19" d="M52.5514 14.261C52.0929 14.6454 52.0329 15.3286 52.4172 15.7871C52.8016 16.2456 53.4848 16.3057 53.9433 15.9214C54.4018 15.5371 54.462 14.8539 54.0778 14.3954C53.8932 14.1751 53.6287 14.0372 53.3424 14.012C53.0561 13.9868 52.7716 14.0764 52.5514 14.261Z"></path><path id="Shape_20" d="M55.8718 11.4758C55.5359 11.7574 55.4028 12.2136 55.5345 12.6316C55.6662 13.0496 56.0369 13.3471 56.4735 13.3852C56.9101 13.4234 57.3267 13.1947 57.5289 12.8058C57.7311 12.417 57.6791 11.9446 57.3971 11.6091C57.0125 11.1514 56.3299 11.0918 55.8718 11.4758Z"></path><path id="Shape_21" d="M9.13087 53.5229C9.46675 53.2414 9.59988 52.7852 9.46816 52.3671C9.33643 51.9491 8.96581 51.6516 8.52919 51.6135C8.09256 51.5754 7.67597 51.8041 7.47376 52.1929C7.27155 52.5818 7.32357 53.0541 7.60554 53.3897C7.99013 53.8473 8.67275 53.907 9.13087 53.5229Z"></path><path id="Shape_22" d="M12.4513 50.7377C12.9097 50.3533 12.9698 49.6701 12.5854 49.2116C12.2011 48.7531 11.5179 48.693 11.0594 49.0773C10.6008 49.4616 10.5406 50.1448 10.9249 50.6034C11.1095 50.8236 11.374 50.9615 11.6603 50.9867C11.9465 51.0119 12.2311 50.9223 12.4513 50.7377Z"></path><path id="Oval_9" d="M57.0139 19.2374C57.1689 18.6595 56.826 18.0654 56.2481 17.9105C55.6702 17.7555 55.0761 18.0984 54.9212 18.6763C54.7662 19.2542 55.1091 19.8483 55.687 20.0032C56.2649 20.1581 56.859 19.8153 57.0139 19.2374Z"></path><path id="Shape_23" d="M60.6466 16.2487C60.4275 15.8693 60.0014 15.6591 59.567 15.7163C59.1326 15.7735 58.7754 16.0868 58.662 16.51C58.5486 16.9333 58.7013 17.3831 59.0489 17.6499C59.3965 17.9166 59.8706 17.9477 60.2501 17.7286C60.7682 17.4294 60.9457 16.7669 60.6466 16.2487Z"></path><path id="Shape_24" d="M4.35235 48.75C4.57143 49.1295 4.99753 49.3396 5.43195 49.2824C5.86637 49.2252 6.22357 48.912 6.33697 48.4887C6.45037 48.0655 6.29765 47.6156 5.95002 47.3489C5.60238 47.0821 5.12831 47.0511 4.74885 47.2702C4.23072 47.5693 4.05321 48.2319 4.35235 48.75Z"></path><path id="Oval_10" d="M10.096 46.3311C10.2509 45.7532 9.90803 45.1591 9.33013 45.0042C8.75224 44.8493 8.15815 45.1921 8.00321 45.77C7.84826 46.3479 8.19113 46.942 8.76903 47.097C9.34693 47.2519 9.94101 46.909 10.096 46.3311Z"></path><path id="Shape_25" d="M57.5808 22.2175C57.0187 22.4217 56.7285 23.0428 56.9324 23.6051C57.1363 24.1673 57.7573 24.4579 58.3196 24.2543C58.8819 24.0507 59.1729 23.4299 58.9697 22.8675C58.8719 22.597 58.6706 22.3764 58.41 22.2545C58.1495 22.1326 57.8512 22.1192 57.5808 22.2175Z"></path><path id="Shape_26" d="M62.3911 22.7737C62.9532 22.5694 63.2435 21.9483 63.0395 21.3861C62.8356 20.8239 62.2147 20.5333 61.6523 20.7369C61.09 20.9405 60.799 21.5612 61.0023 22.1237C61.1 22.3942 61.3014 22.6148 61.5619 22.7367C61.8224 22.8586 62.1208 22.8719 62.3911 22.7737Z"></path><path id="Shape_27" d="M3.34815 44.262C3.91025 44.0577 4.20049 43.4366 3.99657 42.8744C3.79265 42.3122 3.17171 42.0216 2.60937 42.2252C2.04703 42.4287 1.75605 43.0495 1.95931 43.612C2.05708 43.8825 2.25842 44.103 2.51894 44.225C2.77947 44.3469 3.0778 44.3602 3.34815 44.262Z"></path><path id="Shape_28" d="M7.42237 42.7815C7.98447 42.5773 8.27471 41.9561 8.07079 41.3939C7.86687 40.8317 7.24592 40.5411 6.68359 40.7447C6.12125 40.9483 5.83027 41.5691 6.03353 42.1315C6.1313 42.402 6.33264 42.6226 6.59316 42.7445C6.85369 42.8664 7.15201 42.8798 7.42237 42.7815Z"></path><path id="Shape_29" d="M58.9856 26.7314C58.554 26.8073 58.2106 27.1358 58.1156 27.5636C58.0207 27.9914 58.1928 28.4343 58.5518 28.6857C58.9107 28.9371 59.3858 28.9475 59.7554 28.712C60.125 28.4765 60.3163 28.0415 60.2401 27.61C60.1361 27.0211 59.5745 26.6278 58.9856 26.7314Z"></path><path id="Shape_30" d="M64.5058 26.8567C64.4298 26.425 64.1014 26.0817 63.6736 25.9867C63.2457 25.8918 62.8028 26.0639 62.5514 26.4229C62.3001 26.7818 62.2897 27.2569 62.5252 27.6265C62.7607 27.996 63.1956 28.1874 63.6272 28.1112C64.2161 28.0072 64.6094 27.4456 64.5058 26.8567Z"></path><path id="Shape_31" d="M2.62685 37.7659C2.52263 37.1768 1.96064 36.7837 1.37154 36.8878C0.782427 36.9919 0.389227 37.5538 0.493245 38.143C0.597263 38.7321 1.15912 39.1254 1.74826 39.0215C2.03131 38.9715 2.28291 38.8112 2.44769 38.5757C2.61247 38.3402 2.67691 38.0489 2.62685 37.7659Z"></path><path id="Shape_32" d="M6.01714 38.2714C6.44875 38.1955 6.7921 37.867 6.88707 37.4392C6.98203 37.0114 6.80988 36.5685 6.45093 36.3171C6.09197 36.0657 5.61692 36.0553 5.24733 36.2908C4.87775 36.5263 4.68644 36.9612 4.76264 37.3928C4.86663 37.9817 5.42815 38.375 6.01714 38.2714Z"></path><path id="Oval_11" d="M59.5833 33.5846C60.1816 33.5846 60.6667 33.0996 60.6667 32.5013C60.6667 31.903 60.1816 31.418 59.5833 31.418C58.985 31.418 58.5 31.903 58.5 32.5013C58.5 33.0996 58.985 33.5846 59.5833 33.5846Z"></path><path id="Oval_12" d="M63.9154 33.5846C64.5137 33.5846 64.9987 33.0996 64.9987 32.5013C64.9987 31.903 64.5137 31.418 63.9154 31.418C63.3171 31.418 62.832 31.903 62.832 32.5013C62.832 33.0996 63.3171 33.5846 63.9154 33.5846Z"></path><path id="Oval_13" d="M1.08333 33.5846C1.68164 33.5846 2.16667 33.0996 2.16667 32.5013C2.16667 31.903 1.68164 31.418 1.08333 31.418C0.485025 31.418 0 31.903 0 32.5013C0 33.0996 0.485025 33.5846 1.08333 33.5846Z"></path><path id="Oval_14" d="M5.41536 33.5846C6.01367 33.5846 6.4987 33.0996 6.4987 32.5013C6.4987 31.903 6.01367 31.418 5.41536 31.418C4.81706 31.418 4.33203 31.903 4.33203 32.5013C4.33203 33.0996 4.81706 33.5846 5.41536 33.5846Z"></path><path id="Shape_33" d="M58.1063 37.0173C58.003 37.6064 58.3967 38.1678 58.9858 38.2714C59.5748 38.375 60.1364 37.9815 60.2402 37.3925C60.3441 36.8035 59.9509 36.2417 59.3619 36.1376C59.0787 36.0876 58.7873 36.1522 58.5517 36.3172C58.3162 36.4822 58.156 36.7341 58.1063 37.0173Z"></path><path id="Shape_34" d="M64.506 38.1419C64.6094 37.5527 64.2156 36.9911 63.6264 36.8876C63.0371 36.7841 62.4755 37.1779 62.372 37.7672C62.2685 38.3564 62.6622 38.9181 63.2515 39.0216C63.5345 39.0713 63.8257 39.0066 64.061 38.8416C64.2962 38.6766 64.4563 38.4249 64.506 38.1419Z"></path><path id="Shape_35" d="M1.37171 28.1112C1.80326 28.1874 2.23822 27.996 2.47371 27.6265C2.7092 27.2569 2.69883 26.7818 2.44743 26.4229C2.19604 26.0639 1.75315 25.8918 1.32533 25.9867C0.897508 26.0817 0.569038 26.425 0.493122 26.8567C0.389523 27.4456 0.782785 28.0072 1.37171 28.1112Z"></path><path id="Shape_36" d="M6.01693 26.7313C5.42765 26.6279 4.86608 27.0217 4.7626 27.611C4.65912 28.2003 5.05291 28.7618 5.64218 28.8654C6.23144 28.9689 6.79305 28.5751 6.89659 27.9858C6.94632 27.7028 6.88158 27.4117 6.7166 27.1764C6.55163 26.9411 6.29995 26.781 6.01693 26.7313Z"></path><path id="Shape_37" d="M58.9697 42.1354C59.1729 41.573 58.8819 40.9522 58.3196 40.7486C57.7573 40.545 57.1363 40.8356 56.9324 41.3978C56.7285 41.96 57.0187 42.5812 57.5808 42.7854C57.8512 42.8837 58.1495 42.8703 58.41 42.7484C58.6706 42.6265 58.8719 42.4059 58.9697 42.1354Z"></path><path id="Shape_38" d="M61.6523 44.2625C62.2149 44.466 62.8359 44.175 63.0395 43.6125C63.2431 43.05 62.9522 42.4289 62.3897 42.2252C61.8272 42.0215 61.2061 42.3123 61.0023 42.8748C60.9044 43.145 60.9179 43.443 61.0398 43.7033C61.1617 43.9636 61.382 44.1647 61.6523 44.2625Z"></path><path id="Shape_39" d="M2.60576 22.7743C3.16822 22.9776 3.78899 22.6866 3.99259 22.1243C4.19618 21.562 3.90557 20.941 3.34335 20.7371C2.78113 20.5332 2.16002 20.8234 1.95576 21.3855C1.85752 21.6559 1.87084 21.9542 1.99277 22.2147C2.1147 22.4752 2.33524 22.6766 2.60576 22.7743Z"></path><path id="Shape_40" d="M6.03353 22.8675C5.83027 23.4299 6.12125 24.0507 6.68359 24.2543C7.24592 24.4579 7.86687 24.1673 8.07079 23.6051C8.27471 23.0428 7.98447 22.4217 7.42237 22.2175C7.15201 22.1192 6.85369 22.1326 6.59316 22.2545C6.33264 22.3764 6.1313 22.597 6.03353 22.8675Z"></path><path id="Oval_15" d="M56.2481 47.0817C56.826 46.9268 57.1689 46.3327 57.0139 45.7548C56.859 45.1769 56.2649 44.834 55.687 44.989C55.1091 45.1439 54.7662 45.738 54.9212 46.3159C55.0761 46.8938 55.6702 47.2367 56.2481 47.0817Z"></path><path id="Shape_41" d="M59.1668 49.1465C59.5463 49.3656 60.0204 49.3346 60.368 49.0678C60.7156 48.8011 60.8683 48.3512 60.7549 47.928C60.6415 47.5047 60.2843 47.1915 59.8499 47.1343C59.4155 47.0771 58.9894 47.2872 58.7703 47.6667C58.4712 48.1848 58.6487 48.8474 59.1668 49.1465Z"></path><path id="Shape_42" d="M5.83212 15.8522C5.45266 15.6331 4.97858 15.6642 4.63095 15.9309C4.28331 16.1976 4.13059 16.6475 4.24399 17.0707C4.3574 17.494 4.71459 17.8072 5.14901 17.8644C5.58343 17.9216 6.00953 17.7115 6.22862 17.332C6.52776 16.8139 6.35024 16.1514 5.83212 15.8522Z"></path><path id="Oval_16" d="M9.33013 20.0036C9.90803 19.8487 10.2509 19.2546 10.096 18.6767C9.94101 18.0988 9.34693 17.7559 8.76903 17.9109C8.19113 18.0658 7.84826 18.6599 8.00321 19.2378C8.15815 19.8157 8.75223 20.1586 9.33013 20.0036Z"></path><path id="Shape_43" d="M53.9444 49.0743C53.6088 48.7923 53.1365 48.7403 52.7476 48.9425C52.3587 49.1447 52.13 49.5613 52.1682 49.9979C52.2063 50.4346 52.5038 50.8052 52.9218 50.9369C53.3399 51.0686 53.7961 50.9355 54.0776 50.5996C54.4617 50.1415 54.402 49.4589 53.9444 49.0743Z"></path><path id="Shape_44" d="M57.3971 53.3897C57.6791 53.0541 57.7311 52.5818 57.5289 52.1929C57.3267 51.8041 56.9101 51.5754 56.4735 51.6135C56.0369 51.6516 55.6662 51.9491 55.5345 52.3671C55.4028 52.7852 55.5359 53.2414 55.8718 53.5229C56.3299 53.907 57.0125 53.8473 57.3971 53.3897Z"></path><path id="Shape_45" d="M7.60554 11.6091C7.32357 11.9446 7.27155 12.417 7.47376 12.8058C7.67597 13.1947 8.09256 13.4234 8.52919 13.3852C8.96581 13.3471 9.33643 13.0496 9.46816 12.6316C9.59988 12.2136 9.46675 11.7574 9.13087 11.4758C8.67275 11.0918 7.99013 11.1514 7.60554 11.6091Z"></path><path id="Shape_46" d="M11.0583 15.9245C11.3938 16.2064 11.8662 16.2585 12.255 16.0562C12.6439 15.854 12.8726 15.4374 12.8345 15.0008C12.7963 14.5642 12.4988 14.1936 12.0808 14.0619C11.6628 13.9301 11.2066 14.0633 10.925 14.3991C10.541 14.8573 10.6006 15.5399 11.0583 15.9245Z"></path><path id="Shape_47" d="M50.6035 54.0776C50.9394 53.7961 51.0725 53.3399 50.9408 52.9218C50.8091 52.5038 50.4385 52.2063 50.0018 52.1682C49.5652 52.13 49.1486 52.3587 48.9464 52.7476C48.7442 53.1365 48.7962 53.6088 49.0782 53.9444C49.4628 54.402 50.1454 54.4617 50.6035 54.0776Z"></path><path id="Shape_48" d="M52.0006 55.7376C51.5421 56.122 51.4821 56.8052 51.8664 57.2637C52.2508 57.7222 52.934 57.7823 53.3925 57.398C53.851 57.0137 53.9112 56.3305 53.527 55.8719C53.3424 55.6517 53.0779 55.5137 52.7916 55.4885C52.5053 55.4634 52.2208 55.5529 52.0006 55.7376Z"></path><path id="Shape_49" d="M12.9982 9.26505C13.4566 8.88065 13.5167 8.19742 13.1323 7.73895C12.748 7.28048 12.0647 7.22035 11.6062 7.60464C11.1477 7.98894 11.0875 8.67216 11.4718 9.13071C11.6563 9.35098 11.9209 9.48889 12.2071 9.51408C12.4934 9.53928 12.778 9.44969 12.9982 9.26505Z"></path><path id="Shape_50" d="M14.3952 10.925C14.0594 11.2066 13.9262 11.6628 14.0579 12.0808C14.1897 12.4988 14.5603 12.7963 14.9969 12.8345C15.4335 12.8726 15.8501 12.6439 16.0523 12.255C16.2545 11.8662 16.2025 11.3938 15.9206 11.0583C15.536 10.6006 14.8534 10.541 14.3952 10.925Z"></path><path id="Oval_17" d="M47.0999 56.2413C47.2548 55.6634 46.9119 55.0693 46.334 54.9144C45.7561 54.7594 45.1621 55.1023 45.0071 55.6802C44.8522 56.2581 45.195 56.8522 45.7729 57.0071C46.3508 57.1621 46.9449 56.8192 47.0999 56.2413Z"></path><path id="Oval_18" d="M49.2678 59.9952C49.4228 59.4173 49.0799 58.8232 48.502 58.6683C47.9241 58.5133 47.33 58.8562 47.1751 59.4341C47.0201 60.012 47.363 60.6061 47.9409 60.761C48.5188 60.916 49.1129 60.5731 49.2678 59.9952Z"></path><path id="Shape_51" d="M17.332 6.22862C17.7115 6.00953 17.9216 5.58343 17.8644 5.14901C17.8072 4.71459 17.494 4.3574 17.0707 4.24399C16.6475 4.13059 16.1976 4.28331 15.9309 4.63095C15.6642 4.97858 15.6331 5.45266 15.8522 5.83212C16.1514 6.35024 16.8139 6.52776 17.332 6.22862Z"></path><path id="Oval_19" d="M20.01 9.32722C20.165 8.74933 19.8221 8.15524 19.2442 8.0003C18.6663 7.84535 18.0722 8.18823 17.9173 8.76612C17.7623 9.34402 18.1052 9.93811 18.6831 10.0931C19.261 10.248 19.8551 9.90512 20.01 9.32722Z"></path><path id="Shape_52" d="M42.7815 57.5808C42.5773 57.0187 41.9561 56.7285 41.3939 56.9324C40.8317 57.1363 40.5411 57.7573 40.7447 58.3196C40.9483 58.8819 41.5691 59.1729 42.1315 58.9697C42.402 58.8719 42.6226 58.6706 42.7445 58.41C42.8664 58.1495 42.8798 57.8512 42.7815 57.5808Z"></path><path id="Shape_53" d="M43.6177 63.0393C44.1798 62.8351 44.47 62.214 44.2661 61.6517C44.0622 61.0895 43.4412 60.7989 42.8789 61.0025C42.3166 61.2061 42.0256 61.8269 42.2288 62.3893C42.3266 62.6598 42.5279 62.8804 42.7885 63.0023C43.049 63.1242 43.3473 63.1376 43.6177 63.0393Z"></path><path id="Oval_20" d="M21.7552 4.0612C22.3535 4.0612 22.8385 3.57617 22.8385 2.97786C22.8385 2.37956 22.3535 1.89453 21.7552 1.89453C21.1569 1.89453 20.6719 2.37956 20.6719 2.97786C20.6719 3.57617 21.1569 4.0612 21.7552 4.0612Z"></path><path id="Shape_54" d="M22.2175 7.42237C22.4217 7.98447 23.0428 8.27471 23.6051 8.07079C24.1673 7.86687 24.4579 7.24592 24.2543 6.68359C24.0507 6.12125 23.4299 5.83027 22.8675 6.03353C22.597 6.1313 22.3764 6.33264 22.2545 6.59316C22.1326 6.85369 22.1192 7.15201 22.2175 7.42237Z"></path><path id="Shape_55" d="M38.2714 58.9856C38.1955 58.554 37.867 58.2106 37.4392 58.1156C37.0114 58.0207 36.5685 58.1928 36.3171 58.5518C36.0657 58.9107 36.0553 59.3858 36.2908 59.7554C36.5263 60.125 36.9612 60.3163 37.3928 60.2401C37.9817 60.1361 38.375 59.5745 38.2714 58.9856Z"></path><path id="Shape_56" d="M38.1421 64.5058C38.5737 64.4298 38.9171 64.1014 39.0121 63.6736C39.107 63.2457 38.9349 62.8028 38.5759 62.5514C38.217 62.3001 37.7419 62.2897 37.3723 62.5252C37.0027 62.7607 36.8114 63.1956 36.8876 63.6272C36.9916 64.2161 37.5532 64.6094 38.1421 64.5058Z"></path><path id="Shape_57" d="M26.8567 0.493122C26.425 0.569038 26.0817 0.897508 25.9867 1.32533C25.8918 1.75315 26.0639 2.19604 26.4229 2.44743C26.7818 2.69883 27.2569 2.7092 27.6265 2.47371C27.996 2.23822 28.1874 1.80326 28.1112 1.37171C28.0072 0.782785 27.4456 0.389523 26.8567 0.493122Z"></path><path id="Shape_58" d="M26.7314 6.01714C26.8073 6.44875 27.1358 6.7921 27.5636 6.88707C27.9914 6.98203 28.4343 6.80988 28.6857 6.45093C28.9371 6.09197 28.9475 5.61692 28.712 5.24733C28.4765 4.87775 28.0415 4.68644 27.61 4.76264C27.0211 4.86663 26.6278 5.42815 26.7314 6.01714Z"></path></g></g></g><defs><clipPath id="clip0_2787_1949"><rect width="65" height="65" fill="white"></rect></clipPath></defs></svg>