<svg xmlns="http://www.w3.org/2000/svg" width="65" height="65" viewBox="0 0 65 65" fill="none"><g id="011-radio" clip-path="url(#clip0_2787_1915)"><g id="Page-1"><g id="011---Radio-Mast"><path id="Shape" d="M10.8339 65.0005C11.0242 65.0002 11.211 64.9498 11.3756 64.8543L32.5003 52.5868L53.6251 64.8543C54.0411 65.0963 54.5668 65.0349 54.9158 64.7034C55.2648 64.372 55.3533 63.8501 55.133 63.4221L36.5335 27.1656C40.0619 25.3104 41.8697 21.2877 40.9143 17.4175C39.9589 13.5474 36.4866 10.8281 32.5003 10.8281C28.514 10.8281 25.0418 13.5474 24.0863 17.4175C23.1309 21.2877 24.9387 25.3104 28.4671 27.1656L19.8157 44.0318L9.86974 63.4221C9.69715 63.7581 9.71196 64.1596 9.90883 64.4819C10.1057 64.8042 10.4562 65.0007 10.8339 65.0005ZM34.6561 51.3345L43.7777 46.037L51.518 61.1277L34.6561 51.3345ZM41.3315 43.3341H23.6734L32.5003 36.1344L41.3315 43.3341ZM34.2141 34.7369L36.8715 32.5703L40.6891 40.0138L34.2141 34.7369ZM24.3104 40.0159L28.1291 32.5714L30.7865 34.738L24.3104 40.0159ZM40.3858 45.5008L32.5003 50.0811L24.6137 45.5008H40.3858ZM26.0004 19.5011C26.0004 15.9113 28.9105 13.0012 32.5003 13.0012C36.0901 13.0012 39.0002 15.9113 39.0002 19.5011C39.0002 23.0909 36.0901 26.001 32.5003 26.001C28.912 25.9974 26.004 23.0894 26.0004 19.5011ZM32.5003 28.1677C33.1703 28.165 33.8378 28.0847 34.4893 27.9282L35.8586 30.6008L32.5003 33.3394L29.142 30.6008L30.5135 27.9282C31.1643 28.0846 31.831 28.1649 32.5003 28.1677ZM21.2219 46.0359L30.3434 51.3334L13.4826 61.1277L21.2219 46.0359Z"></path><path id="Oval" d="M30.3333 18.4166C30.9316 18.4166 31.4166 17.9316 31.4166 17.3333C31.4166 16.735 30.9316 16.25 30.3333 16.25C29.735 16.25 29.25 16.735 29.25 17.3333C29.25 17.9316 29.735 18.4166 30.3333 18.4166Z"></path><path id="Shape_2" d="M12.066 0.332629C1.75405 11.0303 1.75405 27.9693 12.066 38.667C12.4806 39.0984 13.1664 39.112 13.5978 38.6973C14.0292 38.2827 14.0428 37.5969 13.6281 37.1655C4.12236 27.3065 4.12236 11.6931 13.6281 1.83411C14.0428 1.40274 14.0292 0.716919 13.5978 0.302296C13.1664 -0.112326 12.4806 -0.0987458 12.066 0.332629Z"></path><path id="Shape_3" d="M52.9309 0.332654C52.6627 0.0536028 52.2659 -0.0611604 51.8902 0.0315943C51.5144 0.124349 51.2167 0.41053 51.1091 0.782335C51.0015 1.15414 51.1005 1.55508 51.3687 1.83414C60.8745 11.6932 60.8745 27.3065 51.3687 37.1655C50.9541 37.5969 50.9677 38.2827 51.3991 38.6974C51.8304 39.112 52.5163 39.0984 52.9309 38.667C63.2428 27.9693 63.2428 11.0303 52.9309 0.332654Z"></path><path id="Shape_4" d="M15.2161 3.2828C6.48004 12.3304 6.48004 26.672 15.2161 35.7196C15.6304 36.1515 16.3165 36.1659 16.7485 35.7515C17.1805 35.3372 17.1948 34.6511 16.7804 34.2192C8.84743 26.0106 8.84743 12.9917 16.7804 4.78319C17.1948 4.35122 17.1805 3.66516 16.7485 3.25084C16.3165 2.83651 15.6304 2.85082 15.2161 3.2828Z"></path><path id="Shape_5" d="M48.2157 34.2192C47.8014 34.6511 47.8157 35.3372 48.2476 35.7515C48.6796 36.1659 49.3657 36.1515 49.78 35.7196C58.5161 26.672 58.5161 12.3304 49.78 3.2828C49.3657 2.85082 48.6796 2.83651 48.2476 3.25084C47.8157 3.66516 47.8014 4.35122 48.2157 4.78319C56.1487 12.9917 56.1487 26.0106 48.2157 34.2192Z"></path><path id="Shape_6" d="M18.3615 6.23124C11.2128 13.6343 11.2128 25.3695 18.3615 32.7726C18.627 33.0629 19.0289 33.1865 19.4116 33.0955C19.7943 33.0045 20.0976 32.7132 20.204 32.3345C20.3103 31.9557 20.203 31.5491 19.9237 31.2722C13.5814 24.7069 13.5814 14.297 19.9237 7.73164C20.203 7.4547 20.3103 7.04808 20.204 6.66936C20.0976 6.29063 19.7943 5.99933 19.4116 5.90832C19.0289 5.81732 18.627 5.94092 18.3615 6.23124Z"></path><path id="Shape_7" d="M45.1049 6.19633C44.8978 6.39543 44.7782 6.66868 44.7725 6.95595C44.7668 7.24323 44.8755 7.52099 45.0746 7.72814C51.4168 14.2935 51.4168 24.7034 45.0746 31.2687C44.7952 31.5456 44.6879 31.9522 44.7943 32.331C44.9006 32.7097 45.2039 33.001 45.5866 33.092C45.9693 33.183 46.3713 33.0594 46.6368 32.7691C53.7854 25.3661 53.7854 13.6308 46.6368 6.22774C46.4378 6.02043 46.1646 5.90065 45.8774 5.89476C45.5901 5.88887 45.3122 5.99735 45.1049 6.19633Z"></path><path id="Shape_8" d="M41.9627 29.8637C42.1701 30.0626 42.448 30.1708 42.7353 30.1648C43.0226 30.1587 43.2957 30.0387 43.4945 29.8312C49.0526 24.0639 49.0526 14.9331 43.4945 9.1658C43.2267 8.88636 42.8301 8.77103 42.4542 8.86326C42.0783 8.95549 41.7801 9.24125 41.672 9.61292C41.564 9.98458 41.6624 10.3857 41.9302 10.6651C46.6855 15.5941 46.6855 23.4029 41.9302 28.3319C41.7313 28.5393 41.6231 28.8173 41.6292 29.1045C41.6352 29.3918 41.7552 29.6649 41.9627 29.8637Z"></path><path id="Shape_9" d="M23.0324 9.13331C22.825 8.93447 22.547 8.82618 22.2598 8.83228C21.9725 8.83837 21.6994 8.95835 21.5006 9.16581C15.9425 14.9331 15.9425 24.0639 21.5006 29.8312C21.9146 30.2632 22.6004 30.2778 23.0324 29.8637C23.4644 29.4497 23.4789 28.7639 23.0649 28.3319C18.3096 23.4029 18.3096 15.5941 23.0649 10.6651C23.2638 10.4577 23.372 10.1798 23.3659 9.89248C23.3598 9.60521 23.2399 9.33212 23.0324 9.13331Z"></path></g></g></g><defs><clipPath id="clip0_2787_1915"><rect width="65" height="65" fill="white"></rect></clipPath></defs></svg>