<svg xmlns="http://www.w3.org/2000/svg" width="65" height="65" viewBox="0 0 65 65" fill="none"><g id="014-satellite"><g id="Page-1"><g id="014---Satellite-Dish"><path id="Shape" d="M58.4999 32.4988C58.4999 27.8264 46.9082 25.3553 35.7499 24.9685V20.1683C37.2863 18.4262 37.1758 15.7824 35.4994 14.1746C33.823 12.5668 31.1769 12.5668 29.5005 14.1746C27.824 15.7824 27.7135 18.4262 29.2499 20.1683V24.9685C18.0916 25.3553 6.5 27.8264 6.5 32.4988C6.5 40.1612 15.0312 46.5962 26.4658 48.3024C26.43 48.3912 26.3889 48.4768 26.3575 48.5689L23.0522 58.4987H20.5833C18.7884 58.4987 17.3333 59.9538 17.3333 61.7487C17.3333 63.5436 18.7884 64.9987 20.5833 64.9987H44.4166C46.2115 64.9987 47.6666 63.5436 47.6666 61.7487C47.6666 59.9538 46.2115 58.4987 44.4166 58.4987H41.9477L38.6413 48.5678C38.611 48.4768 38.5698 48.3912 38.533 48.3024C49.9687 46.5962 58.4999 40.1601 58.4999 32.4988ZM32.4999 15.1655C33.6966 15.1655 34.6666 16.1355 34.6666 17.3321C34.6666 18.5288 33.6966 19.4988 32.4999 19.4988C31.3033 19.4988 30.3333 18.5288 30.3333 17.3321C30.3333 16.1355 31.3033 15.1655 32.4999 15.1655ZM29.2499 27.1439V31.4154C29.2499 32.0137 29.735 32.4988 30.3333 32.4988C30.9316 32.4988 31.4166 32.0137 31.4166 31.4154V21.5116C32.1243 21.7167 32.8756 21.7167 33.5833 21.5116V31.4154C33.5833 32.0137 34.0683 32.4988 34.6666 32.4988C35.2649 32.4988 35.7499 32.0137 35.7499 31.4154V27.1439C48.5246 27.5902 56.3332 30.5109 56.3332 32.4988C56.3332 34.7077 47.0491 37.9154 32.4999 37.9154C17.9508 37.9154 8.66666 34.7077 8.66666 32.4988C8.66666 30.5109 16.4753 27.5902 29.2499 27.1439ZM45.4999 61.7487C45.4999 62.347 45.0149 62.832 44.4166 62.832H20.5833C19.985 62.832 19.5 62.347 19.5 61.7487C19.5 61.1504 19.985 60.6654 20.5833 60.6654H44.4166C45.0149 60.6654 45.4999 61.1504 45.4999 61.7487ZM36.5852 49.2536L39.664 58.4987H25.3359L28.4147 49.2536C28.499 49.0115 28.6208 48.7841 28.7754 48.5797C29.992 48.6881 31.2346 48.7487 32.4999 48.7487C33.7653 48.7487 35.0079 48.6892 36.2244 48.5797C36.3793 48.784 36.5011 49.0114 36.5852 49.2536ZM32.4999 46.5821C21.5583 46.5821 12.3197 42.2 9.53333 36.2514C14.144 38.7821 23.3588 40.0821 32.4999 40.0821C41.6411 40.0821 50.8559 38.7821 55.4666 36.2514C52.6802 42.2 43.4416 46.5821 32.4999 46.5821Z"></path><path id="Shape_2" d="M30.1894 0.00989779C21.5655 1.23529 15.1596 8.62286 15.168 17.3334C15.168 17.9317 15.653 18.4168 16.2513 18.4168C16.8496 18.4168 17.3346 17.9317 17.3346 17.3334C17.323 9.70604 22.9288 3.23403 30.4798 2.15706C31.0727 2.07689 31.4884 1.53123 31.4082 0.938312C31.328 0.34539 30.7824 -0.0702754 30.1894 0.00989779Z"></path><path id="Shape_3" d="M31.3983 5.30701C31.2887 4.71891 30.7233 4.33092 30.1351 4.44034C23.9484 5.61622 19.4785 11.0346 19.5001 17.332C19.5001 17.9303 19.9851 18.4153 20.5834 18.4153C21.1817 18.4153 21.6667 17.9303 21.6667 17.332C21.6421 12.0762 25.3688 7.55023 30.5316 6.56584C31.1177 6.45622 31.5051 5.89362 31.3983 5.30701Z"></path><path id="Shape_4" d="M24.9154 18.4158C25.5137 18.4158 25.9987 17.9308 25.9987 17.3325C26.0004 14.4416 27.8829 11.8882 30.644 11.0318C31.0203 10.9251 31.3098 10.6238 31.4015 10.2436C31.4933 9.86342 31.3729 9.46329 31.0867 9.19676C30.8004 8.93023 30.3927 8.83868 30.02 8.95725C26.3461 10.093 23.8384 13.487 23.832 17.3325C23.832 17.6198 23.9462 17.8953 24.1493 18.0985C24.3525 18.3017 24.628 18.4158 24.9154 18.4158Z"></path><path id="Shape_5" d="M48.7487 18.4167C49.347 18.4167 49.832 17.9316 49.832 17.3333C49.8404 8.62275 43.4345 1.23518 34.8106 0.00978905C34.427 -0.0420739 34.0449 0.114626 33.8082 0.420862C33.5715 0.727097 33.5162 1.13634 33.6631 1.49444C33.8099 1.85254 34.1367 2.10509 34.5202 2.15695C42.0712 3.23392 47.677 9.70593 47.6654 17.3333C47.6654 17.6207 47.7795 17.8962 47.9827 18.0994C48.1858 18.3025 48.4614 18.4167 48.7487 18.4167Z"></path><path id="Shape_6" d="M34.8642 4.44036C34.2758 4.33087 33.71 4.71913 33.6005 5.30756C33.491 5.896 33.8793 6.46178 34.4677 6.57127C39.6285 7.55529 43.3546 12.0783 43.3326 17.332C43.3326 17.9303 43.8176 18.4153 44.4159 18.4153C45.0142 18.4153 45.4993 17.9303 45.4993 17.332C45.5208 11.0346 41.0509 5.61623 34.8642 4.44036Z"></path><path id="Shape_7" d="M34.3542 11.0318C37.1153 11.8882 38.9978 14.4416 38.9995 17.3325C38.9995 17.9308 39.4845 18.4158 40.0828 18.4158C40.6811 18.4158 41.1661 17.9308 41.1661 17.3325C41.1598 13.487 38.6521 10.093 34.9782 8.95725C34.6054 8.83868 34.1978 8.93023 33.9115 9.19676C33.6253 9.46329 33.5049 9.86342 33.5966 10.2436C33.6884 10.6238 33.9779 10.9251 34.3542 11.0318Z"></path></g></g></g></svg>