<svg xmlns="http://www.w3.org/2000/svg" width="65" height="65" viewBox="0 0 65 65" fill="none"><g id="012-wi-fi"><g id="Page-1"><g id="012---Range-Extender"><path id="Shape" d="M23.8333 33.5846H24.9167C25.515 33.5846 26 33.0996 26 32.5013C26 31.903 25.515 31.418 24.9167 31.418H23.8333C23.235 31.418 22.75 31.903 22.75 32.5013C22.75 33.0996 23.235 33.5846 23.8333 33.5846Z"></path><path id="Shape_2" d="M29.2513 33.5846H30.3346C30.9329 33.5846 31.418 33.0996 31.418 32.5013C31.418 31.903 30.9329 31.418 30.3346 31.418H29.2513C28.653 31.418 28.168 31.903 28.168 32.5013C28.168 33.0996 28.653 33.5846 29.2513 33.5846Z"></path><path id="Shape_3" d="M34.6693 33.5846H35.7526C36.3509 33.5846 36.8359 33.0996 36.8359 32.5013C36.8359 31.903 36.3509 31.418 35.7526 31.418H34.6693C34.071 31.418 33.5859 31.903 33.5859 32.5013C33.5859 33.0996 34.071 33.5846 34.6693 33.5846Z"></path><path id="Shape_4" d="M40.0833 33.5846H41.1667C41.765 33.5846 42.25 33.0996 42.25 32.5013C42.25 31.903 41.765 31.418 41.1667 31.418H40.0833C39.485 31.418 39 31.903 39 32.5013C39 33.0996 39.485 33.5846 40.0833 33.5846Z"></path><path id="Shape_5" d="M32.5026 56.3333C37.2891 56.3333 41.1693 52.4531 41.1693 47.6667C41.1693 42.8802 37.2891 39 32.5026 39C27.7161 39 23.8359 42.8802 23.8359 47.6667C23.8413 52.4509 27.7184 56.328 32.5026 56.3333ZM26.1001 48.75H28.205C28.2743 50.2675 28.5757 51.7654 29.0988 53.1917C27.5075 52.2107 26.4151 50.5926 26.1001 48.75ZM32.5026 41.1667C33.1949 41.1667 34.3995 43.2055 34.6227 46.5833H30.3825C30.6057 43.2055 31.8104 41.1667 32.5026 41.1667ZM34.6227 48.75C34.3995 52.1278 33.1949 54.1667 32.5026 54.1667C31.8104 54.1667 30.6057 52.1278 30.3825 48.75H34.6227ZM35.9064 53.1917C36.4295 51.7654 36.7309 50.2675 36.8002 48.75H38.9051C38.5901 50.5926 37.4977 52.2107 35.9064 53.1917ZM38.9051 46.5833H36.8002C36.7309 45.0658 36.4295 43.5679 35.9064 42.1417C37.4977 43.1226 38.5901 44.7407 38.9051 46.5833ZM29.0988 42.1417C28.5757 43.5679 28.2743 45.0658 28.205 46.5833H26.1001C26.4151 44.7407 27.5075 43.1226 29.0988 42.1417Z"></path><path id="Shape_6" d="M10.8346 35.75H18.418V61.75C18.418 63.5449 19.873 65 21.668 65H43.3346C45.1296 65 46.5846 63.5449 46.5846 61.75V35.75H54.168C55.3646 35.75 56.3346 34.78 56.3346 33.5833V31.4167C56.3323 30.6461 55.9195 29.9351 55.2513 29.5512V3.25C55.2513 1.45507 53.7962 0 52.0013 0C50.2064 0 48.7513 1.45507 48.7513 3.25V29.25H46.5846C46.5846 27.4551 45.1296 26 43.3346 26H21.668C19.873 26 18.418 27.4551 18.418 29.25H16.2513V3.25C16.2513 1.45507 14.7962 0 13.0013 0C11.2064 0 9.7513 1.45507 9.7513 3.25V29.5512C9.08315 29.9351 8.67029 30.6461 8.66797 31.4167V33.5833C8.66797 34.78 9.63802 35.75 10.8346 35.75ZM50.918 3.25C50.918 2.65169 51.403 2.16667 52.0013 2.16667C52.5996 2.16667 53.0846 2.65169 53.0846 3.25V29.25H50.918V3.25ZM49.8346 31.4167H54.168V33.5833H46.5846V31.4167H49.8346ZM20.5846 29.25C20.5846 28.6517 21.0697 28.1667 21.668 28.1667H43.3346C43.9329 28.1667 44.418 28.6517 44.418 29.25V61.75C44.418 62.3483 43.9329 62.8333 43.3346 62.8333H21.668C21.0697 62.8333 20.5846 62.3483 20.5846 61.75V29.25ZM18.418 33.5833H10.8346V31.4167H18.418V33.5833ZM11.918 3.25C11.918 2.65169 12.403 2.16667 13.0013 2.16667C13.5996 2.16667 14.0846 2.65169 14.0846 3.25V29.25H11.918V3.25Z"></path><path id="Shape_7" d="M45.5016 11.1191C45.9341 11.1193 46.3252 10.8622 46.4966 10.4652C46.6681 10.0682 46.587 9.60723 46.2903 9.29258C42.7397 5.441 37.7401 3.25 32.5016 3.25C27.2632 3.25 22.2635 5.441 18.713 9.29258C18.4475 9.57435 18.3524 9.97635 18.4637 10.3472C18.575 10.718 18.8756 11.0013 19.2524 11.0903C19.6291 11.1794 20.0248 11.0607 20.2903 10.7789C23.431 7.36138 27.8601 5.41634 32.5016 5.41634C37.1432 5.41634 41.5723 7.36138 44.713 10.7789C44.9178 10.9961 45.2031 11.1192 45.5016 11.1191Z"></path><path id="Shape_8" d="M42.6113 14.1838C43.0438 14.1839 43.4349 13.9269 43.6063 13.5299C43.7777 13.1329 43.6966 12.6719 43.4 12.3573C40.593 9.31344 36.6411 7.58203 32.5006 7.58203C28.36 7.58203 24.4081 9.31344 21.6011 12.3573C21.33 12.6379 21.2308 13.0426 21.3412 13.4168C21.4517 13.791 21.7549 14.0769 22.1349 14.1652C22.515 14.2536 22.9132 14.1307 23.1774 13.8436C25.5751 11.234 28.9567 9.74875 32.5006 9.74875C36.0444 9.74875 39.426 11.234 41.8237 13.8436C42.0283 14.0605 42.3132 14.1836 42.6113 14.1838Z"></path><path id="Shape_9" d="M39.7245 17.2485C40.1568 17.2482 40.5475 16.991 40.7187 16.5941C40.8898 16.1972 40.8086 15.7365 40.5121 15.422C38.4487 13.1859 35.5446 11.9141 32.5019 11.9141C29.4593 11.9141 26.5552 13.1859 24.4918 15.422C24.2207 15.7026 24.1214 16.1073 24.2319 16.4815C24.3424 16.8557 24.6455 17.1416 25.0256 17.2299C25.4056 17.3183 25.8038 17.1954 26.068 16.9083C27.7221 15.1064 30.056 14.0808 32.5019 14.0808C34.9479 14.0808 37.2818 15.1064 38.9358 16.9083C39.1406 17.1255 39.426 17.2486 39.7245 17.2485Z"></path><path id="Shape_10" d="M27.3809 18.486C26.9705 18.9215 26.9909 19.6074 27.4264 20.0178C27.862 20.4283 28.5478 20.4079 28.9583 19.9723C29.8677 18.9764 31.1542 18.409 32.5029 18.409C33.8516 18.409 35.1381 18.9764 36.0476 19.9723C36.3131 20.2541 36.7088 20.3728 37.0855 20.2837C37.4623 20.1947 37.7629 19.9114 37.8742 19.5406C37.9855 19.1698 37.8904 18.7677 37.6249 18.486C36.3057 17.0557 34.4486 16.2422 32.5029 16.2422C30.5572 16.2422 28.7001 17.0557 27.3809 18.486Z"></path></g></g></g></svg>